<?xml version="1.0" encoding="UTF-8"?>
<svg version="1.1" xmlns="http://www.w3.org/2000/svg" width="513" height="384">
<path d="M0 0 C1.57928627 -0.00376831 3.1585677 -0.01060952 4.73782897 -0.02026224 C9.08044217 -0.03787692 13.4218684 -0.01176644 17.76435041 0.02139235 C22.44599927 0.04953163 27.12756176 0.03730928 31.80926514 0.02999878 C40.98062962 0.02198837 50.15152451 0.05103347 59.32278612 0.09203738 C69.99408177 0.13812827 80.66529739 0.14557499 91.33667848 0.15080565 C110.3690672 0.16125171 129.4012469 0.20370177 148.43353271 0.26550293 C166.92051116 0.32547842 185.40740459 0.36795339 203.89447021 0.3885498 C205.0336235 0.38982347 206.1727768 0.39109713 207.34644988 0.39240938 C211.92471358 0.3974744 216.50297736 0.40246203 221.08124126 0.40733603 C241.86047067 0.42978181 262.63968022 0.46572271 283.41888428 0.50476074 C285.00527362 0.50768155 285.00527362 0.50768155 286.62371123 0.51066136 C299.82792445 0.53510384 313.03209648 0.56570334 326.23626709 0.6073494 C329.92215554 0.61881589 333.60803831 0.62798508 337.29393768 0.6350975 C341.52511325 0.64336822 345.75624715 0.65628808 349.98739716 0.67310089 C351.52493539 0.67842067 353.06248054 0.68204378 354.60002688 0.6838761 C356.67617957 0.68663129 358.75221652 0.69543909 360.82834244 0.70590973 C361.98567768 0.70932452 363.14301293 0.71273931 364.33541894 0.71625757 C366.90325928 0.84851074 366.90325928 0.84851074 367.90325928 1.84851074 C368.0020169 3.87523637 368.0288163 5.90547053 368.02910042 7.93460083 C368.03055386 8.58041383 368.0320073 9.22622682 368.03350478 9.89160991 C368.03719015 12.08250735 368.03366672 14.27333632 368.03024292 16.4642334 C368.03139374 18.04005787 368.032981 19.61588207 368.03497016 21.1917057 C368.03916888 25.54292415 368.03707037 29.89412084 368.03398395 34.24533939 C368.03173226 38.92977615 368.0352083 43.61420902 368.03796387 48.29864502 C368.04242305 57.48373817 368.04144444 66.66882317 368.03855123 75.85391665 C368.03629777 83.31527047 368.03598442 90.77662201 368.03707504 98.23797607 C368.03730489 99.82762175 368.03730489 99.82762175 368.03753939 101.44938147 C368.03785909 103.60190821 368.03818331 105.75443494 368.03851198 107.90696168 C368.0413672 128.11676988 368.03807908 148.32657355 368.03271161 168.53638101 C368.02824353 185.89758798 368.02901945 203.25878827 368.03363037 220.61999512 C368.03897538 240.75483244 368.04109251 260.88966578 368.03801811 281.02450371 C368.03769954 283.16935094 368.03738517 285.31419818 368.03707504 287.45904541 C368.03692077 288.51449983 368.03676649 289.56995425 368.03660754 290.65739214 C368.03574217 298.1144302 368.0372057 305.57146575 368.0395546 313.02850342 C368.04235199 322.10946643 368.04161563 331.19042079 368.03627385 340.27138281 C368.03363601 344.90937877 368.03263317 349.54736027 368.035923 354.18535614 C368.03888428 358.42408077 368.03729601 362.66277745 368.03194545 366.90149951 C368.03082054 368.4418538 368.03141407 369.9822104 368.03382124 371.52256322 C368.03682449 373.60255017 368.03378154 375.682439 368.02910042 377.76242065 C368.02893807 378.92192419 368.02877571 380.08142773 368.02860844 381.27606773 C367.90325928 383.84851074 367.90325928 383.84851074 366.90325928 384.84851074 C364.88718134 384.96173548 362.86709123 385.0035789 360.84789562 385.01904488 C360.20537819 385.02529186 359.56286075 385.03153885 358.90087309 385.03797513 C356.72111308 385.05785915 354.54137018 385.07050454 352.36155701 385.0831604 C350.7935694 385.09575554 349.22558491 385.10874478 347.65760356 385.1220969 C343.32765554 385.15751044 338.99768481 385.18628669 334.66768014 385.21378016 C330.95869392 385.23806482 327.24973811 385.26597969 323.54077651 385.29373647 C288.36871525 385.55530508 253.19583904 385.69704093 218.02302837 385.81144905 C213.44168184 385.82661693 208.86033639 385.84207444 204.2789917 385.85778809 C202.57093927 385.86362875 202.57093927 385.86362875 200.82838074 385.86958741 C182.3935183 385.93444151 163.95961874 386.06226208 145.52529147 386.21424378 C126.60431189 386.36894169 107.68383347 386.45911382 88.76223975 386.48868549 C77.08923165 386.50889145 65.41871417 386.57877478 53.74644498 386.71244417 C45.74029031 386.79923706 37.73548049 386.82301335 29.72890236 386.79754736 C25.11009876 386.78468456 20.49572862 386.79919093 15.8776741 386.88846207 C-13.2875951 387.42427844 -13.2875951 387.42427844 -19.85754967 381.13723373 C-22.66056094 377.65667986 -24.58143226 374.01725461 -26.23547876 369.87996078 C-27.46412242 366.9819712 -29.22953752 364.56631202 -31.09283447 362.04382324 C-32.24138623 360.35468127 -33.38853671 358.66458557 -34.53424072 356.97351074 C-35.80884372 355.09841789 -37.0835859 353.22341964 -38.35845947 351.34851074 C-38.98284912 350.42940918 -39.60723877 349.51030762 -40.25054932 348.56335449 C-43.10806664 344.36134542 -45.97652575 340.16685312 -48.84674072 335.97351074 C-49.37888184 335.19596436 -49.91102295 334.41841797 -50.45928955 333.61730957 C-55.21463942 326.67169675 -59.98230883 319.73458616 -64.75396729 312.8001709 C-67.03582591 309.4835931 -69.31619828 306.16599364 -71.59674072 302.84851074 C-72.51340048 301.51517266 -73.43006715 300.18183932 -74.34674072 298.84851074 C-87.18007406 280.18184408 -100.01340739 261.51517741 -112.84674072 242.84851074 C-113.30032959 242.18875244 -113.75391846 241.52899414 -114.22125244 240.84924316 C-115.13957433 239.51348741 -116.05786852 238.17771262 -116.97613525 236.84191895 C-119.6905918 232.89331257 -122.40554651 228.94505157 -125.12286377 224.99841309 C-126.01943807 223.69403947 -126.91414521 222.3883804 -127.8069458 221.0814209 C-130.39181968 217.30149972 -133.01508897 213.55387948 -135.67877197 209.82897949 C-136.27834717 208.97989014 -136.87792236 208.13080078 -137.4956665 207.25598145 C-138.66380229 205.6019994 -139.84274703 203.95558406 -141.03375244 202.31799316 C-143.24376799 199.16692356 -144.9124915 196.60928171 -145.82330322 192.84851074 C-144.69531901 188.19102756 -142.07654474 184.81283135 -139.28424072 180.97351074 C-138.08235055 179.27173532 -136.88052869 177.56991166 -135.67877197 175.86804199 C-135.07371826 175.02193359 -134.46866455 174.1758252 -133.84527588 173.30407715 C-131.34132666 169.78764022 -128.90663418 166.22542051 -126.47174072 162.66101074 C-125.57381417 161.35466981 -124.67537804 160.04867899 -123.77642822 158.74304199 C-121.04871394 154.77898972 -118.32262196 150.81382365 -115.59674072 146.84851074 C-114.68008096 145.51517266 -113.7634143 144.18183932 -112.84674072 142.84851074 C-112.16611572 141.85851074 -112.16611572 141.85851074 -111.47174072 140.84851074 C-85.34674072 102.84851075 -85.34674072 102.84851075 -83.972229 100.84924316 C-83.05390711 99.51348741 -82.13561292 98.17771262 -81.21734619 96.84191895 C-78.95122916 93.5454933 -76.68466013 90.24938047 -74.41705322 86.95397949 C-69.46690692 79.7589994 -64.52651291 72.55746837 -59.59674072 65.34851074 C-54.22321084 57.49063259 -48.83585062 49.64239982 -43.43951416 41.8001709 C-41.61722012 39.15154934 -39.79589972 36.50225903 -37.97467041 33.85290527 C-37.06136923 32.52437893 -36.14795906 31.19592751 -35.23443604 29.86755371 C-32.86624444 26.42375899 -30.49974918 22.97881521 -28.13580322 19.53210449 C-27.64789307 18.82118652 -27.15998291 18.11026855 -26.6572876 17.37780762 C-25.73357239 16.0318226 -24.81035487 14.68549581 -23.88775635 13.33874512 C-23.46429932 12.72192871 -23.04084229 12.1051123 -22.60455322 11.46960449 C-22.23990967 10.93778564 -21.87526611 10.4059668 -21.49957275 9.85803223 C-21.03663818 9.19489014 -20.57370361 8.53174805 -20.09674072 7.84851074 C-19.55417759 6.6695649 -19.01161446 5.49061905 -18.45261002 4.27594757 C-14.22449645 -1.53728885 -6.47520174 -0.08937751 0 0 Z M-19.78922766 20.47982198 C-20.55414705 22.12033333 -21.29045448 23.77453543 -21.99541247 25.44169271 C-23.76245046 29.30333786 -26.23008102 32.61614006 -28.72174072 36.03601074 C-29.62366931 37.33959179 -30.52254981 38.64529222 -31.41705322 39.95397949 C-31.85823486 40.59512695 -32.2994165 41.23627441 -32.75396729 41.89685059 C-35.03582591 45.21342838 -37.31619828 48.53102784 -39.59674072 51.84851074 C-40.51340048 53.18184882 -41.43006715 54.51518216 -42.34674072 55.84851074 C-42.80049072 56.50851074 -43.25424072 57.16851074 -43.72174072 57.84851074 C-80.84674072 111.84851074 -80.84674072 111.84851074 -82.22125244 113.84777832 C-83.13957433 115.18353407 -84.05786852 116.51930887 -84.97613525 117.85510254 C-87.24225229 121.15152819 -89.50882132 124.44764101 -91.77642822 127.74304199 C-96.72657453 134.93802209 -101.66696853 142.13955311 -106.59674072 149.34851074 C-110.18106939 154.58998489 -113.76692896 159.83035937 -117.36505127 165.06237793 C-118.26090695 166.36561661 -119.15562422 167.66963866 -120.0491333 168.9744873 C-122.41339104 172.4230711 -124.8028362 175.85091313 -127.22564697 179.25866699 C-127.73724365 179.98481201 -128.24884033 180.71095703 -128.77593994 181.45910645 C-129.75821154 182.85238032 -130.74778221 184.2405459 -131.7456665 185.62268066 C-134.16117784 189.06524935 -135.09674072 190.52441193 -135.09674072 194.84851074 C-133.56720545 197.36913753 -132.00511453 199.7150545 -130.28424072 202.09851074 C-129.26706833 203.54104613 -128.25014815 204.98375939 -127.23345947 206.42663574 C-126.44914551 207.52975098 -126.44914551 207.52975098 -125.64898682 208.65515137 C-123.2619297 212.02811788 -120.93058106 215.43861611 -118.59674072 218.84851074 C-117.67778123 220.1859643 -116.75850956 221.52320342 -115.83892822 222.86022949 C-115.38485596 223.52071289 -114.93078369 224.18119629 -114.46295166 224.86169434 C-113.1146941 226.82240199 -111.76594204 228.78276857 -110.41705322 230.74304199 C-104.91155608 238.74521807 -99.42039684 246.75706069 -93.93756104 254.77478027 C-89.11639573 261.82340978 -84.28043499 268.86177974 -79.43951416 275.89685059 C-77.15765553 279.21342838 -74.87728317 282.53102784 -72.59674072 285.84851074 C-71.68008096 287.18184882 -70.7634143 288.51518216 -69.84674072 289.84851074 C-57.01340739 308.51517741 -44.18007406 327.18184408 -31.34674072 345.84851074 C-30.89226562 346.50955811 -30.43779053 347.17060547 -29.96954346 347.85168457 C-29.06017333 349.17441945 -28.15083053 350.49717311 -27.24151611 351.81994629 C-24.83844519 355.31559677 -22.43479009 358.81084379 -20.03033447 362.30554199 C-19.52888916 363.03450684 -19.02744385 363.76347168 -18.51080322 364.51452637 C-17.54873815 365.91308393 -16.58650684 367.31152715 -15.62408447 368.70983887 C-13.76524685 371.41234535 -11.91622775 374.11928021 -10.09674072 376.84851074 C-7.35546054 377.30139871 -7.35546054 377.30139871 -4.07221794 377.21765423 C-2.77937948 377.22362737 -1.48654102 377.22960052 -0.15452564 377.23575467 C1.29378423 377.22719439 2.74209249 377.21835757 4.19039917 377.20927429 C5.71830305 377.21058136 7.24620628 377.21320596 8.77410591 377.21704179 C12.98825481 377.22377812 17.20217676 377.21171112 21.41629672 377.19670761 C25.95481808 377.18379662 30.49332581 377.18813319 35.03186035 377.19041443 C42.90034156 377.1919903 50.76874836 377.18254838 58.63721085 377.16570091 C70.0137864 377.1413579 81.39032583 377.13351046 92.7669246 377.12973694 C111.22303445 377.12316506 129.67910459 377.10318396 148.13519287 377.0748291 C166.06748254 377.04730756 183.99976139 377.02609905 201.93206787 377.01330566 C203.04800799 377.01250167 204.16394812 377.01169768 205.31370461 377.01086932 C214.04061076 377.00463135 222.76751715 376.99876047 231.49442363 376.99300563 C274.29740527 376.96468571 317.1002876 376.90433531 359.90325928 376.84851074 C359.90325928 255.40851074 359.90325928 133.96851074 359.90325928 8.84851074 C294.45915523 8.29491379 294.45915523 8.29491379 229.0145874 7.92077637 C220.18849013 7.88357785 211.36239925 7.84518899 202.53631592 7.80480957 C201.43013871 7.79979834 200.3239615 7.79478712 199.18426377 7.78962404 C181.33497218 7.70702787 163.48684577 7.55726129 145.63824467 7.38260762 C127.31510352 7.20480837 108.99257149 7.09936967 90.66860312 7.06082934 C79.36458699 7.03478116 68.06386265 6.95258556 56.76086023 6.79809787 C49.00552765 6.69751108 41.25189166 6.66733997 33.49595443 6.69198457 C29.02232491 6.70413659 24.55443554 6.68579134 20.08183289 6.58360672 C-3.58697905 5.3394533 -3.58697905 5.3394533 -19.78922766 20.47982198 Z " fill="#000000" transform="translate(145.09674072265625,-0.8485107421875)"/>
</svg>
