<?xml version="1.0" encoding="UTF-8"?>
<svg version="1.1" xmlns="http://www.w3.org/2000/svg" width="392" height="391">
<path d="M0 0 C4.43497049 -0.52451807 7.35992848 0.30640444 11.30119324 2.28646851 C12.32533829 2.79369446 13.34948334 3.30092041 14.40466309 3.82351685 C16.06676819 4.66956985 16.06676819 4.66956985 17.76245117 5.53271484 C18.94225052 6.12137329 20.12204987 6.71003174 21.33760071 7.31652832 C24.57118889 8.93032771 27.79713399 10.55889026 31.02187133 12.19028807 C34.41737544 13.90500964 37.81957901 15.60633667 41.22102356 17.30923462 C46.94714228 20.17827576 52.66881902 23.05600867 58.38745117 25.93994141 C66.38609008 29.9736752 74.39248711 33.99180495 82.40058935 38.00671077 C88.67876501 41.15503352 94.95480144 44.3076184 101.23046875 47.4609375 C101.89094011 47.7927589 102.55141147 48.1245803 103.23189712 48.46645689 C107.07815944 50.3991746 110.92328142 52.33413354 114.76693535 54.27203369 C116.45522823 55.12284828 118.14432195 55.97207319 119.83346558 56.82119751 C126.27751126 60.07373237 132.67391617 63.40445853 139.0539093 66.78042603 C149.15520051 72.11837343 159.35772072 77.24252299 169.58203125 82.33984375 C171.56392262 83.32982673 173.54572115 84.31999558 175.5274353 85.31033325 C179.75374661 87.42192342 183.98067288 89.53227541 188.20809937 91.64163208 C194.91174912 94.98662073 201.61381841 98.33476771 208.31567383 101.68334961 C217.72582623 106.38477512 227.1365346 111.08508589 236.54785156 115.78417969 C237.14220855 116.08094427 237.73656554 116.37770886 238.34893334 116.68346632 C242.56593529 118.78901813 246.78296447 120.89451542 251 123 C255.81740161 125.40523579 260.63479087 127.8104963 265.45214844 130.21582031 C266.04576113 130.51221259 266.63937382 130.80860488 267.25097477 131.11397874 C277.20215155 136.08268845 287.15251261 141.0530299 297.10233212 146.02445698 C303.74548818 149.3435651 310.38961013 152.66072889 317.03451538 155.97633362 C321.18786351 158.04924146 325.34035591 160.1238591 329.49263382 162.19890976 C331.39680365 163.15006973 333.30131447 164.10054746 335.20621872 165.05023575 C346.20755873 170.53546461 357.1411378 176.12886639 368.00161743 181.88838196 C372.69348821 184.37485065 377.42683903 186.7731896 382.1875 189.125 C382.96029297 189.50914062 383.73308594 189.89328125 384.52929688 190.2890625 C386.35187946 191.1946936 388.17576969 192.09769254 390 193 C390.5 195.6875 390.5 195.6875 390 199 C382.82934863 204.1803531 374.61816115 207.82711579 366.71484375 211.7578125 C365.21181321 212.50872961 363.70893227 213.25994623 362.20619202 214.01144409 C359.05625496 215.58563287 355.90500097 217.15714198 352.75268555 218.7265625 C348.78480833 220.70211268 344.81949835 222.68274623 340.85512447 224.66531563 C337.74536204 226.22005815 334.63454462 227.77268031 331.52340889 229.3246727 C330.06570593 230.05197127 328.60821799 230.77970102 327.15098381 231.50793839 C318.4972901 235.8300705 309.80396392 240.05770625 301.06860352 244.21240234 C289.35786647 249.78912232 277.75159102 255.56561596 266.15887451 261.38298035 C262.51398226 263.2119578 258.86777098 265.03828176 255.22119141 266.8638916 C247.47957724 270.74016717 239.73968509 274.61987446 232 278.5 C223.6336771 282.69427699 215.26701777 286.88787583 206.89837456 291.0775218 C202.73008166 293.16448796 198.5633702 295.25458858 194.39697266 297.34533691 C183.2051281 302.95376297 171.9794134 308.47127657 160.67230225 313.8434906 C150.09703111 318.88142061 139.62822984 324.12933209 129.15887451 329.38298035 C125.51398226 331.2119578 121.86777098 333.03828176 118.22119141 334.8638916 C110.47957724 338.74016717 102.73968509 342.61987446 95 346.5 C86.6336771 350.69427699 78.26701777 354.88787583 69.89837456 359.0775218 C65.73008166 361.16448796 61.5633702 363.25458858 57.39697266 365.34533691 C45.88683861 371.11322209 34.34734567 376.80478749 22.71347046 382.31954193 C21.84461212 382.73153084 20.97575378 383.14351974 20.08056641 383.56799316 C19.24301819 383.96452591 18.40546997 384.36105865 17.5425415 384.76960754 C14.04903205 386.46019457 10.6054967 388.2453405 7.16708374 390.04506683 C4.33585391 391.29265834 2.04628611 391.4686594 -1 391 C-2.8256556 389.1743444 -2.12716324 386.29251792 -2.12863445 383.84140968 C-2.13038749 383.18775401 -2.13214053 382.53409834 -2.13394669 381.86063492 C-2.13864461 379.6430415 -2.13613154 377.42551256 -2.13371277 375.20791626 C-2.13557884 373.61289299 -2.13787872 372.01787018 -2.14057809 370.42284811 C-2.14672778 366.01848505 -2.1465588 361.61414087 -2.14538372 357.20977449 C-2.1451805 352.46803777 -2.15069085 347.72630724 -2.15544128 342.98457336 C-2.16376582 333.68651452 -2.16649694 324.38846201 -2.16705366 315.09039976 C-2.16752799 307.53609948 -2.16957854 299.9818013 -2.17275429 292.42750168 C-2.18156592 271.03298226 -2.18617289 249.63846787 -2.18542381 228.24394663 C-2.18538386 227.08933291 -2.1853439 225.9347192 -2.18530273 224.74511719 C-2.18526185 223.5891017 -2.18522097 222.43308622 -2.18517885 221.24203996 C-2.18477228 202.50089467 -2.1943434 183.75976946 -2.2084411 165.01862998 C-2.22278581 145.79820148 -2.22971233 126.57778279 -2.22884732 107.3573488 C-2.22851469 96.55737293 -2.23129091 85.75741811 -2.24202538 74.95744705 C-2.25110539 65.76271593 -2.25332632 56.56801539 -2.24651595 47.37328173 C-2.24323799 42.67831394 -2.24323971 37.98340491 -2.2518692 33.28844261 C-2.25967924 28.9953082 -2.25835964 24.70227968 -2.24958507 20.40914802 C-2.24803785 18.8512609 -2.24991165 17.29336608 -2.25544515 15.73548801 C-2.26244187 13.62695238 -2.25726215 11.51879481 -2.24888897 9.4102726 C-2.24910634 8.23633969 -2.24932371 7.06240678 -2.24954766 5.85290015 C-2 3 -2 3 0 0 Z M7 11 C6.86948317 40.3896703 6.74188881 69.77935236 6.61781773 99.16905057 C6.60281602 102.72207546 6.58779193 106.27510026 6.57275391 109.828125 C6.56976329 110.53480498 6.56677268 111.24148495 6.56369144 111.96957947 C6.52236082 121.72516796 6.47985195 131.48075062 6.43630803 141.23632947 C6.3607004 158.1757695 6.28767759 175.11521889 6.21875 192.0546875 C6.21600838 192.72716141 6.21326676 193.39963531 6.21044207 194.09248722 C5.95838096 256.06170902 5.94438845 318.03035056 6 380 C11.55521864 377.36921022 17.11021116 374.73794364 22.6649704 372.10618401 C24.54289862 371.21654468 26.42098978 370.32724929 28.2991333 369.43806458 C42.56992071 362.67534446 56.72670082 355.69980749 70.84112549 348.61701965 C74.48601774 346.7880422 78.13222902 344.96171824 81.77880859 343.1361084 C89.52042276 339.25983283 97.26031491 335.38012554 105 331.5 C113.3663229 327.30572301 121.73298223 323.11212417 130.10162544 318.9224782 C134.26991834 316.83551204 138.4366298 314.74541142 142.60302734 312.65466309 C153.7948719 307.04623703 165.0205866 301.52872343 176.32769775 296.1565094 C186.90296889 291.11857939 197.37177016 285.87066791 207.84112549 280.61701965 C211.48601774 278.7880422 215.13222902 276.96171824 218.77880859 275.1361084 C226.52042276 271.25983283 234.26031491 267.38012554 242 263.5 C250.3663229 259.30572301 258.73298223 255.11212417 267.10162544 250.9224782 C271.26991834 248.83551204 275.4366298 246.74541142 279.60302734 244.65466309 C291.07120706 238.90775756 302.57410335 233.25034261 314.15799809 227.74015331 C321.50017973 224.24741903 328.79321924 220.66986536 336.05859375 217.01953125 C337.22463638 216.43580246 338.39067902 215.85207367 339.59205627 215.25065613 C342.59949169 213.74508566 345.6057162 212.23711465 348.6116333 210.72851562 C351.71622522 209.17097875 354.8220415 207.61588696 357.92773438 206.06054688 C363.95297663 203.04266361 369.97693446 200.02222512 376 197 C372.40486486 194.04766375 368.39086873 192.02162811 364.26522827 189.92668152 C363.09901455 189.3291421 363.09901455 189.3291421 361.90924096 188.71953118 C359.32095795 187.39510753 356.72970738 186.0766148 354.13818359 184.75854492 C352.29253798 183.8167748 350.44693944 182.87491239 348.60138512 181.93296337 C328.42107124 171.64612765 308.15877828 161.52293867 287.89044619 151.41099191 C282.56551463 148.75364469 277.24196979 146.09352227 271.91830444 143.43363953 C258.48841804 136.72415891 245.05679943 130.01814988 231.625 123.3125 C217.03267803 116.02742859 202.44069658 108.74167887 187.85065687 101.45203751 C181.56709502 98.31271837 175.28257036 95.17533828 168.99724698 92.03954756 C165.082089 90.08573586 161.16778766 88.13021264 157.25370026 86.17425728 C155.46239119 85.27952661 153.67074164 84.3854772 151.87869644 83.49222183 C142.06711444 78.60108875 132.31338107 73.6187955 122.62253261 68.49229139 C116.43456716 65.21999066 110.20853798 62.03282745 103.94482422 58.90771484 C102.89027039 58.37956177 101.83571655 57.85140869 100.74920654 57.30725098 C97.35201906 55.60650156 93.95342038 53.90859625 90.5546875 52.2109375 C88.16279363 51.01465297 85.77095908 49.8182504 83.37918091 48.62173462 C78.41317039 46.13782926 73.44633565 43.65557839 68.47900391 41.17431641 C62.73625255 38.30568774 56.99497752 35.43412052 51.2544173 32.5611099 C46.29598283 30.07962905 41.33677621 27.59969673 36.37691128 25.12107623 C33.42624233 23.64652068 30.47592475 22.17127049 27.52614975 20.69492722 C24.26041824 19.06080077 20.9934285 17.42921866 17.72607422 15.79833984 C16.74963959 15.30911041 15.77320496 14.81988098 14.7671814 14.31582642 C13.88453613 13.8759137 13.00189087 13.43600098 12.09249878 12.98275757 C11.32166899 12.59753119 10.5508392 12.2123048 9.75665092 11.81540489 C8.17160488 10.92982774 8.17160488 10.92982774 7 11 Z " fill="#000000" transform="translate(2,0)"/>
</svg>
