<?xml version="1.0" encoding="UTF-8"?>
<svg version="1.1" xmlns="http://www.w3.org/2000/svg" width="300" height="338">
<path d="M0 0 C1.03383379 -0.00521549 2.06766758 -0.01043099 3.13282967 -0.01580453 C4.84962583 -0.00911236 4.84962583 -0.00911236 6.60110474 -0.002285 C7.81013395 -0.00540498 9.01916317 -0.00852497 10.26482964 -0.01173949 C13.63139384 -0.0183592 16.99773642 -0.01594612 20.36428738 -0.00976706 C23.99078083 -0.00525815 27.61725435 -0.01221853 31.2437439 -0.0177269 C38.35223545 -0.02663931 45.46068487 -0.02469069 52.5691781 -0.01890162 C58.34428918 -0.01439238 64.11938841 -0.01376901 69.89450073 -0.01594925 C71.12548848 -0.01640895 71.12548848 -0.01640895 72.38134468 -0.01687793 C74.04828215 -0.01751736 75.71521962 -0.01816578 77.38215709 -0.01882312 C93.02814128 -0.02453182 108.67410207 -0.01796005 124.32008243 -0.00722238 C137.75702997 0.00171362 151.19394297 0.00016173 164.63088989 -0.00905991 C180.21931846 -0.01975301 195.8077265 -0.02398245 211.39615822 -0.01783538 C213.05710474 -0.01719825 214.71805127 -0.01656951 216.3789978 -0.01594925 C217.60495566 -0.01548642 217.60495566 -0.01548642 218.85568035 -0.01501425 C224.62660073 -0.01328442 230.39750814 -0.01620859 236.16842651 -0.02090836 C243.19731133 -0.02650654 250.22615144 -0.02502322 257.25503111 -0.01434687 C260.84409007 -0.00907577 264.4330744 -0.00705771 268.02213287 -0.01364517 C271.90559577 -0.0206654 275.78893535 -0.01230653 279.6723938 -0.002285 C280.81692457 -0.00674645 281.96145535 -0.01120789 283.14066887 -0.01580453 C284.69141955 -0.00798129 284.69141955 -0.00798129 286.27349854 0 C287.17083269 0.0003247 288.06816685 0.00064941 288.99269295 0.00098395 C291.13674927 0.25168228 291.13674927 0.25168228 293.13674927 2.25168228 C293.77125497 6.75339087 293.50798963 8.70337869 290.93362427 12.50558853 C289.93490144 13.62378223 288.91807311 14.72598397 287.88674927 15.81418228 C286.77692086 17.0442421 285.66755867 18.27472269 284.55862427 19.50558853 C283.98821411 20.12707779 283.41780396 20.74856705 282.83010864 21.38888931 C280.19729658 24.28513441 277.67064171 27.26902724 275.13674927 30.25168228 C274.13731313 31.41883202 273.13731133 32.58549762 272.13674927 33.75168228 C271.39424927 34.61793228 271.39424927 34.61793228 270.63674927 35.50168228 C257.13674927 51.25168228 243.63674927 67.00168228 230.13674927 82.75168228 C229.64182983 83.32910172 229.1469104 83.90652115 228.63699341 84.50143814 C227.63623321 85.66896456 226.63541934 86.83644498 225.634552 88.00387955 C223.14574251 90.90701857 220.65784836 93.81093177 218.17190552 96.71652603 C212.46947096 103.37937062 206.74289238 110.02039934 200.99465942 116.64377213 C195.84513178 122.58056706 190.72974693 128.54621683 185.62063599 134.51779556 C183.62786918 136.84629669 181.63324787 139.17320504 179.63845825 141.4999733 C178.63911138 142.66568844 177.63992458 143.83154083 176.64089966 144.99753189 C174.11862325 147.94121653 171.59437301 150.88316859 169.06643677 153.82199478 C168.55467896 154.41754166 168.04292114 155.01308853 167.51565552 155.62668228 C166.5684642 156.72886854 165.62063718 157.83050913 164.67190552 158.93136978 C163.75788888 159.99552748 162.85480436 161.06916049 161.96218967 162.15133286 C160.13674927 164.25168228 160.13674927 164.25168228 157.68019772 166.6865654 C150.09033706 174.68278563 148.71124323 181.13909485 148.95730591 192.05441666 C148.95517057 193.60633903 148.94858257 195.15826059 148.93792725 196.71014786 C148.9212654 200.88826697 148.96511209 205.06376871 149.01967549 209.24147987 C149.06551622 213.62513664 149.05190589 218.0085982 149.04408264 222.39242935 C149.03765898 230.68211337 149.07932921 238.97076159 149.14080185 247.26019335 C149.24922418 262.12529567 149.27066759 276.99071367 149.28134435 291.85616541 C149.28694378 297.07040167 149.31218942 302.28407554 149.35407746 307.4981432 C149.37788486 310.73452814 149.38998113 313.97088895 149.39953995 317.20734406 C149.40672132 318.70861267 149.41914149 320.20986664 149.43715858 321.71104431 C149.46118835 323.75828888 149.46521215 325.80573928 149.46818542 327.85312271 C149.47656465 328.99899605 149.48494387 330.14486938 149.493577 331.32546616 C149.09487403 334.59508606 148.50075415 335.98053049 146.13674927 338.25168228 C142.63674927 338.75168228 142.63674927 338.75168228 139.13674927 338.25168228 C136.76591227 335.97720799 136.17771076 334.59652198 135.78830147 331.31822872 C135.80057714 330.1688775 135.81285282 329.01952627 135.82550049 327.83534622 C135.82802602 327.19322718 135.83055155 326.55110815 135.83315361 325.88953096 C135.84493513 323.73930262 135.87799346 321.58991912 135.91067505 319.4399147 C135.92294318 317.89719091 135.93370371 316.3544545 135.94306946 314.81171036 C135.96523661 311.48805876 135.99566072 308.16461857 136.03171158 304.84108925 C136.08632842 299.57329025 136.107431 294.30569274 136.12109375 289.03764725 C136.12616225 287.23149389 136.13125315 285.42534059 136.13636589 283.61918736 C136.1401697 282.26220279 136.1401697 282.26220279 136.14405036 280.8778044 C136.18096488 268.61661064 136.24472652 256.35620121 136.37991333 244.09567642 C136.47086973 235.82243023 136.514942 227.55032756 136.50692165 219.27656823 C136.50461766 214.90366365 136.52572498 210.53377672 136.60474014 206.16152382 C137.90655957 184.54099912 137.90655957 184.54099912 128.92922974 165.93649673 C127.28007542 164.41584662 125.60024258 163.01194123 123.82188034 161.64538383 C120.84625348 159.1843671 118.51080452 156.16784887 116.07424927 153.18918228 C115.08589339 152.02946965 114.09531298 150.87164567 113.10159302 149.71652603 C112.6128772 149.14531021 112.12416138 148.57409439 111.62063599 147.985569 C109.12779403 145.07274182 106.6321216 142.16234168 104.13674927 139.25168228 C103.13673587 138.0850271 102.13673586 136.91836044 101.13674927 135.75168228 C100.64174927 135.17418228 100.14674927 134.59668228 99.63674927 134.00168228 C74.13674927 104.25168228 48.63674927 74.50168228 23.13674927 44.75168228 C22.39388672 43.88506973 22.39388672 43.88506973 21.63601685 43.00094986 C20.63829732 41.83686251 19.64073813 40.67263773 18.64334106 39.50827408 C15.59486697 35.94997841 12.54008499 32.39721583 9.48147583 28.84762955 C7.97689038 27.09635537 6.4799577 25.33879754 4.98440552 23.57980728 C3.14528963 21.41761191 1.27875447 19.28604673 -0.61715698 17.17355728 C-1.85272339 15.75816666 -1.85272339 15.75816666 -3.11325073 14.31418228 C-3.84028198 13.50078384 -4.56731323 12.68738541 -5.31637573 11.84933853 C-7.33845878 8.45366877 -7.28528472 6.1371474 -6.86325073 2.25168228 C-4.33564907 -0.27591938 -3.49927655 0.00126623 0 0 Z M13.13674927 12.25168228 C16.72835715 17.0404928 19.93145475 21.2798674 23.94924927 25.56418228 C28.12992927 30.09533845 32.05097472 34.77194404 35.92190552 39.56808853 C38.09307753 42.19876785 40.33916284 44.73110653 42.63674927 47.25168228 C46.55566179 51.55160019 50.22845796 56.01087775 53.88674927 60.53293228 C56.07176496 63.17315958 58.32846317 65.71897948 60.63674927 68.25168228 C64.55566179 72.55160019 68.22845796 77.01087775 71.88674927 81.53293228 C74.07176496 84.17315958 76.32846317 86.71897948 78.63674927 89.25168228 C82.55566179 93.55160019 86.22845796 98.01087775 89.88674927 102.53293228 C92.07176496 105.17315958 94.32846317 107.71897948 96.63674927 110.25168228 C100.55566179 114.55160019 104.22845796 119.01087775 107.88674927 123.53293228 C110.07176496 126.17315958 112.32846317 128.71897948 114.63674927 131.25168228 C118.5841463 135.58419122 122.29766679 140.07098056 125.98831177 144.62277603 C130.41981791 150.06217604 130.41981791 150.06217604 135.13674927 155.25168228 C135.46674927 155.25168228 135.79674927 155.25168228 136.13674927 155.25168228 C136.13674927 108.06168228 136.13674927 60.87168228 136.13674927 12.25168228 C95.54674927 12.25168228 54.95674927 12.25168228 13.13674927 12.25168228 Z M149.13674927 12.25168228 C149.13674927 59.77168228 149.13674927 107.29168228 149.13674927 156.25168228 C152.98670738 153.17171579 155.43082887 150.88179597 158.38674927 147.12668228 C161.37314233 143.39863531 164.41461227 139.77800704 167.63674927 136.25168228 C170.75133595 132.83428856 173.72861547 129.34645878 176.63674927 125.75168228 C180.24707369 121.28892015 184.02102856 117.02448695 187.88674927 112.78293228 C190.2153698 110.16323418 192.43237874 107.47652918 194.63674927 104.75168228 C198.24707369 100.28892015 202.02102856 96.02448695 205.88674927 91.78293228 C208.2153698 89.16323418 210.43237874 86.47652918 212.63674927 83.75168228 C216.24707369 79.28892015 220.02102856 75.02448695 223.88674927 70.78293228 C226.2153698 68.16323418 228.43237874 65.47652918 230.63674927 62.75168228 C234.24707369 58.28892015 238.02102856 54.02448695 241.88674927 49.78293228 C244.2153698 47.16323418 246.43237874 44.47652918 248.63674927 41.75168228 C251.54488307 38.15690578 254.52216259 34.669076 257.63674927 31.25168228 C263.12768557 25.22033749 268.60677419 19.04664489 273.13674927 12.25168228 C232.21674927 12.25168228 191.29674927 12.25168228 149.13674927 12.25168228 Z " fill="#000000" transform="translate(6.863250732421875,-0.2516822814941406)"/>
</svg>
