<?xml version="1.0" encoding="UTF-8"?>
<svg version="1.1" xmlns="http://www.w3.org/2000/svg" width="392" height="392">
<path d="M0 0 C129.36 0 258.72 0 392 0 C392 129.36 392 258.72 392 392 C262.64 392 133.28 392 0 392 C0 262.64 0 133.28 0 0 Z M8 8 C8 132.08 8 256.16 8 384 C132.08 384 256.16 384 384 384 C384 259.92 384 135.84 384 8 C259.92 8 135.84 8 8 8 Z " fill="#000000" transform="translate(0,0)"/>
<path d="M0 0 C12.14495688 10.33279689 22.28312343 21.93130983 30.375 35.6875 C33.41499336 34.34052115 35.37766578 32.87585008 37.6171875 30.4296875 C38.20886719 29.80449219 38.80054688 29.17929688 39.41015625 28.53515625 C40.63700422 27.219746 41.85579604 25.89677575 43.06640625 24.56640625 C47.61795445 19.7976475 47.61795445 19.7976475 51.7578125 19.1953125 C54.375 19.6875 54.375 19.6875 55.375 20.6875 C55.7691813 24.22708083 55.8606069 26.03133016 53.70678711 28.94165039 C52.9463208 29.63250732 52.18585449 30.32336426 51.40234375 31.03515625 C50.58572266 31.80537109 49.76910156 32.57558594 48.92773438 33.36914062 C48.06470703 34.15482422 47.20167969 34.94050781 46.3125 35.75 C44.59997581 37.30973393 42.90001046 38.88340417 41.21484375 40.47265625 C40.45550537 41.16238525 39.69616699 41.85211426 38.91381836 42.56274414 C37.10070893 44.5974017 37.10070893 44.5974017 37.51196289 47.25097656 C38.73216056 50.69583449 40.72227485 53.46298341 42.875 56.375 C43.32423828 56.99076904 43.77347656 57.60653809 44.23632812 58.2409668 C55.11128076 72.9340067 67.73869388 86.95209038 86.5 90.1875 C100.79204217 91.70759659 113.28922341 86.02404353 124.37109375 77.25390625 C136.97722145 66.48378154 146.93244119 53.95251317 155.375 39.6875 C155.705 40.3475 156.035 41.0075 156.375 41.6875 C158.685 41.6875 160.995 41.6875 163.375 41.6875 C161.58198058 48.24961063 159.07145263 53.17014992 154.875 58.5 C154.08258911 59.52867187 154.08258911 59.52867187 153.27416992 60.578125 C139.37316521 78.38600221 121.90307729 96.97534047 98.26269531 99.95361328 C82.30898684 101.24764431 69.20874966 96.66722446 56.78515625 86.5859375 C45.71037101 76.92749614 37.44865427 65.85079971 29.375 53.6875 C23.93766945 58.21741796 18.91041069 63.03044216 13.9375 68.0625 C13.20595703 68.79855469 12.47441406 69.53460938 11.72070312 70.29296875 C9.93647277 72.08886074 8.15463876 73.88705985 6.375 75.6875 C9.50420477 79.37691881 12.65965713 82.9995037 16 86.5 C24.52653627 96.08421729 31.13931415 107.40950865 37.5 118.5 C47.68041971 136.1492985 60.94074642 153.04285209 80.84375 159.87890625 C95.27446566 163.18328473 107.06624312 159.23024381 119.328125 151.796875 C124.8665738 147.9625643 129.62069913 143.44180087 134.375 138.6875 C135.16777344 137.89472656 135.96054687 137.10195312 136.77734375 136.28515625 C141.89078283 130.88414239 146.01448405 125.02074371 150.01416016 118.77636719 C153.704138 113.02235033 153.704138 113.02235033 156.375 110.6875 C156.375 111.3475 156.375 112.0075 156.375 112.6875 C158.685 112.6875 160.995 112.6875 163.375 112.6875 C162.84756926 117.41649765 160.68511848 120.78039443 158.0625 124.625 C157.620271 125.27815186 157.17804199 125.93130371 156.72241211 126.60424805 C143.49407013 145.7430768 124.79808609 166.0093309 100.87109375 170.40234375 C84.48922038 172.27382537 70.39312046 168.15198191 57.1875 158.3125 C56.589375 157.77625 55.99125 157.24 55.375 156.6875 C55.14828613 157.24018555 54.92157227 157.79287109 54.68798828 158.36230469 C52.9860302 161.37633384 50.82880482 163.45730213 48.3671875 165.890625 C47.88170441 166.3732782 47.39622131 166.8559314 46.89602661 167.35321045 C45.35200134 168.88608562 43.80115176 170.41184004 42.25 171.9375 C41.19875991 172.97870361 40.14797343 174.02036541 39.09765625 175.0625 C36.52866996 177.60949464 33.95351839 180.15015177 31.375 182.6875 C32.90600785 187.56238275 34.95030418 191.5392643 37.8125 195.75 C38.25134521 196.39976807 38.69019043 197.04953613 39.14233398 197.71899414 C49.59873374 212.91838873 61.41866676 226.23043403 79.328125 232.35546875 C94.39584602 234.79966014 106.65340251 230.85485546 118.90942383 222.05908203 C128.62784822 214.87207225 135.89232642 206.82043544 143.0625 197.125 C143.75811035 196.18732788 143.75811035 196.18732788 144.46777344 195.23071289 C147.41445202 191.19096293 149.96657404 187.0700456 152.375 182.6875 C153.035 182.6875 153.695 182.6875 154.375 182.6875 C154.375 183.3475 154.375 184.0075 154.375 184.6875 C156.685 184.6875 158.995 184.6875 161.375 184.6875 C159.35325007 190.86277699 156.73181646 195.45555101 152.75 200.5625 C152.21729492 201.25794922 151.68458984 201.95339844 151.13574219 202.66992188 C146.81092674 208.25819571 142.26120088 213.58045388 137.375 218.6875 C136.72144531 219.39261719 136.06789063 220.09773437 135.39453125 220.82421875 C123.1613683 233.64340148 106.87512001 242.55666285 89 243.125 C71.7570603 242.70571879 57.67781229 234.33506043 45.84082031 222.25585938 C24.375 199.28843271 24.375 199.28843271 24.375 190.6875 C18.8081618 195.38354787 13.76866912 200.35446397 8.8671875 205.74609375 C6.375 207.6875 6.375 207.6875 3.1328125 208.03515625 C0.375 207.6875 0.375 207.6875 -0.625 206.6875 C-1.0196882 203.13218367 -1.07081245 201.31709152 1.02734375 198.35400391 C2.15849609 197.26998291 2.15849609 197.26998291 3.3125 196.1640625 C4.12460938 195.37128906 4.93671875 194.57851563 5.7734375 193.76171875 C6.63195312 192.95347656 7.49046875 192.14523437 8.375 191.3125 C9.66277344 190.06533203 9.66277344 190.06533203 10.9765625 188.79296875 C13.09652505 186.74367162 15.22918984 184.70965975 17.375 182.6875 C10.51697048 164.64234531 -7.60882702 148.80411012 -24.625 140.6875 C-25.30046875 140.35878906 -25.9759375 140.03007812 -26.671875 139.69140625 C-36.49119628 135.45124479 -46.73678382 136.12774218 -56.625 139.6875 C-77.58389378 148.22630858 -89.86106727 168.95028376 -100.625 187.6875 C-103.5969385 186.56298273 -105.95940687 185.46456209 -108.625 183.6875 C-104.42079249 172.10942067 -96.63781533 161.87039372 -88.625 152.6875 C-88.04105469 151.97078125 -87.45710938 151.2540625 -86.85546875 150.515625 C-77.65603218 139.39874146 -63.33307238 129.03764736 -48.57983398 127.47021484 C-38.63759446 126.92256343 -29.78981401 127.4827639 -20.625 131.6875 C-19.6040625 132.13867188 -18.583125 132.58984375 -17.53125 133.0546875 C-0.11725762 141.55034883 13.67013739 156.80411179 24.375 172.6875 C24.375 173.3475 24.375 174.0075 24.375 174.6875 C30.32236382 169.63852033 35.89107898 164.2956983 41.375 158.75 C42.53708984 157.58114258 42.53708984 157.58114258 43.72265625 156.38867188 C45.60910757 154.4905758 47.49316245 152.59016851 49.375 150.6875 C48.5236145 149.81375732 48.5236145 149.81375732 47.6550293 148.92236328 C38.2157914 139.11191302 30.91736862 127.45029661 24.375 115.5625 C19.80905159 107.36476382 14.18712793 100.03575119 8.375 92.6875 C7.735625 91.87152344 7.09625 91.05554688 6.4375 90.21484375 C-3.78592581 77.85334571 -19.27871228 66.73541803 -35.5 64.75 C-47.64634974 64.11153803 -59.12688185 68.53861158 -68.18774414 76.50830078 C-70.73421535 78.83789017 -73.18256943 81.24846642 -75.625 83.6875 C-76.33527344 84.38617188 -77.04554687 85.08484375 -77.77734375 85.8046875 C-84.01115618 92.357202 -88.60540869 100.11660576 -93.39257812 107.74365234 C-95.09136794 110.42308271 -96.85186314 113.05679462 -98.625 115.6875 C-100.935 114.6975 -103.245 113.7075 -105.625 112.6875 C-105.0625639 108.00053251 -102.99034305 104.45026117 -100.5625 100.5 C-99.95631836 99.50480347 -99.95631836 99.50480347 -99.33789062 98.48950195 C-95.84496649 92.85586355 -91.97003501 87.69647653 -87.625 82.6875 C-86.92761719 81.85734375 -86.23023437 81.0271875 -85.51171875 80.171875 C-75.07322502 68.08324638 -62.03253511 57.25160748 -45.60327148 55.46801758 C-28.81774116 54.50090827 -14.81279379 59.13726497 -1.625 69.6875 C6.625 61.4375 14.875 53.1875 23.375 44.6875 C21.60167757 40.25419393 19.57466703 36.81093223 16.8125 33 C16.36922363 32.38495605 15.92594727 31.76991211 15.46923828 31.13623047 C11.45371715 25.64830394 7.07001491 20.60649727 2.375 15.6875 C1.76527344 15.00300781 1.15554687 14.31851563 0.52734375 13.61328125 C-9.06871327 3.24302006 -22.55815298 -5.10075507 -36.84008789 -5.82983398 C-52.52651118 -6.1486287 -64.00570696 1.25845674 -75.1875 11.8125 C-83.55335109 20.50700952 -89.93687361 30.88533446 -96.03125 41.23828125 C-97.625 43.6875 -97.625 43.6875 -99.625 44.6875 C-101.65644641 43.75303465 -103.66033587 42.75525224 -105.625 41.6875 C-105.0625639 37.00053251 -102.99034305 33.45026117 -100.5625 29.5 C-100.15837891 28.83653564 -99.75425781 28.17307129 -99.33789062 27.48950195 C-95.84503561 21.85597504 -91.97060789 16.69585504 -87.625 11.6875 C-86.91601562 10.84574219 -86.20703125 10.00398438 -85.4765625 9.13671875 C-61.60098715 -18.46679732 -29.29770192 -23.25736226 0 0 Z " fill="#000000" transform="translate(168.625,76.3125)"/>
</svg>
