<?xml version="1.0" encoding="utf-8"?>
<!-- Generator: Adobe Illustrator 23.0.3, SVG Export Plug-In . SVG Version: 6.00 Build 0)  -->
<svg version="1.1" id="Capa_1" xmlns="http://www.w3.org/2000/svg" xmlns:xlink="http://www.w3.org/1999/xlink" x="0px" y="0px"
	 viewBox="0 0 1200 1200" enable-background="new 0 0 1200 1200" xml:space="preserve">
<path fill="#253B44" d="M888.859,537.091c-2.329-56.886-33.467-110.368-86.458-134.608c-43.473-19.886-96.968-15.445-138.378,8.285
	c-44.394-117.469-174.965-182.973-295.667-142.081C246.839,313.606,185.24,450.258,229.123,570.977
	c-57.527,6.513-114.564,30.994-150.132,78.234c-29.637,39.362-35.644,89.456-22.15,136.196
	c14.087,48.791,46.955,90.952,88.525,119.583c24.197,16.666,51.643,28.687,80.131,35.765c17.545,4.359,36.391,2.275,54.367,2.197
	c23.098-0.1,46.196-0.199,69.294-0.299c181.897-0.785,363.794-1.569,545.691-2.354c21.654-0.093,43.309-0.187,64.964-0.28
	c19.407-0.084,37.063,1.604,55.273-5.52c26.036-10.187,49.924-25.424,70.024-44.877c40.825-39.51,64.804-95.251,64.89-152.098
	C1150.205,601.574,1016.891,507.189,888.859,537.091z M1085.904,869.851c-18.025,20.16-40.103,36.551-64.674,47.866
	c-33.947,15.633-76.633,9.246-113.387,9.405c-153.025,0.66-306.049,1.32-459.074,1.98c-37.534,0.162-75.069,0.324-112.603,0.486
	c-36.986,0.159-80.647,6.376-116.3-3.912c-51.672-14.909-98.14-47.635-127.202-93.183c-26.615-41.713-39.524-95.524-21.317-143.107
	c25.58-66.854,99.658-100.791,166.852-106.202c3.776-0.304,8.047-4.022,6.327-8.306c-46.354-115.387,9.46-249.969,127.32-293.536
	c116.417-39.44,243.229,24.823,282.441,140.879c1.292,3.825,5.889,6.342,9.638,3.921c36.453-23.535,85.325-30.404,125.984-14.77
	c55.014,21.155,86.529,76.649,86.035,134.021c-0.037,4.267,4.223,7.451,8.305,6.327c114.397-31.51,238.942,44.194,251.605,165.369
	C1141.627,772.333,1122.856,828.521,1085.904,869.851z"/>
</svg>
