<?xml version="1.0" encoding="UTF-8"?>
<svg version="1.1" xmlns="http://www.w3.org/2000/svg" width="373" height="384">
<path d="M0 0 C123.09 0 246.18 0 373 0 C373 107.58 373 215.16 373 326 C370.26150981 327.3692451 368.09346501 327.12279723 365.02694702 327.12025452 C363.11701714 327.12231651 363.11701714 327.12231651 361.16850281 327.12442017 C359.749542 327.12088078 358.33058143 327.11724597 356.91162109 327.11352539 C355.4236603 327.11324345 353.93569936 327.1134014 352.44773865 327.1139679 C348.40045338 327.11425558 344.35319757 327.10836345 340.30591917 327.10139394 C336.07916124 327.09515567 331.85240269 327.09455623 327.62564087 327.09336853 C319.61815073 327.09025662 311.6106742 327.0820451 303.60319006 327.07201904 C294.48844593 327.06085358 285.37370117 327.05534636 276.2589519 327.05032361 C257.50596 327.03986238 238.75298159 327.02206492 220 327 C220 331.29 220 335.58 220 340 C221.88729828 339.99777939 223.77459656 339.99555878 225.71908569 339.99327087 C243.46613536 339.97303864 261.21318271 339.95796748 278.96024132 339.94818783 C288.08515256 339.94302609 297.21005521 339.93598572 306.33496094 339.92456055 C314.28592294 339.91460998 322.23687872 339.90814568 330.18784678 339.90591151 C334.39989086 339.90460504 338.61191714 339.90152317 342.82395554 339.89426994 C346.78503258 339.88750387 350.7460844 339.88538425 354.70716667 339.88689232 C356.16407979 339.88661626 357.62099371 339.8846146 359.07790184 339.88079453 C361.06091076 339.87584821 363.04393309 339.87760458 365.02694702 339.87974548 C366.69447053 339.87836279 366.69447053 339.87836279 368.39568138 339.87695217 C371 340 371 340 373 341 C373 355.19 373 369.38 373 384 C249.91 384 126.82 384 0 384 C0 369.81 0 355.62 0 341 C2.73849019 339.6307549 4.90653499 339.87720277 7.97305298 339.87974548 C9.24633957 339.87837082 10.51962616 339.87699615 11.83149719 339.87557983 C13.250458 339.87911922 14.66941857 339.88275403 16.08837891 339.88647461 C17.5763397 339.88675655 19.06430064 339.8865986 20.55226135 339.8860321 C24.59954662 339.88574442 28.64680243 339.89163655 32.69408083 339.89860606 C36.92083876 339.90484433 41.14759731 339.90544377 45.37435913 339.90663147 C53.38184927 339.90974338 61.3893258 339.9179549 69.39680994 339.92798096 C78.51155407 339.93914642 87.62629883 339.94465364 96.7410481 339.94967639 C115.49404 339.96013762 134.24701841 339.97793508 153 340 C153 335.71 153 331.42 153 327 C150.16905258 327.00333092 150.16905258 327.00333092 147.28091431 327.00672913 C129.53386464 327.02696136 111.78681729 327.04203252 94.03975868 327.05181217 C84.91484744 327.05697391 75.78994479 327.06401428 66.66503906 327.07543945 C58.71407706 327.08539002 50.76312128 327.09185432 42.81215322 327.09408849 C38.60010914 327.09539496 34.38808286 327.09847683 30.17604446 327.10573006 C26.21496742 327.11249613 22.2539156 327.11461575 18.29283333 327.11310768 C16.83592021 327.11338374 15.37900629 327.1153854 13.92209816 327.11920547 C11.93908924 327.12415179 9.95606691 327.12239542 7.97305298 327.12025452 C6.30552947 327.12163721 6.30552947 327.12163721 4.60431862 327.12304783 C2 327 2 327 0 326 C0 218.42 0 110.84 0 0 Z M8 8 C8 110.3 8 212.6 8 318 C125.81 318 243.62 318 365 318 C365 215.7 365 113.4 365 8 C247.19 8 129.38 8 8 8 Z M162 327 C162 331.29 162 335.58 162 340 C178.17 340 194.34 340 211 340 C211 335.71 211 331.42 211 327 C194.83 327 178.66 327 162 327 Z M8 349 C8 357.91 8 366.82 8 376 C125.81 376 243.62 376 365 376 C365 367.09 365 358.18 365 349 C247.19 349 129.38 349 8 349 Z " fill="#000000" transform="translate(0,0)"/>
<path d="M0 0 C0.96205683 -0.00782324 1.92411366 -0.01564648 2.91532373 -0.02370679 C3.97454963 -0.01701463 5.03377553 -0.01032246 6.12509918 -0.00342751 C7.24852266 -0.00810748 8.37194613 -0.01278745 9.52941275 -0.01760924 C13.31358304 -0.02962536 17.0973956 -0.02007597 20.88156891 -0.01066017 C23.58647667 -0.01307184 26.29136898 -0.01995414 28.99626923 -0.02659035 C35.59229297 -0.03995003 42.18821447 -0.03704004 48.78424227 -0.02835242 C54.1436126 -0.02158505 59.50295421 -0.02065505 64.86232758 -0.02392387 C66.00525513 -0.02461342 66.00525513 -0.02461342 67.17127213 -0.0253169 C68.71902534 -0.02627605 70.26677855 -0.02724869 71.81453174 -0.02823468 C86.33748057 -0.03679511 100.86037265 -0.0269442 115.38331217 -0.01083358 C127.85232331 0.00257021 140.32125068 0.0002423 152.79026031 -0.01358986 C167.26023505 -0.02963415 181.73016 -0.03597108 196.20014238 -0.02675307 C197.74229208 -0.02579739 199.28444178 -0.02485428 200.82659149 -0.02392387 C201.58541472 -0.02346105 202.34423794 -0.02299822 203.12605581 -0.02252137 C208.48074478 -0.01992802 213.83540226 -0.02430989 219.19008636 -0.03136253 C225.71316037 -0.03976497 232.23612603 -0.03752399 238.75918758 -0.0215203 C242.08922116 -0.01362043 245.41892374 -0.01218189 248.74897957 -0.02046776 C252.35410918 -0.02861363 255.95872349 -0.01844566 259.56381989 -0.00342751 C261.15265873 -0.01346575 261.15265873 -0.01346575 262.77359533 -0.02370679 C263.73565217 -0.01588355 264.697709 -0.00806031 265.68891907 0 C266.52153841 0.00048706 267.35415776 0.00097411 268.212008 0.00147593 C270.89993198 0.4754783 271.77612519 1.15984309 273.34445953 3.37752342 C273.72050703 5.34967422 273.72050703 5.34967422 273.72198296 7.64262962 C273.7298062 8.51760157 273.73762944 9.39257351 273.74568975 10.29405975 C273.73899758 11.25601194 273.73230542 12.21796413 273.72541046 13.20906639 C273.73009043 14.23040106 273.73477041 15.25173573 273.73959219 16.30401993 C273.75160387 19.74271383 273.74206073 23.18101373 273.73264313 26.61971092 C273.73670608 29.07831112 273.74204639 31.53690949 273.7485733 33.99550438 C273.76086002 39.98996267 273.75902407 45.98426505 273.75033538 51.97871733 C273.74356708 56.84943473 273.74263841 61.72012054 273.74590683 66.59084129 C273.74636653 67.28340896 273.74682623 67.97597664 273.74729986 68.68953121 C273.74825901 70.09635942 273.74923165 71.50318763 273.75021763 72.91001582 C273.75877738 86.10958877 273.74892825 99.30909927 273.73281653 112.50866199 C273.71941281 123.84063146 273.72174073 135.17250874 273.73557281 146.50447655 C273.75161833 159.65600987 273.75795335 172.80748841 273.74873602 185.95903015 C273.74778035 187.36075528 273.74683724 188.76248041 273.74590683 190.16420555 C273.745444 190.85392602 273.74498118 191.54364649 273.74450433 192.25426757 C273.74191134 197.12054117 273.74629206 201.9867801 273.75334549 206.85304832 C273.76262569 213.39965716 273.75604219 219.9461184 273.73866272 226.49271965 C273.73468355 228.90061973 273.73585618 231.30853442 273.74245071 233.71642876 C273.75059977 236.99314697 273.74042491 240.26929873 273.72541046 243.54598045 C273.73210263 244.50793264 273.73879479 245.46988483 273.74568975 246.46098709 C273.73786651 247.33595903 273.73004327 248.21093098 273.72198296 249.11241722 C273.72125237 250.24743014 273.72125237 250.24743014 273.72050703 251.40537262 C273.22701568 253.99344828 272.48274669 254.85669106 270.34445953 256.37752342 C268.212008 256.75357091 268.212008 256.75357091 265.68891907 256.75504684 C264.72686224 256.76287009 263.7648054 256.77069333 262.77359533 256.77875364 C261.71436944 256.77206147 260.65514354 256.76536931 259.56381989 256.75847435 C258.44039641 256.76315432 257.31697293 256.76783429 256.15950632 256.77265608 C252.37533603 256.7846722 248.59152347 256.77512282 244.80735016 256.76570702 C242.1024424 256.76811868 239.39755009 256.77500099 236.69264984 256.78163719 C230.0966261 256.79499687 223.50070459 256.79208689 216.9046768 256.78339927 C211.54530647 256.77663189 206.18596486 256.77570189 200.82659149 256.77897072 C200.06463979 256.77943042 199.30268809 256.77989012 198.51764694 256.78036375 C196.96989373 256.78132289 195.42214052 256.78229553 193.87438732 256.78328152 C179.3514385 256.79184196 164.82854642 256.78199105 150.3056069 256.76588042 C137.83659576 256.75247664 125.36766839 256.75480455 112.89865875 256.7686367 C98.42868402 256.78468099 83.95875907 256.79101792 69.48877668 256.78179991 C67.94662699 256.78084424 66.40447729 256.77990112 64.86232758 256.77897072 C64.10350435 256.77850789 63.34468113 256.77804507 62.56286326 256.77756821 C57.20817428 256.77497486 51.8535168 256.77935673 46.4988327 256.78640938 C39.9757587 256.79481182 33.45279303 256.79257083 26.92973149 256.77656715 C23.59969791 256.76866727 20.26999533 256.76722874 16.9399395 256.7755146 C13.33480989 256.78366047 9.73019558 256.77349251 6.12509918 256.75847435 C5.06587328 256.76516652 4.00664739 256.77185868 2.91532373 256.77875364 C1.9532669 256.7709304 0.99121007 256.76310715 0 256.75504684 C-0.83261935 256.75455979 -1.6652387 256.75407273 -2.52308893 256.75357091 C-5.21101292 256.27956855 -6.08720612 255.59520376 -7.65554047 253.37752342 C-8.03158796 251.40537262 -8.03158796 251.40537262 -8.03306389 249.11241722 C-8.04088713 248.23744528 -8.04871037 247.36247334 -8.05677068 246.46098709 C-8.05007852 245.4990349 -8.04338635 244.53708271 -8.03649139 243.54598045 C-8.04117137 242.52464579 -8.04585134 241.50331112 -8.05067313 240.45102692 C-8.06268481 237.01233302 -8.05314167 233.57403312 -8.04372406 230.13533592 C-8.04778701 227.67673573 -8.05312733 225.21813735 -8.05965424 222.75954247 C-8.07194095 216.76508418 -8.070105 210.7707818 -8.06141631 204.77632952 C-8.05464801 199.90561211 -8.05371934 195.0349263 -8.05698776 190.16420555 C-8.05744746 189.47163788 -8.05790716 188.77907021 -8.05838079 188.06551564 C-8.05933994 186.65868742 -8.06031258 185.25185922 -8.06129856 183.84503102 C-8.06985831 170.64545807 -8.06000918 157.44594757 -8.04389746 144.24638486 C-8.03049374 132.91441539 -8.03282167 121.5825381 -8.04665375 110.2505703 C-8.06269926 97.09903698 -8.06903428 83.94755843 -8.05981696 70.79601669 C-8.05886128 69.39429157 -8.05791817 67.99256644 -8.05698776 66.59084129 C-8.05652494 65.90112083 -8.05606211 65.21140036 -8.05558526 64.50077927 C-8.05299227 59.63450568 -8.05737299 54.76826675 -8.06442642 49.90199852 C-8.07370662 43.35538968 -8.06712312 36.80892844 -8.04974365 30.26232719 C-8.04576449 27.85442712 -8.04693711 25.44651242 -8.05353165 23.03861809 C-8.06168071 19.76189988 -8.05150584 16.48574811 -8.03649139 13.20906639 C-8.04652964 11.76613811 -8.04652964 11.76613811 -8.05677068 10.29405975 C-8.04894744 9.41908781 -8.0411242 8.54411587 -8.03306389 7.64262962 C-8.03257683 6.88595434 -8.03208977 6.12927906 -8.03158796 5.34967422 C-7.1541598 0.74807287 -4.27174274 0.00249884 0 0 Z M1.34445953 9.37752342 C1.34445953 87.91752342 1.34445953 166.45752342 1.34445953 247.37752342 C88.13445953 247.37752342 174.92445953 247.37752342 264.34445953 247.37752342 C264.34445953 168.83752342 264.34445953 90.29752342 264.34445953 9.37752342 C177.55445953 9.37752342 90.76445953 9.37752342 1.34445953 9.37752342 Z " fill="#000000" transform="translate(53.655540466308594,34.62247657775879)"/>
</svg>
