<?xml version="1.0" encoding="UTF-8" standalone="no"?>
<svg
   viewBox="-37.94253843310785 -37.94253843310785 106.4428259398596 75.8850768662157"
   height="75.8850768662157mm"
   width="106.4428259398596mm"
   version="1.1"
   id="SvgjsSvg2256"
   sodipodi:docname="Gears.svg"
   inkscape:version="1.1 (1:1.1+202105261517+ce6663b3b7)"
   xmlns:inkscape="http://www.inkscape.org/namespaces/inkscape"
   xmlns:sodipodi="http://sodipodi.sourceforge.net/DTD/sodipodi-0.dtd"
   xmlns="http://www.w3.org/2000/svg"
   xmlns:svg="http://www.w3.org/2000/svg">
  <sodipodi:namedview
     id="namedview25"
     pagecolor="#ffffff"
     bordercolor="#666666"
     borderopacity="1.0"
     inkscape:pageshadow="2"
     inkscape:pageopacity="0.0"
     inkscape:pagecheckerboard="0"
     inkscape:document-units="mm"
     showgrid="false"
     showguides="true"
     inkscape:guide-bbox="true"
     inkscape:zoom="0.9249074"
     inkscape:cx="154.61007"
     inkscape:cy="184.34278"
     inkscape:window-width="1920"
     inkscape:window-height="1005"
     inkscape:window-x="0"
     inkscape:window-y="0"
     inkscape:window-maximized="1"
     inkscape:current-layer="SvgjsG2259" />
  <desc
     id="desc2">Created with svg.js [http://svgjs.com]</desc>
  <defs
     id="SvgjsDefs2257" />
  <defs
     id="defs5" />
  <g
     id="SvgjsG2258">
    <g
       transform="matrix(1,0,0,1,45.83662414550781,0)"
       id="SvgjsG2259">
      <g
         id="g842"
         transform="matrix(-1,0,0,1,-61.957915,-0.01064526)">
        <g
           id="g5491">
          <g
             fill="none"
             stroke-width="0.1"
             stroke="#000000"
             id="SvgjsG2265"
             style="fill:#ff073a;fill-opacity:1;stroke:none;stroke-opacity:1">
            <path
               id="SvgjsPath2266"
               style="fill:#ff073a;fill-opacity:1;stroke:none;stroke-width:0.377953;stroke-opacity:1"
               d="m 302.05273,77.632812 a 67.371411,67.371411 0 0 0 -5.65429,1.515626 l -0.47852,1.488281 -0.4043,1.476562 -0.32421,1.40625 -0.2461,1.320313 -0.17578,1.232422 -0.11719,1.146484 -0.0605,1.058594 -0.0176,0.958984 0.0215,0.869141 0.125,1.441406 0.18164,1.052734 0.22657,0.837891 0.51367,0.941406 0.41601,0.927735 0.30469,0.871093 0.19727,0.810547 0.0977,0.742188 0.004,0.666015 -0.084,0.582032 -0.16601,0.496093 -0.23633,0.400391 -0.30273,0.30078 -0.17383,0.11328 -1.5957,0.81446 -1.42383,0.78906 -1.39649,0.83789 -1.5039,0.97656 -0.1836,0.0937 -0.41406,0.11133 -0.46484,0.006 -0.51172,-0.10547 -0.54688,-0.21875 -0.57422,-0.33594 -0.59375,-0.45508 -0.60156,-0.57617 -0.60351,-0.70117 -0.59571,-0.82227 -0.55859,-0.916011 -0.61133,-0.615234 -0.82226,-0.683594 -1.18555,-0.828125 -0.74219,-0.453125 -0.83789,-0.466797 -0.94726,-0.474609 -1.05079,-0.472656 -1.15625,-0.462891 -1.26757,-0.447266 -1.38086,-0.423828 -1.47852,-0.386718 -1.5293,-0.330078 a 67.371411,67.371411 0 0 0 -4.13867,4.138671 l 0.33203,1.529297 0.38672,1.478514 0.42188,1.38086 0.44726,1.26758 0.46289,1.15625 0.47266,1.04883 0.47656,0.94726 0.46485,0.83985 0.45312,0.74218 0.82813,1.18555 0.68359,0.82227 0.61523,0.60937 0.91602,0.56055 0.82422,0.59375 0.69922,0.60351 0.57617,0.60352 0.45508,0.59375 0.33593,0.57422 0.21875,0.54687 0.10547,0.51172 -0.006,0.46485 -0.11132,0.41211 -0.0937,0.18359 -0.97461,1.50391 -0.83789,1.39648 -0.79102,1.42383 -0.81445,1.59765 -0.11328,0.17383 -0.30079,0.30274 -0.40039,0.23633 -0.49414,0.16406 -0.58398,0.084 -0.66602,-0.002 -0.74023,-0.0977 -0.81055,-0.19922 -0.87304,-0.30273 -0.92774,-0.41602 -0.94141,-0.51367 -0.83789,-0.22851 -1.05273,-0.17969 -1.44141,-0.125 -0.86914,-0.0215 -0.95898,0.0156 -1.05664,0.0625 -1.14649,0.11523 -1.23242,0.17774 -1.32226,0.24609 -1.40625,0.32422 -1.47461,0.4043 -1.49024,0.47656 a 67.371411,67.371411 0 0 0 -1.51562,5.65625 l 1.05273,1.15625 1.07422,1.08984 1.05664,0.98438 1.02148,0.87305 0.97852,0.76953 0.93555,0.67187 0.88476,0.58399 0.82227,0.49414 0.76367,0.41406 1.31055,0.61328 1.00195,0.37109 0.83789,0.22071 1.07422,0.0254 1.00977,0.10351 0.9082,0.17383 0.80078,0.23438 0.68945,0.28515 0.57813,0.33008 0.46289,0.36524 0.34766,0.38867 0.22851,0.40625 0.10938,0.41406 0.01,0.20508 -0.0918,1.79101 -0.0273,1.62696 0.0273,1.6289 0.0918,1.78907 -0.01,0.20703 -0.10938,0.41406 -0.22851,0.4043 -0.34766,0.39062 -0.46289,0.36328 -0.57813,0.33008 -0.68945,0.28711 -0.80078,0.23437 -0.9082,0.17188 -1.00977,0.10352 -1.07422,0.0273 -0.83789,0.2207 -1.00195,0.3711 -1.31055,0.61132 -0.76367,0.41602 -0.82227,0.49414 -0.88476,0.58203 -0.93555,0.67383 -0.97852,0.76953 -1.02148,0.87305 -1.05664,0.98437 -1.07422,1.08789 -1.05273,1.15821 a 67.371411,67.371411 0 0 0 1.51562,5.65429 l 1.49024,0.47657 1.47461,0.40625 1.40625,0.32422 1.32226,0.24609 1.23242,0.17578 1.14649,0.11719 1.05664,0.0605 0.95898,0.0176 0.86914,-0.0215 1.44141,-0.125 1.05273,-0.18164 0.83789,-0.22656 0.94141,-0.51368 0.92774,-0.41601 0.87304,-0.30469 0.81055,-0.19727 0.74023,-0.0976 0.66602,-0.004 0.58398,0.084 0.49414,0.16406 0.40039,0.23828 0.30079,0.30273 0.11328,0.17383 0.81445,1.59571 0.79102,1.42382 0.83789,1.39649 0.97461,1.5039 0.0937,0.1836 0.11132,0.41406 0.006,0.46484 -0.10547,0.50977 -0.21875,0.54687 -0.33593,0.57618 -0.45508,0.59375 -0.57617,0.60156 -0.69922,0.60351 -0.82422,0.59571 -0.91602,0.55859 -0.61523,0.61133 -0.68359,0.82227 -0.82813,1.18554 -0.45312,0.74219 -0.46485,0.83789 -0.47656,0.94727 -0.47266,1.05078 -0.46289,1.15625 -0.44726,1.26562 -0.42188,1.38086 -0.38672,1.48047 -0.33203,1.5293 a 67.371411,67.371411 0 0 0 4.13867,4.13867 l 1.5293,-0.33203 1.47852,-0.38672 1.38086,-0.42188 1.26757,-0.44726 1.15625,-0.46289 1.05079,-0.47461 0.94726,-0.47461 0.83789,-0.46484 0.74219,-0.45313 1.18555,-0.83008 0.82226,-0.68164 0.61133,-0.61523 0.55859,-0.91602 0.59571,-0.82422 0.60351,-0.69922 0.60156,-0.57617 0.59375,-0.45508 0.57422,-0.33593 0.54688,-0.21875 0.51172,-0.10547 0.46484,0.006 0.41406,0.11133 0.1836,0.0937 1.5039,0.9746 1.39649,0.8379 1.42383,0.79101 1.5957,0.81445 0.17383,0.11133 0.30273,0.30274 0.23633,0.40039 0.16601,0.49414 0.084,0.58398 -0.004,0.66602 -0.0977,0.74023 -0.19727,0.81055 -0.30469,0.87305 -0.41601,0.92773 -0.51367,0.94141 -0.22657,0.83593 -0.18164,1.05469 -0.125,1.43945 -0.0215,0.8711 0.0176,0.95898 0.0605,1.05664 0.11719,1.14649 0.17578,1.23242 0.2461,1.32031 0.32421,1.40821 0.4043,1.47461 0.47852,1.49023 a 67.371411,67.371411 0 0 0 5.65429,1.51367 l 1.15821,-1.05078 1.08789,-1.07422 0.98437,-1.05664 0.87305,-1.02148 0.76953,-0.97852 0.67383,-0.93555 0.58203,-0.88476 0.49414,-0.82227 0.41602,-0.76367 0.61132,-1.31055 0.3711,-1.00195 0.2207,-0.83789 0.0274,-1.07422 0.10351,-1.00976 0.17188,-0.90821 0.23437,-0.80078 0.28711,-0.69141 0.32813,-0.57812 0.36523,-0.46289 0.38867,-0.3457 0.40625,-0.22852 0.41406,-0.10937 0.20508,-0.01 1.79102,0.0918 1.6289,0.0273 1.62696,-0.0273 1.79101,-0.0918 0.20508,0.01 0.41406,0.10937 0.40625,0.22852 0.38868,0.3457 0.36523,0.46289 0.33008,0.57812 0.28515,0.69141 0.23438,0.80078 0.17187,0.90821 0.10352,1.00976 0.0273,1.07422 0.22071,0.83789 0.37109,1.00195 0.61133,1.31055 0.41601,0.76367 0.49415,0.82227 0.58203,0.88476 0.67382,0.93555 0.76954,0.97852 0.87304,1.02148 0.98438,1.05664 1.08789,1.07422 1.1582,1.05078 a 67.371411,67.371411 0 0 0 5.6543,-1.51367 l 0.47851,-1.49023 0.4043,-1.47461 0.32422,-1.40821 0.24609,-1.32031 0.17774,-1.23242 0.11523,-1.14649 0.0625,-1.05664 0.0156,-0.95898 -0.0215,-0.8711 -0.125,-1.43945 -0.17969,-1.05469 -0.22851,-0.83593 -0.51367,-0.94141 -0.41602,-0.92773 -0.30273,-0.87305 -0.19922,-0.81055 -0.0977,-0.74023 -0.002,-0.66602 0.084,-0.58398 0.16407,-0.49414 0.23632,-0.40039 0.30274,-0.30274 0.17383,-0.11133 1.5957,-0.81445 1.42578,-0.79101 1.39649,-0.8379 1.50195,-0.9746 0.18555,-0.0937 0.41211,-0.11133 0.46484,-0.006 0.51172,0.10547 0.54687,0.21875 0.57422,0.33593 0.59375,0.45508 0.60352,0.57617 0.60351,0.69922 0.59375,0.82422 0.5586,0.91602 0.61132,0.61523 0.82227,0.68164 1.18555,0.83008 0.74218,0.45313 0.8379,0.46484 0.94726,0.47461 1.05078,0.47461 1.15625,0.46289 1.26758,0.44726 1.38086,0.42188 1.47851,0.38672 1.5293,0.33203 a 67.371411,67.371411 0 0 0 4.13867,-4.13867 l -0.33203,-1.5293 -0.38476,-1.48047 -0.42383,-1.38086 -0.44727,-1.26562 -0.46289,-1.15625 -0.47265,-1.05078 -0.47657,-0.94727 -0.46484,-0.83789 -0.45313,-0.74219 -0.82812,-1.18554 -0.68359,-0.82227 -0.61524,-0.61133 -0.91601,-0.55859 -0.82422,-0.59571 -0.69922,-0.60351 -0.57617,-0.60156 -0.45508,-0.59375 -0.33594,-0.57618 -0.21875,-0.54687 -0.10547,-0.50977 0.006,-0.46484 0.11133,-0.41406 0.0937,-0.1836 0.97461,-1.5039 0.83984,-1.39649 0.78907,-1.42382 0.81445,-1.59571 0.11328,-0.17383 0.30078,-0.30273 0.40039,-0.23828 0.4961,-0.16406 0.58203,-0.084 0.66601,0.004 0.74219,0.0976 0.81055,0.19727 0.87109,0.30469 0.92774,0.41601 0.9414,0.51368 0.83789,0.22656 1.05274,0.18164 1.4414,0.125 0.86914,0.0215 0.95899,-0.0176 1.05859,-0.0605 1.14453,-0.11719 1.23438,-0.17578 1.32031,-0.24609 1.40625,-0.32422 1.47461,-0.40625 1.49023,-0.47657 a 67.371411,67.371411 0 0 0 1.51563,-5.65429 l -1.05274,-1.15821 -1.07421,-1.08789 -1.05664,-0.98437 -1.01954,-0.87305 -0.98046,-0.76953 -0.9336,-0.67383 -0.88476,-0.58203 -0.82422,-0.49414 -0.76368,-0.41602 -1.30859,-0.61132 -1.00391,-0.3711 -0.83789,-0.2207 -1.07226,-0.0273 -1.01172,-0.10352 -0.90625,-0.17188 -0.80273,-0.23437 -0.68946,-0.28711 -0.57812,-0.33008 -0.46289,-0.36328 -0.34766,-0.39062 -0.22656,-0.4043 -0.11133,-0.41406 -0.01,-0.20703 0.0918,-1.78907 0.0293,-1.6289 -0.0293,-1.62696 -0.0918,-1.79101 0.01,-0.20508 0.11133,-0.41406 0.22656,-0.40625 0.34766,-0.38867 0.46289,-0.36524 0.57812,-0.33008 0.68946,-0.28515 0.80273,-0.23438 0.90625,-0.17383 1.01172,-0.10351 1.07226,-0.0254 0.83789,-0.22071 1.00196,-0.37109 1.31054,-0.61328 0.76368,-0.41406 0.82226,-0.49414 0.88672,-0.58399 0.9336,-0.67187 0.98046,-0.76953 1.01954,-0.87305 1.05664,-0.98438 1.07421,-1.08984 1.05274,-1.15625 a 67.371411,67.371411 0 0 0 -1.51563,-5.65625 l -1.49023,-0.47656 -1.47461,-0.4043 -1.40625,-0.32422 -1.32031,-0.24609 -1.23438,-0.17774 -1.14453,-0.11523 -1.05859,-0.0625 -0.95899,-0.0156 -0.86914,0.0215 -1.4414,0.125 -1.05274,0.17969 -0.83789,0.22851 -0.9414,0.51367 -0.92774,0.41602 -0.87109,0.30273 -0.81055,0.19922 -0.74219,0.0977 -0.66601,0.002 -0.58203,-0.084 -0.4961,-0.16406 -0.40039,-0.23633 -0.30078,-0.30274 -0.11328,-0.17383 -0.81445,-1.59765 -0.78907,-1.42383 -0.83984,-1.39648 -0.97461,-1.50391 -0.0937,-0.18359 -0.11133,-0.41211 -0.006,-0.46485 0.10547,-0.51172 0.21875,-0.54687 0.33594,-0.57422 0.45508,-0.59375 0.57617,-0.60352 0.69922,-0.60351 0.82422,-0.59375 0.91601,-0.56055 0.61524,-0.60937 0.68359,-0.82227 0.82812,-1.18555 0.45313,-0.74218 0.46484,-0.83985 0.47657,-0.94726 0.47265,-1.04883 0.46289,-1.15625 0.44727,-1.26758 0.42383,-1.38086 0.38476,-1.478514 0.33203,-1.529297 a 67.371411,67.371411 0 0 0 -4.13867,-4.138671 l -1.5293,0.330078 -1.47851,0.386718 -1.38086,0.423828 -1.26758,0.447266 -1.15625,0.462891 -1.05078,0.472656 -0.94726,0.474609 -0.8379,0.466797 -0.74218,0.453125 -1.18555,0.828125 -0.82227,0.683594 -0.61132,0.615234 -0.5586,0.916011 -0.59375,0.82227 -0.60351,0.70117 -0.60352,0.57617 -0.59375,0.45508 -0.57422,0.33594 -0.54687,0.21875 -0.51172,0.10547 -0.46484,-0.006 -0.41211,-0.11133 -0.18555,-0.0937 -1.50195,-0.97656 -1.39649,-0.83789 -1.42578,-0.78906 -1.5957,-0.81446 -0.17383,-0.11328 -0.30274,-0.30078 -0.23632,-0.400391 -0.16407,-0.496093 -0.084,-0.582032 0.002,-0.666015 0.0977,-0.742188 0.19922,-0.810547 0.30273,-0.871093 0.41602,-0.927735 0.51367,-0.941406 0.22851,-0.837891 0.17969,-1.052734 0.125,-1.441406 0.0215,-0.869141 -0.0156,-0.958984 -0.0625,-1.058594 -0.11523,-1.146484 -0.17774,-1.232422 -0.24609,-1.320313 -0.32422,-1.40625 -0.4043,-1.476562 -0.47851,-1.488281 a 67.371411,67.371411 0 0 0 -5.6543,-1.515626 l -1.1582,1.050782 -1.08789,1.076172 -0.98438,1.05664 -0.87304,1.019532 -0.76954,0.980468 -0.67382,0.933594 -0.58203,0.884766 -0.49415,0.824218 -0.41601,0.763672 -0.61133,1.308594 -0.37109,1.003906 -0.22071,0.837891 -0.0273,1.072265 -0.10352,1.011719 -0.17187,0.90625 -0.23438,0.800781 -0.28515,0.691407 -0.33008,0.578125 -0.36523,0.46289 -0.38868,0.345704 -0.40625,0.228515 -0.41406,0.111328 -0.20508,0.0098 -1.79101,-0.09375 -1.62696,-0.02734 -1.6289,0.02734 -1.79102,0.09375 -0.20508,-0.0098 -0.41406,-0.111328 -0.40625,-0.228515 -0.38867,-0.345704 -0.36523,-0.46289 -0.32813,-0.578125 -0.28711,-0.691407 -0.23437,-0.800781 -0.17188,-0.90625 -0.10351,-1.011719 -0.0274,-1.072265 -0.2207,-0.837891 -0.3711,-1.003906 -0.61132,-1.308594 -0.41602,-0.763672 -0.49414,-0.824218 -0.58203,-0.884766 -0.67383,-0.933594 -0.76953,-0.980468 -0.87305,-1.019532 -0.98437,-1.05664 -1.08789,-1.076172 z m 14.59375,26.294918 a 8.5039367,8.5039367 0 0 1 8.50391,8.50391 8.5039367,8.5039367 0 0 1 -8.50391,8.50391 8.5039367,8.5039367 0 0 1 -8.5039,-8.50391 8.5039367,8.5039367 0 0 1 8.5039,-8.50391 z m -4.69921,25.41016 h 9.39648 v 5.875 a 9.3977197,9.3977197 0 0 1 4.69922,8.13672 9.3977197,9.3977197 0 0 1 -9.39844,9.39648 9.3977197,9.3977197 0 0 1 -9.39648,-9.39648 9.3977197,9.3977197 0 0 1 4.69922,-8.13281 z m -26.27539,5.5625 a 8.5039366,8.5039366 0 0 1 8.5039,8.50391 8.5039366,8.5039366 0 0 1 -8.5039,8.5039 8.5039366,8.5039366 0 0 1 -8.50391,-8.5039 8.5039366,8.5039366 0 0 1 8.50391,-8.50391 z m 61.94726,0 a 8.5039364,8.5039364 0 0 1 8.50391,8.50391 8.5039364,8.5039364 0 0 1 -8.50391,8.5039 8.5039364,8.5039364 0 0 1 -8.50391,-8.5039 8.5039364,8.5039364 0 0 1 8.50391,-8.50391 z M 316.64648,165.875 a 8.5039365,8.5039365 0 0 1 8.50391,8.50391 8.5039365,8.5039365 0 0 1 -8.50391,8.5039 8.5039365,8.5039365 0 0 1 -8.5039,-8.5039 8.5039365,8.5039365 0 0 1 8.5039,-8.50391 z"
               transform="matrix(0.26458333,0,0,0.26458333,-83.779163,-37.942538)" />
          </g>
        </g>
        <g
           id="g5453">
          <g
             id="g5482">
            <g
               id="SvgjsG2267"
               transform="translate(-45.836624,5.0358559e-5)"
               style="fill:#04d9ff;fill-opacity:1;stroke:none;stroke-opacity:1">
              <g
                 fill="none"
                 stroke-width="0.04"
                 stroke="#0000ff"
                 id="SvgjsG2268"
                 style="fill:#04d9ff;fill-opacity:1;stroke:none;stroke-opacity:1" />
              <g
                 fill="none"
                 stroke-width="0.1"
                 stroke="#000000"
                 id="SvgjsG2273"
                 style="fill:#04d9ff;fill-opacity:1;stroke:none;stroke-opacity:1">
                <path
                   id="SvgjsPath2274"
                   style="fill:#04d9ff;fill-opacity:1;stroke:none;stroke-width:0.377953;stroke-opacity:1"
                   d="m 140.01758,18.333984 -1.03125,1.998047 -0.99024,2.126953 -0.82421,1.986328 -0.67579,1.841797 -0.53906,1.681641 -0.42187,1.527344 -0.3125,1.359375 -0.21875,1.171875 -0.14453,1.005859 -0.1211,1.447266 -0.0293,0.769531 -0.0527,0.527344 -0.0781,0.478515 -0.0996,0.429688 -0.1211,0.375 -0.13867,0.324219 -0.15625,0.273437 -0.16992,0.216797 -0.1836,0.166016 -0.19336,0.109375 -0.25,0.0625 -1.73242,0.18164 -1.92187,0.234375 -1.91797,0.271485 -1.7207,0.271484 -0.25782,0.0059 -0.21484,-0.05664 -0.21875,-0.111328 -0.2207,-0.167969 -0.22266,-0.220703 -0.21875,-0.277344 -0.21289,-0.333984 -0.20898,-0.386719 L 124,37.181641 l -0.1875,-0.498047 -0.22852,-0.734375 -0.49218,-1.367188 -0.39844,-0.933593 -0.51563,-1.076172 -0.65429,-1.230469 -0.80078,-1.367188 -0.95704,-1.486328 -1.1289,-1.603515 -1.31055,-1.703125 -1.50781,-1.798829 -1.51172,-1.664062 a 125.11834,125.11834 0 0 0 -6.54492,1.753906 l -0.47852,2.197266 -0.40429,2.310547 -0.28321,2.130859 -0.17773,1.955078 -0.0859,1.763672 -0.01,1.583984 0.0488,1.394532 0.0918,1.1875 0.12109,1.009765 0.25782,1.427735 0.16992,0.751953 0.0859,0.523437 0.0488,0.482422 0.0156,0.439453 -0.0195,0.394532 -0.0508,0.349609 -0.082,0.302734 -0.10743,0.25586 -0.13281,0.207031 -0.1582,0.15625 -0.22656,0.125 -1.625,0.623047 -1.79688,0.724609 -1.7832,0.757813 -1.589846,0.708984 -0.248047,0.07227 H 99.118871 L 98.878636,47.257818 98.620824,47.15235 98.351292,46.9961 98.068089,46.785162 97.775121,46.519537 97.474339,46.199225 97.167699,45.822272 96.857152,45.390631 96.446996,44.74024 95.618871,43.546881 94.989964,42.748053 94.214574,41.843756 93.265355,40.824225 92.136449,39.70899 90.827855,38.523444 89.321996,37.265631 87.614964,35.95899 85.693089,34.613287 83.802464,33.39649 a 125.11834,125.11834 0 0 0 -5.867187,3.386719 l 0.107422,2.246094 0.205078,2.337891 0.279297,2.132812 0.333984,1.931641 0.375,1.726562 0.400391,1.533203 0.408203,1.333985 0.394531,1.123047 0.378906,0.945312 0.619141,1.3125 0.357422,0.681641 0.21875,0.484375 0.173828,0.453125 0.126953,0.419921 0.08203,0.386719 0.04297,0.351563 v 0.3125 l -0.03906,0.27539 -0.07422,0.232422 -0.113281,0.19336 -0.185547,0.179687 -1.410156,1.021485 -1.546876,1.166015 -1.52539,1.191406 -1.353516,1.097657 -0.220703,0.132812 -0.214844,0.05859 -0.246093,0.01172 -0.273438,-0.0332 -0.302734,-0.08203 L 74.6052,61.810555 74.253637,61.630867 73.88059,61.398446 73.486059,61.115242 73.075903,60.777352 72.509497,60.255867 71.402075,59.318367 70.587622,58.708992 69.6052,58.035164 68.423559,57.29493 67.044653,56.511727 65.47434,55.705086 63.69309,54.880867 61.706762,54.060555 59.501684,53.255867 57.361059,52.57032 a 125.11834,125.11834 0 0 0 -4.791016,4.791016 l 0.685547,2.142578 0.802735,2.203125 0.820312,1.988281 0.824219,1.779297 0.808594,1.570313 0.783203,1.378906 0.740234,1.181641 0.673828,0.984375 0.607422,0.8125 0.939453,1.107422 0.521485,0.566406 0.335937,0.412109 0.285157,0.392578 0.230468,0.373047 0.181641,0.351563 0.130859,0.328125 0.08203,0.302734 0.0332,0.275391 -0.01172,0.246093 -0.05859,0.212891 -0.134766,0.222656 -1.095703,1.351563 -1.193359,1.52539 -1.164062,1.548829 -1.023438,1.408203 -0.179688,0.1875 -0.191406,0.111328 -0.234375,0.07617 -0.273437,0.03711 H 56.18137 l -0.34961,-0.04102 -0.386719,-0.08398 -0.419921,-0.126953 -0.455079,-0.171875 -0.482421,-0.220703 -0.683594,-0.357422 -1.3125,-0.619141 -0.943359,-0.376953 -1.123047,-0.396484 -1.333985,-0.408203 -1.533203,-0.400391 -1.726562,-0.375 -1.933594,-0.333984 -2.130859,-0.279297 -2.337891,-0.205078 -2.246094,-0.107422 a 125.11834,125.11834 0 0 0 -3.386719,5.867187 l 1.214844,1.892578 1.347656,1.919922 1.306641,1.707032 1.255859,1.507812 1.1875,1.306641 1.113282,1.128906 1.021484,0.951172 0.904297,0.775391 0.798828,0.626953 1.193359,0.828125 0.650391,0.412109 0.431641,0.308594 0.376953,0.30664 0.320312,0.300782 0.265625,0.292968 0.210938,0.283203 0.15625,0.271485 0.103515,0.255859 0.05273,0.240235 -0.002,0.222656 -0.07227,0.248047 -0.707031,1.589849 -0.757813,1.7832 -0.724609,1.79688 -0.623047,1.625 -0.125,0.22656 -0.158203,0.1582 -0.205078,0.13281 -0.25586,0.10938 -0.302734,0.0801 -0.349609,0.0508 -0.394532,0.0195 -0.439453,-0.0137 -0.482422,-0.0508 -0.523437,-0.0859 -0.751953,-0.16797 -1.427735,-0.25977 -1.009765,-0.11914 -1.1875,-0.0918 -1.394532,-0.0508 -1.585937,0.0117 -1.763672,0.084 -1.953125,0.17773 -2.130859,0.28321 -2.3125,0.40625 -2.197266,0.47656 a 125.11834,125.11834 0 0 0 -1.753906,6.54492 l 1.666015,1.51172 1.796876,1.50781 1.705078,1.31055 1.603515,1.13086 1.484375,0.95508 1.369141,0.80078 1.230469,0.65429 1.074218,0.51563 0.935547,0.40039 1.365235,0.49023 0.736328,0.22852 0.496094,0.1875 0.443359,0.19922 0.386719,0.20703 0.332031,0.21484 0.277344,0.21875 0.222656,0.22071 0.166015,0.2207 0.113282,0.21875 0.05664,0.21484 -0.0059,0.25977 -0.273437,1.71875 -0.269532,1.91797 -0.236328,1.92187 -0.179687,1.73242 -0.0625,0.25196 -0.111329,0.1914 -0.164062,0.1836 -0.21875,0.16992 -0.271484,0.15625 -0.324219,0.13867 -0.376953,0.1211 -0.427735,0.10156 -0.478515,0.0762 -0.529297,0.0527 -0.769531,0.0312 -1.445313,0.11915 -1.005859,0.14453 -1.171875,0.21875 -1.359375,0.31445 -1.527344,0.41992 -1.681641,0.53906 -1.841797,0.67579 -1.986328,0.82617 -2.126953,0.99023 -2,1.0293 a 125.11834,125.11834 0 0 0 0,6.77539 l 2,1.0293 2.126953,0.99023 1.986328,0.82617 1.841797,0.67578 1.681641,0.53907 1.527344,0.41992 1.359375,0.31445 1.171875,0.21875 1.005859,0.14453 1.445313,0.11914 0.769531,0.0312 0.529297,0.0527 0.478515,0.0781 0.427735,0.0996 0.376953,0.12109 0.324219,0.13868 0.271484,0.15625 0.21875,0.16992 0.164062,0.18359 0.111329,0.19336 0.0625,0.25 0.179687,1.73242 0.236328,1.92188 0.269532,1.91797 0.273437,1.71875 0.0059,0.25976 -0.05664,0.21485 -0.113282,0.21875 -0.166015,0.2207 -0.222656,0.22266 -0.277344,0.21875 -0.332031,0.21289 -0.386719,0.20703 -0.443359,0.19922 -0.496094,0.1875 -0.736328,0.22851 -1.365235,0.49024 -0.935547,0.40039 -1.074218,0.51562 -1.230469,0.6543 -1.369141,0.80078 -1.484375,0.95703 -1.603515,1.12891 -1.705078,1.31055 -1.796876,1.50781 -1.666015,1.51172 a 125.11834,125.11834 0 0 0 1.753906,6.54492 l 2.197266,0.47656 2.3125,0.40625 2.130859,0.2832 1.953125,0.17774 1.763672,0.084 1.585937,0.0117 1.394532,-0.0488 1.1875,-0.0918 1.009765,-0.1211 1.427735,-0.25781 0.751953,-0.16992 0.523437,-0.0859 0.482422,-0.0488 0.439453,-0.0156 0.394532,0.0195 0.349609,0.0508 0.302734,0.0801 0.25586,0.10937 0.205078,0.13282 0.158203,0.1582 0.125,0.22656 0.623047,1.625 0.724609,1.79688 0.757813,1.7832 0.707031,1.58984 0.07227,0.24805 0.002,0.22266 -0.05273,0.24023 -0.103515,0.25781 -0.15625,0.26953 -0.210938,0.28321 -0.265625,0.29297 -0.320312,0.30078 -0.376953,0.30664 -0.431641,0.31054 -0.650391,0.41016 -1.193359,0.82813 -0.798828,0.6289 -0.904297,0.77539 -1.021484,0.94922 -1.113282,1.12891 -1.1875,1.30859 -1.255859,1.50586 -1.306641,1.70703 -1.347656,1.92188 -1.214844,1.89062 a 125.11834,125.11834 0 0 0 3.386719,5.86719 l 2.246094,-0.10742 2.337891,-0.20508 2.130859,-0.2793 1.933594,-0.33398 1.726562,-0.375 1.533203,-0.40039 1.333985,-0.40821 1.123047,-0.39648 0.943359,-0.37695 1.3125,-0.61914 0.683594,-0.35743 0.482421,-0.21874 0.455079,-0.17383 0.419921,-0.12696 0.386719,-0.084 0.34961,-0.041 h 0.314453 l 0.273437,0.0391 0.234375,0.0742 0.191406,0.11132 0.179688,0.1875 1.023438,1.41016 1.164062,1.54687 1.193359,1.52539 1.095703,1.35157 0.134766,0.22265 0.05859,0.21485 0.01172,0.24414 -0.0332,0.27539 -0.08203,0.30273 -0.130859,0.32813 -0.181641,0.35156 -0.230468,0.37305 -0.285157,0.39453 -0.335937,0.41016 -0.521485,0.5664 -0.939453,1.10742 -0.607422,0.81446 -0.673828,0.98242 -0.740234,1.18164 -0.783203,1.3789 -0.808594,1.57032 -0.824219,1.77929 -0.820312,1.98829 -0.802735,2.20507 -0.685547,2.14063 a 125.11834,125.11834 0 0 0 4.791016,4.79101 l 2.140625,-0.68554 2.205078,-0.80274 1.986328,-0.82031 1.78125,-0.82422 1.570313,-0.80859 1.378906,-0.78321 1.181641,-0.74023 0.982422,-0.67383 0.814453,-0.60742 1.107422,-0.93945 0.566406,-0.52149 0.410156,-0.33789 0.394531,-0.2832 0.373047,-0.23242 0.351563,-0.17969 0.328125,-0.13086 0.302734,-0.082 0.273438,-0.0332 0.246093,0.0117 0.214844,0.0586 0.220703,0.13281 1.353516,1.09766 1.52539,1.1914 1.546876,1.16602 1.410156,1.02344 0.185547,0.17773 0.113281,0.19336 0.07422,0.23438 0.03906,0.27343 v 0.31446 l -0.04297,0.34961 -0.08203,0.38671 -0.126953,0.41993 -0.173828,0.45312 -0.21875,0.48438 -0.357422,0.68164 -0.619141,1.31445 -0.378906,0.94336 -0.394531,1.12305 -0.408203,1.33398 -0.400391,1.5332 -0.375,1.72657 -0.333984,1.93359 -0.279297,2.13086 -0.205078,2.33789 -0.107422,2.24609 a 125.11834,125.11834 0 0 0 5.867187,3.38672 l 1.890625,-1.21484 1.921875,-1.34766 1.707032,-1.30664 1.505859,-1.25781 1.308594,-1.18555 1.128906,-1.11328 0.949219,-1.02148 0.77539,-0.9043 0.628907,-0.79883 0.828125,-1.19336 0.410156,-0.65039 0.310547,-0.43164 0.30664,-0.37695 0.300782,-0.32031 0.292968,-0.26563 0.283203,-0.21094 0.269532,-0.15625 0.257812,-0.10547 0.240235,-0.0508 h 0.222656 l 0.248047,0.0723 1.589846,0.70898 1.7832,0.75782 1.79688,0.7246 1.625,0.62305 0.22656,0.125 0.1582,0.15821 0.13281,0.20507 0.10743,0.25586 0.082,0.30274 0.0508,0.34961 0.0195,0.39453 -0.0156,0.43945 -0.0488,0.48242 -0.0859,0.52344 -0.16992,0.75195 -0.25782,1.42774 -0.12109,1.00976 -0.0918,1.1875 -0.0488,1.39453 0.01,1.58399 0.0859,1.76562 0.17773,1.95313 0.28321,2.13086 0.40429,2.31054 0.47852,2.19922 a 125.11834,125.11834 0 0 0 6.54492,1.75196 l 1.51172,-1.66407 1.50781,-1.79687 1.31055,-1.70508 1.1289,-1.60351 0.95704,-1.48633 0.80078,-1.36719 0.65429,-1.23047 0.51563,-1.07617 0.39844,-0.93359 0.49218,-1.36524 0.22852,-0.73633 0.1875,-0.49609 0.19727,-0.44336 0.20898,-0.38672 0.21289,-0.33203 0.21875,-0.27734 0.22266,-0.22266 0.2207,-0.16797 0.21875,-0.11133 0.21484,-0.0566 0.25782,0.006 1.7207,0.27344 1.91797,0.26953 1.92187,0.23438 1.73242,0.18164 0.25,0.0625 0.19336,0.10937 0.1836,0.16602 0.16992,0.21875 0.15625,0.27148 0.13867,0.32422 0.1211,0.37695 0.0996,0.42774 0.0781,0.47851 0.0527,0.52735 0.0293,0.77148 0.1211,1.44531 0.14453,1.00586 0.21875,1.17188 0.3125,1.35937 0.42187,1.52735 0.53906,1.68164 0.67579,1.84179 0.82421,1.98633 0.99024,2.12696 1.03125,1.99804 a 125.11834,125.11834 0 0 0 6.77539,0 l 1.0293,-1.99804 0.99023,-2.12696 0.82617,-1.98633 0.67578,-1.84179 0.53907,-1.68164 0.41992,-1.52735 0.3125,-1.35937 0.21875,-1.17188 0.14648,-1.00586 0.11914,-1.44726 0.0312,-0.76953 0.0527,-0.52735 0.0762,-0.47851 0.10156,-0.42774 0.11914,-0.37695 0.14063,-0.32422 0.15625,-0.27148 0.16992,-0.21875 0.18359,-0.16602 0.19141,-0.10937 0.25195,-0.0625 1.73242,-0.18164 1.92188,-0.23438 1.91797,-0.27148 1.71875,-0.27149 0.25976,-0.006 0.21485,0.0566 0.21875,0.11133 0.2207,0.16797 0.2207,0.22266 0.21875,0.27539 0.21485,0.33398 0.20703,0.38672 0.19922,0.44141 0.1875,0.49804 0.22851,0.73633 0.49024,1.36524 0.40039,0.93359 0.51562,1.07617 0.65235,1.23047 0.80273,1.36719 0.95508,1.48633 1.13086,1.60351 1.31055,1.70313 1.50781,1.79882 1.51172,1.66407 a 125.11834,125.11834 0 0 0 6.54492,-1.75391 l 0.47656,-2.19727 0.40625,-2.31054 0.2832,-2.13086 0.17774,-1.95508 0.084,-1.76367 0.0117,-1.58399 -0.0508,-1.39453 -0.0918,-1.1875 -0.11914,-1.00976 -0.25781,-1.42774 -0.16992,-0.75195 -0.0859,-0.52344 -0.0508,-0.48242 -0.0137,-0.43945 0.0195,-0.39453 0.0508,-0.34961 0.0801,-0.30274 0.10937,-0.25586 0.13282,-0.20703 0.1582,-0.15625 0.22656,-0.125 1.625,-0.62305 1.79688,-0.7246 1.7832,-0.75782 1.58984,-0.70898 0.24805,-0.0723 h 0.22266 l 0.24023,0.0508 0.25586,0.10352 0.27148,0.1582 0.28321,0.21094 0.29297,0.26563 0.30078,0.32031 0.30664,0.37695 0.30859,0.43164 0.41211,0.65039 0.82813,1.19336 0.6289,0.79883 0.77344,0.9043 0.95117,1.01953 1.12891,1.11523 1.30664,1.18555 1.50781,1.25781 1.70703,1.30664 1.92188,1.34571 1.89062,1.21679 a 125.11834,125.11834 0 0 0 5.86719,-3.38672 l -0.10742,-2.24609 -0.20508,-2.33789 -0.2793,-2.13281 -0.33398,-1.93164 -0.375,-1.72657 -0.40039,-1.5332 -0.40821,-1.33398 -0.39648,-1.12305 -0.37695,-0.94531 -0.61914,-1.3125 -0.35743,-0.68164 -0.21874,-0.48438 -0.17383,-0.45312 -0.12696,-0.41993 -0.084,-0.38671 -0.041,-0.35157 v -0.3125 l 0.0371,-0.27539 0.0762,-0.23242 0.11132,-0.19336 0.1875,-0.17969 1.40821,-1.02148 1.54882,-1.16602 1.52539,-1.1914 1.35157,-1.09766 0.22265,-0.13281 0.21485,-0.0586 0.24414,-0.0137 0.27539,0.0352 0.30273,0.082 0.32813,0.13086 0.35156,0.17969 0.37305,0.23242 0.39258,0.2832 0.41211,0.33789 0.5664,0.52149 1.10742,0.9375 0.8125,0.60937 0.98438,0.67383 1.18164,0.74023 1.3789,0.78321 1.57032,0.80664 1.77929,0.82422 1.98829,0.82031 2.20312,0.80469 2.14258,0.68554 a 125.11834,125.11834 0 0 0 4.79101,-4.79101 l -0.68554,-2.14258 -0.80274,-2.20312 -0.82226,-1.98829 -0.82227,-1.77929 -0.80859,-1.57032 -0.78321,-1.3789 -0.74023,-1.18164 -0.67383,-0.98438 -0.60937,-0.8125 -0.9375,-1.10742 -0.52149,-0.5664 -0.33789,-0.41211 -0.2832,-0.39258 -0.23242,-0.37305 -0.17969,-0.35156 -0.13086,-0.32813 -0.082,-0.30273 -0.0332,-0.27539 0.0117,-0.2461 0.0586,-0.21289 0.13281,-0.22265 1.09766,-1.35157 1.1914,-1.52734 1.16602,-1.54687 1.02344,-1.40821 0.17773,-0.1875 0.19336,-0.11132 0.23438,-0.0762 0.27343,-0.0371 h 0.3125 l 0.35157,0.041 0.38671,0.084 0.41993,0.12696 0.45312,0.17187 0.48438,0.2207 0.68164,0.35743 1.31445,0.61914 0.94336,0.37695 1.12305,0.39648 1.33398,0.40821 1.5332,0.40039 1.72657,0.375 1.93359,0.33398 2.13086,0.2793 2.33789,0.20508 2.24609,0.10742 a 125.11834,125.11834 0 0 0 3.38672,-5.86719 l -1.21484,-1.89258 -1.34766,-1.91992 -1.30664,-1.70703 -1.25781,-1.50781 -1.18555,-1.30664 -1.11328,-1.12891 -1.02148,-0.95117 -0.9043,-0.77539 -0.79883,-0.62695 -1.19336,-0.82813 -0.65039,-0.41211 -0.43164,-0.30859 -0.37695,-0.30664 -0.32031,-0.30078 -0.26563,-0.29297 -0.21094,-0.28321 -0.15625,-0.27148 -0.10547,-0.25586 -0.0508,-0.24023 v -0.22266 l 0.0723,-0.24805 0.70898,-1.58984 0.75782,-1.7832 0.7246,-1.79688 0.62305,-1.625 0.125,-0.22656 0.15625,-0.1582 0.20703,-0.13282 0.25586,-0.10937 0.30274,-0.0801 0.34961,-0.0508 0.39453,-0.0195 0.43945,0.0137 0.48242,0.0508 0.52344,0.0859 0.75195,0.16797 1.42774,0.25976 1.00976,0.11914 1.1875,0.0918 1.39453,0.0508 1.58399,-0.0117 1.76562,-0.0859 1.95313,-0.17578 2.13086,-0.2832 2.31054,-0.40625 2.19922,-0.47656 a 125.11834,125.11834 0 0 0 1.75196,-6.54492 l -1.66407,-1.51172 -1.79882,-1.50781 -1.70313,-1.31055 -1.60351,-1.13086 -1.48633,-0.95508 -1.36719,-0.80078 -1.23047,-0.6543 -1.07617,-0.51562 -0.93359,-0.40039 -1.36524,-0.49024 -0.73633,-0.22851 -0.49804,-0.1875 -0.44141,-0.19922 -0.38672,-0.20703 -0.33398,-0.21485 -0.27539,-0.21875 -0.22266,-0.2207 -0.16797,-0.2207 -0.11133,-0.21875 -0.0566,-0.21485 0.006,-0.25976 0.27149,-1.71875 0.27148,-1.91797 0.23438,-1.92188 0.18164,-1.73242 0.0625,-0.25195 0.10937,-0.19141 0.16602,-0.18359 0.21875,-0.16992 0.27148,-0.15625 0.32422,-0.13868 0.375,-0.12109 0.42969,-0.10156 0.47851,-0.0762 0.52735,-0.0527 0.76953,-0.0312 1.44726,-0.11914 1.00586,-0.14453 1.17188,-0.2207 1.35937,-0.3125 1.52735,-0.41992 1.68164,-0.53907 1.84179,-0.67578 1.98633,-0.82617 2.12696,-0.99023 1.99804,-1.0293 a 125.11834,125.11834 0 0 0 0,-6.77539 l -1.99804,-1.0293 -2.12696,-0.99023 -1.98633,-0.82617 -1.84179,-0.67579 -1.68164,-0.53906 -1.52735,-0.41992 -1.35937,-0.31445 -1.17188,-0.21875 -1.00586,-0.14453 -1.44726,-0.11915 -0.76953,-0.0312 -0.52735,-0.0527 -0.48047,-0.0781 -0.42773,-0.0996 -0.375,-0.1211 -0.32422,-0.13867 -0.27344,-0.15625 -0.21679,-0.16992 -0.16602,-0.1836 -0.10937,-0.19336 -0.0625,-0.25 -0.18164,-1.73242 -0.23438,-1.92187 -0.27148,-1.91797 -0.27149,-1.71875 -0.006,-0.25977 0.0566,-0.21484 0.11133,-0.21875 0.16797,-0.2207 0.2207,-0.22266 0.27735,-0.21875 0.33398,-0.21289 0.38672,-0.20703 0.44141,-0.19922 0.49804,-0.1875 0.73438,-0.22852 1.36719,-0.49023 0.93359,-0.40039 1.07617,-0.51563 1.23047,-0.65429 1.36719,-0.80078 1.48633,-0.95704 1.60351,-1.1289 1.70313,-1.31055 1.79882,-1.50781 1.66407,-1.51172 a 125.11834,125.11834 0 0 0 -1.75391,-6.54492 l -2.19727,-0.47656 -2.31054,-0.40625 -2.13086,-0.28321 -1.95508,-0.17773 -1.76367,-0.084 -1.58399,-0.0117 -1.39453,0.0508 -1.1875,0.0918 -1.00976,0.11914 -1.42774,0.25977 -0.75195,0.16797 -0.52344,0.0859 -0.48242,0.0508 -0.43945,0.0137 -0.39649,-0.0195 -0.34765,-0.0508 -0.30469,-0.0801 -0.25391,-0.10938 -0.20703,-0.13281 -0.15625,-0.1582 -0.125,-0.22656 -0.62305,-1.625 -0.7246,-1.79688 -0.75782,-1.7832 -0.70898,-1.589849 -0.0723,-0.248047 v -0.222656 l 0.0508,-0.240235 0.10352,-0.255859 0.1582,-0.271485 0.21094,-0.283203 0.26563,-0.292968 0.32031,-0.300782 0.37695,-0.30664 0.43164,-0.308594 0.65039,-0.412109 1.19336,-0.828125 0.79883,-0.626953 0.9043,-0.775391 1.01953,-0.951172 1.11328,-1.128906 1.1875,-1.306641 1.25781,-1.507812 1.30664,-1.707032 1.34571,-1.919922 1.21679,-1.892578 a 125.11834,125.11834 0 0 0 -3.38672,-5.867187 l -2.24609,0.107422 -2.33789,0.205078 -2.13281,0.279297 -1.93164,0.333984 -1.72657,0.375 -1.5332,0.400391 -1.33398,0.408203 -1.125,0.396484 -0.94336,0.376953 -1.3125,0.619141 -0.68164,0.357422 -0.48438,0.220703 -0.45312,0.171875 -0.41993,0.126953 -0.38671,0.08398 -0.35157,0.04102 h -0.3125 l -0.27539,-0.03711 -0.23242,-0.07617 -0.19336,-0.111328 -0.17969,-0.1875 -1.02148,-1.408203 -1.16602,-1.548829 -1.19336,-1.52539 -1.0957,-1.351563 -0.13476,-0.222656 -0.0566,-0.212891 -0.0137,-0.246093 0.0352,-0.275391 0.082,-0.302734 0.13086,-0.328125 0.17969,-0.351563 0.23242,-0.373047 0.2832,-0.392578 0.33789,-0.412109 0.52149,-0.566406 0.9375,-1.107422 0.60937,-0.8125 0.67383,-0.984375 0.73828,-1.181641 0.78516,-1.378906 0.80664,-1.570313 0.82422,-1.779297 0.82031,-1.988281 0.80469,-2.203125 0.68554,-2.142578 a 125.11834,125.11834 0 0 0 -4.79101,-4.791016 l -2.14258,0.685547 -2.20312,0.804688 -1.98829,0.820312 -1.78125,0.824219 -1.57031,0.806641 -1.37695,0.783203 -1.18164,0.740234 -0.98438,0.673828 -0.8125,0.609375 -1.10937,0.9375 -0.56445,0.521485 -0.41211,0.33789 -0.39258,0.283204 -0.37305,0.232421 -0.35156,0.179688 -0.32813,0.130859 -0.30273,0.08203 -0.27539,0.0332 -0.2461,-0.01172 -0.21289,-0.05859 -0.22265,-0.132812 -1.35157,-1.097657 -1.52734,-1.191406 -1.54687,-1.166015 -1.40821,-1.021485 -0.1875,-0.179687 -0.11132,-0.19336 -0.0762,-0.232422 -0.0371,-0.27539 v -0.3125 l 0.041,-0.351563 0.084,-0.386719 0.12696,-0.419921 0.17187,-0.453125 0.21875,-0.484375 0.35938,-0.681641 0.61914,-1.3125 0.37695,-0.945312 0.39648,-1.123047 0.40821,-1.333985 0.40039,-1.533203 0.37305,-1.726562 0.33593,-1.931641 0.27735,-2.132812 0.20703,-2.337891 0.10742,-2.246094 a 125.11834,125.11834 0 0 0 -5.86719,-3.386719 l -1.89258,1.216797 -1.91992,1.345703 -1.70703,1.306641 -1.50781,1.257813 -1.30664,1.185546 -1.12891,1.115235 -0.95117,1.019531 -0.77539,0.904297 -0.62695,0.798828 -0.82813,1.193359 -0.41211,0.650391 -0.30859,0.431641 -0.30664,0.376953 -0.30078,0.320312 -0.29297,0.265625 -0.28321,0.210938 -0.27148,0.15625 -0.25586,0.105468 -0.24023,0.05078 h -0.22266 l -0.24805,-0.07227 -1.59179,-0.708984 -1.78125,-0.757813 -1.79688,-0.724609 -1.625,-0.623047 -0.22656,-0.125 -0.1582,-0.15625 -0.13477,-0.207031 -0.10742,-0.25586 -0.0801,-0.302734 -0.0508,-0.349609 -0.0195,-0.394532 0.0137,-0.439453 0.0488,-0.482422 0.0879,-0.523437 0.16797,-0.751953 0.25976,-1.427735 0.11914,-1.009765 0.0918,-1.1875 0.0488,-1.394532 -0.01,-1.583984 -0.0859,-1.763672 -0.17578,-1.955078 -0.2832,-2.130859 -0.40625,-2.310547 -0.47656,-2.197266 A 125.11834,125.11834 0 0 0 172.5036,21.71895 l -1.51172,1.664062 -1.50781,1.798829 -1.31055,1.703125 -1.13086,1.603515 -0.95508,1.486328 -0.80273,1.367188 -0.65235,1.230469 -0.51562,1.076172 -0.40039,0.933593 -0.49024,1.367188 -0.22851,0.734375 -0.1875,0.498047 -0.19922,0.441406 -0.20703,0.386719 -0.21485,0.333984 -0.21875,0.277344 -0.2207,0.220703 -0.2207,0.167969 -0.21875,0.111328 -0.21485,0.05664 -0.25976,-0.0059 -1.71875,-0.271484 -1.91797,-0.271485 -1.92383,-0.234375 -1.73047,-0.18164 -0.25195,-0.0625 -0.19141,-0.109375 -0.18359,-0.166016 -0.16992,-0.216797 -0.15625,-0.273437 -0.14063,-0.324219 -0.11914,-0.375 -0.10156,-0.429688 -0.0762,-0.478515 -0.0527,-0.527344 -0.0312,-0.769531 -0.11914,-1.447266 -0.14648,-1.005859 -0.21875,-1.171875 -0.3125,-1.359375 -0.41992,-1.527344 -0.53907,-1.681641 -0.67578,-1.841797 -0.82617,-1.986328 -0.99023,-2.126953 -1.0293,-1.998047 a 125.11834,125.11834 0 0 0 -6.77539,0 z m 3.38672,40.263672 A 18.897638,18.897638 0 0 1 162.30273,77.496094 18.897638,18.897638 0 0 1 143.4043,96.394531 18.897638,18.897638 0 0 1 124.50781,77.496094 18.897638,18.897638 0 0 1 143.4043,58.597656 Z m -9.9961,54.919924 h 19.99219 v 12.49609 a 19.98994,19.98994 0 0 1 9.99414,17.3086 19.98994,19.98994 0 0 1 -19.99219,19.98828 19.98994,19.98994 0 0 1 -19.98828,-19.98828 19.98994,19.98994 0 0 1 9.99414,-17.29883 z M 77.496094,124.50781 A 18.897638,18.897638 0 0 1 96.392578,143.4043 18.897638,18.897638 0 0 1 77.496094,162.30273 18.897638,18.897638 0 0 1 58.597656,143.4043 18.897638,18.897638 0 0 1 77.496094,124.50781 Z m 131.818356,0 a 18.897638,18.897638 0 0 1 18.89844,18.89649 18.897638,18.897638 0 0 1 -18.89844,18.89843 18.897638,18.897638 0 0 1 -18.89843,-18.89843 18.897638,18.897638 0 0 1 18.89843,-18.89649 z m -65.91015,65.90821 a 18.897638,18.897638 0 0 1 18.89843,18.89843 18.897638,18.897638 0 0 1 -18.89843,18.89844 18.897638,18.897638 0 0 1 -18.89649,-18.89844 18.897638,18.897638 0 0 1 18.89649,-18.89843 z"
                   transform="matrix(0.26458333,0,0,0.26458333,-37.942539,-37.942589)" />
              </g>
            </g>
          </g>
        </g>
      </g>
    </g>
  </g>
</svg>
