<?xml version="1.0" encoding="UTF-8"?>
<svg version="1.1" xmlns="http://www.w3.org/2000/svg" width="392" height="392">
<path d="M0 0 C129.36 0 258.72 0 392 0 C392 129.36 392 258.72 392 392 C262.64 392 133.28 392 0 392 C0 262.64 0 133.28 0 0 Z M8 8 C8 132.08 8 256.16 8 384 C132.08 384 256.16 384 384 384 C384 259.92 384 135.84 384 8 C259.92 8 135.84 8 8 8 Z " fill="#000000" transform="translate(0,0)"/>
<path d="M0 0 C0.69875244 0.00247742 1.39750488 0.00495483 2.11743164 0.00750732 C3.22254845 -0.00015907 3.22254845 -0.00015907 4.34999084 -0.00798035 C6.79216574 -0.02191206 9.23405955 -0.0209169 11.67626953 -0.01861572 C13.37016404 -0.02250079 15.06405757 -0.02683506 16.75794983 -0.03160095 C20.31140295 -0.03907092 23.86475673 -0.03876636 27.41821289 -0.0335083 C31.97601559 -0.02771358 36.53341193 -0.04464078 41.09114742 -0.06785297 C44.59040207 -0.08257242 48.08955846 -0.08346445 51.58883858 -0.08034325 C53.26939257 -0.08085739 54.94995193 -0.08611262 56.630476 -0.09615517 C58.97926233 -0.1084675 61.32725218 -0.10175979 63.67602539 -0.09014893 C64.3727536 -0.09779266 65.06948181 -0.1054364 65.787323 -0.11331177 C70.47572015 -0.06198447 70.47572015 -0.06198447 72.64091301 1.47217751 C74.44368838 3.94318869 74.33093232 5.57072032 74.32218933 8.61619568 C74.32631332 9.72257385 74.33043732 10.82895203 74.33468628 11.96885681 C74.32390045 13.18301773 74.31311462 14.39717865 74.30200195 15.64813232 C74.30265907 17.56536606 74.30265907 17.56536606 74.30332947 19.52133179 C74.30419117 23.02736686 74.2865374 26.53309482 74.2656076 30.03905845 C74.24686981 33.70258263 74.24509265 37.36611364 74.24153137 41.02967834 C74.23220236 47.96763443 74.20757707 54.90544891 74.1774829 61.8433426 C74.13769982 71.21816124 74.12149093 80.59301853 74.10397625 89.96790028 C74.07575651 104.73942812 74.01599285 119.51065712 73.96142578 134.28216553 C95.41142578 134.28216553 116.86142578 134.28216553 138.96142578 134.28216553 C138.96142578 127.68216553 138.96142578 121.08216553 138.96142578 114.28216553 C141.43642578 113.29216553 141.43642578 113.29216553 143.96142578 112.28216553 C144.95142578 112.94216553 145.94142578 113.60216553 146.96142578 114.28216553 C146.96142578 120.88216553 146.96142578 127.48216553 146.96142578 134.28216553 C168.08142578 134.28216553 189.20142578 134.28216553 210.96142578 134.28216553 C210.93822266 124.77661865 210.91501953 115.27107178 210.89111328 105.47747803 C210.88089942 99.47096653 210.8711893 93.4644613 210.86376953 87.45794678 C210.85188699 77.91511901 210.83789323 68.37232647 210.81054688 58.82952881 C210.79064305 51.88058315 210.77771651 44.93166597 210.77324879 37.9826926 C210.77063629 34.30158835 210.76447551 30.62056563 210.74996567 26.93948746 C210.73391771 22.83508909 210.73344415 18.73083342 210.734375 14.62640381 C210.72718445 13.39929688 210.7199939 12.17218994 210.71258545 10.90789795 C210.71533478 9.79448029 210.71808411 8.68106262 210.72091675 7.53390503 C210.71907316 6.56233522 210.71722958 5.59076542 210.71533012 4.5897541 C210.96142578 2.28216553 210.96142578 2.28216553 212.96142578 0.28216553 C215.38972639 0.08401368 217.70396597 0.00933286 220.13330078 0.02337646 C220.87165161 0.01987183 221.61000244 0.01636719 222.37072754 0.01275635 C224.81772186 0.00393503 227.26442839 0.00978949 229.71142578 0.01654053 C231.40771541 0.01519399 233.10400466 0.01325355 234.80029297 0.01074219 C238.35794748 0.00779039 241.91550167 0.01209034 245.47314453 0.02142334 C250.03993719 0.03281794 254.60649478 0.02625876 259.17327881 0.01427841 C262.67677592 0.0070613 266.18021705 0.00934705 269.68371582 0.014534 C271.36787951 0.01587091 273.05204824 0.01422133 274.73620605 0.00957489 C277.08745852 0.00451206 279.43832701 0.0122162 281.78955078 0.02337646 C282.48987427 0.019328 283.19019775 0.01527954 283.91174316 0.0111084 C288.73289663 0.05363637 288.73289663 0.05363637 290.96142578 2.28216553 C291.21142578 4.78216553 291.21142578 4.78216553 290.96142578 7.28216553 C288.96142578 9.28216553 288.96142578 9.28216553 286.10140991 9.52267456 C284.88007355 9.51823334 283.65873718 9.51379211 282.40039062 9.50921631 C281.3741178 9.50957791 281.3741178 9.50957791 280.3271122 9.50994682 C278.10873104 9.50845203 275.89068445 9.49321209 273.67236328 9.47747803 C272.30428225 9.4745381 270.93619897 9.47249735 269.56811523 9.47137451 C264.49085115 9.46088137 259.41363519 9.43295902 254.33642578 9.40716553 C242.99267578 9.36591553 231.64892578 9.32466553 219.96142578 9.28216553 C219.96142578 50.53216553 219.96142578 91.78216553 219.96142578 134.28216553 C236.79142578 134.28216553 253.62142578 134.28216553 270.96142578 134.28216553 C270.96142578 130.98216553 270.96142578 127.68216553 270.96142578 124.28216553 C274.79239845 124.88896262 277.81110314 126.03024699 281.26220703 127.78607178 C282.23867188 128.27913818 283.21513672 128.77220459 284.22119141 129.2802124 C285.22859375 129.79648193 286.23599609 130.31275146 287.27392578 130.84466553 C288.30066406 131.36480225 289.32740234 131.88493896 290.38525391 132.4208374 C292.91344038 133.70256915 295.43864978 134.98982614 297.96142578 136.28216553 C297.96142578 137.27216553 297.96142578 138.26216553 297.96142578 139.28216553 C294.2782071 141.13610157 290.59369967 142.98744745 286.90795898 144.83636475 C285.65336663 145.46618084 284.39913363 146.09671326 283.14526367 146.72796631 C281.34664222 147.63331745 279.54663328 148.53591049 277.74658203 149.43841553 C276.66256104 149.98304443 275.57854004 150.52767334 274.46166992 151.08880615 C271.96142578 152.28216553 271.96142578 152.28216553 270.96142578 152.28216553 C270.96142578 149.31216553 270.96142578 146.34216553 270.96142578 143.28216553 C186.15142578 143.28216553 101.34142578 143.28216553 13.96142578 143.28216553 C13.96142578 146.25216553 13.96142578 149.22216553 13.96142578 152.28216553 C10.98039454 150.89020893 8.00162504 149.49371857 5.02392578 148.09466553 C3.77772461 147.51362061 3.77772461 147.51362061 2.50634766 146.9208374 C-3.14262065 144.26120641 -8.62008765 141.38417741 -14.03857422 138.28216553 C-11.66380946 135.6198316 -9.21586338 134.17765268 -6.03857422 132.58294678 C-5.06919922 132.09632568 -4.09982422 131.60970459 -3.10107422 131.1083374 C-1.58513672 130.35906982 -1.58513672 130.35906982 -0.03857422 129.59466553 C0.97205078 129.08355225 1.98267578 128.57243896 3.02392578 128.0458374 C4.47798828 127.32170654 4.47798828 127.32170654 5.96142578 126.58294678 C6.84830078 126.14120117 7.73517578 125.69945557 8.64892578 125.24432373 C10.96142578 124.28216553 10.96142578 124.28216553 13.96142578 124.28216553 C13.96142578 127.58216553 13.96142578 130.88216553 13.96142578 134.28216553 C30.79142578 134.28216553 47.62142578 134.28216553 64.96142578 134.28216553 C64.96142578 93.03216553 64.96142578 51.78216553 64.96142578 9.28216553 C42.01435754 9.36136847 42.01435754 9.36136847 19.06738281 9.46234131 C14.63305664 9.47137451 14.63305664 9.47137451 12.55831909 9.47305298 C11.10672786 9.47612771 9.65514179 9.48316917 8.20358276 9.49331665 C6.00705058 9.50790677 3.81083102 9.50997921 1.61425781 9.50921631 C0.37515656 9.51365753 -0.8639447 9.51809875 -2.14059448 9.52267456 C-5.03857422 9.28216553 -5.03857422 9.28216553 -7.03857422 7.28216553 C-7.28857422 4.78216553 -7.28857422 4.78216553 -7.03857422 2.28216553 C-4.6090636 -0.14734509 -3.31630478 0.036833 0 0 Z " fill="#000000" transform="translate(53.03857421875,165.71783447265625)"/>
<path d="M0 0 C2.67539325 2.38199785 4.10738942 4.84083737 5.69921875 8.03515625 C6.42915039 9.49598633 6.42915039 9.49598633 7.17382812 10.98632812 C7.9230957 12.5090332 7.9230957 12.5090332 8.6875 14.0625 C9.19861328 15.08150391 9.70972656 16.10050781 10.23632812 17.15039062 C14 24.73300859 14 24.73300859 14 27 C11.03 27 8.06 27 5 27 C5.01047363 27.95890137 5.02094727 28.91780273 5.03173828 29.90576172 C5.06789328 33.45780719 5.09088393 37.00983634 5.10986328 40.56201172 C5.11993118 42.10045098 5.13358646 43.63887107 5.15087891 45.17724609 C5.17509317 47.38644133 5.18647491 49.59538395 5.1953125 51.8046875 C5.20563507 52.49432587 5.21595764 53.18396423 5.22659302 53.89450073 C5.22699478 55.59800906 5.12191026 57.30085943 5 59 C4.34 59.66 3.68 60.32 3 61 C-1.55555556 60.44444444 -1.55555556 60.44444444 -3 59 C-3.0883967 56.6243148 -3.11530305 54.27791326 -3.09765625 51.90234375 C-3.0962413 51.19348526 -3.09482635 50.48462677 -3.09336853 49.75428772 C-3.08775443 47.48198288 -3.07519963 45.20977525 -3.0625 42.9375 C-3.05748681 41.40039204 -3.05292359 39.86328255 -3.04882812 38.32617188 C-3.03778042 34.55074358 -3.02050641 30.77538829 -3 27 C-6.3 27 -9.6 27 -13 27 C-11.32246669 21.21969949 -8.64724599 16.03416995 -5.9375 10.6875 C-5.47794922 9.76904297 -5.01839844 8.85058594 -4.54492188 7.90429688 C-1.14055525 1.14055525 -1.14055525 1.14055525 0 0 Z " fill="#000000" transform="translate(195,42)"/>
<path d="M0 0 C1 1 1 1 1.0625 3.5625 C1.041875 4.366875 1.02125 5.17125 1 6 C-0.32 6.33 -1.64 6.66 -3 7 C-3.33 5.35 -3.66 3.7 -4 2 C-8.43601966 5.51822249 -9.52033129 9.75390186 -11 15 C-9.02 15 -7.04 15 -5 15 C-5 15.66 -5 16.32 -5 17 C-7.31 17 -9.62 17 -12 17 C-12.11730469 18.28519531 -12.23460937 19.57039063 -12.35546875 20.89453125 C-12.920968 25.95431348 -14.01528203 30.77068904 -15.3125 35.6875 C-15.51294922 36.50283203 -15.71339844 37.31816406 -15.91992188 38.15820312 C-17.38588703 43.7724412 -19.10112745 48.77753105 -23.875 52.4375 C-26.82195995 53.21757763 -29.06943943 52.71635925 -32 52 C-33 51 -33 51 -33.0625 48.4375 C-33.041875 47.633125 -33.02125 46.82875 -33 46 C-31.35 46 -29.7 46 -28 46 C-28 47.32 -28 48.64 -28 50 C-24.11506183 47.41004122 -24.12074713 45.7814792 -23 41.3125 C-22.83338867 40.65564209 -22.66677734 39.99878418 -22.49511719 39.32202148 C-20.74307167 32.26777702 -19.33740561 25.14296181 -18 18 C-19.32 17.67 -20.64 17.34 -22 17 C-22 16.34 -22 15.68 -22 15 C-20.88625 15.0309375 -20.88625 15.0309375 -19.75 15.0625 C-16.90113104 14.30004667 -16.90113104 14.30004667 -15.953125 12.10546875 C-15.3053763 10.50467996 -14.65961367 8.90308638 -14.015625 7.30078125 C-10.89670702 0.23523245 -7.08013235 -0.70801323 0 0 Z " fill="#000000" transform="translate(217,311)"/>
<path d="M0 0 C0.02464928 5.25105442 0.04283568 10.50207545 0.05493164 15.75317383 C0.05997218 17.54094021 0.06680454 19.32870245 0.07543945 21.11645508 C0.0875173 23.68051168 0.09323094 26.24451397 0.09765625 28.80859375 C0.10281754 29.6127623 0.10797882 30.41693085 0.11329651 31.24546814 C0.11349215 33.16401715 0.06201983 35.08245368 0 37 C-1 38 -1 38 -4 38.125 C-7 38 -7 38 -8 37 C-8.08858646 34.26105915 -8.11523479 31.5474673 -8.09765625 28.80859375 C-8.0962413 27.98875504 -8.09482635 27.16891632 -8.09336853 26.32423401 C-8.08775289 23.69528618 -8.07519779 21.06642227 -8.0625 18.4375 C-8.05748701 16.65950643 -8.05292376 14.88151154 -8.04882812 13.10351562 C-8.03777839 8.73564455 -8.02050331 4.36783652 -8 0 C-5.13822943 -1.43088528 -3.06624227 -0.59991697 0 0 Z " fill="#000000" transform="translate(200,172)"/>
<path d="M0 0 C3 0.125 3 0.125 4 1.125 C4.08858646 3.86394085 4.11523479 6.5775327 4.09765625 9.31640625 C4.0962413 10.13624496 4.09482635 10.95608368 4.09336853 11.80076599 C4.08775289 14.42971382 4.07519779 17.05857773 4.0625 19.6875 C4.05748701 21.46549357 4.05292376 23.24348846 4.04882812 25.02148438 C4.03777839 29.38935545 4.02050331 33.75716348 4 38.125 C1.125 38.75 1.125 38.75 -2 39.125 C-4.55433751 36.57066249 -4.23730793 34.91766117 -4.25224304 31.43528748 C-4.24146477 30.27429283 -4.24146477 30.27429283 -4.23046875 29.08984375 C-4.23001053 28.2959877 -4.22955231 27.50213165 -4.2290802 26.68421936 C-4.22605765 25.00552883 -4.21817125 23.3268411 -4.20581055 21.64819336 C-4.18754885 19.06939842 -4.18530087 16.49096223 -4.18554688 13.91210938 C-4.18063196 12.28385104 -4.17480376 10.65559516 -4.16796875 9.02734375 C-4.16685593 8.25132309 -4.1657431 7.47530243 -4.16459656 6.67576599 C-4.1064926 0.17110386 -4.1064926 0.17110386 0 0 Z " fill="#000000" transform="translate(196,224.875)"/>
<path d="M0 0 C4.55555556 0.55555556 4.55555556 0.55555556 6 2 C6.10095564 4.65456193 6.13970998 7.28255176 6.1328125 9.9375 C6.13376923 10.732771 6.13472595 11.52804199 6.13571167 12.34741211 C6.13639343 14.0320646 6.13453943 15.71671971 6.13037109 17.40136719 C6.12502275 19.98899197 6.13031619 22.57644316 6.13671875 25.1640625 C6.13605797 26.79687539 6.1347768 28.42968816 6.1328125 30.0625 C6.13483673 30.84165771 6.13686096 31.62081543 6.13894653 32.42358398 C6.11495105 37.88504895 6.11495105 37.88504895 5 39 C2 39.125 2 39.125 -1 39 C-3.01974733 36.98025267 -2.16399439 32.86915483 -2.16796875 30.09765625 C-2.17129715 29.30475693 -2.17462555 28.5118576 -2.17805481 27.69493103 C-2.18312726 26.01448142 -2.18546304 24.33402171 -2.18530273 22.65356445 C-2.18748786 20.07681741 -2.20563609 17.50049924 -2.22460938 14.92382812 C-2.22754345 13.2942723 -2.22952815 11.66471444 -2.23046875 10.03515625 C-2.23765427 9.26115982 -2.24483978 8.48716339 -2.25224304 7.68971252 C-2.22882253 2.22882253 -2.22882253 2.22882253 0 0 Z " fill="#000000" transform="translate(194,117)"/>
</svg>
