<?xml version="1.0" encoding="UTF-8"?>
<svg version="1.1" xmlns="http://www.w3.org/2000/svg" width="392" height="392">
<path d="M0 0 C129.36 0 258.72 0 392 0 C392 129.36 392 258.72 392 392 C262.64 392 133.28 392 0 392 C0 262.64 0 133.28 0 0 Z M8 8 C8 132.08 8 256.16 8 384 C132.08 384 256.16 384 384 384 C384 259.92 384 135.84 384 8 C259.92 8 135.84 8 8 8 Z " fill="#000000" transform="translate(0,0)"/>
<path d="M0 0 C1.0209375 0.45117188 2.041875 0.90234375 3.09375 1.3671875 C23.70272023 11.42156375 38.01052397 30.06087194 50 49 C55.514352 44.46597724 60.39878251 39.51451692 65.25390625 34.29296875 C68.31214266 31.7393631 70.04322047 31.07214325 74 31 C76 33 76 33 76.3984375 35.32104492 C75.84967014 39.01076564 74.28559376 40.28583105 71.625 42.86328125 C70.72265625 43.74951172 69.8203125 44.63574219 68.890625 45.54882812 C67.93671875 46.46083984 66.9828125 47.37285156 66 48.3125 C65.03532198 49.25208992 64.07176615 50.19283347 63.109375 51.13476562 C60.75038867 53.43477729 58.38054213 55.72234034 56 58 C62.41991397 74.71640066 77.7068544 90.91075007 93.875 98.375 C103.46038633 102.44259937 114.89603193 102.53727708 124.6875 99.0625 C141.06908477 91.89937225 153.22602507 79.58339949 163.6875 65.4375 C164.15124023 64.81238525 164.61498047 64.18727051 165.09277344 63.54321289 C168.03945202 59.50346293 170.59157404 55.3825456 173 51 C173.66 51 174.32 51 175 51 C175 51.66 175 52.32 175 53 C177.31 53 179.62 53 182 53 C179.97825007 59.17527699 177.35681646 63.76805101 173.375 68.875 C172.84229492 69.57044922 172.30958984 70.26589844 171.76074219 70.98242188 C167.43592674 76.57069571 162.88620088 81.89295388 158 87 C157.34644531 87.70511719 156.69289063 88.41023438 156.01953125 89.13671875 C143.7863683 101.95590148 127.50012001 110.86916285 109.625 111.4375 C92.39937681 111.01863986 78.31454909 102.66046711 66.48339844 90.59472656 C59.81201855 83.42266379 53.91180623 75.46863143 49 67 C45.42254315 68.50371543 43.2708959 70.57174679 40.62890625 73.38671875 C39.80712891 74.24201172 38.98535156 75.09730469 38.13867188 75.97851562 C36.4172106 77.78872547 34.70367349 79.60650324 32.99804688 81.43164062 C32.17498047 82.28306641 31.35191406 83.13449219 30.50390625 84.01171875 C29.75955322 84.80022217 29.0152002 85.58872559 28.24829102 86.40112305 C26 88 26 88 23.28100586 87.81176758 C21 87 21 87 20 86 C20.25242012 80.2416117 21.53992054 77.74934575 25.7265625 73.86328125 C26.6753125 72.95642578 27.6240625 72.04957031 28.6015625 71.11523438 C29.6079221 70.17942471 30.61575338 69.24519536 31.625 68.3125 C33.61135511 66.46879555 35.57821294 64.60963699 37.5390625 62.73828125 C38.41771973 61.92399658 39.29637695 61.10971191 40.20166016 60.27075195 C42.25531235 58.19988848 42.25531235 58.19988848 41.85644531 55.84790039 C31.82798259 34.21009129 12.94709073 16.18169827 -8.75 6.8125 C-21.46891087 3.63277228 -32.84330344 5.39227382 -44.15234375 12.03125 C-60.26097669 23.16808265 -70.40663502 39.30043875 -80 56 C-82.9719385 54.87548273 -85.33440687 53.77706209 -88 52 C-83.79579249 40.42192067 -76.01281533 30.18289372 -68 21 C-67.41605469 20.28328125 -66.83210938 19.5665625 -66.23046875 18.828125 C-50.1933118 -0.55167122 -23.8418818 -10.93844577 0 0 Z " fill="#000000" transform="translate(148,208)"/>
<path d="M0 0 C13.86585244 9.66407897 24.41633062 22.25895488 34 36 C34.99589192 37.33640453 35.99501275 38.67042172 37 40 C37.51385254 39.45472656 38.02770508 38.90945312 38.55712891 38.34765625 C40.89719559 35.88276495 43.26051534 33.44146789 45.625 31 C46.43324219 30.14148438 47.24148437 29.28296875 48.07421875 28.3984375 C48.86699219 27.58632812 49.65976563 26.77421875 50.4765625 25.9375 C51.5605835 24.80634766 51.5605835 24.80634766 52.66650391 23.65234375 C55.62959152 21.55418755 57.44468367 21.6053118 61 22 C62 23 62 23 62.32446289 25.77709961 C61.9143139 29.85112279 60.79527439 30.83883718 57.80859375 33.56640625 C56.94685547 34.38173828 56.08511719 35.19707031 55.19726562 36.03710938 C54.28654297 36.87048828 53.37582031 37.70386719 52.4375 38.5625 C50.63121233 40.21603607 48.83749663 41.8834442 47.05859375 43.56640625 C46.25736084 44.29802979 45.45612793 45.02965332 44.63061523 45.78344727 C42.71625911 47.89234758 42.71625911 47.89234758 43.1484375 50.60449219 C49.09602528 67.33549314 65.45725317 82.95787377 80.60546875 91.40625 C90.29565198 95.9558412 101.45599849 96.89749978 111.6875 93.4375 C123.24844551 88.51212676 132.2072224 81.7927776 141 73 C141.79277344 72.20722656 142.58554687 71.41445312 143.40234375 70.59765625 C148.51578283 65.19664239 152.63948405 59.33324371 156.63916016 53.08886719 C160.329138 47.33485033 160.329138 47.33485033 163 45 C163 45.66 163 46.32 163 47 C165.31 47 167.62 47 170 47 C169.47256926 51.72899765 167.31011848 55.09289443 164.6875 58.9375 C164.245271 59.59065186 163.80304199 60.24380371 163.34741211 60.91674805 C150.11907013 80.0555768 131.42308609 100.3218309 107.49609375 104.71484375 C92.33287705 106.44710481 77.57786584 103.38245972 65.42138672 93.74902344 C52.95924404 83.27445742 43.46508478 70.82221573 35 57 C31.2148539 60.13556619 27.63161989 63.30189107 24.24609375 66.8671875 C23.61896484 67.52460938 22.99183594 68.18203125 22.34570312 68.859375 C21.05998785 70.21746934 19.78408655 71.5849141 18.51757812 72.9609375 C13.77489135 77.88434457 13.77489135 77.88434457 9.59765625 78.5078125 C7 78 7 78 6 77 C5.62304688 74.28857422 5.62304688 74.28857422 6 71 C7.62821735 68.84649051 9.09072984 67.20388556 11.03125 65.3828125 C11.54175903 64.88079315 12.05226807 64.3787738 12.57824707 63.86154175 C14.20525059 62.26801195 15.85188122 60.69665222 17.5 59.125 C18.60943654 58.04567073 19.71752639 56.96495534 20.82421875 55.8828125 C23.53413951 53.2388952 26.26185458 50.61466291 29 48 C27.79770919 44.74993195 26.51241706 42.05775182 24.42578125 39.29296875 C23.9268335 38.62789307 23.42788574 37.96281738 22.91381836 37.27758789 C22.3853833 36.58785889 21.85694824 35.89812988 21.3125 35.1875 C20.76795166 34.47263428 20.22340332 33.75776855 19.66235352 33.02124023 C8.13810168 17.98460656 -6.53123742 3.26690127 -25.875 -0.5703125 C-36.88955312 -1.91844791 -47.74863893 0.86991881 -57 7 C-61.23598535 10.45480363 -65.13352026 14.13889784 -69 18 C-69.71027344 18.69867188 -70.42054687 19.39734375 -71.15234375 20.1171875 C-77.38615618 26.669702 -81.98040869 34.42910576 -86.76757812 42.05615234 C-88.46636794 44.73558271 -90.22686314 47.36929462 -92 50 C-95.465 48.515 -95.465 48.515 -99 47 C-98.4375639 42.31303251 -96.36534305 38.76276117 -93.9375 34.8125 C-93.53337891 34.14903564 -93.12925781 33.48557129 -92.71289062 32.80200195 C-89.21996649 27.16836355 -85.34503501 22.00897653 -81 17 C-80.30261719 16.16984375 -79.60523437 15.3396875 -78.88671875 14.484375 C-57.4226834 -10.37273165 -28.60410018 -18.3975397 0 0 Z " fill="#000000" transform="translate(162,142)"/>
<path d="M0 0 C15.08113399 12.83086435 25.6462738 27.36729293 35.51953125 44.3828125 C46.0528042 62.42856537 59.97091527 83.1290122 81.1328125 89.19140625 C94.57668858 92.16592239 106.77000485 89.14105537 118.3828125 81.78125 C133.92487947 70.58122263 145.66462815 56.09468003 155.375 39.6875 C155.705 40.3475 156.035 41.0075 156.375 41.6875 C158.685 41.6875 160.995 41.6875 163.375 41.6875 C161.58198058 48.24961063 159.07145263 53.17014992 154.875 58.5 C154.08258911 59.52867187 154.08258911 59.52867187 153.27416992 60.578125 C139.37316521 78.38600221 121.90307729 96.97534047 98.26269531 99.95361328 C82.30898684 101.24764431 69.20874966 96.66722446 56.78515625 86.5859375 C54.23221875 84.35949278 51.78976327 82.06280636 49.375 79.6875 C48.64796875 78.97335938 47.9209375 78.25921875 47.171875 77.5234375 C37.48140193 67.37981281 30.24262348 55.05898148 23.3125 42.9375 C11.99296586 23.29185974 -5.20422875 2.41170589 -27.5859375 -4.71875 C-40.45124961 -7.23228141 -51.32340609 -5.52223151 -62.48828125 1.484375 C-77.40505913 11.80026565 -86.97497462 25.85374788 -96.03125 41.23828125 C-97.625 43.6875 -97.625 43.6875 -99.625 44.6875 C-101.65644641 43.75303465 -103.66033587 42.75525224 -105.625 41.6875 C-105.0625639 37.00053251 -102.99034305 33.45026117 -100.5625 29.5 C-100.15837891 28.83653564 -99.75425781 28.17307129 -99.33789062 27.48950195 C-95.84503561 21.85597504 -91.97060789 16.69585504 -87.625 11.6875 C-86.91601562 10.84574219 -86.20703125 10.00398438 -85.4765625 9.13671875 C-61.60098715 -18.46679732 -29.29770192 -23.25736226 0 0 Z " fill="#000000" transform="translate(168.625,76.3125)"/>
</svg>
