<svg xmlns="http://www.w3.org/2000/svg" viewBox="0 0 83.93 73.99"><defs><style>.cls-1,.cls-2{fill:none;stroke:#000;stroke-linejoin:round;stroke-width:3px;}.cls-2{stroke-linecap:round;}</style></defs><title>Asset 13xhdpi</title><g id="Layer_2" data-name="Layer 2"><g id="Layer_2-2" data-name="Layer 2"><polygon class="cls-1" points="41.96 1.5 14.71 20.4 14.71 29.63 41.96 10.72 69.22 29.63 69.22 20.4 41.96 1.5"/><polyline class="cls-2" points="63.7 25.8 63.7 72.49 41.96 72.49 20.23 72.49 20.23 25.8"/><path class="cls-2" d="M42,47.92h0a9.61,9.61,0,0,1,9.61,9.61v15a0,0,0,0,1,0,0H32.36a0,0,0,0,1,0,0v-15A9.61,9.61,0,0,1,42,47.92Z"/><line class="cls-2" x1="41.96" y1="47.92" x2="41.96" y2="72.49"/><path class="cls-1" d="M69.22,25.69H82.43V69.14a3.35,3.35,0,0,1-3.35,3.35H63.7"/><path class="cls-1" d="M82.43,25.69l-3.54-6.33A3.37,3.37,0,0,0,76,17.65H65.24"/><rect class="cls-1" x="69.61" y="37.42" width="6.91" height="6.91"/><rect class="cls-1" x="48.12" y="29.63" width="6.91" height="6.91"/><rect class="cls-1" x="28.9" y="29.63" width="6.91" height="6.91"/><rect class="cls-1" x="69.61" y="53.85" width="6.91" height="6.91"/><path class="cls-1" d="M14.71,25.69H1.5V69.14a3.35,3.35,0,0,0,3.35,3.35H20.22"/><path class="cls-1" d="M1.5,25.69,5,19.36A3.35,3.35,0,0,1,8,17.65H18.68"/><rect class="cls-1" x="7.41" y="37.42" width="6.91" height="6.91" transform="translate(21.72 81.74) rotate(-180)"/><rect class="cls-1" x="7.41" y="53.85" width="6.91" height="6.91" transform="translate(21.72 114.61) rotate(-180)"/><line class="cls-1" x1="20.22" y1="42.46" x2="63.7" y2="42.46"/></g></g></svg>