<svg xmlns="http://www.w3.org/2000/svg" viewBox="0 0 75.21 83.18"><defs><style>.cls-1,.cls-2{fill:none;stroke:#000;stroke-linejoin:round;stroke-width:3px;}.cls-2{stroke-linecap:round;}</style></defs><title>Asset 8xhdpi</title><g id="Layer_2" data-name="Layer 2"><g id="Layer_2-2" data-name="Layer 2"><polygon class="cls-1" points="73.71 48.57 1.5 48.57 7.08 37.13 68.14 37.13 73.71 48.57"/><path class="cls-1" d="M7.36,48.57h60.5a0,0,0,0,1,0,0V78.62a3.06,3.06,0,0,1-3.06,3.06H10.42a3.06,3.06,0,0,1-3.06-3.06V48.57A0,0,0,0,1,7.36,48.57Z"/><rect class="cls-1" x="31.15" y="65.13" width="12.91" height="16.56"/><line class="cls-1" x1="7.36" y1="73.91" x2="31.15" y2="73.91"/><line class="cls-1" x1="44.06" y1="73.91" x2="67.86" y2="73.91"/><rect class="cls-1" x="14.38" y="53.95" width="9.74" height="9.74"/><rect class="cls-1" x="51.09" y="53.95" width="9.74" height="9.74"/><polygon class="cls-1" points="73.71 12.94 1.5 12.94 7.08 1.5 68.14 1.5 73.71 12.94"/><rect class="cls-1" x="7.36" y="12.94" width="60.5" height="24.19"/><rect class="cls-1" x="14.19" y="19.97" width="10.13" height="10.13"/><rect class="cls-1" x="32.54" y="19.97" width="10.13" height="10.13"/><rect class="cls-1" x="50.89" y="19.97" width="10.13" height="10.13"/><line class="cls-2" x1="31.15" y1="56.78" x2="44.06" y2="56.78"/><line class="cls-2" x1="4.29" y1="7.22" x2="24.03" y2="7.22"/><line class="cls-2" x1="30.68" y1="7.22" x2="37.54" y2="7.22"/><line class="cls-2" x1="37.54" y1="42.85" x2="57.28" y2="42.85"/><line class="cls-2" x1="63.93" y1="42.85" x2="70.79" y2="42.85"/></g></g></svg>