<svg xmlns="http://www.w3.org/2000/svg" viewBox="0 0 65.64 82.98"><defs><style>.cls-1,.cls-2{fill:none;stroke:#000;stroke-linejoin:round;stroke-width:3px;}.cls-2{stroke-linecap:round;}</style></defs><title>Asset 10xhdpi</title><g id="Layer_2" data-name="Layer 2"><g id="Layer_2-2" data-name="Layer 2"><rect class="cls-1" x="10.69" y="23.27" width="9.64" height="58.21"/><path class="cls-1" d="M1.5,15.5H64.14a0,0,0,0,1,0,0v5.35a2.43,2.43,0,0,1-2.43,2.43H3.93A2.43,2.43,0,0,1,1.5,20.85V15.5A0,0,0,0,1,1.5,15.5Z"/><polygon class="cls-1" points="1.5 15.5 64.14 1.5 64.14 15.5 1.5 15.5"/><rect class="cls-1" x="31.08" y="45.96" width="19.28" height="29.43"/><rect class="cls-1" x="27.47" y="75.39" width="26.5" height="6.09"/><line class="cls-2" x1="36.19" y1="52.9" x2="45.25" y2="52.9"/><line class="cls-2" x1="38.33" y1="67.9" x2="43.11" y2="67.9"/><path class="cls-2" d="M50.36,58.18h4.22a1.3,1.3,0,0,1,1.3,1.3v6.39A4.13,4.13,0,0,0,60,70h0a4.12,4.12,0,0,0,4.13-4.13V47"/><path class="cls-2" d="M60.93,47h3.21a0,0,0,0,1,0,0V52.9a0,0,0,0,1,0,0H60.93a2.66,2.66,0,0,1-2.66-2.66v-.55A2.66,2.66,0,0,1,60.93,47Z"/><line class="cls-2" x1="64.14" y1="47.02" x2="61.05" y2="40.82"/></g></g></svg>