<svg xmlns="http://www.w3.org/2000/svg" viewBox="0 0 75.67 72.73"><defs><style>.cls-1{fill:none;stroke:#000;stroke-linecap:round;stroke-linejoin:round;stroke-width:3px;}</style></defs><title>Asset 6xhdpi</title><g id="Layer_2" data-name="Layer 2"><g id="Layer_2-2" data-name="Layer 2"><polyline class="cls-1" points="11.86 28.46 15.55 20.59 37.83 11.86 60.12 20.59 63.81 28.46 74.17 28.46 65.09 12.18 37.83 1.5 10.58 12.18 1.5 28.46 11.86 28.46"/><path class="cls-1" d="M65.62,28.46V67.69a3.54,3.54,0,0,1-3.53,3.54H13.58A3.54,3.54,0,0,1,10,67.69V28.46"/><path class="cls-1" d="M25.13,42H50.54a3.18,3.18,0,0,1,3.18,3.18v26.1a0,0,0,0,1,0,0H22a0,0,0,0,1,0,0V45.13A3.18,3.18,0,0,1,25.13,42Z"/><rect class="cls-1" x="31.36" y="20.91" width="12.95" height="12.95"/><line class="cls-1" x1="37.83" y1="41.95" x2="37.83" y2="71.23"/><line class="cls-1" x1="10.04" y1="33.86" x2="21.95" y2="33.86"/><line class="cls-1" x1="65.62" y1="33.86" x2="53.72" y2="33.86"/></g></g></svg>