<svg xmlns="http://www.w3.org/2000/svg" viewBox="0 0 49.29 93.43"><defs><style>.cls-1,.cls-2{fill:none;stroke:#000;stroke-linejoin:round;stroke-width:3px;}.cls-2{stroke-linecap:round;}</style></defs><title>Asset 16xhdpi</title><g id="Layer_2" data-name="Layer 2"><g id="Layer_2-2" data-name="Layer 2"><path class="cls-1" d="M4.34,83.89H44.95a2.84,2.84,0,0,1,2.84,2.84v5.2a0,0,0,0,1,0,0H1.5a0,0,0,0,1,0,0v-5.2A2.84,2.84,0,0,1,4.34,83.89Z"/><rect class="cls-1" x="12.21" y="18.27" width="24.86" height="8.04" rx="2.3"/><polygon class="cls-1" points="41.14 83.89 8.14 83.89 15.59 26.3 33.69 26.3 41.14 83.89"/><path class="cls-1" d="M24.64,70.18h0a6,6,0,0,1,6,6v7.69a0,0,0,0,1,0,0H18.62a0,0,0,0,1,0,0V76.21A6,6,0,0,1,24.64,70.18Z"/><line class="cls-1" x1="36.46" y1="46.78" x2="14.12" y2="38.32"/><line class="cls-1" x1="35.28" y1="37.27" x2="15.15" y2="29.85"/><line class="cls-1" x1="39.21" y1="69.22" x2="11.65" y2="58.32"/><line class="cls-1" x1="38.05" y1="59.71" x2="12.7" y2="49.84"/><polyline class="cls-2" points="30.7 6.33 30.7 18.27 18.59 18.27 18.59 6.33"/><polyline class="cls-2" points="35.62 10.25 24.64 1.5 13.66 10.25"/><circle cx="24.64" cy="12.3" r="2.54"/></g></g></svg>