<svg xmlns="http://www.w3.org/2000/svg" viewBox="0 0 78 90.34"><defs><style>.cls-1{fill:none;stroke:#000;stroke-linecap:round;stroke-linejoin:round;stroke-width:3px;}</style></defs><title>Asset 2xhdpi</title><g id="Layer_2" data-name="Layer 2"><g id="Layer_2-2" data-name="Layer 2"><polygon class="cls-1" points="57.75 88.84 20.25 88.84 20.25 31.04 39 20.01 57.75 31.04 57.75 88.84"/><path class="cls-1" d="M38.16,59.17h1.68a8.36,8.36,0,0,1,8.36,8.36V88.84a0,0,0,0,1,0,0H29.8a0,0,0,0,1,0,0V67.52A8.36,8.36,0,0,1,38.16,59.17Z"/><circle class="cls-1" cx="39" cy="41.39" r="9.82"/><polyline class="cls-1" points="43.48 41.39 39 41.39 39 43.95"/><line class="cls-1" x1="39" y1="20.01" x2="39" y2="1.5"/><rect class="cls-1" x="39" y="1.5" width="13.27" height="11.5"/><path class="cls-1" d="M57.75,31v57.8H73.58a2.91,2.91,0,0,0,2.92-2.91V34A2.91,2.91,0,0,0,73.58,31Z"/><path class="cls-1" d="M1.5,34v52a2.91,2.91,0,0,0,2.92,2.91H20.25V31H4.42A2.91,2.91,0,0,0,1.5,34Z"/><rect class="cls-1" x="63.35" y="38.88" width="7.55" height="7.55"/><rect class="cls-1" x="63.35" y="56.17" width="7.55" height="7.55"/><rect class="cls-1" x="63.35" y="73.45" width="7.55" height="7.55"/><rect class="cls-1" x="7.1" y="38.88" width="7.55" height="7.55"/><rect class="cls-1" x="7.1" y="56.17" width="7.55" height="7.55"/><rect class="cls-1" x="7.1" y="73.45" width="7.55" height="7.55"/><line class="cls-1" x1="39" y1="88.84" x2="39" y2="59.17"/></g></g></svg>