<svg xmlns="http://www.w3.org/2000/svg" viewBox="0 0 84.39 84.01"><defs><style>.cls-1{fill:none;stroke:#000;stroke-linejoin:round;stroke-width:3px;}</style></defs><title>Asset 11xhdpi</title><g id="Layer_2" data-name="Layer 2"><g id="Layer_2-2" data-name="Layer 2"><path class="cls-1" d="M21.65,19.64h41.1a3.09,3.09,0,0,1,3.09,3.09v4.32a3.28,3.28,0,0,1-3.28,3.28H21.83a3.28,3.28,0,0,1-3.28-3.28V22.73A3.09,3.09,0,0,1,21.65,19.64Z"/><rect class="cls-1" x="23.04" y="30.33" width="38.32" height="52.18"/><rect class="cls-1" x="32.04" y="58.47" width="20.32" height="24.04"/><rect class="cls-1" x="28.7" y="37.04" width="27" height="7.57"/><line class="cls-1" x1="42.2" y1="58.47" x2="42.2" y2="82.51"/><polygon class="cls-1" points="51.24 7.9 44.84 7.9 44.84 1.5 39.55 1.5 39.55 7.9 33.15 7.9 33.15 13.19 39.55 13.19 39.55 19.59 44.84 19.59 44.84 13.19 51.24 13.19 51.24 7.9"/><path class="cls-1" d="M61.36,36.13H80A2.89,2.89,0,0,1,82.89,39V79.25a3.26,3.26,0,0,1-3.26,3.26H61.36a0,0,0,0,1,0,0V36.13A0,0,0,0,1,61.36,36.13Z"/><line class="cls-1" x1="42.2" y1="37.04" x2="42.2" y2="44.61"/><rect class="cls-1" x="67.62" y="45.44" width="9" height="9"/><rect class="cls-1" x="67.62" y="64.21" width="9" height="9"/><path class="cls-1" d="M4.39,36.13H23a0,0,0,0,1,0,0V82.51a0,0,0,0,1,0,0H4.76A3.26,3.26,0,0,1,1.5,79.25V39A2.89,2.89,0,0,1,4.39,36.13Z"/><rect class="cls-1" x="7.77" y="45.44" width="9" height="9"/><rect class="cls-1" x="7.77" y="64.21" width="9" height="9"/></g></g></svg>