<svg xmlns="http://www.w3.org/2000/svg" viewBox="0 0 81.27 86.09"><defs><style>.cls-1,.cls-2{fill:none;stroke:#000;stroke-linejoin:round;stroke-width:3px;}.cls-2{stroke-linecap:round;}</style></defs><title>Asset 12xhdpi</title><g id="Layer_2" data-name="Layer 2"><g id="Layer_2-2" data-name="Layer 2"><path class="cls-1" d="M53.25,50.52H71.36a2.14,2.14,0,0,1,2.14,2.14V84.59a0,0,0,0,1,0,0H53.25a0,0,0,0,1,0,0V50.52A0,0,0,0,1,53.25,50.52Z"/><path class="cls-1" d="M69.59,50.52H57.16l1.9-26.37a1.49,1.49,0,0,1,1.49-1.38H66.2a1.49,1.49,0,0,1,1.49,1.38Z"/><line class="cls-1" x1="58.63" y1="30.08" x2="68.12" y2="30.08"/><polygon class="cls-1" points="53.25 84.59 53.25 50.52 35.14 39.13 35.14 84.59 53.25 84.59"/><path class="cls-2" d="M63.37,15.48V13A4.39,4.39,0,0,0,59,8.62h-9a4.38,4.38,0,0,1-4.39-4.39V1.5"/><path class="cls-2" d="M50.92,14.84H41.87a4.4,4.4,0,0,1-4.4-4.39V7.71"/><line class="cls-2" x1="60.19" y1="58.39" x2="66.56" y2="58.39"/><line class="cls-2" x1="60.19" y1="67.55" x2="66.56" y2="67.55"/><line class="cls-2" x1="41.01" y1="58.39" x2="47.38" y2="58.39"/><line class="cls-2" x1="41.01" y1="67.55" x2="47.38" y2="67.55"/><path class="cls-1" d="M16.29,44.63h0a9.64,9.64,0,0,1,9.64,9.64V84.59a0,0,0,0,1,0,0H6.64a0,0,0,0,1,0,0V54.27A9.64,9.64,0,0,1,16.29,44.63Z"/><line class="cls-2" x1="1.5" y1="84.59" x2="79.77" y2="84.59"/><line class="cls-2" x1="6.64" y1="58.39" x2="18.38" y2="58.39"/><line class="cls-2" x1="14.2" y1="73.34" x2="25.93" y2="73.34"/><polyline class="cls-2" points="16.29 44.63 16.29 25.93 44.2 25.93 44.2 44.82"/></g></g></svg>