<svg xmlns="http://www.w3.org/2000/svg" viewBox="0 0 85.05 82.87"><defs><style>.cls-1{fill:none;stroke:#000;stroke-linecap:round;stroke-linejoin:round;stroke-width:3px;}</style></defs><title>Asset 7xhdpi</title><g id="Layer_2" data-name="Layer 2"><g id="Layer_2-2" data-name="Layer 2"><path class="cls-1" d="M41.87,1.5S39,6,30.19,4.44V21.25s5.47,8.84,11.68,8.62c6.21.22,11.67-8.62,11.67-8.62V4.44C44.71,6,41.87,1.5,41.87,1.5Z"/><path class="cls-1" d="M53.54,20.07H70.43a3.06,3.06,0,0,1,3.06,3.06v20.8H10.25V23.13a3.06,3.06,0,0,1,3.06-3.06H30.19"/><polygon class="cls-1" points="41.87 8.84 44.09 13.35 49.07 14.07 45.47 17.58 46.32 22.54 41.87 20.2 37.41 22.54 38.27 17.58 34.66 14.07 39.64 13.35 41.87 8.84"/><rect class="cls-1" x="17.65" y="27.16" width="9.69" height="9.69"/><rect class="cls-1" x="56.4" y="27.16" width="9.69" height="9.69"/><path class="cls-1" d="M4.56,43.93H80.49A3.06,3.06,0,0,1,83.55,47V77.75a3.62,3.62,0,0,1-3.62,3.62H5.12A3.62,3.62,0,0,1,1.5,77.75V47A3.06,3.06,0,0,1,4.56,43.93Z"/><rect class="cls-1" x="32.93" y="64.47" width="19.19" height="16.9"/><line class="cls-1" x1="42.52" y1="64.47" x2="42.52" y2="81.37"/><rect class="cls-1" x="11.93" y="49.27" width="9.12" height="9.12"/><rect class="cls-1" x="29.29" y="49.27" width="9.12" height="9.12"/><rect class="cls-1" x="46.64" y="49.27" width="9.12" height="9.12"/><rect class="cls-1" x="64" y="49.27" width="9.12" height="9.12"/><line class="cls-1" x1="10.91" y1="65.65" x2="25.08" y2="65.65"/><line class="cls-1" x1="10.91" y1="74.32" x2="25.08" y2="74.32"/><line class="cls-1" x1="59.97" y1="65.65" x2="74.14" y2="65.65"/><line class="cls-1" x1="59.97" y1="74.32" x2="74.14" y2="74.32"/></g></g></svg>