<svg xmlns="http://www.w3.org/2000/svg" viewBox="0 0 81.29 83.92"><defs><style>.cls-1{fill:none;stroke:#000;stroke-linecap:round;stroke-linejoin:round;stroke-width:3px;}</style></defs><title>Asset 4xhdpi</title><g id="Layer_2" data-name="Layer 2"><g id="Layer_2-2" data-name="Layer 2"><rect class="cls-1" x="22.35" y="42.53" width="36.59" height="39.89"/><polygon class="cls-1" points="40.64 17.83 22.35 42.53 40.64 42.53 58.94 42.53 40.64 17.83"/><polygon class="cls-1" points="69.36 9 58.94 28.2 69.36 28.2 79.79 28.2 69.36 9"/><path class="cls-1" d="M39.88,58.05H41.4A7.63,7.63,0,0,1,49,65.69V82.42a0,0,0,0,1,0,0H32.25a0,0,0,0,1,0,0V65.69a7.63,7.63,0,0,1,7.63-7.63Z"/><line class="cls-1" x1="40.64" y1="58.05" x2="40.64" y2="82.42"/><path class="cls-1" d="M58.94,28.2H79.79a0,0,0,0,1,0,0V80.3a2.12,2.12,0,0,1-2.12,2.12H58.94a0,0,0,0,1,0,0V28.2A0,0,0,0,1,58.94,28.2Z"/><rect class="cls-1" x="65.39" y="41.58" width="7.95" height="7.95"/><rect class="cls-1" x="65.39" y="61.08" width="7.95" height="7.95"/><polygon class="cls-1" points="11.92 9 1.5 28.2 11.92 28.2 22.35 28.2 11.92 9"/><path class="cls-1" d="M1.5,28.2H22.35a0,0,0,0,1,0,0V82.42a0,0,0,0,1,0,0H3.62A2.12,2.12,0,0,1,1.5,80.3V28.2A0,0,0,0,1,1.5,28.2Z"/><rect class="cls-1" x="7.95" y="41.58" width="7.95" height="7.95"/><rect class="cls-1" x="7.95" y="61.08" width="7.95" height="7.95"/><line class="cls-1" x1="40.64" y1="17.83" x2="40.64" y2="1.5"/><line class="cls-1" x1="35.85" y1="6.21" x2="45.39" y2="6.21"/><line class="cls-1" x1="32.25" y1="50.29" x2="49.03" y2="50.29"/></g></g></svg>