<svg xmlns="http://www.w3.org/2000/svg" viewBox="0 0 71.07 70.01"><defs><style>.cls-1,.cls-2{fill:none;stroke:#000;stroke-linejoin:round;stroke-width:3px;}.cls-2{stroke-linecap:round;}</style></defs><title>Asset 5xhdpi</title><g id="Layer_2" data-name="Layer 2"><g id="Layer_2-2" data-name="Layer 2"><polygon class="cls-1" points="35.54 1.5 1.5 25.11 1.5 36.63 35.54 13.02 69.57 36.63 69.57 25.11 35.54 1.5"/><path class="cls-2" d="M63.58,32.47V64.83a3.68,3.68,0,0,1-3.68,3.68H11.17A3.67,3.67,0,0,1,7.5,64.83V32.47"/><path class="cls-2" d="M45.85,39.07h0a7.27,7.27,0,0,0-10.28,0l0,0,0,0a7.27,7.27,0,0,0-10.28,0h0a7.27,7.27,0,0,0,0,10.28l5.14,5.14,5.14,5.14,0,0,0,0,5.14-5.14,5.14-5.14A7.27,7.27,0,0,0,45.85,39.07Z"/><polyline class="cls-1" points="7.5 20.95 7.5 1.78 17.89 1.78 17.89 13.74"/></g></g></svg>