<svg xmlns="http://www.w3.org/2000/svg" viewBox="0 0 54.45 85.61"><defs><style>.cls-1,.cls-2{fill:none;stroke:#000;stroke-linejoin:round;stroke-width:3px;}.cls-2{stroke-linecap:round;}</style></defs><title>Asset 14xhdpi</title><g id="Layer_2" data-name="Layer 2"><g id="Layer_2-2" data-name="Layer 2"><rect class="cls-1" x="1.5" y="74.79" width="51.45" height="9.32" rx="2.63"/><rect class="cls-1" x="7.14" y="26.98" width="40.18" height="47.8"/><rect class="cls-1" x="3.99" y="19.63" width="46.5" height="7.36"/><path class="cls-1" d="M27.23,58.05h0a7.07,7.07,0,0,1,7.07,7.07v9.66a0,0,0,0,1,0,0H20.15a0,0,0,0,1,0,0V65.12a7.07,7.07,0,0,1,7.07-7.07Z"/><path class="cls-2" d="M44.52,1.5V7.79H37.29V1.5H30.86V7.79H23.63V1.5H17.21V7.79H10V1.5H3.13V9.26a9.11,9.11,0,0,0,1,4.2l4.26,6.16H46.06l4.26-6.16a9.12,9.12,0,0,0,1-4.2V1.5Z"/><line class="cls-2" x1="7.14" y1="34.96" x2="19.15" y2="34.96"/><line class="cls-2" x1="24.83" y1="34.96" x2="30.61" y2="34.96"/><line class="cls-2" x1="23.85" y1="43.32" x2="35.87" y2="43.32"/><line class="cls-2" x1="41.54" y1="43.32" x2="47.33" y2="43.32"/><line class="cls-2" x1="7.14" y1="51.68" x2="19.15" y2="51.68"/><line class="cls-2" x1="24.83" y1="51.68" x2="30.61" y2="51.68"/></g></g></svg>