<svg xmlns="http://www.w3.org/2000/svg" viewBox="0 0 66.9 70.21"><defs><style>.cls-1,.cls-2{fill:none;stroke:#000;stroke-linejoin:round;stroke-width:3px;}.cls-2{stroke-linecap:round;}</style></defs><title>Asset 15xhdpi</title><g id="Layer_2" data-name="Layer 2"><g id="Layer_2-2" data-name="Layer 2"><path class="cls-1" d="M2.5,19.93H18a0,0,0,0,1,0,0v1.82A7.29,7.29,0,0,1,10.69,29h-.9A7.29,7.29,0,0,1,2.5,21.75V19.93a0,0,0,0,1,0,0Z"/><path class="cls-1" d="M18,19.93H33.45a0,0,0,0,1,0,0v1.82A7.29,7.29,0,0,1,26.17,29h-.9A7.29,7.29,0,0,1,18,21.75V19.93A0,0,0,0,1,18,19.93Z"/><path class="cls-1" d="M33.45,19.93H48.93a0,0,0,0,1,0,0v1.82A7.29,7.29,0,0,1,41.64,29h-.9a7.29,7.29,0,0,1-7.29-7.29V19.93a0,0,0,0,1,0,0Z"/><path class="cls-1" d="M48.93,19.93H64.4a0,0,0,0,1,0,0v1.82A7.29,7.29,0,0,1,57.12,29h-.9a7.29,7.29,0,0,1-7.29-7.29V19.93A0,0,0,0,1,48.93,19.93Z"/><polygon class="cls-1" points="2.5 19.93 64.4 19.93 53.78 1.5 13.12 1.5 2.5 19.93"/><line class="cls-1" x1="33.45" y1="19.93" x2="33.45" y2="1.5"/><line class="cls-1" x1="17.98" y1="19.93" x2="22.22" y2="1.5"/><line class="cls-1" x1="48.93" y1="19.93" x2="44.68" y2="1.5"/><polyline class="cls-1" points="6.82 28.24 6.82 68.71 60.08 68.71 60.08 28.24"/><rect class="cls-1" x="15.24" y="39.68" width="18.95" height="29.04"/><line class="cls-2" x1="20.19" y1="53.66" x2="20.19" y2="58.19"/><rect class="cls-2" x="40.62" y="39.68" width="13.98" height="13.98"/><line class="cls-2" x1="1.5" y1="68.71" x2="65.4" y2="68.71"/></g></g></svg>