<svg xmlns="http://www.w3.org/2000/svg" viewBox="0 0 89.46 75.98"><defs><style>.cls-1,.cls-2{fill:none;stroke:#000;stroke-linejoin:round;stroke-width:3px;}.cls-2{stroke-linecap:round;}</style></defs><title>Asset 9xhdpi</title><g id="Layer_2" data-name="Layer 2"><g id="Layer_2-2" data-name="Layer 2"><path class="cls-1" d="M30.56,1.5H58.9a3.91,3.91,0,0,1,3.91,3.91V74.48a0,0,0,0,1,0,0H26.65a0,0,0,0,1,0,0V5.41A3.91,3.91,0,0,1,30.56,1.5Z"/><path class="cls-1" d="M6.81,74.48H26.65V24L1.5,34.69V69.17A5.31,5.31,0,0,0,6.81,74.48Z"/><rect class="cls-1" x="34.94" y="12.39" width="19.58" height="10.97"/><rect class="cls-1" x="34.94" y="32.5" width="19.58" height="10.97"/><rect class="cls-1" x="34.94" y="52.61" width="19.58" height="10.97"/><line class="cls-2" x1="8.69" y1="41.57" x2="19.46" y2="41.57"/><line class="cls-2" x1="8.69" y1="51.5" x2="19.46" y2="51.5"/><line class="cls-2" x1="8.69" y1="61.42" x2="19.46" y2="61.42"/><path class="cls-1" d="M82.65,74.48H62.81V24L88,34.69V69.17A5.31,5.31,0,0,1,82.65,74.48Z"/><line class="cls-2" x1="80.77" y1="41.57" x2="70" y2="41.57"/><line class="cls-2" x1="80.77" y1="51.5" x2="70" y2="51.5"/><line class="cls-2" x1="80.77" y1="61.42" x2="70" y2="61.42"/></g></g></svg>