<svg xmlns="http://www.w3.org/2000/svg" viewBox="0 0 82.39 84.34"><defs><style>.cls-1{fill:none;stroke:#000;stroke-linecap:round;stroke-linejoin:round;stroke-width:3px;}</style></defs><title>Asset 1xhdpi</title><g id="Layer_2" data-name="Layer 2"><g id="Layer_2-2" data-name="Layer 2"><path class="cls-1" d="M64.69,31.41v-.47a23.5,23.5,0,1,0-47,0v.47H12.83v5.86H69.56V31.41Z"/><rect class="cls-1" x="1.5" y="37.27" width="79.39" height="45.57" rx="2.56"/><path class="cls-1" d="M40,53h2.35A10.93,10.93,0,0,1,53.3,64V82.84a0,0,0,0,1,0,0H29.09a0,0,0,0,1,0,0V64A10.93,10.93,0,0,1,40,53Z"/><rect class="cls-1" x="10.46" y="45.2" width="9.85" height="9.85"/><rect class="cls-1" x="10.46" y="65.05" width="9.85" height="9.85"/><rect class="cls-1" x="62.08" y="45.2" width="9.85" height="9.85"/><rect class="cls-1" x="62.08" y="65.05" width="9.85" height="9.85"/><line class="cls-1" x1="41.2" y1="53.05" x2="41.2" y2="82.84"/><line class="cls-1" x1="41.2" y1="7.44" x2="41.2" y2="1.5"/><line class="cls-1" x1="17.82" y1="28.52" x2="33.19" y2="28.52"/><line class="cls-1" x1="29.09" y1="45.2" x2="53.3" y2="45.2"/></g></g></svg>