<?xml version="1.0" encoding="UTF-8"?>
<svg version="1.1" xmlns="http://www.w3.org/2000/svg" width="392" height="392">
<path d="M0 0 C129.36 0 258.72 0 392 0 C392 129.36 392 258.72 392 392 C262.64 392 133.28 392 0 392 C0 262.64 0 133.28 0 0 Z M8 8 C8 132.08 8 256.16 8 384 C132.08 384 256.16 384 384 384 C384 259.92 384 135.84 384 8 C259.92 8 135.84 8 8 8 Z " fill="#000000" transform="translate(0,0)"/>
<path d="M0 0 C9.78002199 8.32073607 17.78197087 17.4055633 25.375 27.6875 C26.3741872 29.02144255 27.37402772 30.35489643 28.375 31.6875 C28.91914551 31.11717041 29.46329102 30.54684082 30.02392578 29.95922852 C32.50269035 27.37636954 35.0009224 24.81320349 37.5 22.25 C38.3559375 21.35216797 39.211875 20.45433594 40.09375 19.52929688 C40.93164062 18.67529297 41.76953125 17.82128906 42.6328125 16.94140625 C43.3973877 16.15064697 44.16196289 15.3598877 44.94970703 14.54516602 C47.82868815 12.33999516 49.7713611 11.82653216 53.375 11.6875 C55.375 13.6875 55.375 13.6875 55.78930664 16.00366211 C55.20753689 19.77230964 53.51023906 21.04570327 50.74609375 23.62890625 C49.31813477 24.99885742 49.31813477 24.99885742 47.86132812 26.39648438 C46.8464513 27.34914904 45.83015686 28.3003056 44.8125 29.25 C42.81735307 31.11236896 40.84091537 32.98921297 38.87109375 34.87890625 C37.98607178 35.70592041 37.1010498 36.53293457 36.18920898 37.38500977 C34.12203505 39.48079531 34.12203505 39.48079531 34.51416016 41.828125 C43.19047159 60.56856399 59.1052964 81.24305755 78.9375 88.5625 C91.99133148 92.30212076 103.44699283 89.87913731 115.375 83.6875 C132.49642228 72.83652069 145.1544794 56.9566555 155.375 39.6875 C155.705 40.3475 156.035 41.0075 156.375 41.6875 C158.685 41.6875 160.995 41.6875 163.375 41.6875 C161.58198058 48.24961063 159.07145263 53.17014992 154.875 58.5 C154.08258911 59.52867187 154.08258911 59.52867187 153.27416992 60.578125 C139.37316521 78.38600221 121.90307729 96.97534047 98.26269531 99.95361328 C82.30898684 101.24764431 69.20874966 96.66722446 56.78515625 86.5859375 C54.23221875 84.35949278 51.78976327 82.06280636 49.375 79.6875 C48.64796875 78.97335938 47.9209375 78.25921875 47.171875 77.5234375 C42.10061098 72.21502804 37.95946989 66.38952721 33.875 60.3125 C33.08150146 59.13409546 33.08150146 59.13409546 32.27197266 57.93188477 C31.53406494 56.80931274 31.53406494 56.80931274 30.78125 55.6640625 C30.34103516 54.99455566 29.90082031 54.32504883 29.44726562 53.63525391 C28.35611182 51.65318992 27.81620007 49.89781376 27.375 47.6875 C23.33406837 51.02566091 19.51242918 54.50366997 15.90234375 58.3046875 C14.98509521 59.26060791 14.98509521 59.26060791 14.04931641 60.23583984 C12.81601962 61.52865055 11.59535341 62.83363879 10.38818359 64.15087891 C8.77954895 65.82798526 7.27545779 67.34942852 5.375 68.6875 C2.68524008 68.65814382 1.29752307 68.61002307 -0.625 66.6875 C-0.35185615 61.07390836 0.82620605 58.49860361 4.84765625 54.62890625 C5.74677734 53.74912109 6.64589844 52.86933594 7.57226562 51.96289062 C8.51779297 51.06763672 9.46332031 50.17238281 10.4375 49.25 C11.3978551 48.31977241 12.35685493 47.38814349 13.31445312 46.45507812 C15.65501373 44.18508719 18.00840779 41.93028658 20.375 39.6875 C13.49341244 21.35729439 -5.55057169 6.09721333 -22.35546875 -2.75 C-32.0490716 -6.97353649 -44.15560547 -7.08895824 -54 -3.3125 C-73.53157443 6.1994569 -85.34522613 23.08517922 -96.03125 41.23828125 C-97.625 43.6875 -97.625 43.6875 -99.625 44.6875 C-101.65644641 43.75303465 -103.66033587 42.75525224 -105.625 41.6875 C-105.0625639 37.00053251 -102.99034305 33.45026117 -100.5625 29.5 C-100.15837891 28.83653564 -99.75425781 28.17307129 -99.33789062 27.48950195 C-95.84503561 21.85597504 -91.97060789 16.69585504 -87.625 11.6875 C-86.91601562 10.84574219 -86.20703125 10.00398438 -85.4765625 9.13671875 C-61.60098715 -18.46679732 -29.29770192 -23.25736226 0 0 Z " fill="#000000" transform="translate(168.625,76.3125)"/>
<path d="M0 0 C13.86585244 9.66407897 24.41633062 22.25895488 34 36 C34.99589192 37.33640453 35.99501275 38.67042172 37 40 C37.52432617 39.45996338 38.04865234 38.91992676 38.58886719 38.36352539 C40.96802669 35.9220195 43.35879818 33.49221044 45.75 31.0625 C46.575 30.21236328 47.4 29.36222656 48.25 28.48632812 C49.04921875 27.67744141 49.8484375 26.86855469 50.671875 26.03515625 C51.4050293 25.2862915 52.13818359 24.53742676 52.89355469 23.76586914 C55.04691141 21.96067336 56.20772682 21.17887333 59 21 C59.99 21.66 60.98 22.32 62 23 C62.44946289 25.83959961 62.44946289 25.83959961 62 29 C60.23999023 31.34594727 60.23999023 31.34594727 57.80859375 33.56640625 C56.94685547 34.38173828 56.08511719 35.19707031 55.19726562 36.03710938 C54.28654297 36.87048828 53.37582031 37.70386719 52.4375 38.5625 C50.63121233 40.21603607 48.83749663 41.8834442 47.05859375 43.56640625 C46.25736084 44.29802979 45.45612793 45.02965332 44.63061523 45.78344727 C42.71625911 47.89234758 42.71625911 47.89234758 43.1484375 50.60449219 C49.09602528 67.33549314 65.45725317 82.95787377 80.60546875 91.40625 C90.29565198 95.9558412 101.45599849 96.89749978 111.6875 93.4375 C123.24844551 88.51212676 132.2072224 81.7927776 141 73 C141.79277344 72.20722656 142.58554687 71.41445312 143.40234375 70.59765625 C148.51578283 65.19664239 152.63948405 59.33324371 156.63916016 53.08886719 C160.329138 47.33485033 160.329138 47.33485033 163 45 C163 45.66 163 46.32 163 47 C165.31 47 167.62 47 170 47 C169.47256926 51.72899765 167.31011848 55.09289443 164.6875 58.9375 C164.245271 59.59065186 163.80304199 60.24380371 163.34741211 60.91674805 C150.11907013 80.0555768 131.42308609 100.3218309 107.49609375 104.71484375 C92.33287705 106.44710481 77.57786584 103.38245972 65.42138672 93.74902344 C52.95924404 83.27445742 43.46508478 70.82221573 35 57 C31.31186739 60.06637846 27.78026363 63.14542828 24.46484375 66.61328125 C23.88283203 67.22107422 23.30082031 67.82886719 22.70117188 68.45507812 C21.51376352 69.70560453 20.33418263 70.96360489 19.16210938 72.22851562 C16.34287811 75.14787497 14.65136898 76.8069733 10.69140625 77.98046875 C8 78 8 78 6 77 C5.52848614 73.02800824 5.65752949 71.45295764 8.11132812 68.20751953 C9.0693691 67.25042143 10.04377104 66.30950802 11.03125 65.3828125 C11.54175903 64.88079315 12.05226807 64.3787738 12.57824707 63.86154175 C14.20525059 62.26801195 15.85188122 60.69665222 17.5 59.125 C18.60943654 58.04567073 19.71752639 56.96495534 20.82421875 55.8828125 C23.53413951 53.2388952 26.26185458 50.61466291 29 48 C27.79770919 44.74993195 26.51241706 42.05775182 24.42578125 39.29296875 C23.9268335 38.62789307 23.42788574 37.96281738 22.91381836 37.27758789 C22.3853833 36.58785889 21.85694824 35.89812988 21.3125 35.1875 C20.76795166 34.47263428 20.22340332 33.75776855 19.66235352 33.02124023 C8.13810168 17.98460656 -6.53123742 3.26690127 -25.875 -0.5703125 C-36.88955312 -1.91844791 -47.74863893 0.86991881 -57 7 C-61.23598535 10.45480363 -65.13352026 14.13889784 -69 18 C-69.71027344 18.69867188 -70.42054687 19.39734375 -71.15234375 20.1171875 C-77.38615618 26.669702 -81.98040869 34.42910576 -86.76757812 42.05615234 C-88.46636794 44.73558271 -90.22686314 47.36929462 -92 50 C-95.465 48.515 -95.465 48.515 -99 47 C-98.4375639 42.31303251 -96.36534305 38.76276117 -93.9375 34.8125 C-93.53337891 34.14903564 -93.12925781 33.48557129 -92.71289062 32.80200195 C-89.21996649 27.16836355 -85.34503501 22.00897653 -81 17 C-80.30261719 16.16984375 -79.60523437 15.3396875 -78.88671875 14.484375 C-57.4226834 -10.37273165 -28.60410018 -18.3975397 0 0 Z " fill="#000000" transform="translate(162,142)"/>
<path d="M0 0 C1.0209375 0.45117188 2.041875 0.90234375 3.09375 1.3671875 C26.94147182 13.00163431 42.58095204 35.78916057 55.125 58.3125 C65.24150953 76.26776539 79.55456236 94.05245148 99.79296875 100.578125 C113.1281136 103.12714384 124.94030628 100.16404159 136.17456055 92.73388672 C147.34529045 85.03867321 155.64984948 76.30592889 163.6875 65.4375 C164.15124023 64.81238525 164.61498047 64.18727051 165.09277344 63.54321289 C168.03945202 59.50346293 170.59157404 55.3825456 173 51 C173.66 51 174.32 51 175 51 C175 51.66 175 52.32 175 53 C177.31 53 179.62 53 182 53 C179.97825007 59.17527699 177.35681646 63.76805101 173.375 68.875 C172.84229492 69.57044922 172.30958984 70.26589844 171.76074219 70.98242188 C167.43592674 76.57069571 162.88620088 81.89295388 158 87 C157.34644531 87.70511719 156.69289063 88.41023438 156.01953125 89.13671875 C143.7863683 101.95590148 127.50012001 110.86916285 109.625 111.4375 C92.37057632 111.01793955 78.29646173 102.64012055 66.45703125 90.55078125 C57.55895385 81.08017341 50.89483828 70.26509696 44.28027344 59.14257812 C30.90580248 36.7599776 15.79352886 17.41084201 -8.75 6.8125 C-21.46891087 3.63277228 -32.84330344 5.39227382 -44.15234375 12.03125 C-60.26097669 23.16808265 -70.40663502 39.30043875 -80 56 C-82.9719385 54.87548273 -85.33440687 53.77706209 -88 52 C-83.79579249 40.42192067 -76.01281533 30.18289372 -68 21 C-67.41605469 20.28328125 -66.83210938 19.5665625 -66.23046875 18.828125 C-50.1933118 -0.55167122 -23.8418818 -10.93844577 0 0 Z " fill="#000000" transform="translate(148,208)"/>
</svg>
