<?xml version="1.0" encoding="UTF-8"?>
<svg version="1.1" xmlns="http://www.w3.org/2000/svg" width="392" height="392">
<path d="M0 0 C129.36 0 258.72 0 392 0 C392 129.36 392 258.72 392 392 C262.64 392 133.28 392 0 392 C0 262.64 0 133.28 0 0 Z M8 8 C8 132.08 8 256.16 8 384 C132.08 384 256.16 384 384 384 C384 259.92 384 135.84 384 8 C259.92 8 135.84 8 8 8 Z " fill="#000000" transform="translate(0,0)"/>
<path d="M0 0 C1.56471542 -0.01268921 1.56471542 -0.01268921 3.16104126 -0.02563477 C4.87703018 -0.01652573 4.87703018 -0.01652573 6.62768555 -0.00723267 C7.8327475 -0.01248962 9.03780945 -0.01774658 10.27938843 -0.02316284 C13.58528975 -0.03411519 16.89062888 -0.03153298 20.19649887 -0.02202559 C23.6544445 -0.01443546 27.11236594 -0.02147279 30.5703125 -0.02618408 C36.37756672 -0.03164354 42.18470651 -0.02444511 47.99194336 -0.01016235 C54.70794373 0.00616463 61.4236709 0.00087625 68.13966465 -0.01564157 C73.9036547 -0.02925109 79.66756245 -0.03117875 85.43156338 -0.02332556 C88.87512631 -0.01864606 92.31856078 -0.01803166 95.76211548 -0.02793503 C99.60022622 -0.03820188 103.43803041 -0.02397595 107.27612305 -0.00723267 C108.42011566 -0.01330536 109.56410828 -0.01937805 110.74276733 -0.02563477 C111.78591095 -0.01717529 112.82905457 -0.00871582 113.90380859 0 C115.2654438 0.00169662 115.2654438 0.00169662 116.65458679 0.00342751 C118.9519043 0.38095093 118.9519043 0.38095093 120.74486256 1.58087444 C122.37695565 4.01483534 122.32132316 5.64051612 122.31266785 8.56312561 C122.31885384 10.17220795 122.31885384 10.17220795 122.32516479 11.813797 C122.31437897 12.99055496 122.30359314 14.16731293 122.29248047 15.37973022 C122.29291855 16.61887177 122.29335663 17.85801331 122.29380798 19.13470459 C122.29207464 22.53339273 122.27701789 25.93153584 122.25608611 29.33012748 C122.2373466 32.88154228 122.23557103 36.43296416 122.23200989 39.98442078 C122.22268137 46.70988321 122.19805678 53.43519955 122.16796142 60.16059762 C122.1281763 69.24841198 122.11196904 78.33626623 122.09445477 87.4241457 C122.06623617 101.74319023 122.00647221 116.06192644 121.9519043 130.38095093 C142.7419043 130.38095093 163.5319043 130.38095093 184.9519043 130.38095093 C184.9519043 127.08095093 184.9519043 123.78095093 184.9519043 120.38095093 C188.78287696 120.98774802 191.80158166 122.12903239 195.25268555 123.88485718 C196.22915039 124.37792358 197.20561523 124.87098999 198.21166992 125.3789978 C199.21907227 125.89526733 200.22647461 126.41153687 201.2644043 126.94345093 C202.29114258 127.46358765 203.31788086 127.98372437 204.37573242 128.5196228 C206.90391889 129.80135455 209.4291283 131.08861154 211.9519043 132.38095093 C211.9519043 133.37095093 211.9519043 134.36095093 211.9519043 135.38095093 C208.26868562 137.23488697 204.58417819 139.08623285 200.8984375 140.93515015 C199.64384515 141.56496624 198.38961214 142.19549866 197.13574219 142.82675171 C195.33712073 143.73210285 193.53711179 144.63469589 191.73706055 145.53720093 C190.65303955 146.08182983 189.56901855 146.62645874 188.45214844 147.18759155 C185.9519043 148.38095093 185.9519043 148.38095093 184.9519043 148.38095093 C184.9519043 145.41095093 184.9519043 142.44095093 184.9519043 139.38095093 C100.1419043 139.38095093 15.3319043 139.38095093 -72.0480957 139.38095093 C-72.0480957 142.35095093 -72.0480957 145.32095093 -72.0480957 148.38095093 C-75.02912694 146.98899433 -78.00789644 145.59250397 -80.9855957 144.19345093 C-82.23179688 143.61240601 -82.23179688 143.61240601 -83.50317383 143.0196228 C-89.15214214 140.35999181 -94.62960914 137.48296281 -100.0480957 134.38095093 C-97.67333095 131.718617 -95.22538486 130.27643808 -92.0480957 128.68173218 C-91.0787207 128.19511108 -90.1093457 127.70848999 -89.1105957 127.2071228 C-87.5946582 126.45785522 -87.5946582 126.45785522 -86.0480957 125.69345093 C-85.0374707 125.18233765 -84.0268457 124.67122437 -82.9855957 124.1446228 C-81.5315332 123.42049194 -81.5315332 123.42049194 -80.0480957 122.68173218 C-79.1612207 122.23998657 -78.2743457 121.79824097 -77.3605957 121.34310913 C-75.0480957 120.38095093 -75.0480957 120.38095093 -72.0480957 120.38095093 C-72.0480957 123.68095093 -72.0480957 126.98095093 -72.0480957 130.38095093 C-50.9280957 130.38095093 -29.8080957 130.38095093 -8.0480957 130.38095093 C-8.08290039 121.24794312 -8.11770508 112.1149353 -8.15356445 102.70516968 C-8.16888682 96.93107861 -8.18345216 91.15700221 -8.19458008 85.38290405 C-8.21239783 76.21105939 -8.23337146 67.03929726 -8.27441406 57.86752319 C-8.30428777 51.18848209 -8.32366387 44.50950778 -8.33036119 37.83040172 C-8.33427693 34.29285815 -8.34349868 30.7555057 -8.36528587 27.2180233 C-8.38939347 23.27188879 -8.390067 19.32594235 -8.38867188 15.37973022 C-8.3994577 14.20297226 -8.41024353 13.02621429 -8.4213562 11.813797 C-8.41723221 10.74107544 -8.41310822 9.66835388 -8.40885925 8.56312561 C-8.41162463 7.62934932 -8.41439001 6.69557302 -8.41723919 5.73350048 C-8.0480957 3.38095093 -8.0480957 3.38095093 -6.84105396 1.58087444 C-4.44716904 -0.02121462 -2.87344012 0.00358034 0 0 Z M0.9519043 9.38095093 C0.9519043 49.31095093 0.9519043 89.24095093 0.9519043 130.38095093 C18.1119043 130.38095093 35.2719043 130.38095093 52.9519043 130.38095093 C53.2819043 123.78095093 53.6119043 117.18095093 53.9519043 110.38095093 C57.9519043 109.38095093 57.9519043 109.38095093 59.9519043 110.38095093 C60.2819043 116.98095093 60.6119043 123.58095093 60.9519043 130.38095093 C78.1119043 130.38095093 95.2719043 130.38095093 112.9519043 130.38095093 C112.9519043 90.45095093 112.9519043 50.52095093 112.9519043 9.38095093 C95.7919043 9.38095093 78.6319043 9.38095093 60.9519043 9.38095093 C60.6219043 19.28095093 60.2919043 29.18095093 59.9519043 39.38095093 C57.9719043 39.38095093 55.9919043 39.38095093 53.9519043 39.38095093 C53.6219043 29.48095093 53.2919043 19.58095093 52.9519043 9.38095093 C35.7919043 9.38095093 18.6319043 9.38095093 0.9519043 9.38095093 Z " fill="#000000" transform="translate(139.048095703125,169.61904907226563)"/>
<path d="M0 0 C2.67539325 2.38199785 4.10738942 4.84083737 5.69921875 8.03515625 C6.42915039 9.49598633 6.42915039 9.49598633 7.17382812 10.98632812 C7.9230957 12.5090332 7.9230957 12.5090332 8.6875 14.0625 C9.19861328 15.08150391 9.70972656 16.10050781 10.23632812 17.15039062 C14 24.73300859 14 24.73300859 14 27 C11.03 27 8.06 27 5 27 C5.01047363 27.95890137 5.02094727 28.91780273 5.03173828 29.90576172 C5.06789328 33.45780719 5.09088393 37.00983634 5.10986328 40.56201172 C5.11993118 42.10045098 5.13358646 43.63887107 5.15087891 45.17724609 C5.17509317 47.38644133 5.18647491 49.59538395 5.1953125 51.8046875 C5.20563507 52.49432587 5.21595764 53.18396423 5.22659302 53.89450073 C5.22699478 55.59800906 5.12191026 57.30085943 5 59 C4.34 59.66 3.68 60.32 3 61 C-1.55555556 60.44444444 -1.55555556 60.44444444 -3 59 C-3.0883967 56.6243148 -3.11530305 54.27791326 -3.09765625 51.90234375 C-3.0962413 51.19348526 -3.09482635 50.48462677 -3.09336853 49.75428772 C-3.08775443 47.48198288 -3.07519963 45.20977525 -3.0625 42.9375 C-3.05748681 41.40039204 -3.05292359 39.86328255 -3.04882812 38.32617188 C-3.03778042 34.55074358 -3.02050641 30.77538829 -3 27 C-6.3 27 -9.6 27 -13 27 C-11.32246669 21.21969949 -8.64724599 16.03416995 -5.9375 10.6875 C-5.47794922 9.76904297 -5.01839844 8.85058594 -4.54492188 7.90429688 C-1.14055525 1.14055525 -1.14055525 1.14055525 0 0 Z " fill="#000000" transform="translate(195,42)"/>
<path d="M0 0 C1 1 1 1 1.0625 3.5625 C1.041875 4.366875 1.02125 5.17125 1 6 C-0.32 6.33 -1.64 6.66 -3 7 C-3.33 5.35 -3.66 3.7 -4 2 C-8.43601966 5.51822249 -9.52033129 9.75390186 -11 15 C-9.02 15 -7.04 15 -5 15 C-5 15.66 -5 16.32 -5 17 C-7.31 17 -9.62 17 -12 17 C-12.11730469 18.28519531 -12.23460937 19.57039063 -12.35546875 20.89453125 C-12.920968 25.95431348 -14.01528203 30.77068904 -15.3125 35.6875 C-15.51294922 36.50283203 -15.71339844 37.31816406 -15.91992188 38.15820312 C-17.38588703 43.7724412 -19.10112745 48.77753105 -23.875 52.4375 C-26.82195995 53.21757763 -29.06943943 52.71635925 -32 52 C-33 51 -33 51 -33.0625 48.4375 C-33.041875 47.633125 -33.02125 46.82875 -33 46 C-31.35 46 -29.7 46 -28 46 C-28 47.32 -28 48.64 -28 50 C-24.11506183 47.41004122 -24.12074713 45.7814792 -23 41.3125 C-22.83338867 40.65564209 -22.66677734 39.99878418 -22.49511719 39.32202148 C-20.74307167 32.26777702 -19.33740561 25.14296181 -18 18 C-19.32 17.67 -20.64 17.34 -22 17 C-22 16.34 -22 15.68 -22 15 C-20.88625 15.0309375 -20.88625 15.0309375 -19.75 15.0625 C-16.90113104 14.30004667 -16.90113104 14.30004667 -15.953125 12.10546875 C-15.3053763 10.50467996 -14.65961367 8.90308638 -14.015625 7.30078125 C-10.89670702 0.23523245 -7.08013235 -0.70801323 0 0 Z " fill="#000000" transform="translate(217,311)"/>
<path d="M0 0 C3 0.125 3 0.125 4 1.125 C4.08858646 3.86394085 4.11523479 6.5775327 4.09765625 9.31640625 C4.0962413 10.13624496 4.09482635 10.95608368 4.09336853 11.80076599 C4.08775289 14.42971382 4.07519779 17.05857773 4.0625 19.6875 C4.05748701 21.46549357 4.05292376 23.24348846 4.04882812 25.02148438 C4.03777839 29.38935545 4.02050331 33.75716348 4 38.125 C1.125 38.75 1.125 38.75 -2 39.125 C-4.55433751 36.57066249 -4.23730793 34.91766117 -4.25224304 31.43528748 C-4.24146477 30.27429283 -4.24146477 30.27429283 -4.23046875 29.08984375 C-4.23001053 28.2959877 -4.22955231 27.50213165 -4.2290802 26.68421936 C-4.22605765 25.00552883 -4.21817125 23.3268411 -4.20581055 21.64819336 C-4.18754885 19.06939842 -4.18530087 16.49096223 -4.18554688 13.91210938 C-4.18063196 12.28385104 -4.17480376 10.65559516 -4.16796875 9.02734375 C-4.16685593 8.25132309 -4.1657431 7.47530243 -4.16459656 6.67576599 C-4.1064926 0.17110386 -4.1064926 0.17110386 0 0 Z " fill="#000000" transform="translate(196,224.875)"/>
<path d="M0 0 C4.55555556 0.55555556 4.55555556 0.55555556 6 2 C6.10095564 4.65456193 6.13970998 7.28255176 6.1328125 9.9375 C6.13376923 10.732771 6.13472595 11.52804199 6.13571167 12.34741211 C6.13639343 14.0320646 6.13453943 15.71671971 6.13037109 17.40136719 C6.12502275 19.98899197 6.13031619 22.57644316 6.13671875 25.1640625 C6.13605797 26.79687539 6.1347768 28.42968816 6.1328125 30.0625 C6.13483673 30.84165771 6.13686096 31.62081543 6.13894653 32.42358398 C6.11495105 37.88504895 6.11495105 37.88504895 5 39 C2 39.125 2 39.125 -1 39 C-3.01974733 36.98025267 -2.16399439 32.86915483 -2.16796875 30.09765625 C-2.17129715 29.30475693 -2.17462555 28.5118576 -2.17805481 27.69493103 C-2.18312726 26.01448142 -2.18546304 24.33402171 -2.18530273 22.65356445 C-2.18748786 20.07681741 -2.20563609 17.50049924 -2.22460938 14.92382812 C-2.22754345 13.2942723 -2.22952815 11.66471444 -2.23046875 10.03515625 C-2.23765427 9.26115982 -2.24483978 8.48716339 -2.25224304 7.68971252 C-2.22882253 2.22882253 -2.22882253 2.22882253 0 0 Z " fill="#000000" transform="translate(194,117)"/>
</svg>
