<?xml version="1.0" encoding="UTF-8"?>
<svg version="1.1" xmlns="http://www.w3.org/2000/svg" width="392" height="392">
<path d="M0 0 C1.34408936 0.29801514 1.34408936 0.29801514 2.71533203 0.60205078 C39.31217417 8.87865323 70.47608241 26.14125931 98.0625 51.3125 C98.81213013 51.99481689 98.81213013 51.99481689 99.5769043 52.69091797 C113.03247422 65.23863678 124.2103342 80.90107755 133 97 C133.33837891 97.61633301 133.67675781 98.23266602 134.02539062 98.86767578 C149.66270105 127.7428814 157.45947955 159.35877858 157.3125 192.125 C157.31034485 192.98883301 157.3081897 193.85266602 157.30596924 194.74267578 C157.2553169 207.38877831 156.87655562 219.6357214 154 232 C153.80132324 232.89460937 153.60264648 233.78921875 153.39794922 234.7109375 C144.17322603 275.50701667 122.79265203 315.28006131 90 342 C88.93475988 342.90088093 87.86966945 343.80193888 86.8046875 344.703125 C51.73178911 373.97589116 7.15918229 389.48581612 -38.375 389.375 C-39.25639648 389.37412384 -40.13779297 389.37324768 -41.04589844 389.37234497 C-55.35613103 389.3255361 -69.05874695 388.46369605 -83 385 C-83.98274902 384.75862305 -84.96549805 384.51724609 -85.97802734 384.26855469 C-114.53890411 377.03392126 -140.07027749 364.48147608 -163 346 C-163.60682617 345.51418457 -164.21365234 345.02836914 -164.83886719 344.52783203 C-196.63066252 318.85248302 -218.74997511 282.92272544 -229.25 243.5625 C-229.60118896 242.26107056 -229.60118896 242.26107056 -229.95947266 240.93334961 C-233.96930673 225.15989837 -235.56105785 209.55242699 -235.4375 193.3125 C-235.43412628 192.44359131 -235.43075256 191.57468262 -235.42727661 190.67944336 C-235.34776768 176.4764495 -234.43709213 162.83417326 -231 149 C-230.75862305 148.01725098 -230.51724609 147.03450195 -230.26855469 146.02197266 C-222.19453703 114.14737589 -207.42084405 85.22729307 -184.94921875 61.1015625 C-183.20472294 59.22072333 -181.56532432 57.29381969 -179.9375 55.3125 C-176.64104593 51.45016962 -172.88208566 48.25806174 -169 45 C-168.12472656 44.236875 -167.24945313 43.47375 -166.34765625 42.6875 C-158.66071405 36.08395234 -150.59398429 30.36416202 -142 25 C-141.39768555 24.6198877 -140.79537109 24.23977539 -140.17480469 23.84814453 C-121.18574835 12.02486661 -99.7683299 4.70786527 -78 0 C-76.84661133 -0.26466064 -76.84661133 -0.26466064 -75.66992188 -0.53466797 C-52.12869163 -5.76662861 -23.46170289 -5.42098304 0 0 Z M-168 56 C-166.42622697 59.84125161 -163.84137044 62.43377467 -160.93807983 65.3024292 C-160.41775983 65.82445805 -159.89743984 66.3464869 -159.36135256 66.8843348 C-157.61720154 68.63177923 -155.866 70.37198085 -154.11474609 72.11230469 C-152.86280592 73.36368071 -151.61130599 74.61549731 -150.36021423 75.86772156 C-146.96201266 79.26649751 -143.55767499 82.65906695 -140.15221739 86.05057049 C-136.59454157 89.59575325 -133.04251966 93.14659148 -129.48989868 96.69683838 C-122.76138913 103.41912898 -116.02779705 110.13630459 -109.29237235 116.85166574 C-101.62468759 124.49700444 -93.96267352 132.14801538 -86.30113482 139.79951239 C-70.54039965 155.53933615 -54.77254276 171.27200897 -39 187 C-32.21684148 181.43501414 -26.10039526 175.23418357 -19.91430664 169.02783203 C-18.70168185 167.81492481 -17.48883611 166.60223846 -16.27578735 165.38975525 C-12.99927058 162.11352426 -9.7258366 158.83422895 -6.45296407 155.55435801 C-3.02614029 152.12126423 0.40353361 148.69102011 3.832901 145.26046753 C10.31934048 138.77092546 16.80322757 132.27883948 23.28619248 125.78582656 C30.66996395 118.3908606 38.05659013 110.99874893 45.44345272 103.60687089 C60.63213806 88.40774545 75.81725033 73.20505456 91 58 C56.69453353 23.62359584 9.74074264 5.22121078 -38.6875 4.6875 C-87.49675958 4.88431153 -131.76063299 24.07484335 -168 56 Z M-176 64 C-177.88786888 65.91246652 -179.63676468 67.83183043 -181.375 69.875 C-181.90448242 70.49632813 -182.43396484 71.11765625 -182.97949219 71.7578125 C-189.33427356 79.38505157 -194.71522264 87.61124719 -200 96 C-200.56412598 96.87229248 -200.56412598 96.87229248 -201.13964844 97.76220703 C-215.36628544 119.87694652 -222.43935626 146.19032446 -226 172 C-226.13277344 172.94617188 -226.26554688 173.89234375 -226.40234375 174.8671875 C-230.63965115 212.13227454 -221.58726816 250.22686867 -204 283 C-203.39671875 284.15757812 -202.7934375 285.31515625 -202.171875 286.5078125 C-194.93772961 299.85146723 -185.40190699 311.96957899 -175 323 C-168.21684148 317.43501414 -162.10039526 311.23418357 -155.91430664 305.02783203 C-154.70168185 303.81492481 -153.48883611 302.60223846 -152.27578735 301.38975525 C-148.99927058 298.11352426 -145.7258366 294.83422895 -142.45296407 291.55435801 C-139.02614029 288.12126423 -135.59646639 284.69102011 -132.167099 281.26046753 C-125.68065952 274.77092546 -119.19677243 268.27883948 -112.71380752 261.78582656 C-105.33003605 254.3908606 -97.94340987 246.99874893 -90.55654728 239.60687089 C-75.36786194 224.40774545 -60.18274967 209.20505456 -45 194 C-50.56255054 187.22577757 -56.7483519 181.10332109 -62.94042969 174.91430664 C-64.1500755 173.70166494 -65.35951726 172.48881967 -66.56877136 171.27578735 C-69.83668133 167.99908448 -73.10778971 164.7255931 -76.37977886 161.45296407 C-78.42367106 159.40835956 -80.46684898 157.36304407 -82.50977325 155.31747246 C-89.63533944 148.18267387 -96.76346494 141.05044392 -103.89404297 133.9206543 C-110.54590044 127.26939953 -117.192139 120.61256615 -123.83581424 113.95313936 C-129.54191744 108.23398878 -135.25184064 102.51867143 -140.96479154 96.80636114 C-144.37646999 93.39493817 -147.78656271 89.98196545 -151.19283295 86.56514168 C-154.38955185 83.35878706 -157.59097533 80.15720776 -160.79616737 76.95932388 C-161.97425196 75.78229027 -163.15061416 74.60352995 -164.32516289 73.42296791 C-165.92232437 71.81815674 -167.52544994 70.21955846 -169.13031006 68.62245178 C-170.02771786 67.72449922 -170.92512566 66.82654665 -171.84972763 65.9013834 C-173.77131823 63.7791929 -173.77131823 63.7791929 -176 64 Z M93.49458688 67.37633181 C92.9955674 67.87826414 92.49654791 68.38019647 91.98240662 68.89733887 C91.45477394 69.42411712 90.92714126 69.95089538 90.38351971 70.49363661 C88.60151528 72.2739831 86.82312775 74.05790026 85.04467773 75.84179688 C83.7738251 77.11293133 82.50275271 78.38384612 81.23147583 79.65455627 C77.76865835 83.11708562 74.30894318 86.58270013 70.84975314 90.04885292 C67.23869563 93.66614128 63.62482566 97.28061753 60.01124573 100.89538574 C53.16336945 107.74637613 46.31804732 114.59991273 39.4736262 121.45435476 C31.68369585 129.25544377 23.89094213 137.05370979 16.09794319 144.85173321 C0.06213909 160.89800351 -15.9700941 176.94783767 -32 193 C-26.46067328 199.74880093 -20.29576735 205.83809086 -14.11962891 211.99389648 C-12.91657377 213.19666918 -11.71373952 214.39966284 -10.5111084 215.6028595 C-7.26173602 218.85251764 -4.00929957 222.0990931 -0.7562871 225.34510684 C2.64877963 228.74390322 6.05099637 232.14555006 9.45352173 235.54689026 C15.88993981 241.98020586 22.32890175 248.41096905 28.76879084 254.84080988 C36.10329862 262.16412285 43.43495183 269.4902908 50.76637149 276.81669509 C65.8410827 291.88096645 80.91935935 306.94166468 96 322 C115.89869111 312.78409149 130.68004588 276.0537898 137.83984375 257.08984375 C154.1346487 212.16846038 153.22292411 160.13921551 132.984375 116.515625 C131.09573269 112.61778873 129.06042325 108.80943677 127 105 C126.53207031 104.06542969 126.06414062 103.13085938 125.58203125 102.16796875 C118.4954314 88.30649631 108.56517453 75.39770235 98 64 C95.98999702 64 94.83657821 66.04026045 93.49458688 67.37633181 Z M-42.50541312 203.37633181 C-43.0044326 203.87826414 -43.50345209 204.38019647 -44.01759338 204.89733887 C-44.54522606 205.42411712 -45.07285874 205.95089538 -45.61648029 206.49363661 C-47.39848472 208.2739831 -49.17687225 210.05790026 -50.95532227 211.84179688 C-52.2261749 213.11293133 -53.49724729 214.38384612 -54.76852417 215.65455627 C-58.23134165 219.11708562 -61.69105682 222.58270013 -65.15024686 226.04885292 C-68.76130437 229.66614128 -72.37517434 233.28061753 -75.98875427 236.89538574 C-82.83663055 243.74637613 -89.68195268 250.59991273 -96.5263738 257.45435476 C-104.31630415 265.25544377 -112.10905787 273.05370979 -119.90205681 280.85173321 C-135.93786091 296.89800351 -151.9700941 312.94783767 -168 329 C-135.12671547 361.91060198 -88.68375815 380.78707736 -42.12695312 381.19067383 C8.61497435 381.13079319 51.69896745 362.52871382 90 330 C88.40850034 326.12578762 85.92503645 323.6760674 82.98277283 320.73553467 C82.46724195 320.21758937 81.95171106 319.69964407 81.42055804 319.16600347 C79.69256669 317.43237806 77.95752169 315.70599106 76.22241211 313.97949219 C74.98195354 312.7379607 73.74192806 311.49599638 72.50230408 310.25363159 C69.13513284 306.88161176 65.76174277 303.51587695 62.38707805 300.1513586 C58.86085511 296.63391171 55.33989769 293.11120142 51.81825256 289.58917236 C45.90592103 283.6777774 39.98972827 277.77026933 34.07104492 271.86523438 C27.21826856 265.02820159 20.37075107 258.18593801 13.52620882 251.34066272 C6.95055149 244.76439616 0.37204683 238.19098613 -6.20806694 231.61917877 C-9.01307062 228.81771479 -11.81721508 226.01539485 -14.62071419 223.21242523 C-17.91708648 219.91705368 -21.21598374 216.62423089 -24.5168972 213.33340836 C-25.73160494 212.12163378 -26.94545525 210.90899904 -28.15840912 209.6954689 C-29.80655945 208.04683169 -31.45772636 206.40127881 -33.10975647 204.75653076 C-34.03540437 203.83255871 -34.96105227 202.90858665 -35.9147501 201.95661545 C-39.27499412 198.80365745 -39.52893301 200.41298193 -42.50541312 203.37633181 Z " fill="#000000" transform="translate(235,3)"/>
</svg>
