<?xml version="1.0" encoding="UTF-8"?>
<svg version="1.1" xmlns="http://www.w3.org/2000/svg" width="392" height="392">
<path d="M0 0 C0.91749023 0.22494141 1.83498047 0.44988281 2.78027344 0.68164062 C34.51511455 8.70095655 63.63521971 23.69389196 87.7265625 45.9140625 C89.8389424 47.8522255 91.99998072 49.71023271 94.1875 51.5625 C98.19685622 55.07766122 101.60913539 58.89183711 105 63 C105.64195312 63.75748535 105.64195312 63.75748535 106.296875 64.53027344 C127.7745892 89.91704964 141.44980632 119.74767188 149 152 C149.18079102 152.7528125 149.36158203 153.505625 149.54785156 154.28125 C155.36196773 179.80325497 154.22509662 210.73508082 148 236 C147.77505859 236.91749023 147.55011719 237.83498047 147.31835938 238.78027344 C139.29904345 270.51511455 124.30610804 299.63521971 102.0859375 323.7265625 C100.1477745 325.8389424 98.28976729 327.99998072 96.4375 330.1875 C92.92233878 334.19685622 89.10816289 337.60913539 85 341 C84.49500977 341.42796875 83.99001953 341.8559375 83.46972656 342.296875 C58.31958954 363.57438779 28.14753011 377.95022289 -4 385 C-4.70157227 385.16371094 -5.40314453 385.32742188 -6.12597656 385.49609375 C-31.77553982 391.2675436 -62.60416008 390.25735457 -88 384 C-88.91749023 383.77505859 -89.83498047 383.55011719 -90.78027344 383.31835938 C-122.51761709 375.29841107 -151.64377101 360.30364997 -175.734375 338.078125 C-177.8017788 336.18181669 -179.91750093 334.36970394 -182.0625 332.5625 C-209.82973863 308.1761028 -227.34266533 271.31150688 -236 236 C-236.21462891 235.12891602 -236.42925781 234.25783203 -236.65039062 233.36035156 C-242.54525014 208.1247387 -243.09832578 177.28837129 -237 152 C-236.79068848 151.11795898 -236.58137695 150.23591797 -236.36572266 149.32714844 C-231.95149351 131.189134 -225.76645589 114.46136231 -217 98 C-216.68836914 97.40477539 -216.37673828 96.80955078 -216.05566406 96.19628906 C-192.93442529 52.3271027 -151.12360245 19.53172143 -104.234375 4.4375 C-98.86690848 2.77724619 -93.4561707 1.33769131 -88 0 C-87.12891602 -0.21462891 -86.25783203 -0.42925781 -85.36035156 -0.65039062 C-58.37898089 -6.95304673 -26.87017321 -6.62061981 0 0 Z M-134 27 C-135.15757812 27.60328125 -136.31515625 28.2065625 -137.5078125 28.828125 C-152.55269912 36.98457834 -165.89436213 47.96057701 -178 60 C-178.50337891 60.49935059 -179.00675781 60.99870117 -179.52539062 61.51318359 C-214.13446124 96.31107134 -232.26972596 145.3364837 -232.2487793 194.02490234 C-231.89088084 225.11314697 -223.64769136 254.70464587 -209 282 C-208.09507812 283.73636719 -208.09507812 283.73636719 -207.171875 285.5078125 C-184.63046576 327.08629424 -143.67638585 358.09079937 -98.88769531 371.96362305 C-88.03040221 375.18133305 -77.2279507 377.56051914 -66 379 C-65.08347656 379.13019531 -64.16695312 379.26039063 -63.22265625 379.39453125 C-16.36617005 384.94624762 32.67637864 370.02442287 69.88671875 341.48828125 C110.77238806 308.81052547 137.32485137 263.94362254 143.25 211.5625 C146.92690362 174.45676501 139.93922267 136.77503551 122 104 C121.53335937 103.06929688 121.06671875 102.13859375 120.5859375 101.1796875 C98.91411593 58.72319496 57.32191627 26.9752199 12.52246094 12.44506836 C-36.69728581 -2.71262062 -88.74685979 2.71549987 -134 27 Z " fill="#000000" transform="translate(240,4)"/>
<path d="M0 0 C17.72046853 12.33948519 31.15586134 29.60397249 41.41308594 48.43261719 C51.63036459 67.18189752 64.82689222 84.61586106 84.97558594 93.24511719 C98.45675099 96.78116048 109.37044588 94.4518487 121.37402344 87.81542969 C136.82526002 78.56239689 148.61233922 64.94907827 157.92163086 49.70092773 C160.59742105 45.34044963 160.59742105 45.34044963 162.78808594 44.24511719 C162.78808594 44.90511719 162.78808594 45.56511719 162.78808594 46.24511719 C165.09808594 46.24511719 167.40808594 46.24511719 169.78808594 46.24511719 C166.49723926 57.13511706 159.08713716 65.73162281 151.78808594 74.24511719 C151.10101563 75.07914062 150.41394531 75.91316406 149.70605469 76.77246094 C140.6666195 87.38834679 129.70288881 95.89729741 116.78808594 101.24511719 C116.01722656 101.58285156 115.24636719 101.92058594 114.45214844 102.26855469 C103.78740566 106.23598459 90.06960808 105.70715494 79.58496094 101.56542969 C57.1031379 90.95250205 40.63302564 70.36473602 29.80371094 48.23339844 C19.30315377 27.67653844 0.7672698 9.00685293 -20.58691406 0.24511719 C-30.85925364 -2.68709915 -42.81313253 -1.72301772 -52.21191406 3.24511719 C-55.70630594 5.39159953 -58.97170788 7.7345319 -62.21191406 10.24511719 C-63.22253906 10.98761719 -64.23316406 11.73011719 -65.27441406 12.49511719 C-76.64049106 22.28792364 -84.53803933 36.52841049 -92.21191406 49.24511719 C-95.58695075 48.05929349 -97.85914138 46.9693803 -100.21191406 44.24511719 C-88.44860821 22.57755655 -72.24817651 -0.57959635 -48.08691406 -9.12988281 C-30.82000496 -13.96461736 -14.77802456 -9.64778718 0 0 Z " fill="#000000" transform="translate(165.2119140625,143.7548828125)"/>
</svg>
