<?xml version="1.0" encoding="UTF-8"?>
<svg version="1.1" xmlns="http://www.w3.org/2000/svg" width="486" height="486">
<path d="M0 0 C-9.9 19.8 -19.8 39.6 -30 60 C-34 60 -34 60 -35.921875 58.46875 C-36.52515625 57.8190625 -37.1284375 57.169375 -37.75 56.5 C-38.36359375 55.8503125 -38.9771875 55.200625 -39.609375 54.53125 C-40.06828125 54.0259375 -40.5271875 53.520625 -41 53 C-41.00059709 53.80466556 -41.00119418 54.60933112 -41.00180936 55.43838048 C-41.03767772 103.09468884 -41.09427724 150.75093395 -41.17792095 198.40718366 C-41.1879388 204.1251339 -41.19778287 209.84308443 -41.20751953 215.56103516 C-41.21043159 217.26859764 -41.21043159 217.26859764 -41.21340248 219.01065633 C-41.24445136 237.46018438 -41.26141118 255.90969999 -41.27319422 274.35924926 C-41.28559084 293.28023182 -41.31305847 312.20114888 -41.35461307 331.1220901 C-41.37979119 342.80398612 -41.39311414 354.48577356 -41.39142957 366.1676971 C-41.39139989 374.1707444 -41.4059657 382.17368083 -41.43216428 390.17668495 C-41.44685968 394.79890797 -41.4549711 399.42090362 -41.44580269 404.04314613 C-41.43755787 408.27113044 -41.44755361 412.49865653 -41.47233662 416.7265726 C-41.47805306 418.25959793 -41.47695448 419.79266623 -41.46851245 421.32567897 C-41.45804654 423.40353858 -41.47197534 425.47983634 -41.49219131 427.55759048 C-41.4937102 428.71345917 -41.49522908 429.86932786 -41.49679399 431.06022286 C-42 434 -42 434 -43.63401538 436.37876874 C-46.74118584 438.50787889 -48.61049972 438.45737693 -52.36356258 438.38210964 C-53.68139923 438.36580578 -54.99923588 438.34950192 -56.35700697 438.33270401 C-57.8234558 438.29412566 -59.28989739 438.25527144 -60.7563324 438.21617126 C-62.3116066 438.18982992 -63.86691395 438.16538887 -65.42224556 438.14268881 C-68.80960723 438.08952621 -72.19641533 438.02378043 -75.58335876 437.94857597 C-81.09605427 437.82659671 -86.60901208 437.73286689 -92.12232971 437.64407349 C-98.06382968 437.54740062 -104.00528219 437.44939664 -109.94661415 437.34283149 C-124.72934994 437.0793722 -139.51175665 436.89350557 -154.29615784 436.75404358 C-155.36716887 436.74381892 -156.4381799 436.73359426 -157.54164582 436.72305977 C-166.36777808 436.63910879 -175.19393989 436.55846529 -184.02012031 436.47974662 C-191.97755736 436.40876481 -199.93496192 436.33502396 -207.89233398 436.25708008 C-209.02666408 436.24600472 -210.16099418 436.23492936 -211.32969791 436.22351838 C-229.60867158 436.04054688 -247.88220705 435.70987526 -266.15794288 435.32647162 C-284.97847871 434.93543619 -303.7955327 434.72067711 -322.62004429 434.65966612 C-333.16918302 434.62034737 -343.70459115 434.50245378 -354.24917412 434.17921257 C-404.93002732 431.04391724 -404.93002732 431.04391724 -448.76780015 452.28250724 C-458.23284054 461.21451562 -466.37653772 471.42898312 -473.6449886 482.20146853 C-475 484 -475 484 -477 485 C-480.5 485.1875 -480.5 485.1875 -484 485 C-486 483 -486 483 -486.5625 479.875 C-485.68333359 473.81852026 -481.68102479 470.04741286 -476.88926733 466.38810098 C-475.38743032 465.37532627 -473.87745004 464.37454844 -472.36059082 463.38441455 C-457.65316625 453.64594565 -442.30905596 440.46615974 -438.21965346 422.57712138 C-433.73359694 399.19519289 -435.2731513 374.43198997 -435.8955236 350.76842161 C-436.16614916 340.1620712 -436.205051 329.55818671 -436.2325988 318.94887611 C-436.28726549 300.03451551 -436.51188518 281.12635384 -436.8503418 262.21508789 C-437.17798135 243.88431485 -437.43331898 225.55502701 -437.58666992 207.22192383 C-437.59619076 206.08742536 -437.60571159 204.95292688 -437.61552093 203.78404967 C-437.68135755 195.83848072 -437.74261042 187.89287957 -437.80273438 179.94726562 C-437.86964942 171.14823676 -437.93782051 162.34921932 -438.00810242 153.55021667 C-438.01650234 152.48334738 -438.02490226 151.41647809 -438.03355672 150.31727942 C-438.15136208 135.55711427 -438.3307542 120.79888376 -438.55920024 106.0400333 C-438.64833872 100.16138056 -438.72756603 94.28258429 -438.80682103 88.40379099 C-438.88187623 82.94210112 -438.97452299 77.4810839 -439.08076658 72.01991652 C-439.14103158 68.71404491 -439.1848631 65.40811018 -439.22395947 62.10192689 C-439.24541588 60.58406954 -439.27391911 59.06629284 -439.31001512 57.54871307 C-439.35816261 55.49235078 -439.38161189 53.43714129 -439.39886951 51.38032246 C-439.41849147 50.23648132 -439.43811342 49.09264018 -439.45832998 47.91413718 C-439 45 -439 45 -437.37772125 42.63296789 C-434.26422036 40.49468235 -432.32392476 40.49714051 -428.55759048 40.49219131 C-427.90970473 40.48588756 -427.26181898 40.47958381 -426.59430033 40.47308904 C-424.41409112 40.45677095 -422.23497246 40.46901195 -420.05474854 40.48101807 C-418.4797401 40.47514508 -416.90473738 40.46751922 -415.32974505 40.458287 C-410.99468279 40.43796869 -406.65994667 40.4425957 -402.32485843 40.45119452 C-397.65272726 40.45612705 -392.98067931 40.43806982 -388.30857849 40.42277527 C-380.21151088 40.39942912 -372.11453291 40.39071623 -364.01743317 40.39188385 C-352.31034338 40.39355098 -340.60337332 40.37323985 -328.89631543 40.34752855 C-309.90337627 40.30641431 -290.91045861 40.2831262 -271.91748047 40.27099609 C-253.46531101 40.25917332 -235.01318203 40.23898763 -216.56103516 40.20751953 C-215.42404074 40.20558343 -214.28704631 40.20364733 -213.11559752 40.20165256 C-207.41174866 40.1918882 -201.70790011 40.18195905 -196.00405169 40.17194796 C-148.66938721 40.08908196 -101.33472193 40.03542005 -54 40 C-56.97 37.03 -59.94 34.06 -63 31 C-61.68141939 27.04425817 -60.29963028 26.83103887 -56.62573242 24.98144531 C-54.90340645 24.10604095 -54.90340645 24.10604095 -53.14628601 23.21295166 C-51.88296375 22.58410627 -50.61935069 21.95584477 -49.35546875 21.328125 C-48.06584083 20.68035788 -46.77648165 20.03205548 -45.48738098 19.38323975 C-42.78286499 18.02503536 -40.07475368 16.67435024 -37.36401367 15.32861328 C-33.88945217 13.60276903 -30.42520642 11.8572736 -26.96349621 10.10582352 C-24.30231935 8.76245045 -21.63560866 7.43037979 -18.96712685 6.10158539 C-17.68747282 5.46250234 -16.40965027 4.81973846 -15.13371849 4.17325592 C-13.34907986 3.27096414 -11.55593013 2.38556616 -9.76245117 1.50097656 C-8.74398605 0.99262268 -7.72552094 0.4842688 -6.67619324 -0.03948975 C-4 -1 -4 -1 0 0 Z M-426 54 C-426 173.13 -426 292.26 -426 415 C-421.34822453 411.01276388 -416.91518194 407.05936334 -412.610116 402.73595715 C-412.00435481 402.13164939 -411.39859362 401.52734164 -410.77447602 400.90472153 C-408.75361835 398.8875013 -406.73632522 396.86675482 -404.7190094 394.84599304 C-403.25300011 393.38113645 -401.78677298 391.91649784 -400.32034725 390.45205814 C-396.29775294 386.43363646 -392.27828121 382.41210406 -388.25932229 378.39004695 C-383.92241212 374.05087464 -379.58262608 369.71458025 -375.24320984 365.37791443 C-367.23782774 357.37672265 -359.23472515 349.37325621 -351.23280724 341.36860036 C-343.84394259 333.97721991 -336.4541489 326.58676989 -329.06342888 319.19724464 C-328.5731433 318.70703545 -328.08285771 318.21682625 -327.57771499 317.71176223 C-325.58753916 315.72189773 -323.59735979 313.73203676 -321.60717461 311.74218161 C-302.94548713 293.08355194 -284.28671522 274.42200912 -265.62924873 255.75915884 C-249.04214888 239.16730904 -232.45245956 222.57805255 -215.8605957 205.9909668 C-197.22277805 187.35849849 -178.58657014 168.72442255 -159.95297378 150.08773261 C-157.96860596 148.10304407 -155.9842342 146.11835946 -153.99986076 144.13367653 C-153.511251 143.64498768 -153.02264123 143.15629884 -152.5192251 142.65280124 C-145.12897254 135.26140946 -137.73748354 127.87125563 -130.34539986 120.48169518 C-121.94806014 112.08720752 -113.55254336 103.69090146 -105.15930153 95.2923161 C-100.87302314 91.00339929 -96.58593005 86.71530499 -92.29668808 82.42935181 C-88.37747655 78.51310009 -84.46054466 74.59458387 -80.54549026 70.67417643 C-79.12195448 69.24951516 -77.69755765 67.82571369 -76.27225656 66.40281852 C-74.34887348 64.4824356 -72.4285354 62.55906089 -70.50899601 60.63483715 C-69.94305866 60.07124096 -69.3771213 59.50764478 -68.79403433 58.92696992 C-66.18250379 56.81625115 -66.18250379 56.81625115 -65 54 C-184.13 54 -303.26 54 -426 54 Z M-60.00306687 67.87013128 C-60.57800421 68.4474098 -61.15294156 69.02468831 -61.74530125 69.61946011 C-62.35426962 70.22697504 -62.96323799 70.83448997 -63.59065995 71.46041444 C-65.65858313 73.52464852 -67.7228792 75.59247349 -69.7872467 77.66026306 C-71.27282545 79.14469114 -72.75862237 80.6289009 -74.24462026 82.11290938 C-78.34919414 86.2132825 -82.45061115 90.31680097 -86.55154192 94.42081726 C-90.9662735 98.8377997 -95.38386688 103.25191828 -99.80110168 107.66639709 C-107.96119277 115.8222863 -116.11898965 123.98046453 -124.27561379 132.13982066 C-131.80961658 139.67633466 -139.34454275 147.21192393 -146.8803997 154.74658394 C-147.62892386 155.49499351 -147.62892386 155.49499351 -148.39256971 156.25852247 C-150.41801512 158.28365657 -152.44346407 160.30878712 -154.46891885 162.33391185 C-173.486298 181.34822898 -192.50075432 200.36546658 -211.51391346 219.38400335 C-228.42227243 236.29710827 -245.3332148 253.20762603 -262.24633789 270.1159668 C-281.22910452 289.0933839 -300.21026099 308.07240908 -319.18880647 327.05404764 C-321.21033981 329.07590172 -323.2318771 331.09775185 -325.25341606 333.1196003 C-325.75120373 333.61746705 -326.24899141 334.1153338 -326.76186355 334.62828742 C-334.29356401 342.16112746 -341.82650166 349.6927288 -349.36003304 357.22373772 C-357.92220868 365.78306085 -366.48256016 374.34420273 -375.04063804 382.90762346 C-379.41193583 387.28155979 -383.78404856 391.65467352 -388.15830994 396.02564621 C-392.15547861 400.01985501 -396.15036767 404.01632858 -400.14337926 408.01469309 C-401.59535798 409.46779732 -403.04819779 410.92004169 -404.50194181 412.37137984 C-406.46377053 414.33020845 -408.42255482 416.29202932 -410.38053989 418.25469875 C-410.95781841 418.8296361 -411.53509692 419.40457344 -412.12986872 419.99693313 C-414.78783312 422.14258254 -414.78783312 422.14258254 -416 425 C-296.87 425 -177.74 425 -55 425 C-55 305.87 -55 186.74 -55 64 C-57.16458334 64 -58.55025158 66.42433376 -60.00306687 67.87013128 Z " fill="#000000" transform="translate(486,1)"/>
<path d="M0 0 C3.5 0.5 3.5 0.5 5.20043945 2.06933594 C7.00539457 5.44527679 6.83839554 8.07477452 6.79296875 11.890625 C6.78872391 12.59523865 6.78447906 13.29985229 6.78010559 14.02581787 C6.76336538 16.26760712 6.72572404 18.50848431 6.6875 20.75 C6.67244704 22.27342448 6.6587597 23.79686311 6.64648438 25.3203125 C6.61347791 29.04716941 6.56172854 32.77349563 6.5 36.5 C7.08515381 36.6139209 7.67030762 36.7278418 8.27319336 36.84521484 C18.7635702 39.00895599 27.98212954 43.7729145 34.5 52.5 C41.74025568 64.51649455 44.44155487 75.95129741 41.88671875 89.83203125 C38.72337593 100.46476504 32.49835502 109.0515624 23.1640625 115.0625 C18.00494323 117.84630629 12.43338737 120.5 6.5 120.5 C6.51571045 121.08491211 6.5314209 121.66982422 6.54760742 122.27246094 C6.61010267 124.93154164 6.64903569 127.59046764 6.6875 130.25 C6.71263672 131.17039062 6.73777344 132.09078125 6.76367188 133.0390625 C6.77333984 133.92851562 6.78300781 134.81796875 6.79296875 135.734375 C6.8086792 136.55131836 6.82438965 137.36826172 6.84057617 138.20996094 C6.41230795 141.08964258 5.52890044 142.43177414 3.5 144.5 C0 145 0 145 -3.5 144.5 C-5.52890044 142.43177414 -6.41230795 141.08964258 -6.84057617 138.20996094 C-6.82486572 137.39301758 -6.80915527 136.57607422 -6.79296875 135.734375 C-6.7784668 134.40019531 -6.7784668 134.40019531 -6.76367188 133.0390625 C-6.73853516 132.11867188 -6.71339844 131.19828125 -6.6875 130.25 C-6.66719727 128.84621094 -6.66719727 128.84621094 -6.64648438 127.4140625 C-6.61119954 125.10878673 -6.56190281 122.8046894 -6.5 120.5 C-7.07935303 120.39115479 -7.65870605 120.28230957 -8.25561523 120.17016602 C-19.57887865 117.87840014 -28.92756239 112.13044677 -35.5 102.5 C-41.79866759 90.89470496 -43.48767162 78.74024903 -40.69921875 65.77734375 C-36.96473512 55.01022429 -28.94895362 45.47271984 -18.625 40.375 C-18.00882812 40.06304687 -17.39265625 39.75109375 -16.7578125 39.4296875 C-13.74247154 38.18807652 -10.63744454 37.37979801 -7.5 36.5 C-7.48541748 35.55157227 -7.47083496 34.60314453 -7.45581055 33.62597656 C-7.39467436 30.0995206 -7.3205087 26.57383557 -7.23754883 23.04785156 C-7.2043412 21.5232166 -7.17629622 19.99845994 -7.15356445 18.47363281 C-7.11994042 16.27877046 -7.06762458 14.08501912 -7.01171875 11.890625 C-6.98553467 10.57094727 -6.95935059 9.25126953 -6.93237305 7.89160156 C-6.27567996 2.74039867 -5.23314892 0.7475927 0 0 Z M6.5 49.5 C6.5 68.64 6.5 87.78 6.5 107.5 C15.43978785 105.71204243 21.19237076 100.80678932 26.5 93.5 C30.54416186 86.35531404 31.50124663 78.24998703 29.4375 70.3125 C26.57920223 62.18823923 21.06327041 55.67375555 13.5 51.5 C11.19 50.84 8.88 50.18 6.5 49.5 Z M-21.375 57.75 C-27.04126732 63.85727398 -29.86486964 71.94501361 -29.7109375 80.2265625 C-28.89558818 89.01421631 -25.33604505 96.13088344 -18.80078125 102.03515625 C-14.62305023 105.25529499 -12.01855635 105.92326962 -6.5 107.5 C-6.5 88.36 -6.5 69.22 -6.5 49.5 C-11.51527279 49.5 -17.87278592 54.48380469 -21.375 57.75 Z " fill="#000000" transform="translate(341.5,245.5)"/>
<path d="M0 0 C5.36049524 5.28865157 8.85023431 12.70123143 12.49069214 19.19888306 C13.87797433 21.67449783 15.2778269 24.14292446 16.67710876 26.61177063 C17.39582853 27.87991092 18.11397714 29.14837507 18.83155823 30.41716003 C22.31796162 36.57749732 25.86845922 42.69969401 29.4375 48.8125 C30.00936035 49.79661865 30.5812207 50.7807373 31.17041016 51.79467773 C33.67771664 56.095785 36.20925175 60.37060715 38.87109375 64.578125 C39.29914307 65.26156982 39.72719238 65.94501465 40.16821289 66.64916992 C41.2731344 68.4009947 42.39733854 70.14061895 43.5234375 71.87890625 C45.27904839 75.58984037 45.58845364 77.94352858 45 82 C42.51852101 84.78010637 40.94832098 85.00518777 37.20507812 85.38095093 C35.6472353 85.39875581 34.08914994 85.39997698 32.53125 85.38818359 C31.25254028 85.39606903 31.25254028 85.39606903 29.94799805 85.40411377 C27.13181199 85.41731108 24.31619175 85.40857666 21.5 85.3984375 C19.5423166 85.40045831 17.58463394 85.40336981 15.62695312 85.40713501 C11.52466665 85.411558 7.42257619 85.40512807 3.3203125 85.39111328 C-1.93908286 85.37402147 -7.19801895 85.38386278 -12.45739746 85.40183067 C-16.49970971 85.41266915 -20.541913 85.40922186 -24.58422852 85.4014473 C-26.52351943 85.39944547 -28.46282023 85.40190395 -30.40209961 85.40888596 C-33.11208312 85.41650143 -35.82132197 85.40489494 -38.53125 85.38818359 C-39.33344971 85.39425629 -40.13564941 85.40032898 -40.9621582 85.40658569 C-44.20676911 85.36950241 -46.60492593 85.20797975 -49.50192261 83.6829071 C-51 82 -51 82 -51.43798828 78.68530273 C-50.96488662 74.70455043 -50.02078548 72.46836289 -47.9921875 69.03515625 C-47.3422583 67.9177002 -46.6923291 66.80024414 -46.02270508 65.64892578 C-45.30708045 64.45328465 -44.5911717 63.25781353 -43.875 62.0625 C-43.1414152 60.81316237 -42.4092561 59.5629866 -41.6784668 58.31201172 C-40.18564204 55.76167999 -38.68466193 53.21644733 -37.17626953 50.67529297 C-34.59594806 46.32555143 -32.06107735 41.94980962 -29.52490234 37.57421875 C-27.26949711 33.68980256 -24.99664957 29.81573654 -22.72314453 25.94189453 C-20.911672 22.84919915 -19.10991646 19.75096021 -17.30859375 16.65234375 C-16.12268064 14.62222944 -14.93649278 12.59227559 -13.75 10.5625 C-13.20061768 9.61391113 -12.65123535 8.66532227 -12.08520508 7.68798828 C-11.57755615 6.82286621 -11.06990723 5.95774414 -10.546875 5.06640625 C-10.10182617 4.30271729 -9.65677734 3.53902832 -9.19824219 2.75219727 C-6.8369243 -0.70077309 -3.90647676 -0.67612098 0 0 Z M-4 19 C-4.3717334 19.66829834 -4.7434668 20.33659668 -5.12646484 21.02514648 C-18.3546172 44.78486482 -18.3546172 44.78486482 -24.62646484 55.25561523 C-27.91496886 60.76610129 -30.9169132 66.3476742 -34 72 C-13.87 72 6.26 72 27 72 C25.33499651 67.00498952 23.4409237 63.04946871 20.75 58.625 C19.85597723 57.13198534 18.96280006 55.63846413 18.0703125 54.14453125 C17.58336914 53.33193848 17.09642578 52.5193457 16.59472656 51.68212891 C12.95052625 45.55304369 9.39533775 39.37101033 5.82324219 33.19970703 C1.63923286 25.95469855 1.63923286 25.95469855 -3 19 C-3.33 19 -3.66 19 -4 19 Z " fill="#000000" transform="translate(159,102)"/>
</svg>
