<?xml version="1.0" encoding="UTF-8"?>
<svg version="1.1" xmlns="http://www.w3.org/2000/svg" width="392" height="392">
<path d="M0 0 C129.36 0 258.72 0 392 0 C392 129.36 392 258.72 392 392 C262.64 392 133.28 392 0 392 C0 262.64 0 133.28 0 0 Z M8 8 C8 132.08 8 256.16 8 384 C132.08 384 256.16 384 384 384 C384 259.92 384 135.84 384 8 C259.92 8 135.84 8 8 8 Z " fill="#000000" transform="translate(0,0)"/>
<path d="M0 0 C3 0.125 3 0.125 4 1.125 C4.58741987 7.50139979 2.78904814 12.66941723 0.71875 18.65234375 C0.38580933 19.64126114 0.05286865 20.63017853 -0.29016113 21.64906311 C-1.35025042 24.79031508 -2.42487756 27.92636545 -3.5 31.0625 C-4.22362309 33.19824037 -4.94629001 35.33430496 -5.66796875 37.47070312 C-7.43425635 42.69260772 -9.21248906 47.91032481 -11 53.125 C-10.06663818 53.42446533 -9.13327637 53.72393066 -8.17163086 54.0324707 C5.47048509 58.73176012 15.12916576 69.93074179 21.703125 82.33984375 C29.33423788 98.21329943 31.0930092 117.09406199 25.31640625 133.9609375 C17.97410625 151.60860219 6.7463497 163.90641323 -10.609375 171.7578125 C-17.04221338 174.30475077 -22.94624046 176.24825955 -29.90625 176.2578125 C-31.26943359 176.25974609 -31.26943359 176.25974609 -32.66015625 176.26171875 C-33.59730469 176.25785156 -34.53445313 176.25398437 -35.5 176.25 C-36.43714844 176.25386719 -37.37429688 176.25773438 -38.33984375 176.26171875 C-39.24863281 176.26042969 -40.15742188 176.25914062 -41.09375 176.2578125 C-41.91552734 176.25668457 -42.73730469 176.25555664 -43.58398438 176.25439453 C-46.13607433 176.11771227 -48.50895043 175.68343431 -51 175.125 C-55.48537182 185.63764369 -58.94012934 196.54199558 -62.59008789 207.36352539 C-63.45741773 209.93196523 -64.32819747 212.49921641 -65.19921875 215.06640625 C-65.46586838 215.86107803 -65.73251801 216.65574982 -66.00724792 217.47450256 C-67.8871087 223.0121087 -67.8871087 223.0121087 -69 224.125 C-72 224.25 -72 224.25 -75 224.125 C-75.33 223.795 -75.66 223.465 -76 223.125 C-75.581204 216.28494943 -74.01872429 210.3106718 -71.83984375 203.83984375 C-71.53051407 202.89814835 -71.22118439 201.95645294 -70.90248108 200.98622131 C-69.92238792 198.00885331 -68.93017162 195.0356949 -67.9375 192.0625 C-67.26676964 190.03216795 -66.59683976 188.00157127 -65.92773438 185.97070312 C-64.29439794 181.01903845 -62.65111608 176.07076265 -61 171.125 C-62.4068103 170.67688965 -62.4068103 170.67688965 -63.84204102 170.21972656 C-68.88262963 168.47237447 -72.76510188 165.3045561 -77 162.125 C-77.93199219 161.46371094 -77.93199219 161.46371094 -78.8828125 160.7890625 C-90.16000616 152.13447202 -97.56007427 136.83186106 -100 123.125 C-101.75966737 103.45824351 -98.32997387 86.97414726 -86.3125 71 C-78.42561142 61.58950794 -69.40841899 55.53568987 -58 51.125 C-57.17628906 50.7846875 -56.35257813 50.444375 -55.50390625 50.09375 C-44.67567292 46.35151256 -30.14930594 46.80923126 -19 49.125 C-18.73195557 47.83335937 -18.46391113 46.54171875 -18.18774414 45.2109375 C-17.08926475 40.27738224 -15.60972893 35.53604691 -13.99609375 30.75 C-13.71274673 29.89946045 -13.42939972 29.0489209 -13.13746643 28.17260742 C-12.54375906 26.39380764 -11.94786283 24.61573704 -11.34985352 22.83837891 C-10.43124128 20.10638628 -9.52080973 17.37176285 -8.61132812 14.63671875 C-8.03172746 12.90348609 -7.45166618 11.17040739 -6.87109375 9.4375 C-6.46170815 8.20797607 -6.46170815 8.20797607 -6.04405212 6.95361328 C-3.74952553 0.15623023 -3.74952553 0.15623023 0 0 Z M-80.00390625 77.50390625 C-88.98397426 89.5872375 -93.64215246 104.22685898 -91.5703125 119.23828125 C-88.79567404 134.63581196 -81.72151524 147.86609671 -69.0546875 157.32421875 C-65.08780763 159.93178112 -61.63827276 162.06443803 -57 163.125 C-52.53690811 149.89921307 -48.08597007 136.66939049 -43.64903927 123.43480301 C-41.58855959 117.28993375 -39.5241835 111.14643098 -37.45092773 105.00585938 C-35.45121846 99.08264747 -33.46171254 93.15609965 -31.47931099 87.22707367 C-30.72022385 84.96277143 -29.95743402 82.69970708 -29.19093132 80.43790436 C-28.12005599 77.27590278 -27.06229075 74.10980249 -26.00756836 70.94238281 C-25.52528778 69.53329147 -25.52528778 69.53329147 -25.03326416 68.09573364 C-24.74855759 67.23199127 -24.46385101 66.3682489 -24.17051697 65.47833252 C-23.91886748 64.72983662 -23.667218 63.98134071 -23.40794277 63.21016312 C-22.9465497 60.85179354 -23.25021076 59.38541496 -24 57.125 C-45.5926963 53.36974847 -65.8234436 60.66978978 -80.00390625 77.50390625 Z M-14 61.125 C-16.66069896 67.60530271 -19.09450735 74.11732526 -21.29980469 80.765625 C-21.75422188 82.12361961 -21.75422188 82.12361961 -22.21781921 83.50904846 C-23.20549895 86.46337557 -24.188847 89.41912213 -25.171875 92.375 C-25.86101049 94.4410578 -26.55032404 96.50705622 -27.23980713 98.57299805 C-28.67728354 102.88249116 -30.11260536 107.19269414 -31.54638672 111.50341797 C-33.38729395 117.03759356 -35.23363134 122.56993983 -37.08155441 128.10177612 C-38.50259535 132.3576908 -39.92079098 136.61454928 -41.33811188 140.8717041 C-42.01824028 142.91342558 -42.69926371 144.95484913 -43.38118744 146.99597168 C-44.32961601 149.836203 -45.27421415 152.67767923 -46.21777344 155.51953125 C-46.50136215 156.36624893 -46.78495087 157.21296661 -47.07713318 158.08534241 C-48.48490461 162.01997566 -48.48490461 162.01997566 -49 166.125 C-34.10441965 169.98681713 -20.83800436 167.38855328 -7.26171875 160.13671875 C6.14011193 151.87091899 14.47097157 139.51336021 18.75 124.4921875 C21.96937035 110.22858832 19.25292553 95.20058684 11.76171875 82.65234375 C5.0511388 73.0254142 -2.94216711 65.27168733 -14 61.125 Z " fill="#000000" transform="translate(304,83.875)"/>
<path d="M0 0 C3.19921875 0.4375 3.19921875 0.4375 5.3046875 2.8125 C6.02123264 4.00760793 6.71287807 5.21780387 7.38671875 6.4375 C7.99567993 7.47148926 7.99567993 7.47148926 8.61694336 8.52636719 C9.58337733 10.17052653 10.53991747 11.82052126 11.48925781 13.47460938 C13.45502601 16.88074342 15.46019695 20.26194237 17.47265625 23.640625 C18.25564582 24.95571096 19.03860415 26.27081552 19.8215332 27.5859375 C20.22119293 28.2572168 20.62085266 28.92849609 21.03262329 29.62011719 C22.27590214 31.71135697 23.51581058 33.80455841 24.75463867 35.8984375 C30.01106933 44.7811193 35.32552118 53.62532102 40.69921875 62.4375 C47.76002819 74.01819608 54.70677376 85.66383282 61.60546875 97.34179688 C61.98089813 97.97630768 62.35632751 98.61081848 62.74313354 99.26455688 C63.48063774 100.51182352 64.21660895 101.75999802 64.95095825 103.00912476 C66.7552473 106.06457095 68.59892473 109.08099693 70.53466797 112.05517578 C71.09510048 112.92681114 71.09510048 112.92681114 71.66685486 113.8160553 C72.68850767 115.39668282 73.72543261 116.96740958 74.76342773 118.53735352 C76.38679311 121.81638043 76.6452528 123.82536061 76.19921875 127.4375 C73.50028424 130.13643451 72.12948923 129.6888478 68.35351562 129.69146729 C67.10836182 129.69710693 65.86320801 129.70274658 64.58032227 129.70855713 C63.19287052 129.70466817 61.80541934 129.70057181 60.41796875 129.69628906 C58.96280746 129.69899788 57.50764754 129.7025582 56.05249023 129.70690918 C52.09388892 129.71604848 48.13539153 129.71248262 44.17678833 129.70615101 C40.04038201 129.70109896 35.90398478 129.70578024 31.76757812 129.70892334 C24.82029619 129.71256531 17.87305674 129.70775784 10.92578125 129.69824219 C2.88574571 129.68735718 -5.15418841 129.6908826 -13.1942215 129.701895 C-20.08851237 129.71096131 -26.98277266 129.71225638 -33.87706757 129.70701766 C-37.99854699 129.70389433 -42.11997869 129.70349851 -46.24145508 129.71009064 C-50.11559819 129.71585396 -53.98961012 129.71188593 -57.86373901 129.70030212 C-59.28839907 129.69765008 -60.7130701 129.69842986 -62.13772583 129.70282745 C-64.07683934 129.70826269 -66.01597689 129.70025001 -67.95507812 129.69146729 C-69.04203979 129.69071323 -70.12900146 129.68995918 -71.24890137 129.68918228 C-73.80078125 129.4375 -73.80078125 129.4375 -75.80078125 127.4375 C-76.45668242 122.31658505 -74.87946149 119.06643215 -72.2421875 114.8359375 C-71.86694443 114.21071198 -71.49170135 113.58548645 -71.10508728 112.9413147 C-69.87016259 110.89061842 -68.61692139 108.85179887 -67.36328125 106.8125 C-66.49100092 105.37181151 -65.61992299 103.93039439 -64.75 102.48828125 C-62.53384831 98.82125445 -60.30282267 95.16354871 -58.06671143 91.50866699 C-56.17815936 88.41883883 -54.29975893 85.32288186 -52.421875 82.2265625 C-50.35673659 78.82318325 -48.29092928 75.42024103 -46.21899414 72.02099609 C-40.84552483 63.19942768 -35.56216788 54.3262832 -30.30078125 45.4375 C-23.97880585 34.75921495 -17.61236375 24.10964502 -11.17578125 13.5 C-10.80557861 12.88874268 -10.43537598 12.27748535 -10.05395508 11.64770508 C-9.0207188 9.94250557 -7.98503571 8.23878937 -6.94921875 6.53515625 C-6.36317871 5.57101807 -5.77713867 4.60687988 -5.17333984 3.61352539 C-3.21037414 0.50148104 -3.21037414 0.50148104 0 0 Z M-0.80078125 13.4375 C-1.91560314 15.19811231 -2.97730852 16.99233757 -4.01953125 18.796875 C-4.34887665 19.36386612 -4.67822205 19.93085724 -5.01754761 20.51502991 C-5.7357133 21.75157405 -6.45234833 22.98900812 -7.16766357 24.22720337 C-9.10120584 27.5722367 -11.04806045 30.90948412 -12.99609375 34.24609375 C-13.59787949 35.27708443 -13.59787949 35.27708443 -14.21182251 36.3289032 C-18.12382035 43.01622723 -22.13783639 49.63802644 -26.17578125 56.25 C-32.86145358 67.19913308 -39.43369277 78.21171626 -45.96078491 89.256073 C-50.92280397 97.64961128 -55.90951111 106.01744897 -61.21264648 114.20214844 C-63.20204412 117.08526204 -63.20204412 117.08526204 -63.80078125 120.4375 C-21.56078125 120.4375 20.67921875 120.4375 64.19921875 120.4375 C60.14739898 112.27733716 60.14739898 112.27733716 55.66015625 104.4609375 C55.00724609 103.39488281 54.35433594 102.32882813 53.68164062 101.23046875 C53.33931396 100.67536621 52.9969873 100.12026367 52.64428711 99.54833984 C50.75480316 96.48326321 48.87971925 93.40939321 47.00390625 90.3359375 C46.61100403 89.69267517 46.21810181 89.04941284 45.81329346 88.38665771 C41.7817669 81.77480665 37.83181097 75.1153815 33.88955688 68.45004272 C27.63527404 57.87572685 21.3529574 47.31929377 14.98535156 36.81274414 C14.26609688 35.62597392 13.54748451 34.43881412 12.82958984 33.2512207 C6.8317844 23.13608625 6.8317844 23.13608625 0.19921875 13.4375 C-0.13078125 13.4375 -0.46078125 13.4375 -0.80078125 13.4375 Z " fill="#000000" transform="translate(123.80078125,131.5625)"/>
</svg>
