<svg xmlns="http://www.w3.org/2000/svg" xmlns:xlink="http://www.w3.org/1999/xlink" width="2000" zoomAndPan="magnify" viewBox="0 0 1500 1499.999933" height="2000" preserveAspectRatio="xMidYMid meet" version="1.0"><defs><clipPath id="27ab207293"><path d="M 240 0 L 1273.363281 0 L 1273.363281 1500 L 240 1500 Z M 240 0 " clip-rule="nonzero"/></clipPath></defs><path stroke-linecap="butt" transform="matrix(0.829652, 0, 0, 0.829652, 240.052909, 0.616975)" fill-opacity="1" fill="#ffffff" fill-rule="nonzero" stroke-linejoin="miter" d="M 618.898848 63.002028 L 616.89782 102.999042 L 592.899612 179.000431 L 560.902001 258.999167 L 454.89932 455.001015 L 238.901319 741.00203 L 160.898902 833.002224 L 94.897944 931.000794 L 50.898874 1046.999197 L 32.899041 1200.998295 L 56.901957 1346.99799 L 132.898638 1514.999574 L 238.901319 1630.997977 L 376.901611 1719.000824 L 546.899515 1770.999297 L 728.898876 1765.000922 L 876.899599 1716.999797 L 1002.898433 1635.000032 L 1112.898461 1509.001199 L 1184.897794 1366.998851 L 1210.901739 1225.001212 L 1204.898655 1107.001781 L 1156.902239 946.9996 L 1064.902044 806.99828 L 986.899627 716.999113 L 856.898738 547.00121 L 728.898876 348.998334 L 656.899543 197.000264 Z M 618.898848 63.002028 " stroke="#000000" stroke-width="1" stroke-opacity="1" stroke-miterlimit="10"/><g clip-path="url(#27ab207293)"><path stroke-linecap="round" transform="matrix(0.829652, 0, 0, 0.829652, 240.052909, 0.616975)" fill="none" stroke-linejoin="round" d="M 623.399984 1771.498377 C 947.599441 1771.498377 1210.397951 1508.690451 1210.397951 1184.500409 C 1210.397951 1184.500409 1227.399624 984.501214 1040.899127 780.999044 C 1040.899127 780.999044 628.400199 319.50083 622.900904 35.001764 C 617.401608 319.50083 204.897972 780.999044 204.897972 780.999044 C 18.402183 984.501214 35.399148 1184.500409 35.399148 1184.500409 C 35.399148 1508.690451 298.211782 1771.498377 622.401824 1771.498377 " stroke="#000000" stroke-width="70" stroke-opacity="1" stroke-miterlimit="4"/></g></svg>