<?xml version="1.0" encoding="UTF-8"?>
<svg version="1.1" xmlns="http://www.w3.org/2000/svg" width="392" height="392">
<path d="M0 0 C0.98519623 -0.00436032 0.98519623 -0.00436032 1.99029541 -0.00880873 C4.21261538 -0.01616416 6.43466402 -0.00913988 8.65698242 -0.002285 C10.25770714 -0.00458725 11.85843079 -0.00776218 13.45915222 -0.01173949 C17.87461142 -0.02012858 22.28998473 -0.01594367 26.70544434 -0.00976706 C31.46078082 -0.0052603 36.21610205 -0.01221746 40.97143555 -0.0177269 C50.29376295 -0.02664162 59.61605823 -0.02468967 68.93838692 -0.01890162 C76.51174306 -0.01439328 84.08509017 -0.01376862 91.65844727 -0.01594925 C92.734439 -0.01625572 93.81043074 -0.01656218 94.91902828 -0.01687793 C97.10456976 -0.01751736 99.29011123 -0.01816578 101.47565269 -0.01882312 C121.99166609 -0.0245325 142.50766164 -0.017959 163.0236721 -0.00722238 C180.64494073 0.00171368 198.26618302 0.0001618 215.88745117 -0.00905991 C236.32774795 -0.01975182 256.76802907 -0.02398312 277.20832825 -0.01783538 C279.38603719 -0.01719825 281.56374613 -0.01656951 283.74145508 -0.01594925 C284.81305846 -0.0156407 285.88466185 -0.01533215 286.98873806 -0.01501425 C294.55703035 -0.01328406 302.12531275 -0.01620935 309.69360352 -0.02090836 C318.91103295 -0.02650522 328.1284283 -0.02502601 337.34585381 -0.01434687 C342.05285392 -0.009074 346.75979712 -0.00706073 351.46679688 -0.01364517 C355.76971181 -0.01957352 360.07251668 -0.01638149 364.37542152 -0.00569007 C365.93797 -0.00344273 367.50052764 -0.00462189 369.0630703 -0.00944164 C371.17548273 -0.01546126 373.28751054 -0.00934911 375.39990234 0 C376.57671066 0.0003247 377.75351898 0.00064941 378.96598816 0.00098395 C381.69995117 0.25168228 381.69995117 0.25168228 383.69995117 2.25168228 C383.9506495 4.98564529 383.9506495 4.98564529 383.95163345 8.55173111 C383.95454033 9.20852859 383.95744722 9.86532608 383.96044219 10.54202652 C383.96779762 12.76434649 383.96077333 14.98639513 383.95391846 17.20871353 C383.95622071 18.80943824 383.95939564 20.4101619 383.96337295 22.01088333 C383.97176203 26.42634253 383.96757712 30.84171584 383.96140051 35.25717545 C383.95689375 40.01251193 383.96385091 44.76783316 383.96936035 49.52316666 C383.97827507 58.84549406 383.97632312 68.16778934 383.97053507 77.49011803 C383.96602673 85.06347417 383.96540208 92.63682128 383.9675827 100.21017838 C383.96788917 101.28617011 383.96819563 102.36216185 383.96851139 103.47075939 C383.96915081 105.65630087 383.96979923 107.84184234 383.97045657 110.0273838 C383.97616595 130.5433972 383.96959245 151.05939275 383.95885584 171.57540321 C383.94991978 189.19667184 383.95147165 206.81791413 383.96069336 224.43918228 C383.97138527 244.87947906 383.97561657 265.31976018 383.96946883 285.76005936 C383.9688317 287.9377683 383.96820296 290.11547724 383.9675827 292.29318619 C383.96727415 293.36478957 383.9669656 294.43639296 383.9666477 295.54046917 C383.96491751 303.10876146 383.96784281 310.67704386 383.97254181 318.24533463 C383.97813868 327.46276406 383.97665946 336.68015941 383.96598032 345.89758492 C383.96070745 350.60458503 383.95869419 355.31152823 383.96527863 360.01852798 C383.97120697 364.32144292 383.96801494 368.62424779 383.95732352 372.92715263 C383.95507618 374.48970111 383.95625534 376.05225875 383.9610751 377.61480141 C383.96709471 379.72721384 383.96098256 381.83924165 383.95163345 383.95163345 C383.95130875 385.12844177 383.95098404 386.30525009 383.9506495 387.51771927 C383.69995117 390.25168228 383.69995117 390.25168228 381.69995117 392.25168228 C378.96598816 392.50238061 378.96598816 392.50238061 375.39990234 392.50336456 C374.41470612 392.50772489 374.41470612 392.50772489 373.40960693 392.5121733 C371.18728696 392.51952873 368.96523833 392.51250444 366.74291992 392.50564957 C365.14219521 392.50795182 363.54147155 392.51112675 361.94075012 392.51510406 C357.52529093 392.52349314 353.10991761 392.51930823 348.69445801 392.51313162 C343.93912153 392.50862486 339.18380029 392.51558202 334.4284668 392.52109146 C325.10613939 392.53000618 315.78384411 392.52805423 306.46151543 392.52226618 C298.88815929 392.51775784 291.31481217 392.51713319 283.74145508 392.51931381 C282.66546334 392.51962028 281.58947161 392.51992674 280.48087406 392.5202425 C278.29533259 392.52088192 276.10979112 392.52153034 273.92424965 392.52218768 C253.40823626 392.52789706 232.89224071 392.52132356 212.37623024 392.51058695 C194.75496161 392.50165089 177.13371933 392.50320276 159.51245117 392.51242447 C139.0721544 392.52311638 118.63187328 392.52734768 98.1915741 392.52119994 C96.01386516 392.52056281 93.83615621 392.51993407 91.65844727 392.51931381 C90.58684388 392.51900526 89.5152405 392.51869671 88.41116428 392.51837881 C80.84287199 392.51664862 73.27458959 392.51957392 65.70629883 392.52427292 C56.48886939 392.52986978 47.27147404 392.52839057 38.05404854 392.51771143 C33.34704842 392.51243856 28.64010522 392.5104253 23.93310547 392.51700974 C19.63019054 392.52293808 15.32738567 392.51974605 11.02448082 392.50905463 C9.46193234 392.50680729 7.8993747 392.50798645 6.33683205 392.51280621 C4.22441962 392.51882582 2.11239181 392.51271367 0 392.50336456 C-1.17680832 392.50303986 -2.35361664 392.50271515 -3.56608582 392.50238061 C-6.30004883 392.25168228 -6.30004883 392.25168228 -8.30004883 390.25168228 C-8.55074716 387.51771927 -8.55074716 387.51771927 -8.55173111 383.95163345 C-8.55463799 383.29483597 -8.55754487 382.63803848 -8.56053984 381.96133804 C-8.56789527 379.73901807 -8.56087099 377.51696944 -8.55401611 375.29465103 C-8.55631836 373.69392632 -8.55949329 372.09320266 -8.5634706 370.49248123 C-8.57185969 366.07702204 -8.56767478 361.66164872 -8.56149817 357.24618912 C-8.55699141 352.49085264 -8.56394857 347.7355314 -8.56945801 342.98019791 C-8.57837273 333.6578705 -8.57642077 324.33557522 -8.57063273 315.01324654 C-8.56612439 307.43989039 -8.56549973 299.86654328 -8.56768036 292.29318619 C-8.56798682 291.21719445 -8.56829329 290.14120272 -8.56860904 289.03260517 C-8.56924846 286.8470637 -8.56989689 284.66152223 -8.57055423 282.47598076 C-8.57626361 261.95996737 -8.56969011 241.44397182 -8.55895349 220.92796135 C-8.55001743 203.30669272 -8.5515693 185.68545044 -8.56079102 168.06418228 C-8.57148292 147.62388551 -8.57571423 127.18360439 -8.56956649 106.74330521 C-8.56892936 104.56559627 -8.56830062 102.38788732 -8.56768036 100.21017838 C-8.56737181 99.13857499 -8.56706326 98.06697161 -8.56674536 96.96289539 C-8.56501517 89.3946031 -8.56794046 81.8263207 -8.57263947 74.25802994 C-8.57823633 65.0406005 -8.57675712 55.82320515 -8.56607798 46.60577965 C-8.56080511 41.89877953 -8.55879184 37.19183633 -8.56537628 32.48483658 C-8.57130463 28.18192165 -8.5681126 23.87911678 -8.55742118 19.57621193 C-8.55517384 18.01366345 -8.556353 16.45110581 -8.56117275 14.88856316 C-8.56719237 12.77615072 -8.56108022 10.66412292 -8.55173111 8.55173111 C-8.5514064 7.37492279 -8.5510817 6.19811447 -8.55074716 4.98564529 C-8.04094265 -0.57397161 -4.74972949 0.00131054 0 0 Z M3.69995117 12.25168228 C3.69995117 70.66168228 3.69995117 129.07168228 3.69995117 189.25168228 C23.82995117 189.56105728 43.95995117 189.87043228 64.69995117 190.18918228 C71.00733398 190.32574234 77.3147168 190.4623024 83.81323242 190.60300064 C89.57012971 190.65323054 89.57012971 190.65323054 95.32714844 190.68333817 C97.85066661 190.70606362 100.37404333 190.75816911 102.89648438 190.8353157 C122.33647959 191.39906891 134.36954786 187.88030648 149.98603821 176.20882225 C154.6007932 172.8808889 159.4978429 170.02780822 164.38745117 167.12668228 C166.28050656 165.9801056 168.17257732 164.83190013 170.06323242 163.68136978 C170.99087402 163.1177272 171.91851562 162.55408463 172.87426758 161.97336197 C177.61819656 159.0829017 182.34877126 156.1710536 187.07495117 153.25168228 C187.91243896 152.73589615 188.74992676 152.22011002 189.61279297 151.688694 C195.05295688 148.32209584 200.39897031 144.83329738 205.69995117 141.25168228 C203.05038605 136.33547287 200.19340361 132.18674112 196.51245117 128.00168228 C195.53509348 126.86955578 194.55854362 125.73673143 193.58276367 124.60324478 C193.09839844 124.04282486 192.6140332 123.48240494 192.11499023 122.90500259 C189.24775589 119.55494894 186.48539882 116.11899927 183.71948242 112.68527603 C181.91448654 110.51020362 180.0222424 108.48495721 178.07495117 106.43918228 C175.69995117 103.25168228 175.69995117 103.25168228 175.76245117 99.87668228 C176.69995117 97.25168228 176.69995117 97.25168228 177.69995117 96.25168228 C181.01734893 95.72089864 183.53698124 95.44880625 186.40307617 97.42746353 C188.29707076 99.28163113 190.0013923 101.21624847 191.69995117 103.25168228 C192.38959961 104.07410416 193.07924805 104.89652603 193.78979492 105.74386978 C195.30483999 107.58109491 196.80831862 109.42790499 198.30151367 111.28293228 C200.79340932 114.36736337 203.33557054 117.40452642 205.88745117 120.43918228 C209.64760074 124.93845641 213.24643688 129.51447828 216.69995117 134.25168228 C224.3177283 130.21155959 231.66944907 125.86860092 238.94995117 121.25168228 C248.31721565 115.35046801 257.73595635 109.54387276 267.21264648 103.82004166 C268.55601074 103.00696548 268.55601074 103.00696548 269.92651367 102.17746353 C270.70591309 101.70735855 271.4853125 101.23725357 272.28833008 100.75290298 C274.79739411 99.25545311 274.79739411 99.25545311 277.28601074 97.19197464 C281.64603256 94.71398266 284.81367413 94.67593603 289.73461914 94.70578384 C290.62307022 94.69544617 291.5115213 94.68510849 292.42689514 94.67445755 C295.34882905 94.64507815 298.2700688 94.6435314 301.19213867 94.64230728 C303.22381915 94.62732237 305.25548745 94.61059456 307.28713989 94.59219742 C312.62345953 94.54854682 317.95961485 94.52852978 323.29608154 94.51346207 C329.70479975 94.49043787 336.11333697 94.4380108 342.52191162 94.390522 C352.24797203 94.32173704 361.97351282 94.29026395 371.69995117 94.25168228 C371.69995117 67.19168228 371.69995117 40.13168228 371.69995117 12.25168228 C250.25995117 12.25168228 128.81995117 12.25168228 3.69995117 12.25168228 Z M264.69995117 119.25168228 C260.85243798 121.61882812 257.00339271 123.97800743 253.13745117 126.31418228 C251.20767463 127.4846084 249.27798842 128.65518347 247.34838867 129.82590103 C246.40962891 130.39486099 245.47086914 130.96382095 244.50366211 131.55002213 C240.08395625 134.23248031 235.67291064 136.92905711 231.26245117 139.62668228 C230.49280029 140.09727066 229.72314941 140.56785904 228.93017578 141.05270767 C227.18664859 142.11883798 225.44327946 143.18522677 223.69995117 144.25168228 C223.95164063 144.76964371 224.20333008 145.28760513 224.46264648 145.82126236 C234.23564844 166.00103335 234.23564844 166.00103335 236.69995117 174.25168228 C236.92295898 174.97097916 237.1459668 175.69027603 237.37573242 176.43136978 C242.20761145 195.43018664 238.12146933 214.55559373 228.50878906 231.20676041 C224.8622031 237.24517695 220.78844358 242.99828149 216.59814453 248.66965103 C215.85963257 249.67705338 215.85963257 249.67705338 215.10620117 250.70480728 C214.66598633 251.29423111 214.22577148 251.88365494 213.7722168 252.49094009 C212.4258609 254.50526662 212.4258609 254.50526662 211.69995117 258.25168228 C215.32995117 260.89168228 218.95995117 263.53168228 222.69995117 266.25168228 C218.95684875 269.24616422 215.78234065 271.46725885 211.65698242 273.74777603 C211.08848068 274.06319855 210.51997894 274.37862106 209.93424988 274.70360184 C208.73619941 275.36710767 207.53690185 276.02836623 206.33642578 276.6874733 C204.53218198 277.67834632 202.7319931 278.67626909 200.93237305 279.67551041 C194.25568807 283.36654827 187.53265362 286.83533106 180.69995117 290.25168228 C182.67995117 274.74168228 184.65995117 259.23168228 186.69995117 243.25168228 C190.98694525 244.96647991 193.54387684 246.48244763 197.05151367 249.22824478 C198.80135654 250.51541382 198.80135654 250.51541382 201.69995117 250.25168228 C203.29050408 248.30592868 203.29050408 248.30592868 204.76245117 245.68918228 C206.81257526 242.30409367 208.87341626 238.95681854 211.13354492 235.70871353 C218.74722648 224.75247563 226.46464421 212.86251904 227.69995117 199.25168228 C227.82176758 198.01804947 227.82176758 198.01804947 227.94604492 196.75949478 C228.55244815 184.37416826 224.30567924 172.87885303 219.19995117 161.81418228 C218.82040283 160.97886978 218.44085449 160.14355728 218.04980469 159.28293228 C217.67654053 158.51078384 217.30327637 157.73863541 216.91870117 156.94308853 C216.58805664 156.25416519 216.25741211 155.56524185 215.91674805 154.85544205 C214.79540632 153.11204636 214.79540632 153.11204636 212.79492188 152.39377213 C210.13587748 152.2134244 209.16668168 152.81767845 206.96166992 154.28683853 C206.23608887 154.75919937 205.51050781 155.23156021 204.76293945 155.71823502 C203.97902832 156.24489761 203.19511719 156.77156021 202.38745117 157.31418228 C200.67129995 158.43336066 198.95379262 159.55046166 197.23510742 160.66574478 C196.33163574 161.25516861 195.42816406 161.84459244 194.49731445 162.45187759 C189.82869939 165.45563307 185.07646343 168.31906309 180.32495117 171.18918228 C172.78391986 175.76112971 165.25934357 180.35766964 157.76245117 185.00168228 C156.98401855 185.48371109 156.20558594 185.9657399 155.40356445 186.46237564 C154.23736572 187.18566055 154.23736572 187.18566055 153.04760742 187.92355728 C152.25043808 188.39696045 151.45326874 188.87036362 150.63194275 189.35811234 C147.60570003 191.23084398 147.60570003 191.23084398 144.71702576 193.72217178 C132.42235312 203.43688234 119.19036553 202.66234881 104.14196777 202.46712112 C100.94824143 202.43505452 97.75506174 202.45809189 94.5612793 202.47604752 C85.27413487 202.4971649 75.98695574 202.43185306 66.69995117 202.37668228 C45.90995117 202.33543228 25.11995117 202.29418228 3.69995117 202.25168228 C3.69995117 260.99168228 3.69995117 319.73168228 3.69995117 380.25168228 C125.13995117 380.25168228 246.57995117 380.25168228 371.69995117 380.25168228 C371.69995117 353.19168228 371.69995117 326.13168228 371.69995117 298.25168228 C365.16569336 298.21429947 358.63143555 298.17691666 351.89916992 298.13840103 C347.76567971 298.10813385 343.63223323 298.07699421 339.4987793 298.04269791 C332.93442953 297.98831539 326.37016627 297.937208 319.80566406 297.90524673 C314.51466852 297.87928418 309.22396241 297.83893202 303.93314552 297.78849602 C301.91212367 297.7717795 299.89105171 297.76029512 297.86997032 297.75406837 C295.04435072 297.74447921 292.21947966 297.71648263 289.39404297 297.68405533 C288.1338459 297.68620796 288.1338459 297.68620796 286.84819031 297.68840408 C281.16385087 297.59582163 281.16385087 297.59582163 278.94976521 295.95332432 C277.69995117 294.25168228 277.69995117 294.25168228 277.88745117 290.62668228 C278.15557617 289.51293228 278.42370117 288.39918228 278.69995117 287.25168228 C281.99298525 285.60516524 285.65886629 286.0710817 289.28051758 286.04636002 C290.18276754 286.0363273 291.08501751 286.02629457 292.01460838 286.01595783 C294.94355044 285.98450332 297.872506 285.95977305 300.80151367 285.93527603 C302.60644988 285.916879 304.41138166 285.89804267 306.21630859 285.87875748 C312.91913707 285.81023387 319.62205044 285.75022978 326.32495117 285.68918228 C348.78557617 285.47261978 348.78557617 285.47261978 371.69995117 285.25168228 C371.69995117 226.51168228 371.69995117 167.77168228 371.69995117 107.25168228 C292.35508757 99.41978507 292.35508757 99.41978507 264.69995117 119.25168228 Z " fill="#000000" transform="translate(8.300048828125,-0.2516822814941406)"/>
</svg>
