<?xml version="1.0" encoding="UTF-8"?>
<svg version="1.1" xmlns="http://www.w3.org/2000/svg" width="392" height="392">
<path d="M0 0 C129.36 0 258.72 0 392 0 C392 129.36 392 258.72 392 392 C262.64 392 133.28 392 0 392 C0 262.64 0 133.28 0 0 Z M8 8 C8 68.39 8 128.78 8 191 C28.66625 191.268125 49.3325 191.53625 70.625 191.8125 C80.34831787 191.99002808 80.34831787 191.99002808 90.26806641 192.17114258 C96.17004527 192.2146678 96.17004527 192.2146678 102.07211304 192.24076843 C105.33961772 192.26563519 108.60237927 192.33946512 111.86868882 192.42595971 C129.50676676 192.8204676 141.3344292 190.11955517 155.67011929 179.6714983 C159.41079407 176.98787098 163.33326252 174.60306542 167.25 172.1875 C168.8069505 171.19812513 170.36318192 170.20761533 171.91796875 169.21484375 C181.08961057 163.38929127 190.37672879 157.74717119 199.63720703 152.06445312 C205.09432519 148.71427227 210.54697946 145.35684471 216 142 C218.1666443 140.66663032 220.33331099 139.33329703 222.5 138 C223.5725 137.34 224.645 136.68 225.75 136 C235.5 130 235.5 130 238.75415039 127.99755859 C240.90711673 126.67258149 243.05995015 125.34738839 245.21264648 124.02197266 C250.24270892 120.92531783 255.27398871 117.830705 260.31021118 114.74407959 C262.66266763 113.30210504 265.01434442 111.85886163 267.3659668 110.41552734 C269.00559353 109.4099022 270.64633184 108.40609015 272.28710938 107.40234375 C273.29708984 106.78230469 274.30707031 106.16226563 275.34765625 105.5234375 C276.22429932 104.98638184 277.10094238 104.44932617 278.00415039 103.89599609 C280.88389478 102.21062335 280.88389478 102.21062335 282.60090637 100.47341919 C290.64904324 93.55714489 301.45984368 95.14708371 311.44140625 95.1953125 C313.53606184 95.18405314 315.63070481 95.17016848 317.72532654 95.15377808 C323.2146435 95.11782845 328.70340248 95.11735546 334.19281006 95.12445068 C340.79181162 95.12552643 347.39065538 95.0822212 353.9895401 95.04641724 C363.99331521 94.99707679 373.99563863 95.00386045 384 95 C384 66.29 384 37.58 384 8 C259.92 8 135.84 8 8 8 Z M272 117 C267.77216972 119.60639565 263.54366248 122.21153792 259.3125 124.8125 C257.10025555 126.17316918 254.88801612 127.5338465 252.67578125 128.89453125 C251.57186035 129.57338379 250.46793945 130.25223633 249.33056641 130.95166016 C243.88632432 134.29993688 238.4432111 137.65004759 233 141 C230.83333892 142.33334242 228.66667225 143.66667574 226.5 145 C225.4275 145.66 224.355 146.32 223.25 147 C220 149 216.75 151 213.5 153 C212.4272583 153.66016113 211.3545166 154.32032227 210.24926758 155.00048828 C208.08508703 156.33226668 205.92086185 157.66397254 203.7565918 158.99560547 C198.30151703 162.35213255 192.84725164 165.70996186 187.39453125 169.0703125 C186.30446777 169.74175293 185.2144043 170.41319336 184.09130859 171.10498047 C181.92577085 172.43913231 179.76072203 173.7740781 177.59619141 175.10986328 C172.16796534 178.45509784 166.72534701 181.77272682 161.25390625 185.046875 C160.18100342 185.69124512 159.10810059 186.33561523 158.00268555 186.99951172 C155.95709817 188.22612964 153.90790854 189.44676517 151.85473633 190.66064453 C150.95134521 191.20317871 150.0479541 191.74571289 149.1171875 192.3046875 C148.31909668 192.77890137 147.52100586 193.25311523 146.69873047 193.74169922 C146.13814941 194.15693848 145.57756836 194.57217773 145 195 C145 195.66 145 196.32 145 197 C146.56210672 198.21137853 146.56210672 198.21137853 148.63671875 199.36328125 C149.8270874 200.06469238 149.8270874 200.06469238 151.04150391 200.78027344 C151.91468262 201.2859082 152.78786133 201.79154297 153.6875 202.3125 C155.543761 203.40620858 157.39920567 204.50130362 159.25390625 205.59765625 C160.21184082 206.16242676 161.16977539 206.72719727 162.15673828 207.30908203 C166.51419497 209.90050784 170.82091103 212.57116161 175.125 215.25 C176.88400908 216.34261779 178.64312644 217.43506127 180.40234375 218.52734375 C181.30710449 219.08921387 182.21186523 219.65108398 183.14404297 220.22998047 C188.31765244 223.43639769 193.50285429 226.62396994 198.6875 229.8125 C200.32452881 230.81941895 200.32452881 230.81941895 201.99462891 231.84667969 C204.21951431 233.21508699 206.44444944 234.58341344 208.66943359 235.95166016 C214.11367568 239.29993688 219.5567889 242.65004759 225 246 C227.16666108 247.33334242 229.33332775 248.66667574 231.5 250 C235.83333333 252.66666667 240.16666667 255.33333333 244.5 258 C245.57435303 258.66112793 246.64870605 259.32225586 247.75561523 260.00341797 C249.90360924 261.3252853 252.05155909 262.64722439 254.19946289 263.96923828 C259.28712852 267.10052606 264.37525136 270.23106385 269.4649353 273.35906982 C271.87531633 274.84049679 274.28544639 276.32233179 276.69555664 277.80419922 C278.40161029 278.85293801 280.10802783 279.90108477 281.81445312 280.94921875 C282.84376953 281.58214844 283.87308594 282.21507812 284.93359375 282.8671875 C285.84165771 283.42519043 286.74972168 283.98319336 287.68530273 284.55810547 C289.47677387 285.67406671 291.24385376 286.82923584 293 288 C323.03 288 353.06 288 384 288 C384 227.28 384 166.56 384 104 C301.77932505 96.01695501 301.77932505 96.01695501 272 117 Z M8 200 C8 260.72 8 321.44 8 384 C132.08 384 256.16 384 384 384 C384 355.29 384 326.58 384 297 C377.37679688 297.03222656 370.75359375 297.06445312 363.9296875 297.09765625 C359.70950513 297.098038 355.48965464 297.09575658 351.26953125 297.08398438 C344.58508344 297.0655883 337.90161906 297.05653825 331.21728516 297.10620117 C325.82211337 297.14566521 320.42857711 297.14066469 315.03339005 297.10607719 C312.9851212 297.10051985 310.93674455 297.11042624 308.88863754 297.13676643 C295.02807956 297.30178473 286.95028016 295.72194282 276 287 C273.96997314 285.70114791 271.92519191 284.42473286 269.859375 283.18359375 C268.86550781 282.57322266 267.87164062 281.96285156 266.84765625 281.33398438 C265.82542969 280.70814453 264.80320312 280.08230469 263.75 279.4375 C262.05380369 278.39633885 260.35760887 277.35517529 258.66149902 276.31387329 C256.92238755 275.24640835 255.18290141 274.17955609 253.44335938 273.11279297 C247.95828758 269.74828842 242.47955871 266.37347264 237 263 C234.8333613 261.66662122 232.66669458 260.33328797 230.5 259 C226.16666667 256.33333333 221.83333333 253.66666667 217.5 251 C215.89064575 250.00963745 215.89064575 250.00963745 214.2487793 248.99926758 C212.08615928 247.66841199 209.92356155 246.33752017 207.76098633 245.0065918 C202.28258992 241.63504875 196.80378508 238.26417261 191.32421875 234.89453125 C181.16807348 228.64837535 171.01417908 222.39867011 160.875 216.125 C160.10760498 215.6503833 159.34020996 215.1757666 158.54956055 214.68676758 C157.78812744 214.2152124 157.02669434 213.74365723 156.2421875 213.2578125 C155.46356857 212.79686691 154.68494965 212.33592133 153.88273621 211.86100769 C151 210 151 210 148.01968384 207.52868652 C135.74572018 197.82590504 122.6615347 198.66853516 107.64465332 198.98719788 C104.47643238 199.04494025 101.30833135 199.04687085 98.13964844 199.05395508 C88.92595804 199.10604323 79.71292973 199.24565636 70.5 199.375 C39.5625 199.684375 39.5625 199.684375 8 200 Z " fill="#000000" transform="translate(0,0)"/>
</svg>
