<?xml version="1.0" encoding="UTF-8"?>
<svg version="1.1" xmlns="http://www.w3.org/2000/svg" width="900" height="1060">
<path d="M0 0 C2.42876324 2.25558939 4.75283861 4.56410065 7 7 C7.52207031 7.56332031 8.04414062 8.12664062 8.58203125 8.70703125 C49.12499647 53.80751949 67.79702926 109.52325963 64.69140625 169.69140625 C62.40748395 206.79627538 50.71267447 242.9309883 30 274 C29.70064542 275.90573991 29.70064542 275.90573991 29.74519098 278.00821608 C29.73926297 278.82770552 29.73333497 279.64719495 29.72722733 280.49151739 C29.73087701 281.39330022 29.73452669 282.29508304 29.73828697 283.22419262 C29.73229288 284.66534674 29.73229288 284.66534674 29.72617769 286.13561508 C29.71512534 289.38588643 29.71841566 292.63598975 29.7215271 295.88627625 C29.71652866 298.22762919 29.71065421 300.56898041 29.70397437 302.91032916 C29.68977248 308.68990616 29.6848939 314.46943964 29.68384826 320.24903277 C29.68207158 327.16891718 29.66872767 334.08876662 29.6549259 341.00863576 C29.62977763 353.78017813 29.61393071 366.55171636 29.60334396 379.32327843 C29.59282813 391.97280459 29.57820325 404.62231496 29.55806351 417.27182961 C29.55681464 418.05768201 29.55556577 418.84353442 29.55427906 419.65320053 C29.54791551 423.64397922 29.54147828 427.63475778 29.53501268 431.6255363 C29.48932287 459.9086338 29.45288686 488.19173643 29.421875 516.47485352 C29.39172209 543.95532991 29.3573887 571.43579587 29.31738281 598.91625977 C29.31615181 599.76299489 29.31492081 600.60973001 29.3136525 601.48212378 C29.30128588 609.98521279 29.28883414 618.48830167 29.27632002 626.99139047 C29.25082816 644.31390581 29.22590456 661.63642194 29.20132446 678.9589386 C29.20019355 679.75543895 29.19906264 680.5519393 29.19789747 681.37257602 C29.12241377 734.58170533 29.0603309 787.79085163 29 841 C17.12 841 5.24 841 -7 841 C-7.02505615 836.24851562 -7.0501123 831.49703125 -7.07592773 826.6015625 C-7.15976589 810.82372276 -7.2483587 795.04591228 -7.33933926 779.26811218 C-7.39433415 769.71114197 -7.44775587 760.15416805 -7.49731445 750.59716797 C-7.54057465 742.25556823 -7.58694909 733.91399223 -7.63687855 725.57242966 C-7.66314802 721.16631622 -7.68798378 716.76020646 -7.70907402 712.35406494 C-7.80009406 693.54765603 -8.00738879 674.78571609 -9 656 C-17.76061629 659.24770542 -26.18377882 662.86862364 -34.5625 667 C-36.94579551 668.1618855 -39.32968065 669.32243427 -41.71484375 670.48046875 C-42.3195752 670.77447067 -42.92430664 671.0684726 -43.54736328 671.37138367 C-49.86760868 674.43612333 -56.24437872 677.37588111 -62.625 680.3125 C-73.16368469 685.1730655 -83.62688829 690.1728512 -94.0625 695.25 C-94.76369965 695.59100739 -95.46489929 695.93201477 -96.18734741 696.28335571 C-98.91774294 697.61124952 -101.64803278 698.93936038 -104.37818909 700.26774597 C-110.05615951 703.02957164 -115.73971385 705.77923842 -121.4375 708.5 C-122.20006104 708.86770508 -122.96262207 709.23541016 -123.74829102 709.61425781 C-128.7665558 712 -128.7665558 712 -131 712 C-130.99885445 712.9369552 -130.99770889 713.87391041 -130.99652863 714.83925819 C-130.96954616 739.28730385 -131.0492779 763.7333776 -131.20192909 788.18091536 C-131.2307919 792.84388201 -131.25831899 797.50685659 -131.28601074 802.16983032 C-131.3382284 810.93048076 -131.39158137 819.69112386 -131.4453826 828.4517647 C-131.50675578 838.45486856 -131.56680184 848.45798027 -131.62675762 858.46109271 C-131.74973514 878.9740707 -131.87448537 899.48703737 -132 920 C-144.87 920 -157.74 920 -171 920 C-171 852.68 -171 785.36 -171 716 C-175.455 714.515 -175.455 714.515 -180 713 C-182.24669233 712.00812884 -184.47366651 710.97006843 -186.67578125 709.8828125 C-187.27415802 709.58984283 -187.87253479 709.29687317 -188.48904419 708.99502563 C-189.76767153 708.36859592 -191.04513764 707.73979106 -192.32150269 707.10876465 C-195.77832653 705.40072563 -199.24491487 703.71271135 -202.7109375 702.0234375 C-203.41470016 701.68002319 -204.11846283 701.33660889 -204.84355164 700.98278809 C-211.33635541 697.82126452 -217.87809205 694.77079278 -224.4375 691.75 C-238.03001573 685.48334653 -251.54705434 679.06168188 -265.05834961 672.62207031 C-266.29711853 672.03210518 -266.29711853 672.03210518 -267.56091309 671.43022156 C-269.08877216 670.7024558 -270.61631536 669.97402627 -272.14343262 669.2447052 C-278.73524666 666.10458719 -285.36654127 663.0509719 -292 660 C-292.00423194 660.60659077 -292.00846388 661.21318153 -292.01282406 661.83815384 C-292.11803008 676.8861298 -292.2268726 691.93407523 -292.33933926 706.98199844 C-292.39365649 714.26028628 -292.44690538 721.53857849 -292.49731445 728.81689453 C-292.7524168 765.55157433 -293.19056187 802.27236571 -294 839 C-305.88 839 -317.76 839 -330 839 C-329.99501401 836.10326696 -329.99002802 833.20653393 -329.98489094 830.2220211 C-329.89884388 779.497863 -329.82693772 728.77370597 -329.82023621 678.04946899 C-329.82012732 677.2545948 -329.82001843 676.45972061 -329.81990624 675.64075932 C-329.81762116 658.36326333 -329.81778316 641.08576818 -329.82046365 623.80827226 C-329.8217634 615.33458388 -329.82252277 606.86089549 -329.82299805 598.38720703 C-329.82305454 597.54400277 -329.82311103 596.7007985 -329.82316924 595.83204259 C-329.82474515 568.53371292 -329.79068402 541.23557005 -329.73801192 513.93729566 C-329.68404384 485.86931011 -329.66628878 457.80152659 -329.69367121 429.73349696 C-329.69752784 425.76310333 -329.70097333 421.79270943 -329.70416832 417.82231522 C-329.70480982 417.04093535 -329.70545131 416.25955548 -329.70611225 415.45449744 C-329.71535636 402.90966638 -329.68677182 390.36519716 -329.64380497 377.82044821 C-329.60135514 365.18844955 -329.59931962 352.55694441 -329.63765464 339.92492847 C-329.65730266 333.08849198 -329.65828687 326.25334665 -329.61136436 319.41700363 C-329.56871111 313.14464187 -329.57773763 306.8744517 -329.62604436 300.60215051 C-329.63462398 298.34604553 -329.62503517 296.08977327 -329.59433017 293.83386092 C-329.39274967 277.96552526 -332.75497602 266.93239071 -340.7434878 253.21820576 C-343.35444721 248.60890296 -345.31605081 243.71275381 -347.3125 238.8125 C-347.72000488 237.82113037 -348.12750977 236.82976074 -348.54736328 235.80834961 C-352.23366297 226.68918466 -355.36194237 217.47312205 -358 208 C-358.28931396 206.98824707 -358.28931396 206.98824707 -358.58447266 205.95605469 C-373.3302039 153.42679762 -363.033108 96.97795491 -337.47070312 49.61181641 C-327.58660743 32.05868629 -314.87350907 16.51413287 -301 2 C-300.36449219 1.32324219 -299.72898437 0.64648438 -299.07421875 -0.05078125 C-294.12770112 -5.18618738 -288.60644245 -9.60898931 -283 -14 C-282.46407227 -14.42297363 -281.92814453 -14.84594727 -281.37597656 -15.28173828 C-253.21111051 -37.33412469 -218.32626267 -52.39988464 -183 -58 C-182.3080957 -58.11424316 -181.61619141 -58.22848633 -180.90332031 -58.34619141 C-114.0660312 -68.92171184 -49.30584876 -44.17974919 0 0 Z M-278.7578125 32.81640625 C-280.56239058 34.83456966 -282.28163738 36.90778204 -284 39 C-284.89191721 40.04427927 -285.78384522 41.08854931 -286.67578125 42.1328125 C-301.94776568 60.30125128 -313.33248771 81.40126044 -320.375 104.0625 C-320.60171387 104.77986328 -320.82842773 105.49722656 -321.06201172 106.23632812 C-325.33366828 120.95731162 -326.50048468 136.02454705 -326.39111328 151.27905273 C-326.37502543 153.9333039 -326.3910806 156.58602855 -326.41015625 159.24023438 C-326.4301477 174.72851839 -325.06543938 190.38018949 -320.25 205.1875 C-319.86376465 206.41509033 -319.86376465 206.41509033 -319.46972656 207.66748047 C-311.12782088 233.54941952 -297.89746766 256.36266411 -279 276 C-278.52481934 276.50096191 -278.04963867 277.00192383 -277.56005859 277.51806641 C-250.10495744 306.35847698 -209.55209086 329.62478389 -169.046875 330.9140625 C-111.90126029 332.07594429 -66.1742358 320.14605473 -24 280 C-23.24332031 279.30777344 -22.48664063 278.61554688 -21.70703125 277.90234375 C6.12237374 251.59367128 25.31959568 210.11909138 27.10014343 171.8474884 C27.1464595 169.68814472 27.1646967 167.5309271 27.16796875 165.37109375 C27.17129715 164.57832535 27.17462555 163.78555695 27.17805481 162.96876526 C27.18308112 161.30071587 27.18546448 159.63265657 27.18530273 157.96459961 C27.18747369 155.46775858 27.2056329 152.97137169 27.22460938 150.47460938 C27.27344333 136.92209695 26.42348306 123.62298589 22.75 110.5 C22.53384033 109.70940186 22.31768066 108.91880371 22.0949707 108.10424805 C12.68945988 74.64343074 -6.78173737 42.02933907 -34 20 C-34.98097656 19.18144531 -35.96195313 18.36289063 -36.97265625 17.51953125 C-108.65892412 -41.36033854 -214.67533659 -33.40215219 -278.7578125 32.81640625 Z M-294 315 C-294.02564973 321.56127067 -294.0429907 328.1225281 -294.05493164 334.68383789 C-294.05991707 336.90942874 -294.06670781 339.1350164 -294.07543945 341.3605957 C-294.12227012 353.61645571 -294.10002409 365.78564012 -293 378 C-286.49098761 374.55909095 -280.43840471 370.69674237 -274.4375 366.4375 C-273.57995117 365.83196289 -272.72240234 365.22642578 -271.83886719 364.60253906 C-266.10534177 360.53625411 -260.40277483 356.42785764 -254.75 352.25 C-254.06478271 351.74911865 -253.37956543 351.2482373 -252.67358398 350.73217773 C-251.07724968 349.53788626 -249.53226095 348.27545744 -248 347 C-248 346.34 -248 345.68 -248 345 C-250.45272149 343.458991 -252.90798276 342.03016571 -255.4375 340.625 C-264.72391739 335.32155901 -273.37025938 329.30143043 -282 323 C-282.59200195 322.5678418 -283.18400391 322.13568359 -283.79394531 321.69042969 C-286.23182058 319.90906871 -288.66777737 318.12568304 -291.09375 316.328125 C-292.74953293 314.90472409 -292.74953293 314.90472409 -294 315 Z M-12.7265625 319.74609375 C-21.44671877 326.31784502 -30.14203822 332.55741646 -39.59765625 338.0234375 C-44.49355475 340.86766786 -49.24603171 343.9262284 -54 347 C-53.62204012 349.50343632 -53.26494088 350.74164253 -51.42797852 352.53295898 C-50.41368774 353.25721069 -50.41368774 353.25721069 -49.37890625 353.99609375 C-48.23542725 354.82500122 -48.23542725 354.82500122 -47.06884766 355.6706543 C-46.24175293 356.25371338 -45.4146582 356.83677246 -44.5625 357.4375 C-43.7173584 358.0456958 -42.8722168 358.6538916 -42.00146484 359.28051758 C-40.2304646 360.55394795 -38.45630572 361.82299567 -36.67919922 363.08789062 C-34.07801722 364.94432013 -31.49174725 366.8195737 -28.91015625 368.703125 C-27.31527823 369.86482233 -25.72023284 371.02628995 -24.125 372.1875 C-23.3832251 372.72753662 -22.6414502 373.26757324 -21.87719727 373.82397461 C-16.6289587 377.72212384 -16.6289587 377.72212384 -11 381 C-10.01 380.67 -9.02 380.34 -8 380 C-6.84435724 369.02797486 -6.84659977 358.08819907 -6.86962891 347.06787109 C-6.87503713 343.97879235 -6.86963034 340.88985586 -6.86328125 337.80078125 C-6.86394127 335.82552051 -6.86522085 333.85025987 -6.8671875 331.875 C-6.86516327 330.95726807 -6.86313904 330.03953613 -6.86105347 329.09399414 C-6.87632198 324.93510363 -6.94123763 321.05420823 -8 317 C-9.8654634 317 -11.30147634 318.66134392 -12.7265625 319.74609375 Z M-212 368 C-212.7223584 368.44561279 -213.4447168 368.89122559 -214.18896484 369.3503418 C-216.34647606 370.7103612 -218.45633144 372.12439786 -220.5625 373.5625 C-221.33134521 374.08134766 -222.10019043 374.60019531 -222.89233398 375.13476562 C-230.29926514 380.15497691 -237.60786282 385.31317222 -244.89550781 390.50439453 C-246.99635201 391.99740747 -249.10254274 393.48251614 -251.2109375 394.96484375 C-260.86733953 401.75455372 -270.46644695 408.6205597 -280.00878906 415.56982422 C-281.3534064 416.53558787 -282.71000563 417.4848534 -284.07714844 418.41845703 C-285.75041564 419.56657188 -287.38015164 420.77767348 -289 422 C-289 422.66 -289 423.32 -289 424 C-271.04572101 432.79450831 -253.09316944 441.57747266 -234.9309082 449.9362793 C-222.49030939 455.67056873 -210.12903329 461.57065672 -197.7644043 467.46655273 C-187.62089518 472.30273946 -187.62089518 472.30273946 -177.44140625 477.0625 C-176.61455322 477.44535156 -175.7877002 477.82820312 -174.93579102 478.22265625 C-173.03834769 479.1242138 -173.03834769 479.1242138 -171 479 C-171 442.7 -171 406.4 -171 369 C-177.09229675 366.96923442 -182.94901413 365.69164259 -189.25 364.5625 C-190.33152344 364.33884766 -191.41304688 364.11519531 -192.52734375 363.88476562 C-200.60471646 362.46708441 -205.18353301 363.53709438 -212 368 Z M-120.875 366.4375 C-122.15503906 366.63956055 -122.15503906 366.63956055 -123.4609375 366.84570312 C-127.86646456 367.4791285 -127.86646456 367.4791285 -132 369 C-132 403.98 -132 438.96 -132 475 C-126.14178623 473.04726208 -120.89214641 471.1666241 -115.44921875 468.4453125 C-114.76183121 468.10786011 -114.07444366 467.77040771 -113.3662262 467.42272949 C-111.89904552 466.70206764 -110.43303891 465.97901122 -108.96813965 465.25372314 C-105.04618679 463.31268921 -101.11483923 461.39087629 -97.18359375 459.46875 C-96.39481842 459.08272614 -95.60604309 458.69670227 -94.79336548 458.29898071 C-87.98912258 454.9769201 -81.13304017 451.78086235 -74.25 448.625 C-56.34805464 440.40137331 -38.68675548 431.6740013 -21 423 C-22.36322483 419.83689239 -23.7765657 418.09426764 -26.5 416.00390625 C-27.21285156 415.45210693 -27.92570312 414.90030762 -28.66015625 414.33178711 C-29.43230469 413.74792236 -30.20445312 413.16405762 -31 412.5625 C-31.80308594 411.94705322 -32.60617187 411.33160645 -33.43359375 410.69750977 C-41.09344394 404.85926396 -48.89300226 399.21996906 -56.73242188 393.62646484 C-59.04458969 391.96801717 -61.34407235 390.29327411 -63.640625 388.61328125 C-89.5820116 368.77392102 -89.5820116 368.77392102 -120.875 366.4375 Z M-18.1484375 462.12890625 C-18.86459229 462.46964676 -19.58074707 462.81038727 -20.31860352 463.16145325 C-22.67537831 464.28570938 -25.025121 465.42390983 -27.375 466.5625 C-29.0095391 467.34602747 -30.64447138 468.1287352 -32.27978516 468.91064453 C-36.41390905 470.89017667 -40.54237549 472.88121437 -44.66943359 474.87542725 C-48.13027481 476.54539371 -51.59650654 478.20404349 -55.0625 479.86328125 C-68.62848153 486.36627189 -82.12394185 493.00259494 -95.55908203 499.77148438 C-99.45199069 501.73078787 -103.35114173 503.67757074 -107.25 505.625 C-108.52607271 506.26295874 -109.80211755 506.90097324 -111.078125 507.5390625 C-112.71875 508.359375 -114.359375 509.1796875 -116 510 C-116 510.66 -116 511.32 -116 512 C-114.50560078 513.38156568 -114.50560078 513.38156568 -112.51171875 514.765625 C-111.75238037 515.31871338 -110.99304199 515.87180176 -110.21069336 516.44165039 C-109.37803955 517.03840576 -108.54538574 517.63516113 -107.6875 518.25 C-105.93214392 519.52453613 -104.17693972 520.79928145 -102.421875 522.07421875 C-101.06739258 523.05334229 -101.06739258 523.05334229 -99.68554688 524.05224609 C-96.36948747 526.45729354 -93.07496262 528.89056338 -89.78222656 531.32739258 C-80.64977319 538.08544611 -71.4542992 544.75378856 -62.23388672 551.39111328 C-58.48640211 554.09012132 -54.74346279 556.79541816 -51 559.5 C-49.50522119 560.57944489 -48.01042952 561.65887196 -46.515625 562.73828125 C-43.46281883 564.94301203 -40.41082821 567.14886583 -37.359375 569.35546875 C-34.34017162 571.53872701 -31.3192565 573.71958128 -28.296875 575.8984375 C-25.46828494 577.93762393 -22.64604697 579.98516401 -19.828125 582.0390625 C-18.55217408 582.96366691 -17.27613727 583.8881528 -16 584.8125 C-15.12746582 585.45288208 -15.12746582 585.45288208 -14.23730469 586.10620117 C-11.40745317 588.32678343 -11.40745317 588.32678343 -8 589 C-7.07429343 570.1452162 -6.84119701 551.33425025 -6.86962891 532.46191406 C-6.87529484 528.65774518 -6.87196 524.85364685 -6.86617661 521.04948044 C-6.84017641 500.68084788 -7.2280692 480.35426502 -8 460 C-12.1397825 458.6200725 -14.43672822 460.31337835 -18.1484375 462.12890625 Z M-294 463 C-294.02344568 475.25948743 -294.04107579 487.5189693 -294.05181217 499.77847481 C-294.05697197 505.47455782 -294.06393956 511.1706252 -294.07543945 516.86669922 C-294.12409963 541.59666273 -294.15263365 566.29129987 -293 591 C-289.7448535 589.73224286 -286.93288338 588.44404361 -284.05859375 586.453125 C-283.3205249 585.94523438 -282.58245605 585.43734375 -281.82202148 584.9140625 C-281.03512939 584.36492187 -280.2482373 583.81578125 -279.4375 583.25 C-278.60613525 582.67507813 -277.77477051 582.10015625 -276.91821289 581.5078125 C-274.27506697 579.6771993 -271.63725496 577.83908722 -269 576 C-267.31253363 574.82807657 -265.62503415 573.65620082 -263.9375 572.484375 C-255.08880037 566.32568006 -246.30435487 560.08448501 -237.57788086 553.75390625 C-232.57901373 550.12998934 -227.55083776 546.55106905 -222.5 543 C-209.9010284 534.13824814 -197.44638394 525.074346 -185 516 C-187.55201284 513.06031876 -190.40830696 511.60935017 -193.87109375 509.8828125 C-194.74850723 509.44315407 -194.74850723 509.44315407 -195.64364624 508.99461365 C-197.57170587 508.03143728 -199.50431826 507.07784941 -201.4375 506.125 C-202.79845535 505.44920609 -204.15937607 504.77334244 -205.52026367 504.09741211 C-215.34326604 499.23556138 -225.25014423 494.57543216 -235.2109375 490.00219727 C-246.06602312 485.00784938 -256.81212816 479.79947544 -267.5480957 474.55493164 C-280.43755246 466.97399179 -280.43755246 466.97399179 -294 463 Z M-132 547 C-132.02336695 562.1685477 -132.04099784 577.33709458 -132.05181217 592.50565624 C-132.05696705 599.54878021 -132.06399438 606.59189298 -132.07543945 613.63500977 C-132.08647623 620.43011392 -132.09228211 627.22520643 -132.09487724 634.02031898 C-132.09672702 636.6146901 -132.10033908 639.20906057 -132.10573006 641.80342674 C-132.11297321 645.43301146 -132.11398954 649.06254791 -132.11352539 652.69213867 C-132.11712067 653.7681987 -132.12071594 654.84425873 -132.12442017 655.95292664 C-132.1230455 656.94425598 -132.12167084 657.93558533 -132.12025452 658.95695496 C-132.12117631 659.81514422 -132.1220981 660.67333349 -132.12304783 661.5575285 C-131.99386559 664.12176662 -131.56392021 666.49827789 -131 669 C-126.97830562 668.45042446 -123.6624928 667.59917997 -119.9921875 665.875 C-119.02466553 665.42479492 -118.05714355 664.97458984 -117.06030273 664.51074219 C-116.00915283 664.01219727 -114.95800293 663.51365234 -113.875 663 C-112.749729 662.4730957 -111.62445801 661.94619141 -110.46508789 661.40332031 C-107.97957373 660.23898579 -105.49653305 659.06956852 -103.01513672 657.89648438 C-99.55764709 656.26204634 -96.09616319 654.63625847 -92.63360596 653.0125885 C-71.67171878 643.18077649 -50.80929603 633.15042241 -30 623 C-33.94248771 618.0312485 -38.04618266 614.13235626 -43.1875 610.4375 C-43.87529541 609.93283203 -44.56309082 609.42816406 -45.27172852 608.90820312 C-46.74579985 607.82727247 -48.22235196 606.74971795 -49.70117188 605.67529297 C-52.03455422 603.97481828 -54.35469506 602.25763186 -56.671875 600.53515625 C-64.92706382 594.4053515 -73.24224379 588.37360713 -81.65820312 582.46655273 C-86.77951821 578.87031764 -91.86715882 575.23023139 -96.9375 571.5625 C-97.67669678 571.02810303 -98.41589355 570.49370605 -99.17749023 569.94311523 C-103.07475556 567.12332168 -106.9669126 564.29663399 -110.85546875 561.46484375 C-111.65412354 560.88468506 -112.45277832 560.30452637 -113.27563477 559.70678711 C-114.78948382 558.606993 -116.30181231 557.5051013 -117.81225586 556.40063477 C-118.50585205 555.89717529 -119.19944824 555.39371582 -119.9140625 554.875 C-120.5117041 554.43929687 -121.1093457 554.00359375 -121.72509766 553.5546875 C-123.83437402 552.1131902 -125.97391953 550.75332816 -128.1421814 549.40283203 C-128.86415396 548.95279816 -129.58612652 548.50276428 -130.32997704 548.03909302 C-130.88108461 547.69619232 -131.43219219 547.35329163 -132 547 Z M-193.75195312 567.74902344 C-199.43187848 571.8839156 -205.16824835 575.92840663 -210.9375 579.9375 C-218.3739483 585.11518376 -225.70796889 590.41415041 -232.98486328 595.81347656 C-238.39090609 599.82386738 -243.8404119 603.76786011 -249.3125 607.6875 C-257.05197273 613.24135105 -264.57036526 619.03956955 -272 625 C-271.33702109 627.99348618 -271.33702109 627.99348618 -269.47799683 629.04602051 C-268.82122955 629.36147827 -268.16446228 629.67693604 -267.48779297 630.00195312 C-266.74036331 630.36705994 -265.99293365 630.73216675 -265.22285461 631.1083374 C-264.40423447 631.49539856 -263.58561432 631.88245972 -262.7421875 632.28125 C-261.89613449 632.69103088 -261.05008148 633.10081177 -260.1783905 633.52301025 C-257.41517641 634.85842946 -254.64528024 636.17931023 -251.875 637.5 C-249.96890564 638.41743457 -248.06322582 639.33573093 -246.15795898 640.25488281 C-241.56130745 642.46976955 -236.95946835 644.67359896 -232.35552979 646.87329102 C-229.35223331 648.30984306 -226.35350497 649.75562877 -223.35546875 651.203125 C-218.97731718 653.31323261 -214.59075263 655.40482035 -210.19824219 657.48486328 C-207.7266042 658.65577819 -205.25602496 659.82883027 -202.78613281 661.00341797 C-198.87289129 662.86398679 -194.9574768 664.71991928 -191.04074097 666.57312012 C-189.480362 667.31203932 -187.92056053 668.05217935 -186.36135864 668.7935791 C-184.18404863 669.82834378 -182.00445535 670.85813771 -179.82421875 671.88671875 C-179.16394684 672.20172836 -178.50367493 672.51673798 -177.82339478 672.84129333 C-174.55358245 674.46915841 -174.55358245 674.46915841 -171 675 C-171 634.74 -171 594.48 -171 553 C-177.48065369 553 -188.56189162 563.96706723 -193.75195312 567.74902344 Z " fill="#000000" transform="translate(600,100)"/>
</svg>
