<?xml version="1.0" encoding="UTF-8"?>
<svg version="1.1" xmlns="http://www.w3.org/2000/svg" width="384" height="384">
<path d="M0 0 C126.72 0 253.44 0 384 0 C384 126.72 384 253.44 384 384 C257.28 384 130.56 384 0 384 C0 257.28 0 130.56 0 0 Z M8 8 C8 129.44 8 250.88 8 376 C129.44 376 250.88 376 376 376 C376 254.56 376 133.12 376 8 C254.56 8 133.12 8 8 8 Z " fill="#000000" transform="translate(0,0)"/>
<path d="M0 0 C1.2114267 -0.00845947 2.42285339 -0.01691895 3.67098999 -0.02563477 C5.01544323 -0.01980171 6.35989516 -0.01365719 7.7043457 -0.00723267 C9.11862595 -0.01129724 10.53290303 -0.01663849 11.94717407 -0.02316284 C15.79012949 -0.03685594 19.63284367 -0.03152968 23.47580338 -0.02202559 C27.49429228 -0.01443926 31.5127603 -0.02147173 35.53125 -0.02618408 C42.28006709 -0.03164464 49.02878574 -0.02444218 55.77758789 -0.01016235 C63.58420672 0.00616478 71.39059051 0.00087648 79.19720364 -0.01564157 C85.89536523 -0.02924792 92.59345599 -0.03118029 99.29162693 -0.02332556 C103.29409705 -0.01864434 107.29645663 -0.01803646 111.29891968 -0.02793503 C115.06151731 -0.0365901 118.82381141 -0.03060983 122.58637619 -0.01325226 C123.96868765 -0.00927956 125.35102457 -0.01043485 126.73332596 -0.01704025 C128.61729277 -0.02521405 130.50131529 -0.01315567 132.38525391 0 C133.44049759 0.00113108 134.49574127 0.00226215 135.58296204 0.00342751 C138.19262695 0.38095093 138.19262695 0.38095093 140.03304005 1.59036541 C141.5820658 3.98230607 141.56208763 5.56730827 141.5533905 8.41127014 C141.55957649 9.96986755 141.55957649 9.96986755 141.56588745 11.55995178 C141.55510162 12.69930679 141.5443158 13.8386618 141.53320312 15.01254272 C141.5336412 16.21266998 141.53407928 17.41279724 141.53453064 18.64929199 C141.53279746 21.9405526 141.51774227 25.23125018 141.49680877 28.52241111 C141.47806743 31.9617165 141.47629354 35.40102923 141.47273254 38.84037781 C141.46340457 45.35334674 141.43878071 51.86616478 141.40868407 58.37906724 C141.37516339 65.79372655 141.35865994 73.20839302 141.34359777 80.62310922 C141.31223169 95.87582541 141.25721038 111.12833373 141.19262695 126.38095093 C158.02262695 126.38095093 174.85262695 126.38095093 192.19262695 126.38095093 C192.19262695 123.41095093 192.19262695 120.44095093 192.19262695 117.38095093 C198.00272105 119.06028045 203.20131274 121.77303485 208.56762695 124.50595093 C209.49446289 124.97388062 210.42129883 125.4418103 211.3762207 125.92391968 C213.65022102 127.07264149 215.92225977 128.22506974 218.19262695 129.38095093 C218.19262695 130.37095093 218.19262695 131.36095093 218.19262695 132.38095093 C214.237532 134.38740341 210.27803674 136.38501228 206.31762695 138.38095093 C205.18969727 138.95329468 204.06176758 139.52563843 202.8996582 140.11532593 C201.28510742 140.9274353 201.28510742 140.9274353 199.63793945 141.75595093 C198.64294434 142.2586853 197.64794922 142.76141968 196.62280273 143.27938843 C194.19262695 144.38095093 194.19262695 144.38095093 192.19262695 144.38095093 C192.19262695 141.41095093 192.19262695 138.44095093 192.19262695 135.38095093 C108.70262695 135.38095093 25.21262695 135.38095093 -60.80737305 135.38095093 C-60.80737305 138.35095093 -60.80737305 141.32095093 -60.80737305 144.38095093 C-66.61746714 142.7016214 -71.81605884 139.98886701 -77.18237305 137.25595093 C-78.57262695 136.5540564 -78.57262695 136.5540564 -79.9909668 135.83798218 C-82.26496711 134.68926037 -84.53700586 133.53683212 -86.80737305 132.38095093 C-86.80737305 131.39095093 -86.80737305 130.40095093 -86.80737305 129.38095093 C-82.8522781 127.37449844 -78.89278283 125.37688957 -74.93237305 123.38095093 C-73.80444336 122.80860718 -72.67651367 122.23626343 -71.5144043 121.64657593 C-70.43803711 121.10516968 -69.36166992 120.56376343 -68.25268555 120.00595093 C-67.25769043 119.50321655 -66.26269531 119.00048218 -65.23754883 118.48251343 C-62.80737305 117.38095093 -62.80737305 117.38095093 -60.80737305 117.38095093 C-60.80737305 120.35095093 -60.80737305 123.32095093 -60.80737305 126.38095093 C-43.64737305 126.38095093 -26.48737305 126.38095093 -8.80737305 126.38095093 C-8.8230835 122.67062622 -8.83879395 118.96030151 -8.85498047 115.13754272 C-8.90461516 102.89997302 -8.93795015 90.66240493 -8.96280956 78.42476177 C-8.97828711 71.00263532 -8.99939345 63.58060413 -9.03369141 56.15853882 C-9.06356675 49.69044854 -9.0829416 43.22242725 -9.08963853 36.7542699 C-9.093554 33.32850628 -9.10277398 29.90294004 -9.12456322 26.47723961 C-9.14867407 22.65563598 -9.14934424 18.83422651 -9.14794922 15.01254272 C-9.15873505 13.87318771 -9.16952087 12.7338327 -9.18063354 11.55995178 C-9.17650955 10.52088684 -9.17238556 9.4818219 -9.1681366 8.41127014 C-9.17090198 7.50699122 -9.17366735 6.60271231 -9.17651653 5.671031 C-8.80737305 3.38095093 -8.80737305 3.38095093 -7.64778614 1.59036541 C-5.03949874 -0.12365226 -3.11062521 0.00333416 0 0 Z M0.19262695 9.38095093 C0.19262695 47.99095093 0.19262695 86.60095093 0.19262695 126.38095093 C20.65262695 126.38095093 41.11262695 126.38095093 62.19262695 126.38095093 C62.52262695 120.11095093 62.85262695 113.84095093 63.19262695 107.38095093 C65.17262695 107.38095093 67.15262695 107.38095093 69.19262695 107.38095093 C69.52262695 113.65095093 69.85262695 119.92095093 70.19262695 126.38095093 C90.65262695 126.38095093 111.11262695 126.38095093 132.19262695 126.38095093 C132.19262695 87.77095093 132.19262695 49.16095093 132.19262695 9.38095093 C111.73262695 9.38095093 91.27262695 9.38095093 70.19262695 9.38095093 C69.86262695 18.62095093 69.53262695 27.86095093 69.19262695 37.38095093 C67.54262695 37.71095093 65.89262695 38.04095093 64.19262695 38.38095093 C57.34102536 31.52934933 62.5384646 19.06440513 62.19262695 9.38095093 C41.73262695 9.38095093 21.27262695 9.38095093 0.19262695 9.38095093 Z " fill="#000000" transform="translate(125.807373046875,166.61904907226563)"/>
<path d="M0 0 C2.67539325 2.38199785 4.10738942 4.84083737 5.69921875 8.03515625 C6.42915039 9.49598633 6.42915039 9.49598633 7.17382812 10.98632812 C7.9230957 12.5090332 7.9230957 12.5090332 8.6875 14.0625 C9.19861328 15.08150391 9.70972656 16.10050781 10.23632812 17.15039062 C14 24.73300859 14 24.73300859 14 27 C11.03 27 8.06 27 5 27 C5.01047363 27.9286084 5.02094727 28.8572168 5.03173828 29.81396484 C5.06579204 33.2542569 5.09088493 36.69437027 5.10986328 40.13476562 C5.11993043 41.6247032 5.13358518 43.11462097 5.15087891 44.60449219 C5.17509653 46.74419028 5.18647564 48.88362753 5.1953125 51.0234375 C5.20578613 52.31169434 5.21625977 53.59995117 5.22705078 54.92724609 C5 58 5 58 3 60 C-1.55555556 59.44444444 -1.55555556 59.44444444 -3 58 C-3.08790975 55.70848583 -3.10694038 53.41427476 -3.09765625 51.12109375 C-3.0962413 50.4344313 -3.09482635 49.74776886 -3.09336853 49.04029846 C-3.08775479 46.83932199 -3.07520007 44.63844591 -3.0625 42.4375 C-3.05748676 40.94856917 -3.05292355 39.45963676 -3.04882812 37.97070312 C-3.03778093 34.31376925 -3.02050713 30.65689442 -3 27 C-6.3 27 -9.6 27 -13 27 C-11.32246669 21.21969949 -8.64724599 16.03416995 -5.9375 10.6875 C-5.47794922 9.76904297 -5.01839844 8.85058594 -4.54492188 7.90429688 C-1.14055525 1.14055525 -1.14055525 1.14055525 0 0 Z " fill="#000000" transform="translate(191,41)"/>
<path d="M0 0 C3 0.125 3 0.125 4 1.125 C4.10095564 3.77956193 4.13970998 6.40755176 4.1328125 9.0625 C4.13376923 9.857771 4.13472595 10.65304199 4.13571167 11.47241211 C4.13639343 13.1570646 4.13453943 14.84171971 4.13037109 16.52636719 C4.12502275 19.11399197 4.13031619 21.70144316 4.13671875 24.2890625 C4.13605797 25.92187539 4.1347768 27.55468816 4.1328125 29.1875 C4.13483673 29.96665771 4.13686096 30.74581543 4.13894653 31.54858398 C4.11495105 37.01004895 4.11495105 37.01004895 3 38.125 C0 38.25 0 38.25 -3 38.125 C-4.78830448 36.33669552 -4.12848711 33.92918848 -4.13894653 31.54858398 C-4.1369223 30.76942627 -4.13489807 29.99026855 -4.1328125 29.1875 C-4.13376923 28.392229 -4.13472595 27.59695801 -4.13571167 26.77758789 C-4.13639343 25.0929354 -4.13453943 23.40828029 -4.13037109 21.72363281 C-4.12502275 19.13600803 -4.13031619 16.54855684 -4.13671875 13.9609375 C-4.13605797 12.32812461 -4.1347768 10.69531184 -4.1328125 9.0625 C-4.13483673 8.28334229 -4.13686096 7.50418457 -4.13894653 6.70141602 C-4.11025565 0.17126065 -4.11025565 0.17126065 0 0 Z " fill="#000000" transform="translate(192,114.875)"/>
<path d="M0 0 C4.55555556 0.55555556 4.55555556 0.55555556 6 2 C6.08851529 4.59359322 6.11525945 7.16039691 6.09765625 9.75390625 C6.0962413 10.52935287 6.09482635 11.3047995 6.09336853 12.10374451 C6.08775345 14.59003494 6.07519846 17.0762366 6.0625 19.5625 C6.05748694 21.24413933 6.0529237 22.92578006 6.04882812 24.60742188 C6.03777913 28.73831566 6.02050445 32.86914276 6 37 C3.6875 38.125 3.6875 38.125 1 39 C0.01 38.34 -0.98 37.68 -2 37 C-2.29188604 34.32804644 -2.39614259 31.89120853 -2.36328125 29.21875 C-2.36377975 28.44946167 -2.36427826 27.68017334 -2.36479187 26.88757324 C-2.36245006 25.26014627 -2.35271513 23.63271577 -2.33618164 22.00537109 C-2.31259228 19.50976282 -2.31561898 17.01522261 -2.32226562 14.51953125 C-2.31668887 12.94009778 -2.309579 11.36066882 -2.30078125 9.78125 C-2.30169266 9.0322644 -2.30260406 8.28327881 -2.30354309 7.51159668 C-2.23102759 2.23102759 -2.23102759 2.23102759 0 0 Z " fill="#000000" transform="translate(190,220)"/>
<path d="M0 0 C0.99 0 1.98 0 3 0 C2.67 1.98 2.34 3.96 2 6 C3.32 6.66 4.64 7.32 6 8 C5 9 5 9 2.4375 9.0625 C1.633125 9.041875 0.82875 9.02125 0 9 C-0.12375 10.093125 -0.2475 11.18625 -0.375 12.3125 C-1.02770131 17.58140765 -2.01264063 22.78520874 -3 28 C-2.54625 27.505 -2.0925 27.01 -1.625 26.5 C0 25 0 25 2 25 C0.55134433 28.38019657 -1.08219573 30.73059668 -4 33 C-7.25 33.25 -7.25 33.25 -10 33 C-9.61375277 24.61843511 -7.4744657 16.98734511 -5 9 C-6.32 9 -7.64 9 -9 9 C-9 8.34 -9 7.68 -9 7 C-3.58823529 3 -3.58823529 3 -1 3 C-0.67 2.01 -0.34 1.02 0 0 Z " fill="#000000" transform="translate(201,312)"/>
</svg>
