<?xml version="1.0" encoding="UTF-8"?>
<svg xmlns="http://www.w3.org/2000/svg" xmlns:xlink="http://www.w3.org/1999/xlink" width="3840" height="2160" viewBox="0 0 3840 2160">
<defs>
<g>
<g id="glyph-0-0">
<path d="M 1.960938 0 C 1.707031 0 1.515625 -0.0625 1.394531 -0.183594 C 1.273438 -0.304688 1.214844 -0.492188 1.214844 -0.746094 L 1.214844 -6.488281 C 1.214844 -6.628906 1.246094 -6.734375 1.316406 -6.804688 C 1.382812 -6.871094 1.488281 -6.90625 1.632812 -6.90625 C 1.777344 -6.90625 1.882812 -6.871094 1.949219 -6.804688 C 2.019531 -6.734375 2.054688 -6.628906 2.054688 -6.488281 L 2.054688 -1.214844 C 2.054688 -1.089844 2.085938 -0.996094 2.148438 -0.933594 C 2.210938 -0.871094 2.300781 -0.839844 2.425781 -0.839844 L 4.714844 -0.839844 C 4.839844 -0.839844 4.9375 -0.800781 5.015625 -0.722656 C 5.09375 -0.644531 5.132812 -0.542969 5.132812 -0.421875 C 5.132812 -0.296875 5.09375 -0.195312 5.015625 -0.117188 C 4.9375 -0.0390625 4.835938 0 4.714844 0 Z "/>
</g>
<g id="glyph-0-1">
<path d="M 4.777344 -0.839844 C 4.902344 -0.839844 5 -0.800781 5.074219 -0.722656 C 5.144531 -0.644531 5.179688 -0.542969 5.179688 -0.421875 C 5.179688 -0.296875 5.144531 -0.195312 5.074219 -0.117188 C 5 -0.0390625 4.902344 0 4.777344 0 L 1.195312 0 C 1.070312 0 0.972656 -0.0390625 0.902344 -0.117188 C 0.828125 -0.195312 0.792969 -0.296875 0.792969 -0.421875 C 0.792969 -0.546875 0.828125 -0.644531 0.902344 -0.722656 C 0.972656 -0.800781 1.070312 -0.839844 1.195312 -0.839844 L 2.613281 -0.839844 L 2.613281 -3.734375 C 2.613281 -3.859375 2.582031 -3.949219 2.519531 -4.011719 C 2.457031 -4.074219 2.363281 -4.105469 2.238281 -4.105469 L 1.390625 -4.105469 C 1.265625 -4.105469 1.167969 -4.144531 1.09375 -4.222656 C 1.019531 -4.300781 0.980469 -4.402344 0.980469 -4.527344 C 0.980469 -4.652344 1.015625 -4.753906 1.09375 -4.828125 C 1.167969 -4.90625 1.265625 -4.945312 1.390625 -4.945312 L 2.707031 -4.945312 C 2.960938 -4.945312 3.148438 -4.886719 3.269531 -4.765625 C 3.390625 -4.644531 3.453125 -4.453125 3.453125 -4.199219 L 3.453125 -0.839844 Z M 2.988281 -5.871094 C 2.78125 -5.871094 2.621094 -5.921875 2.5 -6.027344 C 2.382812 -6.132812 2.324219 -6.277344 2.324219 -6.457031 C 2.324219 -6.644531 2.382812 -6.792969 2.5 -6.902344 C 2.617188 -7.011719 2.78125 -7.066406 2.988281 -7.066406 C 3.191406 -7.066406 3.355469 -7.011719 3.472656 -6.902344 C 3.589844 -6.792969 3.648438 -6.644531 3.648438 -6.457031 C 3.648438 -6.277344 3.589844 -6.136719 3.472656 -6.027344 C 3.355469 -5.921875 3.191406 -5.871094 2.988281 -5.871094 Z "/>
</g>
<g id="glyph-0-2">
<path d="M 1.726562 -0.328125 C 1.726562 -0.183594 1.691406 -0.078125 1.625 -0.0078125 C 1.554688 0.0585938 1.449219 0.09375 1.304688 0.09375 C 1.164062 0.09375 1.058594 0.0585938 0.988281 -0.0078125 C 0.921875 -0.078125 0.886719 -0.183594 0.886719 -0.328125 L 0.886719 -4.804688 C 0.886719 -4.949219 0.921875 -5.054688 0.988281 -5.125 C 1.058594 -5.191406 1.164062 -5.226562 1.304688 -5.226562 C 1.449219 -5.226562 1.554688 -5.191406 1.625 -5.125 C 1.691406 -5.054688 1.726562 -4.949219 1.726562 -4.804688 L 1.726562 -4.253906 C 1.8125 -4.554688 1.964844 -4.789062 2.175781 -4.964844 C 2.386719 -5.140625 2.664062 -5.226562 3.003906 -5.226562 C 3.253906 -5.226562 3.484375 -5.183594 3.691406 -5.101562 C 3.898438 -5.015625 4.082031 -4.898438 4.234375 -4.742188 C 4.386719 -4.585938 4.503906 -4.398438 4.585938 -4.179688 C 4.671875 -3.964844 4.714844 -3.722656 4.714844 -3.453125 L 4.714844 -0.328125 C 4.714844 -0.183594 4.679688 -0.078125 4.609375 -0.0078125 C 4.542969 0.0585938 4.4375 0.09375 4.292969 0.09375 C 4.148438 0.09375 4.042969 0.0585938 3.976562 -0.0078125 C 3.90625 -0.078125 3.875 -0.183594 3.875 -0.328125 L 3.875 -3.210938 C 3.875 -3.371094 3.851562 -3.527344 3.808594 -3.671875 C 3.765625 -3.820312 3.699219 -3.949219 3.617188 -4.058594 C 3.53125 -4.171875 3.429688 -4.261719 3.304688 -4.332031 C 3.179688 -4.398438 3.035156 -4.433594 2.863281 -4.433594 C 2.695312 -4.433594 2.542969 -4.382812 2.402344 -4.285156 C 2.261719 -4.183594 2.144531 -4.0625 2.042969 -3.914062 C 1.945312 -3.769531 1.867188 -3.609375 1.8125 -3.433594 C 1.753906 -3.261719 1.726562 -3.097656 1.726562 -2.949219 Z "/>
</g>
<g id="glyph-0-3">
<path d="M 4.285156 -1.230469 C 4.402344 -1.230469 4.5 -1.191406 4.578125 -1.105469 C 4.65625 -1.023438 4.695312 -0.925781 4.695312 -0.820312 C 4.695312 -0.765625 4.679688 -0.710938 4.652344 -0.65625 C 4.625 -0.605469 4.574219 -0.542969 4.5 -0.464844 C 4.398438 -0.371094 4.292969 -0.292969 4.179688 -0.222656 C 4.070312 -0.15625 3.949219 -0.0976562 3.820312 -0.046875 C 3.695312 0.00390625 3.558594 0.0390625 3.421875 0.0625 C 3.28125 0.0820312 3.132812 0.09375 2.976562 0.09375 C 2.617188 0.09375 2.292969 0.03125 2.011719 -0.0898438 C 1.726562 -0.210938 1.488281 -0.382812 1.292969 -0.609375 C 1.097656 -0.835938 0.945312 -1.117188 0.839844 -1.441406 C 0.734375 -1.769531 0.679688 -2.132812 0.679688 -2.539062 C 0.679688 -2.894531 0.71875 -3.234375 0.796875 -3.558594 C 0.875 -3.886719 1 -4.171875 1.171875 -4.417969 C 1.34375 -4.664062 1.566406 -4.859375 1.839844 -5.007812 C 2.113281 -5.152344 2.449219 -5.226562 2.847656 -5.226562 C 3.21875 -5.226562 3.53125 -5.164062 3.78125 -5.035156 C 4.027344 -4.90625 4.230469 -4.730469 4.382812 -4.5 C 4.535156 -4.269531 4.644531 -4 4.707031 -3.691406 C 4.773438 -3.382812 4.804688 -3.046875 4.804688 -2.679688 C 4.804688 -2.566406 4.765625 -2.464844 4.683594 -2.375 C 4.605469 -2.285156 4.5 -2.238281 4.367188 -2.238281 L 1.539062 -2.238281 C 1.566406 -1.992188 1.617188 -1.773438 1.699219 -1.582031 C 1.78125 -1.390625 1.882812 -1.238281 2.007812 -1.117188 C 2.132812 -0.996094 2.277344 -0.902344 2.441406 -0.839844 C 2.605469 -0.777344 2.789062 -0.746094 2.988281 -0.746094 C 3.265625 -0.746094 3.488281 -0.789062 3.652344 -0.878906 C 3.816406 -0.964844 3.949219 -1.046875 4.042969 -1.121094 C 4.089844 -1.164062 4.132812 -1.191406 4.164062 -1.207031 C 4.195312 -1.222656 4.234375 -1.230469 4.285156 -1.230469 Z M 3.816406 -2.988281 C 3.847656 -2.988281 3.882812 -3.003906 3.914062 -3.042969 C 3.949219 -3.078125 3.964844 -3.164062 3.964844 -3.292969 C 3.964844 -3.425781 3.941406 -3.554688 3.890625 -3.6875 C 3.839844 -3.816406 3.769531 -3.933594 3.671875 -4.035156 C 3.574219 -4.140625 3.457031 -4.222656 3.316406 -4.289062 C 3.175781 -4.355469 3.019531 -4.386719 2.847656 -4.386719 C 2.652344 -4.386719 2.480469 -4.351562 2.328125 -4.285156 C 2.175781 -4.214844 2.046875 -4.117188 1.9375 -3.996094 C 1.828125 -3.871094 1.742188 -3.722656 1.675781 -3.550781 C 1.609375 -3.378906 1.566406 -3.191406 1.539062 -2.988281 Z "/>
</g>
<g id="glyph-0-4">
<path d="M 2.808594 0.09375 C 2.621094 0.09375 2.441406 0.0820312 2.269531 0.0546875 C 2.09375 0.03125 1.929688 -0.0117188 1.777344 -0.0703125 C 1.625 -0.128906 1.480469 -0.207031 1.339844 -0.304688 C 1.199219 -0.398438 1.066406 -0.519531 0.941406 -0.664062 C 0.878906 -0.730469 0.832031 -0.808594 0.800781 -0.894531 C 0.769531 -0.984375 0.757812 -1.070312 0.757812 -1.15625 C 0.757812 -1.292969 0.792969 -1.386719 0.867188 -1.4375 C 0.941406 -1.488281 1.023438 -1.511719 1.109375 -1.511719 C 1.179688 -1.511719 1.242188 -1.5 1.296875 -1.476562 C 1.351562 -1.449219 1.414062 -1.40625 1.484375 -1.34375 C 1.683594 -1.167969 1.878906 -1.027344 2.066406 -0.914062 C 2.257812 -0.800781 2.5 -0.746094 2.800781 -0.746094 C 2.90625 -0.746094 3.027344 -0.753906 3.167969 -0.765625 C 3.308594 -0.777344 3.441406 -0.808594 3.566406 -0.855469 C 3.691406 -0.902344 3.796875 -0.96875 3.882812 -1.054688 C 3.96875 -1.140625 4.011719 -1.257812 4.011719 -1.398438 C 4.011719 -1.535156 3.96875 -1.652344 3.882812 -1.75 C 3.796875 -1.847656 3.691406 -1.925781 3.566406 -1.992188 C 3.441406 -2.058594 3.308594 -2.109375 3.167969 -2.152344 C 3.027344 -2.191406 2.90625 -2.222656 2.800781 -2.238281 C 2.589844 -2.28125 2.375 -2.335938 2.15625 -2.398438 C 1.9375 -2.460938 1.742188 -2.546875 1.5625 -2.660156 C 1.386719 -2.773438 1.238281 -2.917969 1.125 -3.097656 C 1.007812 -3.277344 0.953125 -3.507812 0.953125 -3.789062 C 0.953125 -4.050781 1 -4.269531 1.101562 -4.453125 C 1.199219 -4.632812 1.335938 -4.78125 1.503906 -4.894531 C 1.671875 -5.011719 1.867188 -5.09375 2.089844 -5.148438 C 2.3125 -5.199219 2.550781 -5.226562 2.800781 -5.226562 C 3.203125 -5.226562 3.570312 -5.160156 3.902344 -5.027344 C 4.230469 -4.890625 4.476562 -4.695312 4.636719 -4.433594 C 4.679688 -4.363281 4.710938 -4.300781 4.726562 -4.246094 C 4.742188 -4.191406 4.75 -4.140625 4.75 -4.097656 C 4.75 -3.996094 4.71875 -3.910156 4.65625 -3.835938 C 4.59375 -3.761719 4.5 -3.722656 4.378906 -3.722656 C 4.320312 -3.722656 4.253906 -3.734375 4.179688 -3.757812 C 4.105469 -3.777344 4.035156 -3.824219 3.964844 -3.890625 C 3.816406 -4.039062 3.65625 -4.160156 3.484375 -4.25 C 3.3125 -4.339844 3.085938 -4.386719 2.800781 -4.386719 C 2.664062 -4.386719 2.535156 -4.375 2.414062 -4.355469 C 2.292969 -4.332031 2.183594 -4.296875 2.089844 -4.246094 C 1.996094 -4.195312 1.925781 -4.136719 1.871094 -4.066406 C 1.816406 -3.992188 1.792969 -3.90625 1.792969 -3.796875 C 1.792969 -3.671875 1.824219 -3.570312 1.890625 -3.484375 C 1.957031 -3.402344 2.039062 -3.335938 2.140625 -3.285156 C 2.246094 -3.234375 2.355469 -3.195312 2.472656 -3.164062 C 2.589844 -3.132812 2.699219 -3.109375 2.800781 -3.089844 C 3.035156 -3.039062 3.277344 -2.980469 3.519531 -2.90625 C 3.761719 -2.835938 3.980469 -2.738281 4.179688 -2.613281 C 4.378906 -2.488281 4.542969 -2.328125 4.667969 -2.132812 C 4.792969 -1.9375 4.851562 -1.6875 4.851562 -1.390625 C 4.851562 -1.117188 4.796875 -0.886719 4.683594 -0.695312 C 4.574219 -0.503906 4.425781 -0.351562 4.238281 -0.238281 C 4.050781 -0.121094 3.835938 -0.0390625 3.589844 0.015625 C 3.34375 0.0664062 3.082031 0.09375 2.808594 0.09375 Z "/>
</g>
<g id="glyph-0-5">
<rect x="0" y="0" width="0" height="0" mask="url(#mask-0)"/>
</g>
<g id="glyph-0-6">
<path d="M 2.800781 0.09375 C 2.4375 0.09375 2.128906 0.0273438 1.867188 -0.105469 C 1.605469 -0.242188 1.386719 -0.425781 1.214844 -0.664062 C 1.039062 -0.898438 0.910156 -1.179688 0.824219 -1.507812 C 0.742188 -1.835938 0.699219 -2.191406 0.699219 -2.574219 C 0.699219 -2.960938 0.742188 -3.316406 0.820312 -3.640625 C 0.902344 -3.964844 1.03125 -4.242188 1.203125 -4.476562 C 1.378906 -4.707031 1.597656 -4.890625 1.863281 -5.027344 C 2.125 -5.160156 2.4375 -5.226562 2.800781 -5.226562 C 3.167969 -5.226562 3.484375 -5.160156 3.746094 -5.027344 C 4.011719 -4.890625 4.230469 -4.707031 4.402344 -4.476562 C 4.570312 -4.242188 4.699219 -3.964844 4.777344 -3.640625 C 4.859375 -3.316406 4.898438 -2.960938 4.898438 -2.574219 C 4.898438 -2.191406 4.859375 -1.832031 4.773438 -1.507812 C 4.691406 -1.179688 4.5625 -0.898438 4.390625 -0.664062 C 4.21875 -0.425781 4.003906 -0.242188 3.738281 -0.105469 C 3.472656 0.0273438 3.160156 0.09375 2.800781 0.09375 Z M 2.800781 -0.746094 C 3.019531 -0.746094 3.207031 -0.792969 3.363281 -0.882812 C 3.523438 -0.972656 3.652344 -1.097656 3.757812 -1.253906 C 3.859375 -1.414062 3.933594 -1.605469 3.984375 -1.832031 C 4.035156 -2.058594 4.058594 -2.308594 4.058594 -2.574219 C 4.058594 -2.84375 4.035156 -3.085938 3.988281 -3.308594 C 3.941406 -3.53125 3.867188 -3.71875 3.765625 -3.878906 C 3.664062 -4.035156 3.53125 -4.160156 3.375 -4.25 C 3.214844 -4.339844 3.023438 -4.386719 2.800781 -4.386719 C 2.578125 -4.386719 2.382812 -4.339844 2.226562 -4.25 C 2.066406 -4.160156 1.9375 -4.035156 1.832031 -3.878906 C 1.730469 -3.71875 1.65625 -3.527344 1.609375 -3.304688 C 1.5625 -3.082031 1.539062 -2.835938 1.539062 -2.566406 C 1.539062 -2.300781 1.566406 -2.054688 1.613281 -1.828125 C 1.664062 -1.605469 1.742188 -1.414062 1.84375 -1.253906 C 1.945312 -1.097656 2.078125 -0.972656 2.234375 -0.882812 C 2.394531 -0.792969 2.582031 -0.746094 2.800781 -0.746094 Z "/>
</g>
<g id="glyph-0-7">
<path d="M 0.832031 -3.546875 C 0.707031 -3.546875 0.605469 -3.585938 0.53125 -3.664062 C 0.457031 -3.742188 0.421875 -3.84375 0.421875 -3.964844 C 0.421875 -4.089844 0.457031 -4.191406 0.53125 -4.269531 C 0.605469 -4.347656 0.707031 -4.386719 0.832031 -4.386719 L 2.007812 -4.386719 L 2.007812 -5.320312 C 2.007812 -5.550781 2.046875 -5.757812 2.132812 -5.941406 C 2.214844 -6.125 2.332031 -6.28125 2.484375 -6.410156 C 2.632812 -6.542969 2.804688 -6.640625 3 -6.710938 C 3.195312 -6.777344 3.40625 -6.8125 3.628906 -6.8125 L 4.515625 -6.8125 C 4.640625 -6.8125 4.746094 -6.773438 4.824219 -6.695312 C 4.90625 -6.617188 4.945312 -6.515625 4.945312 -6.394531 C 4.945312 -6.269531 4.90625 -6.167969 4.824219 -6.089844 C 4.742188 -6.011719 4.640625 -5.972656 4.515625 -5.972656 L 3.628906 -5.972656 C 3.503906 -5.972656 3.394531 -5.953125 3.292969 -5.914062 C 3.195312 -5.871094 3.113281 -5.820312 3.046875 -5.753906 C 2.980469 -5.6875 2.933594 -5.617188 2.898438 -5.539062 C 2.863281 -5.460938 2.847656 -5.386719 2.847656 -5.320312 L 2.847656 -4.386719 L 4.628906 -4.386719 C 4.753906 -4.386719 4.851562 -4.347656 4.929688 -4.269531 C 5.003906 -4.191406 5.039062 -4.089844 5.039062 -3.964844 C 5.039062 -3.839844 5.003906 -3.742188 4.929688 -3.664062 C 4.855469 -3.585938 4.753906 -3.546875 4.628906 -3.546875 L 2.847656 -3.546875 L 2.847656 -0.328125 C 2.847656 -0.183594 2.8125 -0.078125 2.742188 -0.0078125 C 2.675781 0.0585938 2.570312 0.09375 2.425781 0.09375 C 2.285156 0.09375 2.175781 0.0585938 2.109375 -0.0078125 C 2.039062 -0.078125 2.007812 -0.183594 2.007812 -0.328125 L 2.007812 -3.546875 Z "/>
</g>
<g id="glyph-0-8">
<path d="M 0.746094 -2.558594 C 0.746094 -3.035156 0.808594 -3.445312 0.933594 -3.78125 C 1.058594 -4.117188 1.222656 -4.390625 1.433594 -4.605469 C 1.640625 -4.820312 1.886719 -4.976562 2.164062 -5.078125 C 2.445312 -5.175781 2.742188 -5.226562 3.050781 -5.226562 C 3.289062 -5.226562 3.5 -5.207031 3.6875 -5.164062 C 3.875 -5.125 4.035156 -5.070312 4.175781 -5.003906 C 4.316406 -4.933594 4.4375 -4.855469 4.535156 -4.769531 C 4.636719 -4.683594 4.714844 -4.59375 4.769531 -4.5 C 4.855469 -4.355469 4.890625 -4.230469 4.867188 -4.125 C 4.84375 -4.019531 4.78125 -3.933594 4.675781 -3.875 C 4.5625 -3.804688 4.457031 -3.78125 4.359375 -3.796875 C 4.257812 -3.816406 4.179688 -3.875 4.125 -3.964844 C 4.058594 -4.070312 3.9375 -4.167969 3.769531 -4.253906 C 3.601562 -4.34375 3.382812 -4.386719 3.109375 -4.386719 C 2.882812 -4.386719 2.679688 -4.347656 2.492188 -4.273438 C 2.304688 -4.199219 2.144531 -4.085938 2.011719 -3.9375 C 1.878906 -3.789062 1.773438 -3.605469 1.699219 -3.382812 C 1.625 -3.164062 1.585938 -2.902344 1.585938 -2.605469 C 1.585938 -2.300781 1.625 -2.03125 1.703125 -1.796875 C 1.78125 -1.5625 1.886719 -1.367188 2.019531 -1.214844 C 2.152344 -1.058594 2.316406 -0.941406 2.5 -0.863281 C 2.6875 -0.785156 2.886719 -0.746094 3.097656 -0.746094 C 3.261719 -0.746094 3.429688 -0.765625 3.601562 -0.808594 C 3.777344 -0.847656 3.910156 -0.914062 4.003906 -1.007812 C 4.078125 -1.082031 4.171875 -1.125 4.277344 -1.136719 C 4.386719 -1.152344 4.496094 -1.113281 4.601562 -1.027344 C 4.636719 -0.988281 4.667969 -0.949219 4.691406 -0.902344 C 4.710938 -0.855469 4.722656 -0.800781 4.722656 -0.746094 C 4.722656 -0.691406 4.707031 -0.628906 4.675781 -0.566406 C 4.644531 -0.5 4.597656 -0.429688 4.535156 -0.355469 C 4.453125 -0.253906 4.359375 -0.175781 4.246094 -0.117188 C 4.132812 -0.0585938 4.015625 -0.0117188 3.886719 0.0195312 C 3.757812 0.0507812 3.628906 0.0703125 3.492188 0.078125 C 3.355469 0.0898438 3.214844 0.09375 3.078125 0.09375 C 2.738281 0.09375 2.421875 0.0390625 2.136719 -0.0664062 C 1.851562 -0.171875 1.605469 -0.332031 1.398438 -0.546875 C 1.195312 -0.761719 1.035156 -1.035156 0.917969 -1.371094 C 0.804688 -1.707031 0.746094 -2.101562 0.746094 -2.558594 Z "/>
</g>
<g id="glyph-0-9">
<path d="M 4.339844 0.09375 C 4.195312 0.09375 4.089844 0.0585938 4.023438 -0.015625 C 3.953125 -0.0859375 3.917969 -0.191406 3.917969 -0.335938 L 3.917969 -0.933594 C 3.863281 -0.777344 3.792969 -0.636719 3.710938 -0.511719 C 3.625 -0.386719 3.527344 -0.28125 3.414062 -0.191406 C 3.304688 -0.101562 3.175781 -0.03125 3.035156 0.0195312 C 2.890625 0.0703125 2.726562 0.09375 2.546875 0.09375 C 2.167969 0.09375 1.859375 0.0195312 1.625 -0.128906 C 1.386719 -0.28125 1.203125 -0.472656 1.074219 -0.714844 C 0.941406 -0.953125 0.855469 -1.222656 0.8125 -1.515625 C 0.769531 -1.8125 0.746094 -2.101562 0.746094 -2.390625 C 0.746094 -2.726562 0.773438 -3.0625 0.820312 -3.402344 C 0.871094 -3.742188 0.964844 -4.046875 1.101562 -4.316406 C 1.238281 -4.585938 1.429688 -4.804688 1.679688 -4.972656 C 1.929688 -5.140625 2.25 -5.226562 2.640625 -5.226562 C 2.984375 -5.226562 3.269531 -5.132812 3.496094 -4.949219 C 3.722656 -4.765625 3.863281 -4.535156 3.917969 -4.253906 L 3.917969 -6.488281 C 3.917969 -6.628906 3.953125 -6.734375 4.023438 -6.804688 C 4.089844 -6.871094 4.195312 -6.90625 4.339844 -6.90625 C 4.484375 -6.90625 4.589844 -6.871094 4.65625 -6.804688 C 4.726562 -6.734375 4.761719 -6.628906 4.761719 -6.488281 L 4.761719 -0.335938 C 4.761719 -0.191406 4.726562 -0.0859375 4.65625 -0.015625 C 4.589844 0.0585938 4.484375 0.09375 4.339844 0.09375 Z M 2.632812 -0.746094 C 2.800781 -0.746094 2.960938 -0.78125 3.117188 -0.847656 C 3.273438 -0.917969 3.410156 -1.007812 3.527344 -1.117188 C 3.644531 -1.226562 3.742188 -1.347656 3.8125 -1.488281 C 3.882812 -1.628906 3.917969 -1.773438 3.917969 -1.921875 L 3.917969 -2.949219 C 3.917969 -3.097656 3.890625 -3.257812 3.835938 -3.425781 C 3.78125 -3.59375 3.703125 -3.75 3.601562 -3.890625 C 3.503906 -4.035156 3.382812 -4.152344 3.242188 -4.246094 C 3.101562 -4.339844 2.949219 -4.386719 2.78125 -4.386719 C 2.515625 -4.386719 2.300781 -4.332031 2.148438 -4.21875 C 1.992188 -4.105469 1.871094 -3.957031 1.789062 -3.773438 C 1.703125 -3.589844 1.648438 -3.382812 1.625 -3.148438 C 1.597656 -2.917969 1.585938 -2.683594 1.585938 -2.445312 C 1.585938 -2.203125 1.601562 -1.976562 1.632812 -1.769531 C 1.664062 -1.558594 1.71875 -1.378906 1.796875 -1.226562 C 1.875 -1.074219 1.980469 -0.957031 2.117188 -0.871094 C 2.253906 -0.789062 2.425781 -0.746094 2.632812 -0.746094 Z "/>
</g>
</g>
<image id="source-31" x="0" y="0" width="0" height="0"/>
<mask id="mask-0">
<use xlink:href="#source-31"/>
</mask>
</defs>
<g fill="rgb(100%, 100%, 100%)" fill-opacity="1">
<use xlink:href="#glyph-0-0" x="30" y="29.519531"/>
<use xlink:href="#glyph-0-1" x="36" y="29.519531"/>
<use xlink:href="#glyph-0-2" x="42" y="29.519531"/>
<use xlink:href="#glyph-0-3" x="48" y="29.519531"/>
<use xlink:href="#glyph-0-4" x="54" y="29.519531"/>
<use xlink:href="#glyph-0-5" x="60" y="29.519531"/>
<use xlink:href="#glyph-0-6" x="66" y="29.519531"/>
<use xlink:href="#glyph-0-7" x="72" y="29.519531"/>
<use xlink:href="#glyph-0-5" x="78" y="29.519531"/>
<use xlink:href="#glyph-0-8" x="84" y="29.519531"/>
<use xlink:href="#glyph-0-6" x="90" y="29.519531"/>
<use xlink:href="#glyph-0-9" x="96" y="29.519531"/>
<use xlink:href="#glyph-0-3" x="102" y="29.519531"/>
</g>
</svg>
