<?xml version="1.0" encoding="UTF-8"?>
<svg xmlns="http://www.w3.org/2000/svg" xmlns:xlink="http://www.w3.org/1999/xlink" width="3840" height="2160" viewBox="0 0 3840 2160">
<defs>
<g>
<g id="glyph-0-0">
<path d="M 4.851562 -1.902344 C 4.851562 -1.605469 4.800781 -1.335938 4.699219 -1.09375 C 4.597656 -0.851562 4.445312 -0.640625 4.25 -0.460938 C 4.054688 -0.285156 3.8125 -0.148438 3.527344 -0.0507812 C 3.242188 0.046875 2.910156 0.09375 2.539062 0.09375 C 2.269531 0.09375 1.992188 0.0703125 1.699219 0.0195312 C 1.40625 -0.03125 1.152344 -0.101562 0.941406 -0.195312 C 0.816406 -0.246094 0.734375 -0.324219 0.6875 -0.433594 C 0.640625 -0.542969 0.644531 -0.660156 0.699219 -0.785156 C 0.75 -0.894531 0.828125 -0.976562 0.9375 -1.023438 C 1.046875 -1.070312 1.183594 -1.058594 1.34375 -0.988281 C 1.511719 -0.921875 1.703125 -0.863281 1.917969 -0.816406 C 2.132812 -0.769531 2.339844 -0.746094 2.539062 -0.746094 C 2.988281 -0.746094 3.34375 -0.859375 3.613281 -1.085938 C 3.878906 -1.3125 4.011719 -1.65625 4.011719 -2.109375 C 4.011719 -2.339844 3.960938 -2.527344 3.855469 -2.679688 C 3.75 -2.828125 3.605469 -2.949219 3.421875 -3.039062 C 3.238281 -3.128906 3.019531 -3.191406 2.773438 -3.222656 C 2.523438 -3.257812 2.253906 -3.277344 1.960938 -3.277344 L 1.773438 -3.277344 C 1.519531 -3.277344 1.328125 -3.335938 1.207031 -3.457031 C 1.085938 -3.578125 1.027344 -3.769531 1.027344 -4.03125 L 1.027344 -6.066406 C 1.027344 -6.320312 1.085938 -6.511719 1.207031 -6.632812 C 1.328125 -6.753906 1.519531 -6.8125 1.773438 -6.8125 L 4.300781 -6.8125 C 4.445312 -6.8125 4.550781 -6.777344 4.621094 -6.710938 C 4.6875 -6.640625 4.722656 -6.535156 4.722656 -6.394531 C 4.722656 -6.25 4.6875 -6.144531 4.621094 -6.074219 C 4.550781 -6.007812 4.445312 -5.972656 4.300781 -5.972656 L 2.238281 -5.972656 C 2.113281 -5.972656 2.023438 -5.941406 1.960938 -5.878906 C 1.898438 -5.816406 1.867188 -5.722656 1.867188 -5.601562 L 1.867188 -4.488281 C 1.867188 -4.363281 1.898438 -4.269531 1.960938 -4.210938 C 2.023438 -4.148438 2.117188 -4.117188 2.238281 -4.117188 C 2.550781 -4.117188 2.859375 -4.09375 3.167969 -4.054688 C 3.476562 -4.015625 3.757812 -3.917969 4.007812 -3.765625 C 4.261719 -3.613281 4.464844 -3.390625 4.621094 -3.097656 C 4.777344 -2.804688 4.851562 -2.40625 4.851562 -1.902344 Z "/>
</g>
<g id="glyph-0-1">
<path d="M 1.398438 2.082031 C 1.324219 2.101562 1.257812 2.101562 1.195312 2.082031 C 1.132812 2.0625 1.085938 2.015625 1.054688 1.941406 C 1.023438 1.871094 1.019531 1.804688 1.046875 1.730469 C 1.070312 1.660156 1.117188 1.613281 1.183594 1.597656 C 1.65625 1.476562 2.039062 1.3125 2.332031 1.097656 C 2.625 0.882812 2.804688 0.667969 2.875 0.457031 C 2.90625 0.351562 2.902344 0.269531 2.859375 0.214844 C 2.820312 0.160156 2.730469 0.113281 2.59375 0.0859375 C 2.402344 0.046875 2.246094 -0.03125 2.132812 -0.148438 C 2.015625 -0.265625 1.960938 -0.425781 1.960938 -0.625 C 1.960938 -0.875 2.03125 -1.074219 2.171875 -1.222656 C 2.3125 -1.371094 2.511719 -1.445312 2.773438 -1.445312 C 2.933594 -1.445312 3.070312 -1.410156 3.183594 -1.335938 C 3.292969 -1.261719 3.382812 -1.164062 3.449219 -1.046875 C 3.515625 -0.925781 3.558594 -0.792969 3.589844 -0.648438 C 3.617188 -0.503906 3.628906 -0.359375 3.628906 -0.214844 C 3.628906 0.0351562 3.597656 0.273438 3.53125 0.503906 C 3.464844 0.734375 3.351562 0.949219 3.1875 1.152344 C 3.023438 1.355469 2.796875 1.535156 2.507812 1.695312 C 2.21875 1.851562 1.847656 1.980469 1.398438 2.082031 Z "/>
</g>
<g id="glyph-0-2">
<path d="M 3.875 -5.628906 C 3.886719 -5.660156 3.894531 -5.6875 3.902344 -5.714844 C 3.90625 -5.742188 3.910156 -5.769531 3.910156 -5.796875 C 3.910156 -5.859375 3.890625 -5.902344 3.84375 -5.929688 C 3.800781 -5.957031 3.734375 -5.972656 3.640625 -5.972656 L 1 -5.972656 C 0.855469 -5.972656 0.75 -6.007812 0.679688 -6.074219 C 0.613281 -6.144531 0.578125 -6.25 0.578125 -6.394531 C 0.578125 -6.535156 0.613281 -6.640625 0.679688 -6.710938 C 0.75 -6.777344 0.855469 -6.8125 1 -6.8125 L 4.238281 -6.8125 C 4.460938 -6.8125 4.628906 -6.757812 4.742188 -6.648438 C 4.851562 -6.539062 4.910156 -6.382812 4.910156 -6.179688 C 4.910156 -6.105469 4.902344 -6.035156 4.890625 -5.976562 C 4.878906 -5.917969 4.863281 -5.863281 4.84375 -5.816406 L 2.613281 -0.1875 C 2.574219 -0.09375 2.519531 -0.0234375 2.445312 0.0234375 C 2.371094 0.0703125 2.269531 0.09375 2.148438 0.09375 C 2.015625 0.09375 1.917969 0.0703125 1.847656 0.0234375 C 1.78125 -0.0234375 1.746094 -0.0976562 1.746094 -0.195312 C 1.746094 -0.234375 1.75 -0.277344 1.765625 -0.328125 C 1.777344 -0.375 1.792969 -0.425781 1.8125 -0.476562 Z "/>
</g>
<g id="glyph-0-3">
<path d="M 1.269531 0 C 1.089844 0 0.949219 -0.046875 0.855469 -0.136719 C 0.757812 -0.226562 0.710938 -0.359375 0.710938 -0.542969 C 0.710938 -0.640625 0.726562 -0.734375 0.757812 -0.816406 C 0.789062 -0.902344 0.835938 -0.976562 0.90625 -1.046875 L 2.976562 -3.191406 C 3.078125 -3.296875 3.1875 -3.417969 3.304688 -3.550781 C 3.421875 -3.683594 3.53125 -3.828125 3.636719 -3.976562 C 3.738281 -4.125 3.824219 -4.277344 3.890625 -4.4375 C 3.960938 -4.597656 3.996094 -4.753906 3.996094 -4.910156 C 3.996094 -5.128906 3.960938 -5.308594 3.890625 -5.457031 C 3.824219 -5.601562 3.730469 -5.71875 3.613281 -5.808594 C 3.492188 -5.898438 3.355469 -5.964844 3.191406 -6.003906 C 3.03125 -6.046875 2.855469 -6.066406 2.667969 -6.066406 C 2.421875 -6.066406 2.210938 -6.035156 2.039062 -5.976562 C 1.867188 -5.917969 1.703125 -5.84375 1.550781 -5.75 C 1.4375 -5.679688 1.328125 -5.667969 1.21875 -5.714844 C 1.109375 -5.761719 1.023438 -5.839844 0.960938 -5.945312 C 0.90625 -6.042969 0.894531 -6.148438 0.929688 -6.253906 C 0.964844 -6.359375 1.027344 -6.445312 1.121094 -6.515625 C 1.320312 -6.65625 1.542969 -6.757812 1.792969 -6.816406 C 2.042969 -6.875 2.34375 -6.90625 2.695312 -6.90625 C 2.988281 -6.90625 3.265625 -6.875 3.523438 -6.816406 C 3.78125 -6.757812 4.007812 -6.65625 4.199219 -6.515625 C 4.390625 -6.371094 4.546875 -6.179688 4.660156 -5.9375 C 4.777344 -5.695312 4.835938 -5.386719 4.835938 -5.011719 C 4.835938 -4.820312 4.804688 -4.625 4.742188 -4.429688 C 4.679688 -4.234375 4.597656 -4.039062 4.492188 -3.84375 C 4.390625 -3.652344 4.269531 -3.464844 4.128906 -3.285156 C 3.988281 -3.105469 3.84375 -2.929688 3.6875 -2.761719 L 2.035156 -1.007812 C 2.003906 -0.976562 1.996094 -0.941406 2.011719 -0.902344 C 2.027344 -0.859375 2.085938 -0.839844 2.191406 -0.839844 L 4.59375 -0.839844 C 4.734375 -0.839844 4.839844 -0.804688 4.910156 -0.738281 C 4.976562 -0.667969 5.011719 -0.5625 5.011719 -0.421875 C 5.011719 -0.277344 4.976562 -0.171875 4.910156 -0.101562 C 4.839844 -0.0351562 4.734375 0 4.59375 0 Z "/>
</g>
</g>
</defs>
<g fill="rgb(100%, 100%, 100%)" fill-opacity="1">
<use xlink:href="#glyph-0-0" x="30" y="29.519531"/>
<use xlink:href="#glyph-0-1" x="36" y="29.519531"/>
<use xlink:href="#glyph-0-0" x="42" y="29.519531"/>
<use xlink:href="#glyph-0-2" x="48" y="29.519531"/>
<use xlink:href="#glyph-0-3" x="54" y="29.519531"/>
</g>
</svg>
