<?xml version="1.0" encoding="UTF-8"?>
<svg xmlns="http://www.w3.org/2000/svg" xmlns:xlink="http://www.w3.org/1999/xlink" width="1280" height="720" viewBox="0 0 1280 720">
<defs>
<g>
<g id="glyph-0-0">
<path d="M 3.171875 0.125 C 4.921875 0.125 6.125 -1.125 6.125 -2.90625 C 6.125 -4.765625 4.90625 -6.015625 3.21875 -6.015625 C 1.515625 -6.015625 0.3125 -4.734375 0.3125 -2.9375 C 0.3125 -1.078125 1.609375 0.125 3.171875 0.125 Z M 5.109375 -2.921875 C 5.109375 -1.84375 4.734375 -0.203125 3.203125 -0.203125 C 1.703125 -0.203125 1.328125 -1.84375 1.328125 -2.921875 C 1.328125 -4.03125 1.6875 -5.6875 3.21875 -5.6875 C 4 -5.6875 5.109375 -5.125 5.109375 -2.921875 Z "/>
</g>
<g id="glyph-0-1">
<path d="M 4.265625 -0.4375 L 4.21875 -0.4375 C 3.8125 -0.4375 3.71875 -0.546875 3.71875 -0.953125 L 3.71875 -4 L 2.3125 -4 L 2.3125 -3.84375 C 2.859375 -3.828125 2.96875 -3.734375 2.96875 -3.296875 L 2.96875 -1.203125 C 2.96875 -0.53125 2.203125 -0.421875 2.015625 -0.421875 C 1.671875 -0.421875 1.390625 -0.734375 1.390625 -1.109375 L 1.390625 -4 L 0.09375 -4 L 0.09375 -3.875 C 0.515625 -3.84375 0.640625 -3.71875 0.640625 -3.3125 L 0.640625 -1.0625 C 0.640625 -0.359375 1.0625 0.09375 1.71875 0.09375 C 2.359375 0.09375 2.703125 -0.359375 3.015625 -0.671875 L 3.015625 0.0625 L 3.046875 0.078125 C 3.5 -0.09375 3.8125 -0.203125 4.265625 -0.3125 Z "/>
</g>
<g id="glyph-0-2">
<path d="M 2.296875 -4 L 1.40625 -4 L 1.40625 -5.03125 C 1.40625 -5.125 1.390625 -5.140625 1.34375 -5.140625 C 1.28125 -5.0625 1.234375 -4.984375 1.171875 -4.90625 C 0.375 -3.765625 0.15625 -3.953125 0.15625 -3.78125 C 0.15625 -3.75 0.15625 -3.734375 0.1875 -3.71875 L 0.65625 -3.71875 L 0.65625 -1.046875 C 0.65625 -0.296875 0.921875 0.09375 1.453125 0.09375 C 1.890625 0.09375 2.21875 -0.125 2.515625 -0.59375 L 2.40625 -0.6875 C 2.21875 -0.46875 2.0625 -0.375 1.859375 -0.375 C 1.53125 -0.375 1.40625 -0.609375 1.40625 -1.171875 L 1.40625 -3.71875 L 2.296875 -3.71875 Z "/>
</g>
<g id="glyph-0-3">
<path d="M 0.125 -3.5 C 0.203125 -3.5 0.265625 -3.5 0.34375 -3.5 C 0.65625 -3.5 0.71875 -3.40625 0.71875 -3 L 0.71875 1.171875 C 0.71875 1.625 0.609375 1.71875 0.09375 1.78125 L 0.09375 1.921875 L 2.234375 1.921875 L 2.234375 1.765625 C 1.578125 1.765625 1.453125 1.65625 1.453125 1.109375 L 1.453125 -0.296875 C 1.765625 0 1.984375 0.09375 2.359375 0.09375 C 3.40625 0.09375 4.21875 -0.90625 4.21875 -2.203125 C 4.21875 -3.296875 3.59375 -4.09375 2.734375 -4.09375 C 2.234375 -4.09375 1.84375 -3.875 1.453125 -3.390625 L 1.453125 -4.078125 L 1.40625 -4.09375 C 0.921875 -3.90625 0.609375 -3.78125 0.125 -3.640625 Z M 1.453125 -2.96875 C 1.453125 -3.234375 1.953125 -3.5625 2.359375 -3.5625 C 3.015625 -3.5625 3.453125 -2.875 3.453125 -1.84375 C 3.453125 -0.859375 3.015625 -0.203125 2.375 -0.203125 C 1.96875 -0.203125 1.453125 -0.515625 1.453125 -0.78125 Z "/>
</g>
<g id="glyph-0-4">
</g>
<g id="glyph-0-5">
<path d="M 4.8125 -4.28125 C 4.8125 -5.5625 3.4375 -5.890625 2.484375 -5.890625 L 0.140625 -5.890625 L 0.140625 -5.71875 C 0.796875 -5.640625 0.875 -5.5625 0.875 -4.921875 L 0.875 -1.0625 C 0.875 -0.3125 0.8125 -0.234375 0.140625 -0.171875 L 0.140625 0 L 2.625 0 L 2.625 -0.171875 C 1.921875 -0.203125 1.78125 -0.3125 1.78125 -0.96875 L 1.78125 -2.59375 C 2.015625 -2.5625 2.171875 -2.5625 2.40625 -2.5625 C 4.453125 -2.5625 4.8125 -3.59375 4.8125 -4.28125 Z M 1.78125 -5.25 C 1.78125 -5.5 1.84375 -5.5625 2.09375 -5.5625 C 3.296875 -5.5625 3.84375 -5.140625 3.84375 -4.21875 C 3.84375 -3.359375 3.3125 -2.921875 2.296875 -2.921875 C 2.109375 -2.921875 1.984375 -2.921875 1.78125 -2.9375 Z "/>
</g>
<g id="glyph-0-6">
<path d="M 2.1875 -4.09375 C 1.03125 -4.09375 0.21875 -3.234375 0.21875 -2.015625 C 0.21875 -0.8125 1.046875 0.09375 2.171875 0.09375 C 3.296875 0.09375 4.140625 -0.859375 4.140625 -2.078125 C 4.140625 -3.25 3.328125 -4.09375 2.1875 -4.09375 Z M 1.015625 -2.4375 C 1.015625 -3.296875 1.4375 -3.84375 2.078125 -3.84375 C 2.8125 -3.84375 3.34375 -2.984375 3.34375 -1.765625 C 3.34375 -0.765625 2.9375 -0.15625 2.28125 -0.15625 C 1.515625 -0.15625 1.015625 -1.203125 1.015625 -2.4375 Z "/>
</g>
<g id="glyph-0-7">
<path d="M 2.984375 -2.75 L 2.171875 -0.984375 L 1.296875 -3.3125 C 1.25 -3.390625 1.234375 -3.484375 1.234375 -3.578125 C 1.234375 -3.765625 1.34375 -3.828125 1.640625 -3.875 L 1.640625 -4 L 0.046875 -4 L 0.046875 -3.875 C 0.25 -3.84375 0.34375 -3.765625 0.515625 -3.3125 L 1.71875 -0.265625 C 1.828125 0 1.890625 0.125 1.953125 0.125 C 1.984375 0.125 2.0625 0.015625 2.171875 -0.21875 L 3.171875 -2.359375 L 3.96875 -0.265625 C 4.09375 0.078125 4.140625 0.125 4.1875 0.125 C 4.25 0.125 4.296875 0.046875 4.4375 -0.3125 L 5.65625 -3.390625 C 5.8125 -3.765625 5.84375 -3.8125 6.03125 -3.875 L 6.03125 -4 L 4.9375 -4 L 4.9375 -3.875 C 5.234375 -3.8125 5.328125 -3.75 5.328125 -3.59375 C 5.328125 -3.453125 5.265625 -3.25 5.171875 -3 L 4.375 -1.03125 L 3.625 -3.015625 C 3.46875 -3.4375 3.46875 -3.4375 3.46875 -3.546875 C 3.46875 -3.75 3.578125 -3.8125 3.984375 -3.875 L 3.984375 -4 L 2.1875 -4 L 2.1875 -3.875 C 2.5625 -3.828125 2.65625 -3.71875 2.984375 -2.75 Z "/>
</g>
<g id="glyph-0-8">
<path d="M 0.859375 -2.46875 L 3.59375 -2.46875 C 3.46875 -3.53125 3 -4.09375 2.078125 -4.09375 C 1 -4.09375 0.21875 -3.234375 0.21875 -1.90625 C 0.21875 -0.671875 0.859375 0.09375 1.890625 0.09375 C 2.734375 0.09375 3.390625 -0.4375 3.765625 -1.390625 L 3.625 -1.453125 C 3.203125 -0.78125 2.8125 -0.53125 2.25 -0.53125 C 1.671875 -0.53125 0.921875 -0.875 0.859375 -2.46875 Z M 0.875 -2.75 C 0.984375 -3.4375 1.28125 -3.765625 1.828125 -3.765625 C 2.359375 -3.765625 2.578125 -3.515625 2.6875 -2.75 Z "/>
</g>
<g id="glyph-0-9">
<path d="M 2.671875 -3.21875 C 2.890625 -3.21875 3.015625 -3.375 3.015625 -3.625 C 3.015625 -3.90625 2.84375 -4.09375 2.53125 -4.09375 C 2.15625 -4.09375 1.90625 -3.890625 1.46875 -3.25 L 1.46875 -4.078125 L 1.421875 -4.09375 C 0.953125 -3.890625 0.625 -3.78125 0.109375 -3.609375 L 0.109375 -3.46875 C 0.234375 -3.5 0.3125 -3.5 0.421875 -3.5 C 0.640625 -3.5 0.71875 -3.359375 0.71875 -2.96875 L 0.71875 -0.75 C 0.71875 -0.296875 0.65625 -0.234375 0.09375 -0.140625 L 0.09375 0 L 2.21875 0 L 2.21875 -0.140625 C 1.625 -0.15625 1.46875 -0.296875 1.46875 -0.796875 L 1.46875 -2.796875 C 1.46875 -3.078125 1.84375 -3.53125 2.09375 -3.53125 C 2.234375 -3.53125 2.4375 -3.21875 2.671875 -3.21875 Z "/>
</g>
<g id="glyph-0-10">
<path d="M 2.59375 1.578125 L 2.703125 1.4375 C 1.78125 0.71875 1.1875 0 1.1875 -2.265625 C 1.1875 -4.453125 1.78125 -5.125 2.703125 -5.875 L 2.625 -6.015625 C 1.890625 -5.53125 0.421875 -4.5 0.421875 -2.234375 C 0.421875 -0.09375 1.9375 1.171875 2.59375 1.578125 Z "/>
</g>
<g id="glyph-0-11">
<path d="M 3.046875 0.09375 L 4.34375 -0.375 L 4.34375 -0.515625 C 4.1875 -0.5 4.171875 -0.5 4.140625 -0.5 C 3.828125 -0.5 3.75 -0.609375 3.75 -1.015625 L 3.75 -6.046875 L 3.703125 -6.078125 C 3.28125 -5.921875 2.96875 -5.828125 2.40625 -5.6875 L 2.40625 -5.53125 C 2.46875 -5.546875 2.53125 -5.546875 2.59375 -5.546875 C 2.921875 -5.546875 3 -5.453125 3 -5.09375 L 3 -3.703125 C 2.671875 -3.984375 2.421875 -4.09375 2.078125 -4.09375 C 1.046875 -4.09375 0.21875 -3.078125 0.21875 -1.828125 C 0.21875 -0.6875 0.890625 0.09375 1.859375 0.09375 C 2.359375 0.09375 2.703125 -0.09375 3 -0.5 L 3 0.0625 Z M 2.21875 -0.375 C 1.46875 -0.375 0.984375 -1.078125 0.984375 -2.171875 C 0.984375 -3.1875 1.421875 -3.84375 2.09375 -3.84375 C 2.5625 -3.84375 3 -3.421875 3 -2.953125 L 3 -0.90625 C 3 -0.75 2.71875 -0.375 2.21875 -0.375 Z "/>
</g>
<g id="glyph-0-12">
<path d="M 5.25 -1.59375 C 5.25 -2.75 4.09375 -3 3.734375 -3.09375 C 4.046875 -3.171875 4.953125 -3.359375 4.953125 -4.375 C 4.953125 -5.375 4.15625 -5.890625 2.625 -5.890625 L 0.140625 -5.890625 L 0.140625 -5.71875 C 0.875 -5.671875 0.984375 -5.578125 0.984375 -4.921875 L 0.984375 -0.96875 C 0.984375 -0.3125 0.875 -0.203125 0.140625 -0.171875 L 0.140625 0 L 3.109375 0 C 4.828125 0 5.25 -0.953125 5.25 -1.59375 Z M 2.453125 -0.328125 C 2.015625 -0.328125 1.890625 -0.40625 1.890625 -0.6875 L 1.890625 -2.890625 C 3.078125 -2.890625 4.234375 -2.859375 4.234375 -1.59375 C 4.234375 -0.546875 3.421875 -0.328125 2.453125 -0.328125 Z M 1.890625 -3.25 L 1.890625 -5.296875 C 1.890625 -5.484375 1.953125 -5.5625 2.09375 -5.5625 L 2.484375 -5.5625 C 3.5 -5.5625 4.046875 -5.125 4.046875 -4.34375 C 4.046875 -3.640625 3.578125 -3.25 2.734375 -3.25 Z "/>
</g>
<g id="glyph-0-13">
<path d="M 0.109375 -3.53125 C 0.234375 -3.5625 0.296875 -3.578125 0.40625 -3.578125 C 0.625 -3.578125 0.71875 -3.4375 0.71875 -3 L 0.71875 -0.75 C 0.71875 -0.28125 0.59375 -0.140625 0.09375 -0.140625 L 0.09375 0 L 2.0625 0 L 2.0625 -0.140625 C 1.59375 -0.15625 1.453125 -0.25 1.453125 -0.59375 L 1.453125 -3.109375 C 1.734375 -3.515625 2.25 -3.625 2.5 -3.625 C 2.890625 -3.625 3.09375 -3.3125 3.09375 -2.6875 L 3.09375 -0.765625 C 3.09375 -0.265625 3 -0.171875 2.484375 -0.140625 L 2.484375 0 L 4.484375 0 L 4.484375 -0.140625 C 3.96875 -0.140625 3.84375 -0.296875 3.84375 -0.84375 L 3.84375 -3.078125 C 4.109375 -3.46875 4.40625 -3.625 4.8125 -3.625 C 5.3125 -3.625 5.484375 -3.390625 5.484375 -2.65625 L 5.484375 -0.78125 C 5.484375 -0.265625 5.40625 -0.203125 4.890625 -0.140625 L 4.890625 0 L 6.84375 0 L 6.84375 -0.140625 L 6.609375 -0.15625 C 6.34375 -0.171875 6.21875 -0.328125 6.21875 -0.671875 L 6.21875 -2.5 C 6.21875 -3.5625 5.875 -4.09375 5.1875 -4.09375 C 4.671875 -4.09375 4.21875 -3.859375 3.75 -3.34375 C 3.578125 -3.84375 3.28125 -4.09375 2.796875 -4.09375 C 2.40625 -4.09375 2.15625 -3.96875 1.421875 -3.40625 L 1.421875 -4.078125 L 1.359375 -4.09375 C 0.90625 -3.921875 0.609375 -3.828125 0.109375 -3.6875 Z "/>
</g>
<g id="glyph-0-14">
<path d="M 0.359375 -6.015625 L 0.265625 -5.875 C 1.171875 -5.140625 1.765625 -4.4375 1.765625 -2.171875 C 1.765625 0.015625 1.171875 0.6875 0.265625 1.4375 L 0.34375 1.578125 C 1.0625 1.109375 2.53125 0.0625 2.53125 -2.203125 C 2.53125 -4.34375 1.015625 -5.609375 0.359375 -6.015625 Z "/>
</g>
</g>
</defs>
<g fill="rgb(100%, 100%, 100%)" fill-opacity="1">
<use xlink:href="#glyph-0-0" x="30" y="28.000977"/>
<use xlink:href="#glyph-0-1" x="36" y="28.000977"/>
<use xlink:href="#glyph-0-2" x="40" y="28.000977"/>
<use xlink:href="#glyph-0-3" x="43" y="28.000977"/>
<use xlink:href="#glyph-0-1" x="47" y="28.000977"/>
<use xlink:href="#glyph-0-2" x="51" y="28.000977"/>
<use xlink:href="#glyph-0-4" x="54" y="28.000977"/>
<use xlink:href="#glyph-0-5" x="56" y="28.000977"/>
<use xlink:href="#glyph-0-6" x="61" y="28.000977"/>
<use xlink:href="#glyph-0-7" x="65" y="28.000977"/>
<use xlink:href="#glyph-0-8" x="71" y="28.000977"/>
<use xlink:href="#glyph-0-9" x="75" y="28.000977"/>
<use xlink:href="#glyph-0-4" x="78" y="28.000977"/>
<use xlink:href="#glyph-0-10" x="80" y="28.000977"/>
<use xlink:href="#glyph-0-11" x="83" y="28.000977"/>
<use xlink:href="#glyph-0-12" x="87" y="28.000977"/>
<use xlink:href="#glyph-0-13" x="93" y="28.000977"/>
<use xlink:href="#glyph-0-14" x="100" y="28.000977"/>
</g>
</svg>
