<?xml version="1.0" encoding="UTF-8"?>
<svg xmlns="http://www.w3.org/2000/svg" xmlns:xlink="http://www.w3.org/1999/xlink" width="1920" height="1080" viewBox="0 0 1920 1080">
<defs>
<g>
<g id="glyph-0-0">
<path d="M 1.8125 0 C 1.554688 0 1.359375 -0.0625 1.21875 -0.191406 C 1.082031 -0.320312 1.011719 -0.515625 1.011719 -0.773438 C 1.011719 -0.914062 1.035156 -1.046875 1.078125 -1.167969 C 1.125 -1.285156 1.195312 -1.394531 1.292969 -1.492188 L 4.253906 -4.558594 C 4.394531 -4.710938 4.550781 -4.882812 4.71875 -5.074219 C 4.886719 -5.265625 5.046875 -5.464844 5.191406 -5.679688 C 5.339844 -5.894531 5.460938 -6.113281 5.558594 -6.339844 C 5.65625 -6.566406 5.707031 -6.789062 5.707031 -7.011719 C 5.707031 -7.324219 5.65625 -7.585938 5.558594 -7.792969 C 5.460938 -8.003906 5.328125 -8.171875 5.160156 -8.300781 C 4.992188 -8.429688 4.789062 -8.523438 4.558594 -8.578125 C 4.328125 -8.636719 4.078125 -8.667969 3.8125 -8.667969 C 3.457031 -8.667969 3.15625 -8.625 2.914062 -8.539062 C 2.667969 -8.457031 2.433594 -8.347656 2.214844 -8.214844 C 2.054688 -8.117188 1.894531 -8.101562 1.738281 -8.167969 C 1.582031 -8.234375 1.460938 -8.34375 1.375 -8.492188 C 1.292969 -8.636719 1.277344 -8.78125 1.328125 -8.933594 C 1.375 -9.085938 1.464844 -9.207031 1.601562 -9.304688 C 1.886719 -9.511719 2.203125 -9.65625 2.558594 -9.738281 C 2.914062 -9.824219 3.347656 -9.867188 3.851562 -9.867188 C 4.269531 -9.867188 4.664062 -9.824219 5.035156 -9.738281 C 5.402344 -9.65625 5.722656 -9.511719 6 -9.304688 C 6.277344 -9.101562 6.496094 -8.828125 6.660156 -8.480469 C 6.824219 -8.132812 6.90625 -7.691406 6.90625 -7.160156 C 6.90625 -6.882812 6.863281 -6.605469 6.773438 -6.328125 C 6.683594 -6.046875 6.566406 -5.769531 6.417969 -5.492188 C 6.273438 -5.21875 6.101562 -4.949219 5.898438 -4.691406 C 5.699219 -4.433594 5.488281 -4.1875 5.265625 -3.945312 L 2.90625 -1.441406 C 2.863281 -1.394531 2.851562 -1.34375 2.875 -1.285156 C 2.894531 -1.226562 2.980469 -1.199219 3.132812 -1.199219 L 6.558594 -1.199219 C 6.765625 -1.199219 6.914062 -1.152344 7.011719 -1.054688 C 7.109375 -0.957031 7.160156 -0.804688 7.160156 -0.601562 C 7.160156 -0.394531 7.109375 -0.246094 7.011719 -0.148438 C 6.914062 -0.0507812 6.765625 0 6.558594 0 Z "/>
</g>
<g id="glyph-0-1">
<path d="M 2.867188 -1 C 2.867188 -1.3125 2.976562 -1.578125 3.199219 -1.800781 C 3.421875 -2.023438 3.6875 -2.132812 4 -2.132812 C 4.3125 -2.132812 4.578125 -2.023438 4.800781 -1.800781 C 5.023438 -1.578125 5.132812 -1.3125 5.132812 -1 C 5.132812 -0.6875 5.023438 -0.421875 4.800781 -0.199219 C 4.578125 0.0234375 4.3125 0.132812 4 0.132812 C 3.6875 0.132812 3.421875 0.0234375 3.199219 -0.199219 C 2.976562 -0.421875 2.867188 -0.6875 2.867188 -1 Z "/>
</g>
<g id="glyph-0-2">
<path d="M 4.054688 -9.480469 C 4.203125 -9.59375 4.34375 -9.6875 4.464844 -9.757812 C 4.589844 -9.832031 4.738281 -9.867188 4.90625 -9.867188 C 5.03125 -9.867188 5.132812 -9.839844 5.214844 -9.785156 C 5.292969 -9.734375 5.347656 -9.667969 5.375 -9.585938 C 5.402344 -9.507812 5.398438 -9.421875 5.367188 -9.332031 C 5.335938 -9.242188 5.269531 -9.164062 5.171875 -9.09375 C 4.390625 -8.496094 3.75 -7.863281 3.246094 -7.191406 C 2.746094 -6.519531 2.367188 -5.777344 2.121094 -4.960938 C 2.46875 -5.324219 2.832031 -5.589844 3.214844 -5.753906 C 3.597656 -5.917969 4.03125 -6 4.519531 -6 C 4.957031 -6 5.335938 -5.925781 5.667969 -5.78125 C 5.996094 -5.632812 6.269531 -5.425781 6.488281 -5.160156 C 6.703125 -4.894531 6.867188 -4.578125 6.980469 -4.214844 C 7.089844 -3.847656 7.148438 -3.453125 7.148438 -3.027344 C 7.148438 -2.527344 7.070312 -2.085938 6.917969 -1.691406 C 6.769531 -1.300781 6.554688 -0.972656 6.28125 -0.699219 C 6.003906 -0.429688 5.675781 -0.222656 5.292969 -0.078125 C 4.910156 0.0625 4.484375 0.132812 4.011719 0.132812 C 3.550781 0.132812 3.125 0.0625 2.738281 -0.0742188 C 2.351562 -0.210938 2.019531 -0.410156 1.738281 -0.671875 C 1.460938 -0.933594 1.242188 -1.261719 1.085938 -1.648438 C 0.929688 -2.035156 0.851562 -2.476562 0.851562 -2.972656 C 0.851562 -3.453125 0.882812 -3.914062 0.945312 -4.359375 C 1.007812 -4.804688 1.121094 -5.25 1.28125 -5.691406 C 1.527344 -6.386719 1.878906 -7.058594 2.328125 -7.707031 C 2.777344 -8.355469 3.351562 -8.945312 4.054688 -9.480469 Z M 4 -1.066406 C 4.285156 -1.066406 4.546875 -1.117188 4.785156 -1.214844 C 5.027344 -1.3125 5.234375 -1.445312 5.40625 -1.621094 C 5.578125 -1.792969 5.714844 -1.996094 5.804688 -2.234375 C 5.898438 -2.46875 5.945312 -2.722656 5.945312 -3 C 5.945312 -3.277344 5.898438 -3.53125 5.804688 -3.765625 C 5.710938 -4 5.578125 -4.207031 5.40625 -4.378906 C 5.234375 -4.554688 5.027344 -4.6875 4.785156 -4.785156 C 4.546875 -4.882812 4.285156 -4.933594 4 -4.933594 C 3.714844 -4.933594 3.453125 -4.882812 3.214844 -4.785156 C 2.972656 -4.6875 2.765625 -4.554688 2.59375 -4.378906 C 2.421875 -4.207031 2.285156 -4.003906 2.191406 -3.765625 C 2.097656 -3.53125 2.054688 -3.277344 2.054688 -3 C 2.054688 -2.722656 2.101562 -2.46875 2.191406 -2.234375 C 2.285156 -2 2.421875 -1.792969 2.59375 -1.621094 C 2.765625 -1.445312 2.972656 -1.3125 3.214844 -1.214844 C 3.453125 -1.117188 3.714844 -1.066406 4 -1.066406 Z "/>
</g>
<g id="glyph-0-3">
<path d="M 5.53125 -8.039062 C 5.550781 -8.085938 5.5625 -8.125 5.574219 -8.167969 C 5.582031 -8.207031 5.585938 -8.246094 5.585938 -8.28125 C 5.585938 -8.371094 5.554688 -8.433594 5.492188 -8.472656 C 5.429688 -8.511719 5.332031 -8.53125 5.199219 -8.53125 L 1.425781 -8.53125 C 1.222656 -8.53125 1.070312 -8.582031 0.972656 -8.679688 C 0.875 -8.777344 0.828125 -8.929688 0.828125 -9.132812 C 0.828125 -9.335938 0.875 -9.488281 0.972656 -9.585938 C 1.070312 -9.683594 1.222656 -9.734375 1.425781 -9.734375 L 6.054688 -9.734375 C 6.375 -9.734375 6.613281 -9.65625 6.773438 -9.5 C 6.933594 -9.34375 7.011719 -9.121094 7.011719 -8.828125 C 7.011719 -8.71875 7.003906 -8.625 6.988281 -8.539062 C 6.96875 -8.457031 6.945312 -8.378906 6.917969 -8.304688 L 3.734375 -0.265625 C 3.679688 -0.132812 3.601562 -0.0351562 3.492188 0.0351562 C 3.386719 0.101562 3.246094 0.132812 3.066406 0.132812 C 2.878906 0.132812 2.738281 0.101562 2.640625 0.0351562 C 2.542969 -0.03125 2.492188 -0.136719 2.492188 -0.28125 C 2.492188 -0.332031 2.503906 -0.394531 2.519531 -0.464844 C 2.539062 -0.539062 2.558594 -0.609375 2.585938 -0.679688 Z "/>
</g>
<g id="glyph-0-4">
<rect x="0" y="0" width="0" height="0" mask="url(#mask-0)"/>
</g>
<g id="glyph-0-5">
<path d="M 0.492188 -9.132812 C 0.476562 -9.382812 0.515625 -9.566406 0.613281 -9.6875 C 0.710938 -9.808594 0.875 -9.867188 1.105469 -9.867188 C 1.292969 -9.867188 1.433594 -9.816406 1.527344 -9.714844 C 1.621094 -9.613281 1.675781 -9.476562 1.691406 -9.304688 L 2.265625 -1.332031 L 3.253906 -6.839844 C 3.296875 -7.054688 3.378906 -7.210938 3.5 -7.3125 C 3.621094 -7.414062 3.785156 -7.464844 4 -7.464844 C 4.214844 -7.464844 4.378906 -7.414062 4.5 -7.3125 C 4.621094 -7.210938 4.703125 -7.054688 4.746094 -6.839844 L 5.734375 -1.332031 L 6.304688 -9.304688 C 6.324219 -9.476562 6.378906 -9.609375 6.472656 -9.714844 C 6.566406 -9.816406 6.707031 -9.867188 6.894531 -9.867188 C 7.125 -9.867188 7.289062 -9.804688 7.386719 -9.6875 C 7.484375 -9.566406 7.523438 -9.382812 7.507812 -9.132812 L 6.71875 -0.667969 C 6.691406 -0.402344 6.605469 -0.199219 6.453125 -0.0664062 C 6.300781 0.0664062 6.089844 0.132812 5.8125 0.132812 C 5.539062 0.132812 5.320312 0.0664062 5.167969 -0.0664062 C 5.011719 -0.199219 4.910156 -0.398438 4.867188 -0.667969 L 4 -5.734375 L 3.132812 -0.679688 C 3.089844 -0.40625 2.988281 -0.199219 2.832031 -0.0664062 C 2.675781 0.0664062 2.460938 0.132812 2.1875 0.132812 C 1.910156 0.132812 1.695312 0.0664062 1.539062 -0.0664062 C 1.382812 -0.199219 1.292969 -0.40625 1.265625 -0.679688 Z "/>
</g>
</g>
<image id="source-9" x="0" y="0" width="0" height="0"/>
<mask id="mask-0">
<use xlink:href="#source-9"/>
</mask>
</defs>
<g fill="rgb(100%, 100%, 100%)" fill-opacity="1">
<use xlink:href="#glyph-0-0" x="30" y="33.599609"/>
<use xlink:href="#glyph-0-1" x="38" y="33.599609"/>
<use xlink:href="#glyph-0-2" x="46" y="33.599609"/>
<use xlink:href="#glyph-0-3" x="54" y="33.599609"/>
<use xlink:href="#glyph-0-4" x="62" y="33.599609"/>
<use xlink:href="#glyph-0-5" x="70" y="33.599609"/>
</g>
</svg>
