<?xml version="1.0" encoding="UTF-8"?>
<svg xmlns="http://www.w3.org/2000/svg" xmlns:xlink="http://www.w3.org/1999/xlink" width="1920" height="1080" viewBox="0 0 1920 1080">
<defs>
<g>
<g id="glyph-0-0">
<path d="M 4.765625 -2.578125 C 4.765625 -1.3125 3.9375 -0.3125 2.90625 -0.3125 C 2.203125 -0.3125 1.75 -1.140625 1 -1.140625 C 0.609375 -1.140625 0.421875 -0.96875 0.421875 -0.640625 C 0.421875 -0.140625 1.046875 0.1875 2.046875 0.1875 C 3.46875 0.1875 5.6875 -0.5 5.6875 -3.21875 C 5.6875 -5.296875 4.328125 -6.203125 1.859375 -6.640625 L 2.40625 -7.765625 L 5.03125 -7.765625 C 5.234375 -7.765625 5.296875 -7.796875 5.328125 -7.890625 L 5.84375 -9.078125 L 5.71875 -9.171875 C 5.515625 -8.890625 5.390625 -8.828125 5.109375 -8.828125 L 2.3125 -8.828125 L 0.859375 -5.671875 C 0.859375 -5.640625 0.859375 -5.625 0.859375 -5.59375 C 0.859375 -5.53125 0.90625 -5.484375 1.015625 -5.484375 C 1.84375 -5.484375 4.765625 -5.0625 4.765625 -2.578125 Z "/>
</g>
<g id="glyph-0-1">
<path d="M 1.078125 -1.046875 C 0.765625 -1.046875 0.578125 -0.859375 0.578125 -0.578125 C 0.578125 -0.109375 1.140625 0.1875 2.078125 0.1875 C 4.140625 0.1875 5.75 -1 5.75 -2.921875 C 5.75 -4.375 4.9375 -4.953125 4.046875 -5.34375 C 4.96875 -5.96875 5.296875 -6.46875 5.296875 -7.1875 C 5.296875 -8.265625 4.453125 -9.015625 3.21875 -9.015625 C 1.59375 -9.015625 0.953125 -7.84375 0.59375 -6.84375 L 0.796875 -6.796875 C 1.34375 -7.765625 1.953125 -8.203125 2.78125 -8.203125 C 3.65625 -8.203125 4.25 -7.625 4.25 -6.78125 C 4.25 -5.453125 3.03125 -4.921875 2.046875 -4.578125 L 2.046875 -4.390625 C 3.171875 -4.390625 4.796875 -4.109375 4.796875 -2.28125 C 4.796875 -1.15625 4.03125 -0.296875 3.046875 -0.296875 C 2.203125 -0.296875 1.734375 -1.046875 1.078125 -1.046875 Z "/>
</g>
</g>
</defs>
<g fill="rgb(100%, 100%, 100%)" fill-opacity="1">
<use xlink:href="#glyph-0-0" x="30" y="32"/>
<use xlink:href="#glyph-0-1" x="37" y="32"/>
</g>
</svg>
