<?xml version="1.0" encoding="UTF-8"?>
<svg xmlns="http://www.w3.org/2000/svg" xmlns:xlink="http://www.w3.org/1999/xlink" width="854" height="480" viewBox="0 0 854 480">
<defs>
<g>
<g id="glyph-0-0">
<path d="M 0.640625 0.390625 L 0.671875 0.359375 C 0.453125 0.171875 0.296875 0 0.296875 -0.5625 C 0.296875 -1.109375 0.453125 -1.28125 0.671875 -1.46875 L 0.65625 -1.5 C 0.46875 -1.375 0.109375 -1.125 0.109375 -0.5625 C 0.109375 -0.03125 0.484375 0.296875 0.640625 0.390625 Z "/>
</g>
<g id="glyph-0-1">
<path d="M 0.84375 -0.296875 C 0.84375 -0.15625 0.734375 -0.046875 0.5625 -0.046875 C 0.375 -0.046875 0.234375 -0.171875 0.125 -0.4375 L 0.0625 -0.4375 L 0.140625 0.03125 L 0.1875 0.03125 C 0.1875 -0.015625 0.203125 -0.046875 0.25 -0.046875 C 0.328125 -0.046875 0.421875 0.03125 0.609375 0.03125 C 0.859375 0.03125 1.0625 -0.140625 1.0625 -0.375 C 1.0625 -0.546875 0.9375 -0.703125 0.640625 -0.859375 C 0.421875 -0.984375 0.328125 -1.078125 0.328125 -1.203125 C 0.328125 -1.328125 0.421875 -1.40625 0.546875 -1.40625 C 0.71875 -1.40625 0.890625 -1.296875 0.953125 -1.03125 L 1.015625 -1.03125 L 0.96875 -1.5 L 0.921875 -1.5 C 0.90625 -1.453125 0.890625 -1.421875 0.84375 -1.421875 C 0.78125 -1.421875 0.671875 -1.5 0.515625 -1.5 C 0.3125 -1.5 0.125 -1.359375 0.125 -1.125 C 0.125 -0.671875 0.84375 -0.671875 0.84375 -0.296875 Z "/>
</g>
<g id="glyph-0-2">
<path d="M 0.578125 -1 L 0.34375 -1 L 0.34375 -1.25 C 0.34375 -1.28125 0.34375 -1.28125 0.328125 -1.28125 C 0.3125 -1.265625 0.3125 -1.25 0.296875 -1.21875 C 0.09375 -0.9375 0.03125 -0.984375 0.03125 -0.9375 C 0.03125 -0.9375 0.046875 -0.9375 0.046875 -0.921875 L 0.171875 -0.921875 L 0.171875 -0.265625 C 0.171875 -0.078125 0.234375 0.015625 0.359375 0.015625 C 0.46875 0.015625 0.546875 -0.03125 0.625 -0.140625 L 0.59375 -0.171875 C 0.546875 -0.109375 0.515625 -0.09375 0.46875 -0.09375 C 0.390625 -0.09375 0.34375 -0.15625 0.34375 -0.296875 L 0.34375 -0.921875 L 0.578125 -0.921875 Z "/>
</g>
<g id="glyph-0-3">
<path d="M 0.21875 -0.609375 L 0.90625 -0.609375 C 0.859375 -0.890625 0.75 -1.015625 0.515625 -1.015625 C 0.25 -1.015625 0.0625 -0.8125 0.0625 -0.46875 C 0.0625 -0.171875 0.21875 0.015625 0.46875 0.015625 C 0.6875 0.015625 0.84375 -0.109375 0.9375 -0.34375 L 0.90625 -0.359375 C 0.796875 -0.1875 0.703125 -0.125 0.5625 -0.125 C 0.421875 -0.125 0.234375 -0.21875 0.21875 -0.609375 Z M 0.21875 -0.6875 C 0.25 -0.859375 0.3125 -0.9375 0.453125 -0.9375 C 0.59375 -0.9375 0.640625 -0.875 0.671875 -0.6875 Z "/>
</g>
<g id="glyph-0-4">
<path d="M 0.0625 -0.21875 C 0.0625 -0.078125 0.15625 0.015625 0.28125 0.015625 C 0.390625 0.015625 0.484375 -0.03125 0.609375 -0.140625 C 0.625 -0.03125 0.65625 0.015625 0.75 0.015625 C 0.828125 0.015625 0.875 0 0.953125 -0.09375 L 0.953125 -0.140625 C 0.921875 -0.109375 0.890625 -0.109375 0.859375 -0.109375 C 0.8125 -0.109375 0.796875 -0.140625 0.796875 -0.234375 L 0.796875 -0.671875 C 0.796875 -0.890625 0.734375 -1.015625 0.46875 -1.015625 C 0.265625 -1.015625 0.09375 -0.90625 0.09375 -0.765625 C 0.09375 -0.71875 0.140625 -0.671875 0.1875 -0.671875 C 0.25 -0.671875 0.296875 -0.71875 0.296875 -0.765625 C 0.296875 -0.796875 0.28125 -0.828125 0.28125 -0.859375 C 0.28125 -0.921875 0.359375 -0.96875 0.4375 -0.96875 C 0.546875 -0.96875 0.609375 -0.90625 0.609375 -0.78125 L 0.609375 -0.640625 C 0.328125 -0.53125 0.0625 -0.453125 0.0625 -0.21875 Z M 0.609375 -0.265625 C 0.609375 -0.203125 0.59375 -0.1875 0.546875 -0.15625 C 0.5 -0.125 0.4375 -0.109375 0.390625 -0.109375 C 0.328125 -0.109375 0.25 -0.15625 0.25 -0.28125 C 0.25 -0.421875 0.34375 -0.5 0.609375 -0.59375 Z "/>
</g>
<g id="glyph-0-5">
<path d="M 0.015625 -1.375 C 0.046875 -1.390625 0.078125 -1.390625 0.109375 -1.390625 C 0.171875 -1.390625 0.203125 -1.359375 0.203125 -1.25 L 0.203125 -0.1875 C 0.203125 -0.078125 0.171875 -0.046875 0.03125 -0.03125 L 0.03125 0 L 0.546875 0 L 0.546875 -0.03125 C 0.40625 -0.046875 0.390625 -0.0625 0.390625 -0.1875 L 0.390625 -1.515625 L 0.375 -1.515625 C 0.265625 -1.484375 0.171875 -1.453125 0.015625 -1.421875 Z "/>
</g>
<g id="glyph-0-6">
<path d="M 0.34375 -0.765625 C 0.4375 -0.859375 0.515625 -0.90625 0.59375 -0.90625 C 0.703125 -0.90625 0.765625 -0.828125 0.765625 -0.671875 L 0.765625 -0.21875 C 0.765625 -0.078125 0.734375 -0.046875 0.609375 -0.03125 L 0.609375 0 L 1.078125 0 L 1.078125 -0.03125 C 0.96875 -0.0625 0.953125 -0.078125 0.953125 -0.21875 L 0.953125 -0.671875 C 0.953125 -0.90625 0.859375 -1.015625 0.671875 -1.015625 C 0.546875 -1.015625 0.453125 -0.96875 0.34375 -0.828125 L 0.34375 -1.515625 C 0.21875 -1.46875 0.15625 -1.453125 0.03125 -1.421875 L 0.03125 -1.375 C 0.03125 -1.390625 0.046875 -1.390625 0.0625 -1.390625 C 0.15625 -1.390625 0.171875 -1.359375 0.171875 -1.265625 L 0.171875 -0.21875 C 0.171875 -0.078125 0.15625 -0.046875 0.015625 -0.03125 L 0.015625 0 L 0.5 0 L 0.5 -0.03125 C 0.375 -0.046875 0.34375 -0.078125 0.34375 -0.21875 Z "/>
</g>
<g id="glyph-0-7">
<path d="M 0.09375 -1.5 L 0.0625 -1.46875 C 0.296875 -1.28125 0.4375 -1.109375 0.4375 -0.546875 C 0.4375 0 0.296875 0.171875 0.0625 0.359375 L 0.078125 0.390625 C 0.265625 0.28125 0.625 0.015625 0.625 -0.546875 C 0.625 -1.078125 0.25 -1.40625 0.09375 -1.5 Z "/>
</g>
</g>
</defs>
<g fill="rgb(100%, 100%, 100%)" fill-opacity="1">
<use xlink:href="#glyph-0-0" x="30" y="22"/>
<use xlink:href="#glyph-0-1" x="31" y="22"/>
<use xlink:href="#glyph-0-2" x="32" y="22"/>
<use xlink:href="#glyph-0-3" x="33" y="22"/>
<use xlink:href="#glyph-0-4" x="34" y="22"/>
<use xlink:href="#glyph-0-5" x="35" y="22"/>
<use xlink:href="#glyph-0-2" x="36" y="22"/>
<use xlink:href="#glyph-0-6" x="37" y="22"/>
<use xlink:href="#glyph-0-7" x="38" y="22"/>
</g>
</svg>
