<?xml version="1.0" encoding="UTF-8"?>
<svg xmlns="http://www.w3.org/2000/svg" xmlns:xlink="http://www.w3.org/1999/xlink" width="1920" height="1080" viewBox="0 0 1920 1080">
<defs>
<g>
<g id="glyph-0-0">
<path d="M 0.890625 -0.328125 L 0.890625 0 L 0.703125 0 L 0.703125 -0.328125 L 0.046875 -0.328125 L 0.046875 -0.46875 L 0.765625 -1.484375 L 0.890625 -1.484375 L 0.890625 -0.484375 L 1.09375 -0.484375 L 1.09375 -0.328125 Z M 0.703125 -1.21875 L 0.171875 -0.484375 L 0.703125 -0.484375 Z "/>
</g>
<g id="glyph-0-1">
<path d="M 1.046875 -0.75 C 1.046875 -0.238281 0.882812 0.015625 0.5625 0.015625 C 0.40625 0.015625 0.285156 -0.046875 0.203125 -0.171875 C 0.117188 -0.304688 0.078125 -0.5 0.078125 -0.75 C 0.078125 -0.988281 0.117188 -1.171875 0.203125 -1.296875 C 0.285156 -1.429688 0.40625 -1.5 0.5625 -1.5 C 0.71875 -1.5 0.835938 -1.429688 0.921875 -1.296875 C 1.003906 -1.171875 1.046875 -0.988281 1.046875 -0.75 Z M 0.84375 -0.75 C 0.84375 -0.976562 0.816406 -1.144531 0.765625 -1.25 C 0.722656 -1.351562 0.65625 -1.40625 0.5625 -1.40625 C 0.457031 -1.40625 0.382812 -1.351562 0.34375 -1.25 C 0.300781 -1.15625 0.28125 -0.988281 0.28125 -0.75 C 0.28125 -0.5 0.300781 -0.320312 0.34375 -0.21875 C 0.394531 -0.113281 0.46875 -0.0625 0.5625 -0.0625 C 0.65625 -0.0625 0.722656 -0.113281 0.765625 -0.21875 C 0.816406 -0.332031 0.84375 -0.507812 0.84375 -0.75 Z "/>
</g>
<g id="glyph-0-2">
</g>
<g id="glyph-0-3">
<path d="M 0.953125 0 L 0.90625 0 L 0.375 -1.265625 L 0.375 -0.09375 L 0.5625 -0.0625 L 0.5625 0 L 0.0625 0 L 0.0625 -0.0625 L 0.25 -0.09375 L 0.25 -1.390625 L 0.0625 -1.421875 L 0.0625 -1.46875 L 0.515625 -1.46875 L 0.984375 -0.359375 L 1.515625 -1.46875 L 1.9375 -1.46875 L 1.9375 -1.421875 L 1.75 -1.390625 L 1.75 -0.09375 L 1.9375 -0.0625 L 1.9375 0 L 1.34375 0 L 1.34375 -0.0625 L 1.53125 -0.09375 L 1.53125 -1.265625 Z "/>
</g>
<g id="glyph-0-4">
<path d="M 0.0625 0 L 0.0625 -0.0625 L 0.25 -0.09375 L 0.25 -1.390625 L 0.0625 -1.421875 L 0.0625 -1.46875 L 0.65625 -1.46875 L 0.65625 -1.421875 L 0.46875 -1.390625 L 0.46875 -0.8125 L 1.15625 -0.8125 L 1.15625 -1.390625 L 0.96875 -1.421875 L 0.96875 -1.46875 L 1.5625 -1.46875 L 1.5625 -1.421875 L 1.375 -1.390625 L 1.375 -0.09375 L 1.5625 -0.0625 L 1.5625 0 L 0.96875 0 L 0.96875 -0.0625 L 1.15625 -0.09375 L 1.15625 -0.703125 L 0.46875 -0.703125 L 0.46875 -0.09375 L 0.65625 -0.0625 L 0.65625 0 Z "/>
</g>
<g id="glyph-0-5">
<path d="M 0.109375 -0.109375 L 0.9375 -1.375 L 0.65625 -1.375 C 0.476562 -1.375 0.351562 -1.367188 0.28125 -1.359375 L 0.25 -1.125 L 0.171875 -1.125 L 0.171875 -1.46875 L 1.171875 -1.46875 L 1.171875 -1.375 L 0.34375 -0.09375 L 0.671875 -0.09375 C 0.753906 -0.09375 0.835938 -0.09375 0.921875 -0.09375 C 1.015625 -0.101562 1.078125 -0.113281 1.109375 -0.125 L 1.171875 -0.40625 L 1.25 -0.40625 L 1.21875 0 L 0.109375 0 Z "/>
</g>
<g id="glyph-0-6">
<path d="M 0.3125 -0.546875 C 0.3125 -0.347656 0.320312 -0.191406 0.34375 -0.078125 C 0.375 0.0234375 0.414062 0.113281 0.46875 0.1875 C 0.519531 0.269531 0.585938 0.335938 0.671875 0.390625 L 0.671875 0.484375 C 0.523438 0.398438 0.410156 0.3125 0.328125 0.21875 C 0.253906 0.132812 0.195312 0.03125 0.15625 -0.09375 C 0.113281 -0.21875 0.09375 -0.367188 0.09375 -0.546875 C 0.09375 -0.710938 0.113281 -0.859375 0.15625 -0.984375 C 0.195312 -1.109375 0.253906 -1.210938 0.328125 -1.296875 C 0.410156 -1.390625 0.523438 -1.476562 0.671875 -1.5625 L 0.671875 -1.46875 C 0.585938 -1.414062 0.519531 -1.347656 0.46875 -1.265625 C 0.414062 -1.191406 0.375 -1.097656 0.34375 -0.984375 C 0.320312 -0.878906 0.3125 -0.734375 0.3125 -0.546875 Z "/>
</g>
<g id="glyph-0-7">
<path d="M 0.6875 -1.421875 L 0.46875 -1.390625 L 0.46875 -0.09375 L 0.75 -0.09375 C 0.90625 -0.09375 1.019531 -0.0976562 1.09375 -0.109375 L 1.171875 -0.421875 L 1.234375 -0.421875 L 1.21875 0 L 0.0625 0 L 0.0625 -0.0625 L 0.25 -0.09375 L 0.25 -1.390625 L 0.0625 -1.421875 L 0.0625 -1.46875 L 0.6875 -1.46875 Z "/>
</g>
<g id="glyph-0-8">
<path d="M 0.328125 -0.734375 C 0.328125 -0.503906 0.363281 -0.332031 0.4375 -0.21875 C 0.519531 -0.113281 0.644531 -0.0625 0.8125 -0.0625 C 0.976562 -0.0625 1.097656 -0.113281 1.171875 -0.21875 C 1.253906 -0.332031 1.296875 -0.503906 1.296875 -0.734375 C 1.296875 -0.972656 1.253906 -1.144531 1.171875 -1.25 C 1.097656 -1.351562 0.976562 -1.40625 0.8125 -1.40625 C 0.644531 -1.40625 0.519531 -1.351562 0.4375 -1.25 C 0.363281 -1.144531 0.328125 -0.972656 0.328125 -0.734375 Z M 0.09375 -0.734375 C 0.09375 -1.234375 0.332031 -1.484375 0.8125 -1.484375 C 1.050781 -1.484375 1.226562 -1.421875 1.34375 -1.296875 C 1.46875 -1.171875 1.53125 -0.984375 1.53125 -0.734375 C 1.53125 -0.484375 1.46875 -0.296875 1.34375 -0.171875 C 1.21875 -0.046875 1.039062 0.015625 0.8125 0.015625 C 0.582031 0.015625 0.40625 -0.046875 0.28125 -0.171875 C 0.15625 -0.296875 0.09375 -0.484375 0.09375 -0.734375 Z "/>
</g>
<g id="glyph-0-9">
<path d="M 0.078125 0.484375 L 0.078125 0.390625 C 0.160156 0.335938 0.226562 0.269531 0.28125 0.1875 C 0.332031 0.113281 0.367188 0.0195312 0.390625 -0.09375 C 0.421875 -0.207031 0.4375 -0.359375 0.4375 -0.546875 C 0.4375 -0.734375 0.421875 -0.878906 0.390625 -0.984375 C 0.367188 -1.097656 0.332031 -1.191406 0.28125 -1.265625 C 0.226562 -1.347656 0.160156 -1.414062 0.078125 -1.46875 L 0.078125 -1.5625 C 0.222656 -1.476562 0.332031 -1.390625 0.40625 -1.296875 C 0.488281 -1.210938 0.550781 -1.109375 0.59375 -0.984375 C 0.632812 -0.859375 0.65625 -0.710938 0.65625 -0.546875 C 0.65625 -0.367188 0.632812 -0.21875 0.59375 -0.09375 C 0.550781 0.03125 0.488281 0.132812 0.40625 0.21875 C 0.332031 0.3125 0.222656 0.398438 0.078125 0.484375 Z "/>
</g>
</g>
</defs>
<g fill="rgb(100%, 100%, 100%)" fill-opacity="1">
<use xlink:href="#glyph-0-0" x="30" y="22.009766"/>
<use xlink:href="#glyph-0-1" x="31" y="22.009766"/>
<use xlink:href="#glyph-0-2" x="32" y="22.009766"/>
<use xlink:href="#glyph-0-3" x="33" y="22.009766"/>
<use xlink:href="#glyph-0-4" x="35" y="22.009766"/>
<use xlink:href="#glyph-0-5" x="37" y="22.009766"/>
<use xlink:href="#glyph-0-2" x="38" y="22.009766"/>
<use xlink:href="#glyph-0-6" x="39" y="22.009766"/>
<use xlink:href="#glyph-0-7" x="40" y="22.009766"/>
<use xlink:href="#glyph-0-8" x="41" y="22.009766"/>
<use xlink:href="#glyph-0-9" x="43" y="22.009766"/>
</g>
</svg>
