<?xml version="1.0" encoding="UTF-8"?>
<svg xmlns="http://www.w3.org/2000/svg" xmlns:xlink="http://www.w3.org/1999/xlink" width="1920" height="1080" viewBox="0 0 1920 1080">
<defs>
<g>
<g id="glyph-0-0">
<path d="M 2.066406 -0.265625 C 1.996094 -0.132812 1.910156 -0.0351562 1.804688 0.0351562 C 1.703125 0.101562 1.578125 0.132812 1.425781 0.132812 C 1.328125 0.132812 1.234375 0.117188 1.148438 0.0859375 C 1.058594 0.0546875 0.988281 0.0078125 0.933594 -0.0585938 C 0.878906 -0.125 0.851562 -0.207031 0.851562 -0.300781 C 0.851562 -0.394531 0.890625 -0.507812 0.960938 -0.640625 L 3.347656 -4.988281 L 1.09375 -9.09375 C 1.023438 -9.21875 0.988281 -9.328125 0.992188 -9.425781 C 0.996094 -9.523438 1.027344 -9.605469 1.078125 -9.671875 C 1.132812 -9.738281 1.203125 -9.789062 1.292969 -9.820312 C 1.382812 -9.851562 1.480469 -9.867188 1.585938 -9.867188 C 1.71875 -9.867188 1.835938 -9.835938 1.941406 -9.773438 C 2.042969 -9.710938 2.128906 -9.613281 2.199219 -9.480469 L 4 -6.199219 L 5.800781 -9.480469 C 5.871094 -9.613281 5.957031 -9.710938 6.058594 -9.773438 C 6.160156 -9.835938 6.285156 -9.867188 6.425781 -9.867188 C 6.523438 -9.867188 6.617188 -9.851562 6.707031 -9.820312 C 6.796875 -9.789062 6.867188 -9.738281 6.917969 -9.671875 C 6.972656 -9.605469 7 -9.527344 7 -9.433594 C 7 -9.339844 6.964844 -9.226562 6.894531 -9.09375 L 4.652344 -5 L 7.039062 -0.652344 C 7.109375 -0.519531 7.148438 -0.40625 7.148438 -0.308594 C 7.148438 -0.210938 7.121094 -0.125 7.066406 -0.0585938 C 7.011719 0.0078125 6.941406 0.0546875 6.851562 0.0859375 C 6.765625 0.117188 6.671875 0.132812 6.574219 0.132812 C 6.421875 0.132812 6.296875 0.101562 6.191406 0.0351562 C 6.089844 -0.03125 6.003906 -0.132812 5.933594 -0.265625 L 4 -3.800781 Z "/>
</g>
</g>
</defs>
<g fill="rgb(71.764706%, 83.137255%, 88.627451%)" fill-opacity="1">
<use xlink:href="#glyph-0-0" x="30" y="33.599609"/>
</g>
</svg>
