<?xml version="1.0" encoding="UTF-8"?>
<svg xmlns="http://www.w3.org/2000/svg" xmlns:xlink="http://www.w3.org/1999/xlink" width="1920" height="1080" viewBox="0 0 1920 1080">
<defs>
<g>
<g id="glyph-0-0">
<path d="M 1.046875 -1.703125 C 1.378906 -1.703125 1.628906 -1.628906 1.796875 -1.484375 C 1.960938 -1.347656 2.046875 -1.140625 2.046875 -0.859375 C 2.046875 -0.566406 1.957031 -0.34375 1.78125 -0.1875 C 1.601562 -0.03125 1.347656 0.046875 1.015625 0.046875 C 0.742188 0.046875 0.5 0.015625 0.28125 -0.046875 L 0.265625 -0.65625 L 0.40625 -0.65625 L 0.5 -0.25 C 0.5625 -0.21875 0.632812 -0.191406 0.71875 -0.171875 C 0.8125 -0.148438 0.898438 -0.140625 0.984375 -0.140625 C 1.210938 -0.140625 1.378906 -0.191406 1.484375 -0.296875 C 1.585938 -0.398438 1.640625 -0.582031 1.640625 -0.84375 C 1.640625 -1.019531 1.617188 -1.15625 1.578125 -1.25 C 1.535156 -1.34375 1.460938 -1.410156 1.359375 -1.453125 C 1.253906 -1.492188 1.117188 -1.515625 0.953125 -1.515625 C 0.816406 -1.515625 0.6875 -1.5 0.5625 -1.46875 L 0.359375 -1.46875 L 0.359375 -2.90625 L 1.828125 -2.90625 L 1.828125 -2.578125 L 0.546875 -2.578125 L 0.546875 -1.640625 C 0.703125 -1.679688 0.867188 -1.703125 1.046875 -1.703125 Z "/>
</g>
<g id="glyph-0-1">
<path d="M 2.046875 -1.46875 C 2.046875 -0.457031 1.726562 0.046875 1.09375 0.046875 C 0.789062 0.046875 0.5625 -0.0820312 0.40625 -0.34375 C 0.25 -0.601562 0.171875 -0.976562 0.171875 -1.46875 C 0.171875 -1.945312 0.25 -2.3125 0.40625 -2.5625 C 0.5625 -2.820312 0.796875 -2.953125 1.109375 -2.953125 C 1.421875 -2.953125 1.65625 -2.820312 1.8125 -2.5625 C 1.96875 -2.3125 2.046875 -1.945312 2.046875 -1.46875 Z M 1.65625 -1.46875 C 1.65625 -1.925781 1.609375 -2.257812 1.515625 -2.46875 C 1.429688 -2.675781 1.289062 -2.78125 1.09375 -2.78125 C 0.90625 -2.78125 0.769531 -2.679688 0.6875 -2.484375 C 0.601562 -2.296875 0.5625 -1.957031 0.5625 -1.46875 C 0.5625 -0.976562 0.601562 -0.628906 0.6875 -0.421875 C 0.769531 -0.222656 0.90625 -0.125 1.09375 -0.125 C 1.28125 -0.125 1.421875 -0.226562 1.515625 -0.4375 C 1.609375 -0.65625 1.65625 -1 1.65625 -1.46875 Z "/>
</g>
<g id="glyph-0-2">
</g>
<g id="glyph-0-3">
<path d="M 1.875 0 L 1.796875 0 L 0.734375 -2.5 L 0.734375 -0.171875 L 1.125 -0.109375 L 1.125 0 L 0.125 0 L 0.125 -0.109375 L 0.5 -0.171875 L 0.5 -2.734375 L 0.125 -2.796875 L 0.125 -2.90625 L 1 -2.90625 L 1.953125 -0.703125 L 2.984375 -2.90625 L 3.8125 -2.90625 L 3.8125 -2.796875 L 3.4375 -2.734375 L 3.4375 -0.171875 L 3.8125 -0.109375 L 3.8125 0 L 2.640625 0 L 2.640625 -0.109375 L 3.03125 -0.171875 L 3.03125 -2.5 Z "/>
</g>
<g id="glyph-0-4">
<path d="M 0.125 0 L 0.125 -0.109375 L 0.5 -0.171875 L 0.5 -2.734375 L 0.125 -2.796875 L 0.125 -2.90625 L 1.296875 -2.90625 L 1.296875 -2.796875 L 0.921875 -2.734375 L 0.921875 -1.59375 L 2.28125 -1.59375 L 2.28125 -2.734375 L 1.90625 -2.796875 L 1.90625 -2.90625 L 3.078125 -2.90625 L 3.078125 -2.796875 L 2.703125 -2.734375 L 2.703125 -0.171875 L 3.078125 -0.109375 L 3.078125 0 L 1.90625 0 L 1.90625 -0.109375 L 2.28125 -0.171875 L 2.28125 -1.390625 L 0.921875 -1.390625 L 0.921875 -0.171875 L 1.296875 -0.109375 L 1.296875 0 Z "/>
</g>
<g id="glyph-0-5">
<path d="M 0.21875 -0.203125 L 1.84375 -2.71875 L 1.296875 -2.71875 C 0.941406 -2.71875 0.695312 -2.703125 0.5625 -2.671875 L 0.5 -2.21875 L 0.34375 -2.21875 L 0.34375 -2.90625 L 2.328125 -2.90625 L 2.328125 -2.71875 L 0.6875 -0.1875 L 1.3125 -0.1875 C 1.476562 -0.1875 1.644531 -0.191406 1.8125 -0.203125 C 1.988281 -0.222656 2.113281 -0.238281 2.1875 -0.25 L 2.3125 -0.8125 L 2.46875 -0.8125 L 2.40625 0 L 0.21875 0 Z "/>
</g>
<g id="glyph-0-6">
<path d="M 0.953125 -0.171875 L 1.328125 -0.109375 L 1.328125 0 L 0.15625 0 L 0.15625 -0.109375 L 0.53125 -0.171875 L 0.53125 -2.734375 L 0.15625 -2.796875 L 0.15625 -2.90625 L 1.328125 -2.90625 L 1.328125 -2.796875 L 0.953125 -2.734375 Z "/>
</g>
<g id="glyph-0-7">
<path d="M 0.921875 -1.296875 L 0.921875 -0.171875 L 1.40625 -0.109375 L 1.40625 0 L 0.15625 0 L 0.15625 -0.109375 L 0.5 -0.171875 L 0.5 -2.734375 L 0.125 -2.796875 L 0.125 -2.90625 L 2.3125 -2.90625 L 2.3125 -2.203125 L 2.171875 -2.203125 L 2.09375 -2.6875 C 1.9375 -2.695312 1.703125 -2.703125 1.390625 -2.703125 L 0.921875 -2.703125 L 0.921875 -1.5 L 1.78125 -1.5 L 1.84375 -1.84375 L 1.96875 -1.84375 L 1.96875 -0.953125 L 1.84375 -0.953125 L 1.78125 -1.296875 Z "/>
</g>
</g>
</defs>
<g fill="rgb(100%, 100%, 100%)" fill-opacity="1">
<use xlink:href="#glyph-0-0" x="30" y="23.959961"/>
<use xlink:href="#glyph-0-1" x="32" y="23.959961"/>
<use xlink:href="#glyph-0-2" x="34" y="23.959961"/>
<use xlink:href="#glyph-0-3" x="35" y="23.959961"/>
<use xlink:href="#glyph-0-4" x="39" y="23.959961"/>
<use xlink:href="#glyph-0-5" x="42" y="23.959961"/>
<use xlink:href="#glyph-0-2" x="45" y="23.959961"/>
<use xlink:href="#glyph-0-6" x="46" y="23.959961"/>
<use xlink:href="#glyph-0-7" x="47" y="23.959961"/>
</g>
</svg>
