<?xml version="1.0" encoding="UTF-8"?>
<svg xmlns="http://www.w3.org/2000/svg" xmlns:xlink="http://www.w3.org/1999/xlink" width="1920" height="1080" viewBox="0 0 1920 1080">
<defs>
<g>
<g id="glyph-0-0">
<path d="M 0.328125 -0.3125 C 0.234375 -0.3125 0.171875 -0.25 0.171875 -0.171875 C 0.171875 -0.03125 0.34375 0.0625 0.625 0.0625 C 1.25 0.0625 1.734375 -0.296875 1.734375 -0.875 C 1.734375 -1.3125 1.484375 -1.484375 1.21875 -1.609375 C 1.484375 -1.796875 1.59375 -1.9375 1.59375 -2.15625 C 1.59375 -2.484375 1.34375 -2.703125 0.96875 -2.703125 C 0.484375 -2.703125 0.28125 -2.359375 0.1875 -2.0625 L 0.234375 -2.046875 C 0.40625 -2.328125 0.578125 -2.46875 0.84375 -2.46875 C 1.09375 -2.46875 1.28125 -2.28125 1.28125 -2.03125 C 1.28125 -1.640625 0.90625 -1.46875 0.609375 -1.375 L 0.609375 -1.3125 C 0.953125 -1.3125 1.4375 -1.234375 1.4375 -0.6875 C 1.4375 -0.34375 1.21875 -0.09375 0.921875 -0.09375 C 0.65625 -0.09375 0.515625 -0.3125 0.328125 -0.3125 Z "/>
</g>
<g id="glyph-0-1">
<path d="M 0.234375 0.09375 C 1.65625 -0.078125 1.84375 -1.125 1.84375 -1.578125 C 1.84375 -2.234375 1.46875 -2.703125 0.953125 -2.703125 C 0.46875 -2.703125 0.125 -2.296875 0.125 -1.765625 C 0.125 -1.265625 0.40625 -0.953125 0.84375 -0.953125 C 1.0625 -0.953125 1.234375 -1.015625 1.4375 -1.171875 C 1.28125 -0.53125 0.828125 -0.09375 0.21875 0.015625 Z M 0.984375 -1.125 C 0.6875 -1.125 0.484375 -1.421875 0.484375 -1.890625 C 0.484375 -2.1875 0.578125 -2.59375 0.921875 -2.59375 C 1.265625 -2.59375 1.453125 -2.25 1.453125 -1.578125 L 1.453125 -1.421875 C 1.453125 -1.1875 1.09375 -1.125 0.984375 -1.125 Z "/>
</g>
</g>
</defs>
<g fill="rgb(98.823529%, 38.431373%, 33.333333%)" fill-opacity="1">
<use xlink:href="#glyph-0-0" x="30" y="23.599609"/>
<use xlink:href="#glyph-0-1" x="32" y="23.599609"/>
</g>
</svg>
