<?xml version="1.0" encoding="UTF-8"?>
<svg xmlns="http://www.w3.org/2000/svg" xmlns:xlink="http://www.w3.org/1999/xlink" width="1920" height="1080" viewBox="0 0 1920 1080">
<defs>
<g>
<g id="glyph-0-0">
<path d="M 3.578125 -5.859375 C 3.28125 -5.859375 3.046875 -6.125 2.28125 -6.125 C 1.21875 -6.125 0.46875 -5.4375 0.46875 -4.484375 C 0.46875 -3.734375 0.890625 -3.203125 2.03125 -2.5625 L 2.796875 -2.125 C 3.265625 -1.859375 3.484375 -1.53125 3.484375 -1.125 C 3.484375 -0.53125 3.0625 -0.15625 2.390625 -0.15625 C 1.03125 -0.15625 0.8125 -1.5 0.6875 -2.03125 L 0.484375 -2.03125 L 0.484375 0.046875 L 0.65625 0.046875 C 0.75 -0.078125 0.796875 -0.109375 0.953125 -0.109375 C 1.296875 -0.109375 1.953125 0.140625 2.546875 0.140625 C 3.578125 0.140625 4.421875 -0.640625 4.421875 -1.578125 C 4.421875 -2.234375 4.109375 -2.671875 3.3125 -3.15625 L 1.859375 -4.015625 C 1.5 -4.21875 1.296875 -4.5625 1.296875 -4.921875 C 1.296875 -5.453125 1.703125 -5.828125 2.3125 -5.828125 C 3.078125 -5.828125 3.484375 -5.375 3.78125 -4.1875 L 3.984375 -4.1875 L 3.9375 -6 L 3.78125 -6 C 3.703125 -5.9375 3.65625 -5.859375 3.578125 -5.859375 Z "/>
</g>
<g id="glyph-0-1">
<path d="M 0.828125 -5.234375 C 1.140625 -5.234375 1.265625 -5.03125 1.265625 -4.453125 L 1.265625 -1.359375 C 1.265625 -0.40625 1.140625 -0.25 0.21875 -0.203125 L 0.21875 0 L 3.375 0 L 3.375 -0.203125 C 2.5 -0.265625 2.390625 -0.40625 2.390625 -1.359375 L 2.390625 -6.09375 L 2.328125 -6.125 C 1.640625 -5.84375 0.953125 -5.59375 0.265625 -5.390625 L 0.265625 -5.203125 C 0.46875 -5.21875 0.703125 -5.234375 0.828125 -5.234375 Z M 1.703125 -9.109375 C 1.34375 -9.109375 1.046875 -8.796875 1.046875 -8.421875 C 1.046875 -8.046875 1.328125 -7.75 1.703125 -7.75 C 2.09375 -7.75 2.40625 -8.03125 2.40625 -8.421875 C 2.40625 -8.796875 2.09375 -9.109375 1.703125 -9.109375 Z "/>
</g>
<g id="glyph-0-2">
<path d="M 0.140625 -5.296875 C 0.21875 -5.34375 0.34375 -5.359375 0.5 -5.359375 C 0.859375 -5.359375 0.984375 -5.15625 0.984375 -4.5 L 0.984375 -1.203125 C 0.984375 -0.4375 0.84375 -0.25 0.15625 -0.203125 L 0.15625 0 L 2.984375 0 L 2.984375 -0.203125 C 2.3125 -0.25 2.109375 -0.40625 2.109375 -0.890625 L 2.109375 -4.640625 C 2.75 -5.234375 3.03125 -5.390625 3.484375 -5.390625 C 4.125 -5.390625 4.453125 -4.984375 4.453125 -4.109375 L 4.453125 -1.3125 C 4.453125 -0.484375 4.28125 -0.25 3.609375 -0.203125 L 3.609375 0 L 6.390625 0 L 6.390625 -0.203125 C 5.734375 -0.265625 5.578125 -0.421875 5.578125 -1.078125 L 5.578125 -4.125 C 5.578125 -5.390625 4.984375 -6.125 4 -6.125 C 3.390625 -6.125 2.96875 -5.90625 2.0625 -5.046875 L 2.0625 -6.109375 L 1.96875 -6.125 C 1.3125 -5.890625 0.859375 -5.75 0.140625 -5.53125 Z "/>
</g>
<g id="glyph-0-3">
<path d="M 3.890625 2.359375 L 4.046875 2.140625 C 2.671875 1.0625 1.78125 0 1.78125 -3.40625 C 1.78125 -6.65625 2.671875 -7.6875 4.046875 -8.796875 L 3.9375 -9.015625 C 2.84375 -8.296875 0.640625 -6.75 0.640625 -3.359375 C 0.640625 -0.140625 2.90625 1.765625 3.890625 2.359375 Z "/>
</g>
<g id="glyph-0-4">
<path d="M 3.453125 -6 L 2.109375 -6 L 2.109375 -7.546875 C 2.109375 -7.671875 2.09375 -7.71875 2.015625 -7.71875 C 1.921875 -7.59375 1.84375 -7.484375 1.75 -7.34375 C 0.5625 -5.640625 0.234375 -5.9375 0.234375 -5.671875 C 0.234375 -5.625 0.234375 -5.59375 0.28125 -5.578125 L 0.984375 -5.578125 L 0.984375 -1.5625 C 0.984375 -0.4375 1.390625 0.140625 2.171875 0.140625 C 2.828125 0.140625 3.328125 -0.1875 3.765625 -0.875 L 3.59375 -1.03125 C 3.3125 -0.6875 3.09375 -0.5625 2.796875 -0.5625 C 2.3125 -0.5625 2.109375 -0.921875 2.109375 -1.765625 L 2.109375 -5.578125 L 3.453125 -5.578125 Z "/>
</g>
<g id="glyph-0-5">
<path d="M 0.546875 -9.015625 L 0.390625 -8.796875 C 1.765625 -7.71875 2.65625 -6.65625 2.65625 -3.25 C 2.65625 0.015625 1.765625 1.046875 0.390625 2.140625 L 0.5 2.359375 C 1.59375 1.65625 3.796875 0.09375 3.796875 -3.296875 C 3.796875 -6.5 1.53125 -8.40625 0.546875 -9.015625 Z "/>
</g>
</g>
</defs>
<g fill="rgb(100%, 100%, 100%)" fill-opacity="1">
<use xlink:href="#glyph-0-0" x="30" y="32"/>
<use xlink:href="#glyph-0-1" x="35" y="32"/>
<use xlink:href="#glyph-0-2" x="39" y="32"/>
<use xlink:href="#glyph-0-3" x="46" y="32"/>
<use xlink:href="#glyph-0-4" x="50" y="32"/>
<use xlink:href="#glyph-0-5" x="54" y="32"/>
</g>
</svg>
