<?xml version="1.0" encoding="UTF-8"?>
<svg xmlns="http://www.w3.org/2000/svg" xmlns:xlink="http://www.w3.org/1999/xlink" width="1920" height="1080" viewBox="0 0 1920 1080">
<defs>
<g>
<g id="glyph-0-0">
<path d="M 0.640625 -1.484375 L 1.59375 -1.484375 C 1.632812 -1.484375 1.664062 -1.46875 1.6875 -1.4375 C 1.71875 -1.414062 1.734375 -1.382812 1.734375 -1.34375 C 1.734375 -1.289062 1.71875 -1.253906 1.6875 -1.234375 C 1.664062 -1.210938 1.632812 -1.203125 1.59375 -1.203125 L 0.640625 -1.203125 L 0.640625 -0.125 C 0.640625 -0.0703125 0.625 -0.03125 0.59375 0 C 0.570312 0.0195312 0.535156 0.03125 0.484375 0.03125 C 0.429688 0.03125 0.390625 0.0195312 0.359375 0 C 0.335938 -0.03125 0.328125 -0.0703125 0.328125 -0.125 L 0.328125 -2.25 C 0.328125 -2.34375 0.347656 -2.410156 0.390625 -2.453125 C 0.441406 -2.503906 0.515625 -2.53125 0.609375 -2.53125 L 1.671875 -2.53125 C 1.722656 -2.53125 1.757812 -2.515625 1.78125 -2.484375 C 1.8125 -2.460938 1.828125 -2.425781 1.828125 -2.375 C 1.828125 -2.320312 1.8125 -2.28125 1.78125 -2.25 C 1.757812 -2.226562 1.722656 -2.21875 1.671875 -2.21875 L 0.78125 -2.21875 C 0.738281 -2.21875 0.703125 -2.207031 0.671875 -2.1875 C 0.648438 -2.164062 0.640625 -2.128906 0.640625 -2.078125 Z "/>
</g>
<g id="glyph-0-1">
<path d="M 0.53125 0.03125 C 0.476562 0.03125 0.4375 0.0195312 0.40625 0 C 0.382812 -0.03125 0.375 -0.0703125 0.375 -0.125 L 0.375 -1.78125 C 0.375 -1.832031 0.382812 -1.867188 0.40625 -1.890625 C 0.4375 -1.921875 0.476562 -1.9375 0.53125 -1.9375 C 0.59375 -1.9375 0.632812 -1.921875 0.65625 -1.890625 C 0.675781 -1.867188 0.6875 -1.832031 0.6875 -1.78125 L 0.6875 -1.578125 C 0.707031 -1.640625 0.738281 -1.691406 0.78125 -1.734375 C 0.832031 -1.773438 0.882812 -1.8125 0.9375 -1.84375 C 1 -1.875 1.0625 -1.894531 1.125 -1.90625 C 1.195312 -1.925781 1.265625 -1.9375 1.328125 -1.9375 C 1.429688 -1.9375 1.515625 -1.914062 1.578125 -1.875 C 1.648438 -1.84375 1.703125 -1.796875 1.734375 -1.734375 C 1.773438 -1.671875 1.800781 -1.597656 1.8125 -1.515625 C 1.832031 -1.429688 1.84375 -1.34375 1.84375 -1.25 L 1.84375 -1.21875 C 1.84375 -1.164062 1.828125 -1.125 1.796875 -1.09375 C 1.773438 -1.070312 1.738281 -1.0625 1.6875 -1.0625 C 1.632812 -1.0625 1.59375 -1.070312 1.5625 -1.09375 C 1.539062 -1.125 1.53125 -1.164062 1.53125 -1.21875 L 1.53125 -1.25 C 1.53125 -1.300781 1.523438 -1.347656 1.515625 -1.390625 C 1.503906 -1.441406 1.488281 -1.484375 1.46875 -1.515625 C 1.445312 -1.554688 1.414062 -1.582031 1.375 -1.59375 C 1.332031 -1.613281 1.28125 -1.625 1.21875 -1.625 C 1.164062 -1.625 1.109375 -1.613281 1.046875 -1.59375 C 0.984375 -1.582031 0.925781 -1.5625 0.875 -1.53125 C 0.820312 -1.5 0.773438 -1.457031 0.734375 -1.40625 C 0.703125 -1.351562 0.6875 -1.289062 0.6875 -1.21875 L 0.6875 -0.125 C 0.6875 -0.0703125 0.675781 -0.03125 0.65625 0 C 0.632812 0.0195312 0.59375 0.03125 0.53125 0.03125 Z "/>
</g>
<g id="glyph-0-2">
<path d="M 1.59375 -0.453125 C 1.632812 -0.453125 1.671875 -0.4375 1.703125 -0.40625 C 1.734375 -0.375 1.75 -0.34375 1.75 -0.3125 C 1.75 -0.289062 1.742188 -0.269531 1.734375 -0.25 C 1.722656 -0.226562 1.703125 -0.203125 1.671875 -0.171875 C 1.628906 -0.140625 1.585938 -0.109375 1.546875 -0.078125 C 1.503906 -0.0546875 1.457031 -0.0351562 1.40625 -0.015625 C 1.363281 0.00390625 1.316406 0.015625 1.265625 0.015625 C 1.210938 0.0234375 1.160156 0.03125 1.109375 0.03125 C 0.972656 0.03125 0.851562 0.0078125 0.75 -0.03125 C 0.644531 -0.0703125 0.554688 -0.132812 0.484375 -0.21875 C 0.410156 -0.3125 0.351562 -0.414062 0.3125 -0.53125 C 0.269531 -0.65625 0.25 -0.789062 0.25 -0.9375 C 0.25 -1.070312 0.265625 -1.195312 0.296875 -1.3125 C 0.328125 -1.4375 0.375 -1.546875 0.4375 -1.640625 C 0.5 -1.734375 0.582031 -1.804688 0.6875 -1.859375 C 0.789062 -1.910156 0.914062 -1.9375 1.0625 -1.9375 C 1.195312 -1.9375 1.3125 -1.910156 1.40625 -1.859375 C 1.5 -1.816406 1.570312 -1.753906 1.625 -1.671875 C 1.6875 -1.585938 1.726562 -1.488281 1.75 -1.375 C 1.769531 -1.257812 1.78125 -1.132812 1.78125 -1 C 1.78125 -0.957031 1.765625 -0.914062 1.734375 -0.875 C 1.710938 -0.84375 1.675781 -0.828125 1.625 -0.828125 L 0.578125 -0.828125 C 0.585938 -0.734375 0.601562 -0.648438 0.625 -0.578125 C 0.65625 -0.515625 0.691406 -0.457031 0.734375 -0.40625 C 0.785156 -0.363281 0.84375 -0.332031 0.90625 -0.3125 C 0.96875 -0.289062 1.035156 -0.28125 1.109375 -0.28125 C 1.210938 -0.28125 1.296875 -0.296875 1.359375 -0.328125 C 1.421875 -0.359375 1.46875 -0.390625 1.5 -0.421875 C 1.519531 -0.429688 1.535156 -0.4375 1.546875 -0.4375 C 1.554688 -0.445312 1.570312 -0.453125 1.59375 -0.453125 Z M 1.421875 -1.109375 C 1.429688 -1.109375 1.441406 -1.113281 1.453125 -1.125 C 1.460938 -1.144531 1.46875 -1.175781 1.46875 -1.21875 C 1.46875 -1.269531 1.457031 -1.316406 1.4375 -1.359375 C 1.425781 -1.410156 1.398438 -1.457031 1.359375 -1.5 C 1.328125 -1.539062 1.285156 -1.570312 1.234375 -1.59375 C 1.179688 -1.613281 1.125 -1.625 1.0625 -1.625 C 0.988281 -1.625 0.921875 -1.609375 0.859375 -1.578125 C 0.804688 -1.554688 0.757812 -1.523438 0.71875 -1.484375 C 0.675781 -1.441406 0.644531 -1.382812 0.625 -1.3125 C 0.601562 -1.25 0.585938 -1.179688 0.578125 -1.109375 Z "/>
</g>
<g id="glyph-0-3">
<path d="M 1.609375 -1.9375 C 1.660156 -1.9375 1.695312 -1.921875 1.71875 -1.890625 C 1.75 -1.867188 1.765625 -1.832031 1.765625 -1.78125 L 1.765625 0.5 C 1.765625 0.550781 1.75 0.585938 1.71875 0.609375 C 1.695312 0.640625 1.660156 0.65625 1.609375 0.65625 C 1.554688 0.65625 1.515625 0.640625 1.484375 0.609375 C 1.460938 0.585938 1.453125 0.550781 1.453125 0.5 L 1.453125 -0.328125 C 1.429688 -0.222656 1.378906 -0.132812 1.296875 -0.0625 C 1.210938 0 1.109375 0.03125 0.984375 0.03125 C 0.835938 0.03125 0.71875 0 0.625 -0.0625 C 0.53125 -0.125 0.457031 -0.203125 0.40625 -0.296875 C 0.351562 -0.398438 0.316406 -0.515625 0.296875 -0.640625 C 0.285156 -0.765625 0.28125 -0.890625 0.28125 -1.015625 C 0.28125 -1.128906 0.285156 -1.238281 0.296875 -1.34375 C 0.316406 -1.457031 0.347656 -1.554688 0.390625 -1.640625 C 0.441406 -1.734375 0.507812 -1.804688 0.59375 -1.859375 C 0.6875 -1.910156 0.804688 -1.9375 0.953125 -1.9375 C 1.015625 -1.9375 1.070312 -1.925781 1.125 -1.90625 C 1.175781 -1.894531 1.222656 -1.867188 1.265625 -1.828125 C 1.304688 -1.796875 1.34375 -1.753906 1.375 -1.703125 C 1.40625 -1.660156 1.429688 -1.613281 1.453125 -1.5625 L 1.453125 -1.78125 C 1.453125 -1.832031 1.460938 -1.867188 1.484375 -1.890625 C 1.515625 -1.921875 1.554688 -1.9375 1.609375 -1.9375 Z M 0.984375 -1.625 C 0.898438 -1.625 0.832031 -1.609375 0.78125 -1.578125 C 0.738281 -1.546875 0.703125 -1.5 0.671875 -1.4375 C 0.640625 -1.382812 0.617188 -1.320312 0.609375 -1.25 C 0.597656 -1.175781 0.59375 -1.09375 0.59375 -1 C 0.59375 -0.914062 0.597656 -0.828125 0.609375 -0.734375 C 0.617188 -0.648438 0.640625 -0.570312 0.671875 -0.5 C 0.703125 -0.4375 0.742188 -0.382812 0.796875 -0.34375 C 0.859375 -0.300781 0.9375 -0.28125 1.03125 -0.28125 C 1.09375 -0.28125 1.148438 -0.296875 1.203125 -0.328125 C 1.253906 -0.359375 1.296875 -0.398438 1.328125 -0.453125 C 1.367188 -0.515625 1.398438 -0.578125 1.421875 -0.640625 C 1.441406 -0.703125 1.453125 -0.757812 1.453125 -0.8125 L 1.453125 -1.1875 C 1.453125 -1.25 1.4375 -1.304688 1.40625 -1.359375 C 1.382812 -1.410156 1.351562 -1.453125 1.3125 -1.484375 C 1.269531 -1.523438 1.21875 -1.554688 1.15625 -1.578125 C 1.101562 -1.609375 1.046875 -1.625 0.984375 -1.625 Z "/>
</g>
<g id="glyph-0-4">
<path d="M 1.4375 -1.78125 C 1.4375 -1.832031 1.445312 -1.867188 1.46875 -1.890625 C 1.5 -1.921875 1.539062 -1.9375 1.59375 -1.9375 C 1.644531 -1.9375 1.679688 -1.921875 1.703125 -1.890625 C 1.734375 -1.867188 1.75 -1.832031 1.75 -1.78125 L 1.75 -0.125 C 1.75 -0.0703125 1.734375 -0.03125 1.703125 0 C 1.679688 0.0195312 1.644531 0.03125 1.59375 0.03125 C 1.539062 0.03125 1.5 0.0195312 1.46875 0 C 1.445312 -0.03125 1.4375 -0.0703125 1.4375 -0.125 L 1.4375 -0.328125 C 1.40625 -0.210938 1.347656 -0.125 1.265625 -0.0625 C 1.191406 0 1.09375 0.03125 0.96875 0.03125 C 0.875 0.03125 0.785156 0.015625 0.703125 -0.015625 C 0.628906 -0.046875 0.5625 -0.0859375 0.5 -0.140625 C 0.445312 -0.203125 0.40625 -0.269531 0.375 -0.34375 C 0.34375 -0.425781 0.328125 -0.519531 0.328125 -0.625 L 0.328125 -1.78125 C 0.328125 -1.832031 0.335938 -1.867188 0.359375 -1.890625 C 0.390625 -1.921875 0.429688 -1.9375 0.484375 -1.9375 C 0.535156 -1.9375 0.570312 -1.921875 0.59375 -1.890625 C 0.625 -1.867188 0.640625 -1.832031 0.640625 -1.78125 L 0.640625 -0.71875 C 0.640625 -0.65625 0.644531 -0.597656 0.65625 -0.546875 C 0.675781 -0.492188 0.703125 -0.445312 0.734375 -0.40625 C 0.765625 -0.363281 0.800781 -0.328125 0.84375 -0.296875 C 0.894531 -0.273438 0.953125 -0.265625 1.015625 -0.265625 C 1.078125 -0.265625 1.132812 -0.28125 1.1875 -0.3125 C 1.238281 -0.351562 1.28125 -0.398438 1.3125 -0.453125 C 1.351562 -0.503906 1.382812 -0.5625 1.40625 -0.625 C 1.425781 -0.695312 1.4375 -0.757812 1.4375 -0.8125 Z "/>
</g>
<g id="glyph-0-5">
<path d="M 0.640625 -0.125 C 0.640625 -0.0703125 0.625 -0.03125 0.59375 0 C 0.570312 0.0195312 0.535156 0.03125 0.484375 0.03125 C 0.429688 0.03125 0.390625 0.0195312 0.359375 0 C 0.335938 -0.03125 0.328125 -0.0703125 0.328125 -0.125 L 0.328125 -1.78125 C 0.328125 -1.832031 0.335938 -1.867188 0.359375 -1.890625 C 0.390625 -1.921875 0.429688 -1.9375 0.484375 -1.9375 C 0.535156 -1.9375 0.570312 -1.921875 0.59375 -1.890625 C 0.625 -1.867188 0.640625 -1.832031 0.640625 -1.78125 L 0.640625 -1.578125 C 0.671875 -1.691406 0.722656 -1.78125 0.796875 -1.84375 C 0.878906 -1.90625 0.984375 -1.9375 1.109375 -1.9375 C 1.203125 -1.9375 1.285156 -1.921875 1.359375 -1.890625 C 1.441406 -1.859375 1.507812 -1.8125 1.5625 -1.75 C 1.625 -1.695312 1.671875 -1.628906 1.703125 -1.546875 C 1.734375 -1.472656 1.75 -1.382812 1.75 -1.28125 L 1.75 -0.125 C 1.75 -0.0703125 1.734375 -0.03125 1.703125 0 C 1.679688 0.0195312 1.644531 0.03125 1.59375 0.03125 C 1.539062 0.03125 1.5 0.0195312 1.46875 0 C 1.445312 -0.03125 1.4375 -0.0703125 1.4375 -0.125 L 1.4375 -1.1875 C 1.4375 -1.25 1.425781 -1.304688 1.40625 -1.359375 C 1.394531 -1.421875 1.375 -1.472656 1.34375 -1.515625 C 1.3125 -1.554688 1.269531 -1.585938 1.21875 -1.609375 C 1.175781 -1.628906 1.125 -1.640625 1.0625 -1.640625 C 1 -1.640625 0.941406 -1.617188 0.890625 -1.578125 C 0.835938 -1.546875 0.789062 -1.503906 0.75 -1.453125 C 0.71875 -1.398438 0.691406 -1.335938 0.671875 -1.265625 C 0.648438 -1.203125 0.640625 -1.144531 0.640625 -1.09375 Z "/>
</g>
<g id="glyph-0-6">
<path d="M 0.28125 -0.953125 C 0.28125 -1.128906 0.300781 -1.28125 0.34375 -1.40625 C 0.394531 -1.53125 0.457031 -1.628906 0.53125 -1.703125 C 0.613281 -1.785156 0.703125 -1.84375 0.796875 -1.875 C 0.898438 -1.914062 1.015625 -1.9375 1.140625 -1.9375 C 1.222656 -1.9375 1.296875 -1.925781 1.359375 -1.90625 C 1.429688 -1.894531 1.492188 -1.878906 1.546875 -1.859375 C 1.597656 -1.835938 1.640625 -1.804688 1.671875 -1.765625 C 1.710938 -1.734375 1.742188 -1.703125 1.765625 -1.671875 C 1.804688 -1.617188 1.820312 -1.570312 1.8125 -1.53125 C 1.800781 -1.488281 1.773438 -1.457031 1.734375 -1.4375 C 1.691406 -1.414062 1.648438 -1.40625 1.609375 -1.40625 C 1.578125 -1.414062 1.550781 -1.4375 1.53125 -1.46875 C 1.507812 -1.507812 1.46875 -1.546875 1.40625 -1.578125 C 1.34375 -1.609375 1.257812 -1.625 1.15625 -1.625 C 1.070312 -1.625 0.992188 -1.609375 0.921875 -1.578125 C 0.859375 -1.554688 0.800781 -1.515625 0.75 -1.453125 C 0.695312 -1.398438 0.65625 -1.332031 0.625 -1.25 C 0.601562 -1.175781 0.59375 -1.082031 0.59375 -0.96875 C 0.59375 -0.851562 0.601562 -0.75 0.625 -0.65625 C 0.65625 -0.570312 0.695312 -0.5 0.75 -0.4375 C 0.800781 -0.382812 0.859375 -0.34375 0.921875 -0.3125 C 0.992188 -0.289062 1.070312 -0.28125 1.15625 -0.28125 C 1.207031 -0.28125 1.265625 -0.285156 1.328125 -0.296875 C 1.398438 -0.316406 1.453125 -0.34375 1.484375 -0.375 C 1.515625 -0.40625 1.550781 -0.421875 1.59375 -0.421875 C 1.632812 -0.429688 1.671875 -0.414062 1.703125 -0.375 C 1.722656 -0.363281 1.734375 -0.347656 1.734375 -0.328125 C 1.742188 -0.316406 1.75 -0.300781 1.75 -0.28125 C 1.75 -0.257812 1.742188 -0.234375 1.734375 -0.203125 C 1.722656 -0.179688 1.707031 -0.15625 1.6875 -0.125 C 1.65625 -0.09375 1.617188 -0.0664062 1.578125 -0.046875 C 1.535156 -0.0234375 1.488281 -0.0078125 1.4375 0 C 1.394531 0.0195312 1.347656 0.03125 1.296875 0.03125 C 1.242188 0.03125 1.191406 0.03125 1.140625 0.03125 C 1.015625 0.03125 0.898438 0.015625 0.796875 -0.015625 C 0.691406 -0.0546875 0.597656 -0.117188 0.515625 -0.203125 C 0.441406 -0.285156 0.382812 -0.390625 0.34375 -0.515625 C 0.300781 -0.640625 0.28125 -0.785156 0.28125 -0.953125 Z "/>
</g>
<g id="glyph-0-7">
<path d="M 1.546875 -1.828125 C 1.554688 -1.859375 1.570312 -1.878906 1.59375 -1.890625 C 1.613281 -1.898438 1.644531 -1.90625 1.6875 -1.90625 C 1.738281 -1.90625 1.773438 -1.894531 1.796875 -1.875 C 1.828125 -1.851562 1.84375 -1.820312 1.84375 -1.78125 C 1.84375 -1.769531 1.835938 -1.753906 1.828125 -1.734375 C 1.828125 -1.710938 1.828125 -1.691406 1.828125 -1.671875 L 1.234375 0.03125 C 1.210938 0.0820312 1.1875 0.140625 1.15625 0.203125 C 1.125 0.265625 1.09375 0.320312 1.0625 0.375 C 1.03125 0.4375 0.992188 0.492188 0.953125 0.546875 C 0.910156 0.609375 0.867188 0.65625 0.828125 0.6875 C 0.773438 0.71875 0.710938 0.742188 0.640625 0.765625 C 0.566406 0.785156 0.503906 0.796875 0.453125 0.796875 C 0.390625 0.796875 0.34375 0.78125 0.3125 0.75 C 0.289062 0.726562 0.28125 0.691406 0.28125 0.640625 C 0.28125 0.585938 0.289062 0.546875 0.3125 0.515625 C 0.34375 0.492188 0.382812 0.484375 0.4375 0.484375 C 0.476562 0.484375 0.515625 0.472656 0.546875 0.453125 C 0.585938 0.441406 0.625 0.421875 0.65625 0.390625 C 0.6875 0.367188 0.710938 0.34375 0.734375 0.3125 C 0.765625 0.289062 0.785156 0.265625 0.796875 0.234375 C 0.816406 0.203125 0.832031 0.171875 0.84375 0.140625 C 0.851562 0.109375 0.863281 0.0703125 0.875 0.03125 L 0.90625 -0.03125 L 0.296875 -1.671875 C 0.285156 -1.691406 0.273438 -1.710938 0.265625 -1.734375 C 0.265625 -1.753906 0.265625 -1.769531 0.265625 -1.78125 C 0.265625 -1.820312 0.273438 -1.851562 0.296875 -1.875 C 0.328125 -1.894531 0.375 -1.90625 0.4375 -1.90625 C 0.46875 -1.90625 0.492188 -1.898438 0.515625 -1.890625 C 0.535156 -1.878906 0.550781 -1.859375 0.5625 -1.828125 L 1.0625 -0.484375 Z "/>
</g>
<g id="glyph-0-8">
</g>
<g id="glyph-0-9">
<path d="M 0.203125 -1.265625 C 0.203125 -1.441406 0.222656 -1.609375 0.265625 -1.765625 C 0.304688 -1.921875 0.363281 -2.054688 0.4375 -2.171875 C 0.519531 -2.296875 0.625 -2.390625 0.75 -2.453125 C 0.882812 -2.523438 1.046875 -2.5625 1.234375 -2.5625 C 1.328125 -2.5625 1.410156 -2.550781 1.484375 -2.53125 C 1.554688 -2.519531 1.617188 -2.5 1.671875 -2.46875 C 1.722656 -2.4375 1.765625 -2.398438 1.796875 -2.359375 C 1.828125 -2.316406 1.851562 -2.273438 1.875 -2.234375 C 1.894531 -2.179688 1.898438 -2.132812 1.890625 -2.09375 C 1.878906 -2.0625 1.859375 -2.035156 1.828125 -2.015625 C 1.785156 -2.003906 1.742188 -2 1.703125 -2 C 1.671875 -2.007812 1.640625 -2.035156 1.609375 -2.078125 C 1.578125 -2.117188 1.53125 -2.15625 1.46875 -2.1875 C 1.40625 -2.226562 1.320312 -2.25 1.21875 -2.25 C 1.101562 -2.25 1 -2.222656 0.90625 -2.171875 C 0.820312 -2.117188 0.75 -2.046875 0.6875 -1.953125 C 0.632812 -1.867188 0.59375 -1.765625 0.5625 -1.640625 C 0.53125 -1.523438 0.515625 -1.398438 0.515625 -1.265625 C 0.515625 -1.160156 0.523438 -1.046875 0.546875 -0.921875 C 0.578125 -0.804688 0.617188 -0.703125 0.671875 -0.609375 C 0.734375 -0.515625 0.804688 -0.4375 0.890625 -0.375 C 0.984375 -0.3125 1.097656 -0.28125 1.234375 -0.28125 C 1.273438 -0.28125 1.3125 -0.28125 1.34375 -0.28125 C 1.375 -0.28125 1.40625 -0.285156 1.4375 -0.296875 C 1.476562 -0.304688 1.515625 -0.316406 1.546875 -0.328125 C 1.578125 -0.335938 1.601562 -0.351562 1.625 -0.375 C 1.65625 -0.40625 1.691406 -0.414062 1.734375 -0.40625 C 1.773438 -0.40625 1.8125 -0.394531 1.84375 -0.375 C 1.875 -0.34375 1.890625 -0.304688 1.890625 -0.265625 C 1.890625 -0.222656 1.867188 -0.175781 1.828125 -0.125 C 1.785156 -0.09375 1.742188 -0.0664062 1.703125 -0.046875 C 1.660156 -0.0234375 1.609375 -0.0078125 1.546875 0 C 1.492188 0.0195312 1.441406 0.03125 1.390625 0.03125 C 1.335938 0.03125 1.285156 0.03125 1.234375 0.03125 C 1.046875 0.03125 0.882812 -0.00390625 0.75 -0.078125 C 0.625 -0.148438 0.519531 -0.242188 0.4375 -0.359375 C 0.351562 -0.484375 0.289062 -0.625 0.25 -0.78125 C 0.21875 -0.9375 0.203125 -1.097656 0.203125 -1.265625 Z "/>
</g>
<g id="glyph-0-10">
<path d="M 0.640625 -0.125 C 0.640625 -0.0703125 0.625 -0.03125 0.59375 0 C 0.570312 0.0195312 0.535156 0.03125 0.484375 0.03125 C 0.429688 0.03125 0.390625 0.0195312 0.359375 0 C 0.335938 -0.03125 0.328125 -0.0703125 0.328125 -0.125 L 0.328125 -2.40625 C 0.328125 -2.457031 0.335938 -2.492188 0.359375 -2.515625 C 0.390625 -2.546875 0.429688 -2.5625 0.484375 -2.5625 C 0.535156 -2.5625 0.570312 -2.546875 0.59375 -2.515625 C 0.625 -2.492188 0.640625 -2.457031 0.640625 -2.40625 L 0.640625 -1.578125 C 0.671875 -1.691406 0.722656 -1.78125 0.796875 -1.84375 C 0.878906 -1.90625 0.984375 -1.9375 1.109375 -1.9375 C 1.203125 -1.9375 1.285156 -1.921875 1.359375 -1.890625 C 1.441406 -1.859375 1.507812 -1.8125 1.5625 -1.75 C 1.625 -1.695312 1.671875 -1.628906 1.703125 -1.546875 C 1.734375 -1.472656 1.75 -1.382812 1.75 -1.28125 L 1.75 -0.125 C 1.75 -0.0703125 1.734375 -0.03125 1.703125 0 C 1.679688 0.0195312 1.644531 0.03125 1.59375 0.03125 C 1.539062 0.03125 1.5 0.0195312 1.46875 0 C 1.445312 -0.03125 1.4375 -0.0703125 1.4375 -0.125 L 1.4375 -1.1875 C 1.4375 -1.25 1.425781 -1.304688 1.40625 -1.359375 C 1.394531 -1.421875 1.375 -1.472656 1.34375 -1.515625 C 1.3125 -1.554688 1.269531 -1.585938 1.21875 -1.609375 C 1.175781 -1.628906 1.125 -1.640625 1.0625 -1.640625 C 1 -1.640625 0.941406 -1.617188 0.890625 -1.578125 C 0.835938 -1.546875 0.789062 -1.503906 0.75 -1.453125 C 0.71875 -1.398438 0.691406 -1.335938 0.671875 -1.265625 C 0.648438 -1.203125 0.640625 -1.144531 0.640625 -1.09375 Z "/>
</g>
<g id="glyph-0-11">
<path d="M 0.84375 0.03125 C 0.757812 0.03125 0.679688 0.0195312 0.609375 0 C 0.535156 -0.03125 0.472656 -0.078125 0.421875 -0.140625 C 0.367188 -0.203125 0.328125 -0.285156 0.296875 -0.390625 C 0.265625 -0.492188 0.25 -0.625 0.25 -0.78125 C 0.25 -0.9375 0.265625 -1.082031 0.296875 -1.21875 C 0.328125 -1.363281 0.375 -1.488281 0.4375 -1.59375 C 0.5 -1.707031 0.582031 -1.789062 0.6875 -1.84375 C 0.789062 -1.90625 0.910156 -1.9375 1.046875 -1.9375 C 1.148438 -1.9375 1.234375 -1.910156 1.296875 -1.859375 C 1.347656 -1.816406 1.390625 -1.757812 1.421875 -1.6875 C 1.421875 -1.71875 1.425781 -1.753906 1.4375 -1.796875 C 1.445312 -1.847656 1.46875 -1.882812 1.5 -1.90625 C 1.53125 -1.925781 1.566406 -1.9375 1.609375 -1.9375 C 1.671875 -1.9375 1.710938 -1.925781 1.734375 -1.90625 C 1.753906 -1.882812 1.757812 -1.847656 1.75 -1.796875 C 1.726562 -1.648438 1.707031 -1.507812 1.6875 -1.375 C 1.675781 -1.25 1.671875 -1.117188 1.671875 -0.984375 C 1.679688 -0.847656 1.695312 -0.707031 1.71875 -0.5625 C 1.738281 -0.425781 1.765625 -0.28125 1.796875 -0.125 C 1.816406 -0.0703125 1.816406 -0.03125 1.796875 0 C 1.773438 0.0195312 1.738281 0.03125 1.6875 0.03125 C 1.632812 0.03125 1.59375 0.0195312 1.5625 0 C 1.53125 -0.03125 1.503906 -0.0703125 1.484375 -0.125 C 1.460938 -0.226562 1.441406 -0.335938 1.421875 -0.453125 C 1.410156 -0.410156 1.394531 -0.367188 1.375 -0.328125 C 1.320312 -0.222656 1.25 -0.132812 1.15625 -0.0625 C 1.070312 0 0.96875 0.03125 0.84375 0.03125 Z M 0.875 -0.28125 C 0.945312 -0.28125 1.007812 -0.296875 1.0625 -0.328125 C 1.125 -0.367188 1.175781 -0.421875 1.21875 -0.484375 C 1.269531 -0.554688 1.304688 -0.640625 1.328125 -0.734375 C 1.359375 -0.835938 1.375 -0.945312 1.375 -1.0625 C 1.375 -1.125 1.367188 -1.1875 1.359375 -1.25 C 1.359375 -1.3125 1.347656 -1.367188 1.328125 -1.421875 C 1.304688 -1.484375 1.273438 -1.53125 1.234375 -1.5625 C 1.203125 -1.601562 1.144531 -1.625 1.0625 -1.625 C 0.988281 -1.625 0.921875 -1.601562 0.859375 -1.5625 C 0.804688 -1.519531 0.753906 -1.457031 0.703125 -1.375 C 0.660156 -1.300781 0.625 -1.207031 0.59375 -1.09375 C 0.570312 -0.988281 0.5625 -0.875 0.5625 -0.75 C 0.5625 -0.601562 0.585938 -0.488281 0.640625 -0.40625 C 0.691406 -0.320312 0.769531 -0.28125 0.875 -0.28125 Z "/>
</g>
<g id="glyph-0-12">
<path d="M 1.78125 -0.3125 C 1.820312 -0.3125 1.851562 -0.296875 1.875 -0.265625 C 1.90625 -0.234375 1.921875 -0.195312 1.921875 -0.15625 C 1.921875 -0.113281 1.90625 -0.078125 1.875 -0.046875 C 1.851562 -0.015625 1.820312 0 1.78125 0 L 0.4375 0 C 0.394531 0 0.359375 -0.015625 0.328125 -0.046875 C 0.304688 -0.078125 0.296875 -0.113281 0.296875 -0.15625 C 0.296875 -0.195312 0.304688 -0.234375 0.328125 -0.265625 C 0.359375 -0.296875 0.394531 -0.3125 0.4375 -0.3125 L 0.96875 -0.3125 L 0.96875 -1.390625 C 0.96875 -1.429688 0.957031 -1.460938 0.9375 -1.484375 C 0.914062 -1.515625 0.878906 -1.53125 0.828125 -1.53125 L 0.515625 -1.53125 C 0.472656 -1.53125 0.4375 -1.539062 0.40625 -1.5625 C 0.375 -1.59375 0.359375 -1.628906 0.359375 -1.671875 C 0.359375 -1.722656 0.375 -1.765625 0.40625 -1.796875 C 0.4375 -1.828125 0.472656 -1.84375 0.515625 -1.84375 L 1 -1.84375 C 1.09375 -1.84375 1.160156 -1.816406 1.203125 -1.765625 C 1.253906 -1.722656 1.28125 -1.65625 1.28125 -1.5625 L 1.28125 -0.3125 Z M 1.109375 -2.1875 C 1.035156 -2.1875 0.976562 -2.207031 0.9375 -2.25 C 0.894531 -2.289062 0.875 -2.34375 0.875 -2.40625 C 0.875 -2.476562 0.894531 -2.53125 0.9375 -2.5625 C 0.976562 -2.601562 1.035156 -2.625 1.109375 -2.625 C 1.191406 -2.625 1.253906 -2.601562 1.296875 -2.5625 C 1.335938 -2.53125 1.359375 -2.476562 1.359375 -2.40625 C 1.359375 -2.34375 1.335938 -2.289062 1.296875 -2.25 C 1.253906 -2.207031 1.191406 -2.1875 1.109375 -2.1875 Z "/>
</g>
<g id="glyph-0-13">
<path d="M 0.75 -0.265625 C 0.75 -0.335938 0.773438 -0.40625 0.828125 -0.46875 C 0.890625 -0.53125 0.960938 -0.5625 1.046875 -0.5625 C 1.117188 -0.5625 1.179688 -0.53125 1.234375 -0.46875 C 1.296875 -0.40625 1.328125 -0.335938 1.328125 -0.265625 C 1.328125 -0.179688 1.296875 -0.109375 1.234375 -0.046875 C 1.179688 0.00390625 1.117188 0.03125 1.046875 0.03125 C 0.960938 0.03125 0.890625 0.00390625 0.828125 -0.046875 C 0.773438 -0.109375 0.75 -0.179688 0.75 -0.265625 Z M 0.75 -1.546875 C 0.75 -1.617188 0.773438 -1.6875 0.828125 -1.75 C 0.890625 -1.8125 0.960938 -1.84375 1.046875 -1.84375 C 1.117188 -1.84375 1.179688 -1.8125 1.234375 -1.75 C 1.296875 -1.6875 1.328125 -1.617188 1.328125 -1.546875 C 1.328125 -1.460938 1.296875 -1.390625 1.234375 -1.328125 C 1.179688 -1.273438 1.117188 -1.25 1.046875 -1.25 C 0.960938 -1.25 0.890625 -1.273438 0.828125 -1.328125 C 0.773438 -1.390625 0.75 -1.460938 0.75 -1.546875 Z "/>
</g>
</g>
</defs>
<g fill="rgb(100%, 100%, 100%)" fill-opacity="1">
<use xlink:href="#glyph-0-0" x="30" y="23.535156"/>
<use xlink:href="#glyph-0-1" x="32" y="23.535156"/>
<use xlink:href="#glyph-0-2" x="34" y="23.535156"/>
<use xlink:href="#glyph-0-3" x="36" y="23.535156"/>
<use xlink:href="#glyph-0-4" x="38" y="23.535156"/>
<use xlink:href="#glyph-0-2" x="40" y="23.535156"/>
<use xlink:href="#glyph-0-5" x="42" y="23.535156"/>
<use xlink:href="#glyph-0-6" x="44" y="23.535156"/>
<use xlink:href="#glyph-0-7" x="46" y="23.535156"/>
<use xlink:href="#glyph-0-8" x="48" y="23.535156"/>
<use xlink:href="#glyph-0-9" x="50" y="23.535156"/>
<use xlink:href="#glyph-0-10" x="52" y="23.535156"/>
<use xlink:href="#glyph-0-11" x="54" y="23.535156"/>
<use xlink:href="#glyph-0-12" x="56" y="23.535156"/>
<use xlink:href="#glyph-0-5" x="58" y="23.535156"/>
<use xlink:href="#glyph-0-13" x="60" y="23.535156"/>
</g>
</svg>
