<?xml version="1.0" encoding="UTF-8"?>
<svg xmlns="http://www.w3.org/2000/svg" xmlns:xlink="http://www.w3.org/1999/xlink" width="854" height="480" viewBox="0 0 854 480">
<defs>
<g>
<g id="glyph-0-0">
<path d="M 4 0.140625 C 3.332031 0.140625 2.789062 -0.0195312 2.375 -0.34375 C 1.96875 -0.675781 1.648438 -1.085938 1.421875 -1.578125 C 1.191406 -2.066406 1.035156 -2.601562 0.953125 -3.1875 C 0.878906 -3.78125 0.84375 -4.335938 0.84375 -4.859375 C 0.84375 -5.390625 0.878906 -5.945312 0.953125 -6.53125 C 1.035156 -7.113281 1.191406 -7.648438 1.421875 -8.140625 C 1.648438 -8.640625 1.972656 -9.050781 2.390625 -9.375 C 2.804688 -9.695312 3.351562 -9.859375 4.03125 -9.859375 C 4.695312 -9.859375 5.234375 -9.695312 5.640625 -9.375 C 6.054688 -9.0625 6.375 -8.660156 6.59375 -8.171875 C 6.820312 -7.679688 6.972656 -7.144531 7.046875 -6.5625 C 7.117188 -5.988281 7.15625 -5.445312 7.15625 -4.9375 C 7.15625 -4.394531 7.113281 -3.820312 7.03125 -3.21875 C 6.957031 -2.625 6.800781 -2.078125 6.5625 -1.578125 C 6.332031 -1.085938 6.015625 -0.675781 5.609375 -0.34375 C 5.203125 -0.0195312 4.664062 0.140625 4 0.140625 Z M 4 -1.0625 C 4.425781 -1.0625 4.765625 -1.203125 5.015625 -1.484375 C 5.273438 -1.765625 5.472656 -2.101562 5.609375 -2.5 C 5.753906 -2.894531 5.847656 -3.3125 5.890625 -3.75 C 5.929688 -4.1875 5.953125 -4.566406 5.953125 -4.890625 C 5.953125 -5.117188 5.941406 -5.378906 5.921875 -5.671875 L 2.359375 -2.546875 C 2.367188 -2.523438 2.378906 -2.507812 2.390625 -2.5 C 2.515625 -2.101562 2.707031 -1.765625 2.96875 -1.484375 C 3.226562 -1.203125 3.570312 -1.0625 4 -1.0625 Z M 5.625 -7.203125 L 5.625 -7.25 C 5.476562 -7.644531 5.273438 -7.976562 5.015625 -8.25 C 4.765625 -8.519531 4.425781 -8.65625 4 -8.65625 C 3.570312 -8.65625 3.226562 -8.515625 2.96875 -8.234375 C 2.707031 -7.960938 2.507812 -7.628906 2.375 -7.234375 C 2.238281 -6.835938 2.148438 -6.421875 2.109375 -5.984375 C 2.066406 -5.554688 2.046875 -5.1875 2.046875 -4.875 C 2.046875 -4.632812 2.054688 -4.367188 2.078125 -4.078125 Z "/>
</g>
<g id="glyph-0-1">
<path d="M 2.859375 -1 C 2.859375 -1.3125 2.96875 -1.578125 3.1875 -1.796875 C 3.414062 -2.015625 3.6875 -2.125 4 -2.125 C 4.3125 -2.125 4.578125 -2.015625 4.796875 -1.796875 C 5.015625 -1.578125 5.125 -1.3125 5.125 -1 C 5.125 -0.6875 5.015625 -0.414062 4.796875 -0.1875 C 4.578125 0.03125 4.3125 0.140625 4 0.140625 C 3.6875 0.140625 3.414062 0.03125 3.1875 -0.1875 C 2.96875 -0.414062 2.859375 -0.6875 2.859375 -1 Z "/>
</g>
<g id="glyph-0-2">
<path d="M 4 0.140625 C 3.539062 0.140625 3.117188 0.0703125 2.734375 -0.0625 C 2.347656 -0.207031 2.015625 -0.40625 1.734375 -0.65625 C 1.460938 -0.90625 1.25 -1.195312 1.09375 -1.53125 C 0.945312 -1.875 0.875 -2.253906 0.875 -2.671875 C 0.875 -2.984375 0.921875 -3.273438 1.015625 -3.546875 C 1.109375 -3.828125 1.238281 -4.070312 1.40625 -4.28125 C 1.570312 -4.5 1.773438 -4.675781 2.015625 -4.8125 C 2.253906 -4.957031 2.519531 -5.0625 2.8125 -5.125 L 2.8125 -5.15625 C 2.300781 -5.269531 1.894531 -5.523438 1.59375 -5.921875 C 1.289062 -6.316406 1.140625 -6.789062 1.140625 -7.34375 C 1.140625 -7.707031 1.207031 -8.046875 1.34375 -8.359375 C 1.488281 -8.671875 1.6875 -8.9375 1.9375 -9.15625 C 2.1875 -9.375 2.484375 -9.546875 2.828125 -9.671875 C 3.179688 -9.796875 3.570312 -9.859375 4 -9.859375 C 4.425781 -9.859375 4.8125 -9.796875 5.15625 -9.671875 C 5.5 -9.546875 5.796875 -9.375 6.046875 -9.15625 C 6.304688 -8.9375 6.503906 -8.671875 6.640625 -8.359375 C 6.773438 -8.046875 6.84375 -7.707031 6.84375 -7.34375 C 6.84375 -6.789062 6.691406 -6.316406 6.390625 -5.921875 C 6.085938 -5.523438 5.6875 -5.269531 5.1875 -5.15625 L 5.1875 -5.125 C 5.476562 -5.0625 5.742188 -4.957031 5.984375 -4.8125 C 6.222656 -4.675781 6.425781 -4.5 6.59375 -4.28125 C 6.757812 -4.070312 6.890625 -3.828125 6.984375 -3.546875 C 7.078125 -3.273438 7.125 -2.984375 7.125 -2.671875 C 7.125 -2.253906 7.046875 -1.875 6.890625 -1.53125 C 6.734375 -1.195312 6.519531 -0.90625 6.25 -0.65625 C 5.976562 -0.40625 5.648438 -0.207031 5.265625 -0.0625 C 4.878906 0.0703125 4.457031 0.140625 4 0.140625 Z M 4 -1.0625 C 4.28125 -1.0625 4.535156 -1.101562 4.765625 -1.1875 C 5.003906 -1.269531 5.207031 -1.382812 5.375 -1.53125 C 5.550781 -1.6875 5.6875 -1.867188 5.78125 -2.078125 C 5.875 -2.296875 5.921875 -2.53125 5.921875 -2.78125 C 5.921875 -3.039062 5.875 -3.28125 5.78125 -3.5 C 5.6875 -3.71875 5.550781 -3.898438 5.375 -4.046875 C 5.207031 -4.203125 5.003906 -4.320312 4.765625 -4.40625 C 4.535156 -4.488281 4.28125 -4.53125 4 -4.53125 C 3.71875 -4.53125 3.457031 -4.488281 3.21875 -4.40625 C 2.976562 -4.320312 2.773438 -4.203125 2.609375 -4.046875 C 2.441406 -3.898438 2.3125 -3.71875 2.21875 -3.5 C 2.125 -3.28125 2.078125 -3.039062 2.078125 -2.78125 C 2.078125 -2.53125 2.125 -2.296875 2.21875 -2.078125 C 2.3125 -1.867188 2.441406 -1.6875 2.609375 -1.53125 C 2.773438 -1.382812 2.976562 -1.269531 3.21875 -1.1875 C 3.457031 -1.101562 3.71875 -1.0625 4 -1.0625 Z M 4 -5.734375 C 4.5 -5.734375 4.898438 -5.859375 5.203125 -6.109375 C 5.503906 -6.367188 5.65625 -6.726562 5.65625 -7.1875 C 5.65625 -7.644531 5.503906 -8.003906 5.203125 -8.265625 C 4.898438 -8.523438 4.5 -8.65625 4 -8.65625 C 3.5 -8.65625 3.097656 -8.523438 2.796875 -8.265625 C 2.492188 -8.003906 2.34375 -7.644531 2.34375 -7.1875 C 2.34375 -6.726562 2.492188 -6.367188 2.796875 -6.109375 C 3.097656 -5.859375 3.5 -5.734375 4 -5.734375 Z "/>
</g>
</g>
</defs>
<g fill="rgb(71.764706%, 83.137255%, 88.627451%)" fill-opacity="1">
<use xlink:href="#glyph-0-0" x="30" y="33.599609"/>
<use xlink:href="#glyph-0-1" x="38" y="33.599609"/>
<use xlink:href="#glyph-0-2" x="46" y="33.599609"/>
</g>
</svg>
