<?xml version="1.0" encoding="UTF-8"?>
<svg xmlns="http://www.w3.org/2000/svg" xmlns:xlink="http://www.w3.org/1999/xlink" width="1920" height="1080" viewBox="0 0 1920 1080">
<defs>
<g>
<g id="glyph-0-0">
<path d="M 0.734375 -2.375 C 0.8125 -2.375 0.859375 -2.3125 0.859375 -2.1875 L 0.859375 -0.375 C 0.859375 -0.109375 0.75 -0.0625 0.46875 -0.0625 L 0.46875 0 L 1.578125 0 L 1.578125 -0.0625 C 1.265625 -0.0625 1.203125 -0.109375 1.203125 -0.296875 L 1.203125 -2.703125 L 1.15625 -2.703125 L 0.4375 -2.34375 L 0.4375 -2.28125 C 0.59375 -2.34375 0.671875 -2.375 0.734375 -2.375 Z "/>
</g>
<g id="glyph-0-1">
<path d="M 1.421875 -0.78125 C 1.421875 -0.390625 1.1875 -0.09375 0.875 -0.09375 C 0.65625 -0.09375 0.53125 -0.34375 0.296875 -0.34375 C 0.1875 -0.34375 0.125 -0.296875 0.125 -0.1875 C 0.125 -0.046875 0.3125 0.0625 0.609375 0.0625 C 1.046875 0.0625 1.703125 -0.140625 1.703125 -0.96875 C 1.703125 -1.59375 1.296875 -1.859375 0.5625 -1.984375 L 0.71875 -2.328125 L 1.515625 -2.328125 C 1.578125 -2.328125 1.59375 -2.34375 1.59375 -2.375 L 1.75 -2.71875 L 1.71875 -2.75 C 1.65625 -2.671875 1.609375 -2.640625 1.53125 -2.640625 L 0.703125 -2.640625 L 0.265625 -1.703125 C 0.25 -1.6875 0.25 -1.6875 0.25 -1.6875 C 0.25 -1.65625 0.265625 -1.640625 0.296875 -1.640625 C 0.546875 -1.640625 1.421875 -1.515625 1.421875 -0.78125 Z "/>
</g>
<g id="glyph-0-2">
<path d="M 1 0.0625 C 1.546875 0.0625 1.90625 -0.515625 1.90625 -1.3125 C 1.90625 -2.140625 1.546875 -2.703125 1.015625 -2.703125 C 0.4375 -2.703125 0.09375 -2.09375 0.09375 -1.34375 C 0.09375 -0.53125 0.453125 0.0625 1 0.0625 Z M 1 -2.59375 C 1.34375 -2.59375 1.515625 -2.140625 1.515625 -1.3125 C 1.515625 -0.46875 1.34375 -0.046875 1 -0.046875 C 0.65625 -0.046875 0.484375 -0.46875 0.484375 -1.3125 C 0.484375 -2.15625 0.65625 -2.59375 1 -2.59375 Z "/>
</g>
</g>
</defs>
<g fill="rgb(98.823529%, 38.431373%, 33.333333%)" fill-opacity="1">
<use xlink:href="#glyph-0-0" x="30" y="23.599609"/>
<use xlink:href="#glyph-0-1" x="32" y="23.599609"/>
<use xlink:href="#glyph-0-2" x="34" y="23.599609"/>
</g>
</svg>
