<?xml version="1.0" encoding="UTF-8"?>
<svg xmlns="http://www.w3.org/2000/svg" xmlns:xlink="http://www.w3.org/1999/xlink" width="1920" height="1080" viewBox="0 0 1920 1080">
<defs>
<g>
<g id="glyph-0-0">
<path d="M 0.59375 -1.484375 L 0.234375 -1.484375 C 0.203125 -1.484375 0.175781 -1.488281 0.15625 -1.5 C 0.132812 -1.519531 0.125 -1.546875 0.125 -1.578125 C 0.125 -1.609375 0.132812 -1.632812 0.15625 -1.65625 C 0.175781 -1.675781 0.203125 -1.6875 0.234375 -1.6875 L 1.15625 -1.6875 C 1.1875 -1.6875 1.210938 -1.675781 1.234375 -1.65625 C 1.253906 -1.632812 1.265625 -1.609375 1.265625 -1.578125 C 1.265625 -1.546875 1.253906 -1.519531 1.234375 -1.5 C 1.210938 -1.488281 1.1875 -1.484375 1.15625 -1.484375 L 0.796875 -1.484375 L 0.796875 -0.078125 C 0.796875 -0.046875 0.785156 -0.0195312 0.765625 0 C 0.753906 0.0078125 0.726562 0.015625 0.6875 0.015625 C 0.65625 0.015625 0.628906 0.0078125 0.609375 0 C 0.597656 -0.0195312 0.59375 -0.046875 0.59375 -0.078125 Z "/>
</g>
<g id="glyph-0-1">
<path d="M 0.359375 0.015625 C 0.328125 0.015625 0.300781 0.0078125 0.28125 0 C 0.257812 -0.0195312 0.25 -0.046875 0.25 -0.078125 L 0.25 -1.1875 C 0.25 -1.226562 0.257812 -1.253906 0.28125 -1.265625 C 0.300781 -1.285156 0.328125 -1.296875 0.359375 -1.296875 C 0.390625 -1.296875 0.414062 -1.285156 0.4375 -1.265625 C 0.457031 -1.253906 0.46875 -1.226562 0.46875 -1.1875 L 0.46875 -1.046875 C 0.476562 -1.085938 0.492188 -1.125 0.515625 -1.15625 C 0.546875 -1.1875 0.582031 -1.210938 0.625 -1.234375 C 0.664062 -1.253906 0.707031 -1.269531 0.75 -1.28125 C 0.800781 -1.289062 0.847656 -1.296875 0.890625 -1.296875 C 0.953125 -1.296875 1.003906 -1.28125 1.046875 -1.25 C 1.097656 -1.226562 1.132812 -1.195312 1.15625 -1.15625 C 1.1875 -1.113281 1.203125 -1.0625 1.203125 -1 C 1.210938 -0.945312 1.21875 -0.894531 1.21875 -0.84375 L 1.21875 -0.8125 C 1.21875 -0.769531 1.207031 -0.738281 1.1875 -0.71875 C 1.175781 -0.707031 1.15625 -0.703125 1.125 -0.703125 C 1.082031 -0.703125 1.050781 -0.707031 1.03125 -0.71875 C 1.019531 -0.738281 1.015625 -0.769531 1.015625 -0.8125 L 1.015625 -0.84375 C 1.015625 -0.875 1.007812 -0.90625 1 -0.9375 C 1 -0.96875 0.988281 -0.992188 0.96875 -1.015625 C 0.957031 -1.035156 0.9375 -1.050781 0.90625 -1.0625 C 0.882812 -1.082031 0.851562 -1.09375 0.8125 -1.09375 C 0.769531 -1.09375 0.726562 -1.082031 0.6875 -1.0625 C 0.644531 -1.050781 0.609375 -1.035156 0.578125 -1.015625 C 0.546875 -0.992188 0.519531 -0.960938 0.5 -0.921875 C 0.476562 -0.890625 0.46875 -0.851562 0.46875 -0.8125 L 0.46875 -0.078125 C 0.46875 -0.046875 0.457031 -0.0195312 0.4375 0 C 0.414062 0.0078125 0.390625 0.015625 0.359375 0.015625 Z "/>
</g>
<g id="glyph-0-2">
<path d="M 0.5625 0.015625 C 0.5 0.015625 0.441406 0.0078125 0.390625 0 C 0.347656 -0.0195312 0.304688 -0.0507812 0.265625 -0.09375 C 0.234375 -0.132812 0.207031 -0.1875 0.1875 -0.25 C 0.164062 -0.320312 0.15625 -0.410156 0.15625 -0.515625 C 0.15625 -0.617188 0.164062 -0.71875 0.1875 -0.8125 C 0.21875 -0.914062 0.253906 -1 0.296875 -1.0625 C 0.335938 -1.132812 0.390625 -1.191406 0.453125 -1.234375 C 0.523438 -1.273438 0.601562 -1.296875 0.6875 -1.296875 C 0.769531 -1.296875 0.828125 -1.273438 0.859375 -1.234375 C 0.898438 -1.203125 0.929688 -1.164062 0.953125 -1.125 C 0.953125 -1.144531 0.953125 -1.164062 0.953125 -1.1875 C 0.960938 -1.226562 0.976562 -1.253906 1 -1.265625 C 1.019531 -1.285156 1.046875 -1.296875 1.078125 -1.296875 C 1.109375 -1.296875 1.128906 -1.285156 1.140625 -1.265625 C 1.160156 -1.253906 1.171875 -1.226562 1.171875 -1.1875 C 1.148438 -1.101562 1.132812 -1.015625 1.125 -0.921875 C 1.125 -0.835938 1.125 -0.75 1.125 -0.65625 C 1.125 -0.5625 1.128906 -0.46875 1.140625 -0.375 C 1.160156 -0.28125 1.179688 -0.179688 1.203125 -0.078125 C 1.210938 -0.046875 1.207031 -0.0195312 1.1875 0 C 1.175781 0.0078125 1.15625 0.015625 1.125 0.015625 C 1.09375 0.015625 1.0625 0.0078125 1.03125 0 C 1.007812 -0.0195312 1 -0.046875 1 -0.078125 C 0.976562 -0.148438 0.960938 -0.222656 0.953125 -0.296875 C 0.941406 -0.265625 0.929688 -0.238281 0.921875 -0.21875 C 0.878906 -0.144531 0.828125 -0.0859375 0.765625 -0.046875 C 0.710938 -0.00390625 0.644531 0.015625 0.5625 0.015625 Z M 0.578125 -0.1875 C 0.628906 -0.1875 0.675781 -0.195312 0.71875 -0.21875 C 0.757812 -0.25 0.789062 -0.285156 0.8125 -0.328125 C 0.84375 -0.378906 0.863281 -0.4375 0.875 -0.5 C 0.894531 -0.5625 0.90625 -0.632812 0.90625 -0.71875 C 0.90625 -0.75 0.90625 -0.785156 0.90625 -0.828125 C 0.90625 -0.878906 0.898438 -0.921875 0.890625 -0.953125 C 0.878906 -0.992188 0.859375 -1.023438 0.828125 -1.046875 C 0.796875 -1.078125 0.757812 -1.09375 0.71875 -1.09375 C 0.664062 -1.09375 0.617188 -1.078125 0.578125 -1.046875 C 0.535156 -1.015625 0.5 -0.972656 0.46875 -0.921875 C 0.4375 -0.867188 0.410156 -0.804688 0.390625 -0.734375 C 0.378906 -0.660156 0.375 -0.582031 0.375 -0.5 C 0.375 -0.394531 0.390625 -0.316406 0.421875 -0.265625 C 0.453125 -0.210938 0.503906 -0.1875 0.578125 -0.1875 Z "/>
</g>
<g id="glyph-0-3">
<path d="M 0.421875 -0.078125 C 0.421875 -0.046875 0.410156 -0.0195312 0.390625 0 C 0.378906 0.0078125 0.359375 0.015625 0.328125 0.015625 C 0.285156 0.015625 0.253906 0.0078125 0.234375 0 C 0.222656 -0.0195312 0.21875 -0.046875 0.21875 -0.078125 L 0.21875 -1.1875 C 0.21875 -1.226562 0.222656 -1.253906 0.234375 -1.265625 C 0.253906 -1.285156 0.285156 -1.296875 0.328125 -1.296875 C 0.359375 -1.296875 0.378906 -1.285156 0.390625 -1.265625 C 0.410156 -1.253906 0.421875 -1.226562 0.421875 -1.1875 L 0.421875 -1.046875 C 0.441406 -1.128906 0.476562 -1.191406 0.53125 -1.234375 C 0.59375 -1.273438 0.664062 -1.296875 0.75 -1.296875 C 0.8125 -1.296875 0.863281 -1.285156 0.90625 -1.265625 C 0.957031 -1.242188 1.003906 -1.210938 1.046875 -1.171875 C 1.085938 -1.128906 1.117188 -1.082031 1.140625 -1.03125 C 1.160156 -0.976562 1.171875 -0.921875 1.171875 -0.859375 L 1.171875 -0.078125 C 1.171875 -0.046875 1.160156 -0.0195312 1.140625 0 C 1.117188 0.0078125 1.09375 0.015625 1.0625 0.015625 C 1.03125 0.015625 1.003906 0.0078125 0.984375 0 C 0.960938 -0.0195312 0.953125 -0.046875 0.953125 -0.078125 L 0.953125 -0.796875 C 0.953125 -0.835938 0.945312 -0.875 0.9375 -0.90625 C 0.925781 -0.945312 0.910156 -0.976562 0.890625 -1 C 0.867188 -1.03125 0.84375 -1.050781 0.8125 -1.0625 C 0.78125 -1.082031 0.742188 -1.09375 0.703125 -1.09375 C 0.660156 -1.09375 0.625 -1.082031 0.59375 -1.0625 C 0.5625 -1.039062 0.53125 -1.007812 0.5 -0.96875 C 0.476562 -0.9375 0.457031 -0.894531 0.4375 -0.84375 C 0.425781 -0.800781 0.421875 -0.765625 0.421875 -0.734375 Z "/>
</g>
<g id="glyph-0-4">
<path d="M 0.703125 0.015625 C 0.648438 0.015625 0.601562 0.0078125 0.5625 0 C 0.519531 0 0.476562 -0.00390625 0.4375 -0.015625 C 0.40625 -0.0351562 0.367188 -0.0546875 0.328125 -0.078125 C 0.296875 -0.0976562 0.265625 -0.128906 0.234375 -0.171875 C 0.210938 -0.179688 0.195312 -0.195312 0.1875 -0.21875 C 0.1875 -0.238281 0.1875 -0.257812 0.1875 -0.28125 C 0.1875 -0.320312 0.195312 -0.347656 0.21875 -0.359375 C 0.238281 -0.367188 0.257812 -0.375 0.28125 -0.375 C 0.289062 -0.375 0.300781 -0.367188 0.3125 -0.359375 C 0.332031 -0.359375 0.351562 -0.347656 0.375 -0.328125 C 0.414062 -0.285156 0.457031 -0.25 0.5 -0.21875 C 0.550781 -0.195312 0.613281 -0.1875 0.6875 -0.1875 C 0.71875 -0.1875 0.75 -0.1875 0.78125 -0.1875 C 0.820312 -0.1875 0.851562 -0.191406 0.875 -0.203125 C 0.90625 -0.222656 0.929688 -0.242188 0.953125 -0.265625 C 0.984375 -0.285156 1 -0.3125 1 -0.34375 C 1 -0.375 0.984375 -0.398438 0.953125 -0.421875 C 0.929688 -0.453125 0.90625 -0.472656 0.875 -0.484375 C 0.851562 -0.503906 0.820312 -0.519531 0.78125 -0.53125 C 0.75 -0.539062 0.71875 -0.550781 0.6875 -0.5625 C 0.632812 -0.570312 0.582031 -0.582031 0.53125 -0.59375 C 0.476562 -0.613281 0.429688 -0.632812 0.390625 -0.65625 C 0.347656 -0.6875 0.3125 -0.722656 0.28125 -0.765625 C 0.25 -0.804688 0.234375 -0.863281 0.234375 -0.9375 C 0.234375 -1 0.242188 -1.050781 0.265625 -1.09375 C 0.296875 -1.144531 0.332031 -1.179688 0.375 -1.203125 C 0.414062 -1.234375 0.460938 -1.253906 0.515625 -1.265625 C 0.566406 -1.285156 0.625 -1.296875 0.6875 -1.296875 C 0.789062 -1.296875 0.882812 -1.28125 0.96875 -1.25 C 1.050781 -1.21875 1.113281 -1.164062 1.15625 -1.09375 C 1.164062 -1.082031 1.171875 -1.066406 1.171875 -1.046875 C 1.171875 -1.035156 1.171875 -1.023438 1.171875 -1.015625 C 1.171875 -0.992188 1.160156 -0.972656 1.140625 -0.953125 C 1.128906 -0.929688 1.109375 -0.921875 1.078125 -0.921875 C 1.066406 -0.921875 1.050781 -0.921875 1.03125 -0.921875 C 1.019531 -0.929688 1.003906 -0.945312 0.984375 -0.96875 C 0.941406 -1 0.898438 -1.023438 0.859375 -1.046875 C 0.816406 -1.078125 0.757812 -1.09375 0.6875 -1.09375 C 0.65625 -1.09375 0.625 -1.085938 0.59375 -1.078125 C 0.5625 -1.078125 0.535156 -1.066406 0.515625 -1.046875 C 0.492188 -1.035156 0.472656 -1.019531 0.453125 -1 C 0.441406 -0.988281 0.4375 -0.96875 0.4375 -0.9375 C 0.4375 -0.90625 0.445312 -0.878906 0.46875 -0.859375 C 0.488281 -0.835938 0.507812 -0.820312 0.53125 -0.8125 C 0.550781 -0.800781 0.578125 -0.789062 0.609375 -0.78125 C 0.640625 -0.769531 0.664062 -0.765625 0.6875 -0.765625 C 0.75 -0.753906 0.8125 -0.738281 0.875 -0.71875 C 0.9375 -0.695312 0.988281 -0.671875 1.03125 -0.640625 C 1.082031 -0.609375 1.125 -0.566406 1.15625 -0.515625 C 1.1875 -0.472656 1.203125 -0.414062 1.203125 -0.34375 C 1.203125 -0.28125 1.1875 -0.222656 1.15625 -0.171875 C 1.132812 -0.128906 1.097656 -0.09375 1.046875 -0.0625 C 1.003906 -0.03125 0.953125 -0.0078125 0.890625 0 C 0.828125 0.0078125 0.765625 0.015625 0.703125 0.015625 Z "/>
</g>
<g id="glyph-0-5">
<path d="M 0.203125 -0.875 C 0.171875 -0.875 0.144531 -0.882812 0.125 -0.90625 C 0.113281 -0.925781 0.109375 -0.953125 0.109375 -0.984375 C 0.109375 -1.015625 0.113281 -1.039062 0.125 -1.0625 C 0.144531 -1.082031 0.171875 -1.09375 0.203125 -1.09375 L 0.5 -1.09375 L 0.5 -1.3125 C 0.5 -1.375 0.507812 -1.425781 0.53125 -1.46875 C 0.550781 -1.519531 0.578125 -1.5625 0.609375 -1.59375 C 0.648438 -1.625 0.691406 -1.644531 0.734375 -1.65625 C 0.785156 -1.675781 0.84375 -1.6875 0.90625 -1.6875 L 1.125 -1.6875 C 1.15625 -1.6875 1.175781 -1.675781 1.1875 -1.65625 C 1.207031 -1.632812 1.21875 -1.609375 1.21875 -1.578125 C 1.21875 -1.546875 1.207031 -1.519531 1.1875 -1.5 C 1.175781 -1.488281 1.15625 -1.484375 1.125 -1.484375 L 0.90625 -1.484375 C 0.875 -1.484375 0.84375 -1.476562 0.8125 -1.46875 C 0.789062 -1.457031 0.769531 -1.441406 0.75 -1.421875 C 0.738281 -1.410156 0.726562 -1.394531 0.71875 -1.375 C 0.707031 -1.351562 0.703125 -1.332031 0.703125 -1.3125 L 0.703125 -1.09375 L 1.140625 -1.09375 C 1.171875 -1.09375 1.195312 -1.082031 1.21875 -1.0625 C 1.238281 -1.039062 1.25 -1.015625 1.25 -0.984375 C 1.25 -0.953125 1.238281 -0.925781 1.21875 -0.90625 C 1.195312 -0.882812 1.171875 -0.875 1.140625 -0.875 L 0.703125 -0.875 L 0.703125 -0.078125 C 0.703125 -0.046875 0.691406 -0.0195312 0.671875 0 C 0.660156 0.0078125 0.632812 0.015625 0.59375 0.015625 C 0.5625 0.015625 0.535156 0.0078125 0.515625 0 C 0.503906 -0.0195312 0.5 -0.046875 0.5 -0.078125 L 0.5 -0.875 Z "/>
</g>
<g id="glyph-0-6">
<path d="M 1.0625 -0.3125 C 1.09375 -0.3125 1.113281 -0.300781 1.125 -0.28125 C 1.144531 -0.257812 1.15625 -0.234375 1.15625 -0.203125 C 1.15625 -0.191406 1.148438 -0.175781 1.140625 -0.15625 C 1.140625 -0.144531 1.128906 -0.128906 1.109375 -0.109375 C 1.085938 -0.0859375 1.0625 -0.0664062 1.03125 -0.046875 C 1.007812 -0.0351562 0.984375 -0.0234375 0.953125 -0.015625 C 0.921875 -0.00390625 0.882812 0 0.84375 0 C 0.8125 0.0078125 0.773438 0.015625 0.734375 0.015625 C 0.648438 0.015625 0.570312 0.00390625 0.5 -0.015625 C 0.425781 -0.046875 0.363281 -0.0859375 0.3125 -0.140625 C 0.269531 -0.203125 0.234375 -0.273438 0.203125 -0.359375 C 0.179688 -0.441406 0.171875 -0.53125 0.171875 -0.625 C 0.171875 -0.71875 0.179688 -0.800781 0.203125 -0.875 C 0.222656 -0.957031 0.253906 -1.03125 0.296875 -1.09375 C 0.335938 -1.15625 0.390625 -1.203125 0.453125 -1.234375 C 0.523438 -1.273438 0.609375 -1.296875 0.703125 -1.296875 C 0.796875 -1.296875 0.875 -1.28125 0.9375 -1.25 C 1 -1.21875 1.046875 -1.171875 1.078125 -1.109375 C 1.117188 -1.054688 1.144531 -0.988281 1.15625 -0.90625 C 1.175781 -0.832031 1.1875 -0.75 1.1875 -0.65625 C 1.1875 -0.632812 1.175781 -0.613281 1.15625 -0.59375 C 1.132812 -0.570312 1.109375 -0.5625 1.078125 -0.5625 L 0.375 -0.5625 C 0.382812 -0.5 0.398438 -0.441406 0.421875 -0.390625 C 0.441406 -0.347656 0.46875 -0.3125 0.5 -0.28125 C 0.53125 -0.25 0.566406 -0.222656 0.609375 -0.203125 C 0.648438 -0.191406 0.691406 -0.1875 0.734375 -0.1875 C 0.804688 -0.1875 0.863281 -0.195312 0.90625 -0.21875 C 0.945312 -0.238281 0.976562 -0.257812 1 -0.28125 C 1.007812 -0.289062 1.019531 -0.296875 1.03125 -0.296875 C 1.039062 -0.304688 1.050781 -0.3125 1.0625 -0.3125 Z M 0.953125 -0.734375 C 0.953125 -0.734375 0.957031 -0.738281 0.96875 -0.75 C 0.976562 -0.757812 0.984375 -0.78125 0.984375 -0.8125 C 0.984375 -0.84375 0.976562 -0.875 0.96875 -0.90625 C 0.957031 -0.945312 0.9375 -0.976562 0.90625 -1 C 0.882812 -1.019531 0.851562 -1.039062 0.8125 -1.0625 C 0.78125 -1.082031 0.742188 -1.09375 0.703125 -1.09375 C 0.660156 -1.09375 0.617188 -1.082031 0.578125 -1.0625 C 0.535156 -1.039062 0.5 -1.015625 0.46875 -0.984375 C 0.445312 -0.953125 0.425781 -0.914062 0.40625 -0.875 C 0.394531 -0.832031 0.382812 -0.785156 0.375 -0.734375 Z "/>
</g>
<g id="glyph-0-7">
</g>
<g id="glyph-0-8">
<path d="M 0.953125 -1.359375 C 0.929688 -1.410156 0.894531 -1.445312 0.84375 -1.46875 C 0.800781 -1.488281 0.75 -1.5 0.6875 -1.5 C 0.601562 -1.5 0.535156 -1.472656 0.484375 -1.421875 C 0.441406 -1.378906 0.421875 -1.328125 0.421875 -1.265625 C 0.421875 -1.210938 0.425781 -1.171875 0.4375 -1.140625 C 0.445312 -1.109375 0.460938 -1.082031 0.484375 -1.0625 C 0.515625 -1.050781 0.546875 -1.035156 0.578125 -1.015625 C 0.617188 -1.003906 0.65625 -0.992188 0.6875 -0.984375 C 0.769531 -0.960938 0.84375 -0.941406 0.90625 -0.921875 C 0.96875 -0.898438 1.019531 -0.867188 1.0625 -0.828125 C 1.113281 -0.785156 1.148438 -0.734375 1.171875 -0.671875 C 1.203125 -0.617188 1.21875 -0.546875 1.21875 -0.453125 C 1.21875 -0.378906 1.203125 -0.3125 1.171875 -0.25 C 1.148438 -0.195312 1.117188 -0.148438 1.078125 -0.109375 C 1.035156 -0.0664062 0.976562 -0.0351562 0.90625 -0.015625 C 0.84375 0.00390625 0.769531 0.015625 0.6875 0.015625 C 0.625 0.015625 0.5625 0.0078125 0.5 0 C 0.4375 -0.0195312 0.382812 -0.046875 0.34375 -0.078125 C 0.300781 -0.109375 0.265625 -0.144531 0.234375 -0.1875 C 0.203125 -0.238281 0.179688 -0.296875 0.171875 -0.359375 C 0.171875 -0.390625 0.175781 -0.414062 0.1875 -0.4375 C 0.207031 -0.457031 0.234375 -0.46875 0.265625 -0.46875 C 0.296875 -0.46875 0.320312 -0.457031 0.34375 -0.4375 C 0.363281 -0.425781 0.378906 -0.40625 0.390625 -0.375 C 0.421875 -0.3125 0.457031 -0.265625 0.5 -0.234375 C 0.550781 -0.203125 0.613281 -0.1875 0.6875 -0.1875 C 0.738281 -0.1875 0.785156 -0.191406 0.828125 -0.203125 C 0.867188 -0.210938 0.898438 -0.226562 0.921875 -0.25 C 0.953125 -0.28125 0.972656 -0.3125 0.984375 -0.34375 C 1.003906 -0.375 1.015625 -0.410156 1.015625 -0.453125 C 1.015625 -0.515625 1.003906 -0.5625 0.984375 -0.59375 C 0.972656 -0.625 0.953125 -0.648438 0.921875 -0.671875 C 0.890625 -0.703125 0.851562 -0.722656 0.8125 -0.734375 C 0.78125 -0.742188 0.738281 -0.757812 0.6875 -0.78125 C 0.625 -0.789062 0.5625 -0.804688 0.5 -0.828125 C 0.445312 -0.859375 0.394531 -0.890625 0.34375 -0.921875 C 0.300781 -0.953125 0.265625 -0.992188 0.234375 -1.046875 C 0.210938 -1.109375 0.203125 -1.179688 0.203125 -1.265625 C 0.203125 -1.328125 0.210938 -1.382812 0.234375 -1.4375 C 0.265625 -1.5 0.300781 -1.546875 0.34375 -1.578125 C 0.382812 -1.617188 0.429688 -1.648438 0.484375 -1.671875 C 0.546875 -1.703125 0.613281 -1.71875 0.6875 -1.71875 C 0.75 -1.71875 0.804688 -1.707031 0.859375 -1.6875 C 0.910156 -1.664062 0.957031 -1.640625 1 -1.609375 C 1.039062 -1.585938 1.070312 -1.550781 1.09375 -1.5 C 1.125 -1.457031 1.144531 -1.414062 1.15625 -1.375 C 1.164062 -1.34375 1.160156 -1.316406 1.140625 -1.296875 C 1.128906 -1.273438 1.109375 -1.265625 1.078125 -1.265625 C 1.046875 -1.265625 1.019531 -1.269531 1 -1.28125 C 0.976562 -1.300781 0.960938 -1.328125 0.953125 -1.359375 Z "/>
</g>
<g id="glyph-0-9">
<path d="M 0.40625 0.015625 C 0.363281 0.015625 0.328125 0.00390625 0.296875 -0.015625 C 0.273438 -0.0351562 0.257812 -0.0664062 0.25 -0.109375 L 0.09375 -1.1875 C 0.0820312 -1.21875 0.0820312 -1.242188 0.09375 -1.265625 C 0.113281 -1.285156 0.144531 -1.296875 0.1875 -1.296875 C 0.21875 -1.296875 0.238281 -1.285156 0.25 -1.265625 C 0.269531 -1.253906 0.285156 -1.234375 0.296875 -1.203125 L 0.40625 -0.296875 C 0.40625 -0.285156 0.40625 -0.28125 0.40625 -0.28125 C 0.414062 -0.28125 0.421875 -0.285156 0.421875 -0.296875 L 0.546875 -0.90625 C 0.554688 -0.945312 0.570312 -0.972656 0.59375 -0.984375 C 0.625 -1.003906 0.65625 -1.015625 0.6875 -1.015625 C 0.726562 -1.015625 0.757812 -1.003906 0.78125 -0.984375 C 0.8125 -0.972656 0.828125 -0.945312 0.828125 -0.90625 L 0.96875 -0.296875 C 0.96875 -0.285156 0.96875 -0.28125 0.96875 -0.28125 C 0.96875 -0.28125 0.972656 -0.285156 0.984375 -0.296875 L 1.09375 -1.203125 C 1.101562 -1.234375 1.113281 -1.253906 1.125 -1.265625 C 1.144531 -1.285156 1.171875 -1.296875 1.203125 -1.296875 C 1.242188 -1.296875 1.269531 -1.285156 1.28125 -1.265625 C 1.300781 -1.242188 1.304688 -1.21875 1.296875 -1.1875 L 1.125 -0.109375 C 1.125 -0.0664062 1.109375 -0.0351562 1.078125 -0.015625 C 1.054688 0.00390625 1.023438 0.015625 0.984375 0.015625 C 0.929688 0.015625 0.890625 0.00390625 0.859375 -0.015625 C 0.835938 -0.0351562 0.820312 -0.0664062 0.8125 -0.109375 L 0.703125 -0.671875 C 0.703125 -0.679688 0.695312 -0.6875 0.6875 -0.6875 C 0.6875 -0.6875 0.6875 -0.679688 0.6875 -0.671875 L 0.578125 -0.109375 C 0.566406 -0.0664062 0.546875 -0.0351562 0.515625 -0.015625 C 0.492188 0.00390625 0.457031 0.015625 0.40625 0.015625 Z "/>
</g>
<g id="glyph-0-10">
<path d="M 0.5 -0.171875 C 0.5 -0.222656 0.515625 -0.269531 0.546875 -0.3125 C 0.585938 -0.351562 0.632812 -0.375 0.6875 -0.375 C 0.75 -0.375 0.796875 -0.351562 0.828125 -0.3125 C 0.867188 -0.269531 0.890625 -0.222656 0.890625 -0.171875 C 0.890625 -0.117188 0.867188 -0.0703125 0.828125 -0.03125 C 0.796875 0 0.75 0.015625 0.6875 0.015625 C 0.632812 0.015625 0.585938 0 0.546875 -0.03125 C 0.515625 -0.0703125 0.5 -0.117188 0.5 -0.171875 Z "/>
</g>
</g>
</defs>
<g fill="rgb(100%, 100%, 100%)" fill-opacity="1">
<use xlink:href="#glyph-0-0" x="30" y="22.357422"/>
<use xlink:href="#glyph-0-1" x="31" y="22.357422"/>
<use xlink:href="#glyph-0-2" x="32" y="22.357422"/>
<use xlink:href="#glyph-0-3" x="33" y="22.357422"/>
<use xlink:href="#glyph-0-4" x="34" y="22.357422"/>
<use xlink:href="#glyph-0-5" x="35" y="22.357422"/>
<use xlink:href="#glyph-0-6" x="36" y="22.357422"/>
<use xlink:href="#glyph-0-1" x="37" y="22.357422"/>
<use xlink:href="#glyph-0-7" x="38" y="22.357422"/>
<use xlink:href="#glyph-0-8" x="39" y="22.357422"/>
<use xlink:href="#glyph-0-9" x="40" y="22.357422"/>
<use xlink:href="#glyph-0-10" x="41" y="22.357422"/>
</g>
</svg>
