<?xml version="1.0" encoding="UTF-8"?>
<svg version="1.1" xmlns="http://www.w3.org/2000/svg" width="1024" height="1024">
<path d="M0 0 C2.67677054 0.00314772 5.35241892 -0.02033113 8.02905273 -0.0456543 C22.76981742 -0.10073422 36.63749569 1.82867215 50.82397461 5.94067383 C52.1274585 6.31808716 52.1274585 6.31808716 53.45727539 6.703125 C79.43053344 14.56820053 104.00807673 29.4128593 122.51147461 49.31567383 C124.17548524 50.98499231 125.84225367 52.65156536 127.51147461 54.31567383 C136.25837104 63.09288879 142.909629 72.87938263 149.51147461 83.31567383 C150.42606445 84.75813477 150.42606445 84.75813477 151.35913086 86.22973633 C152.51147461 88.31567383 152.51147461 88.31567383 152.51147461 90.31567383 C153.71416992 89.95473633 154.91686523 89.59379883 156.15600586 89.22192383 C191.80400798 79.24588337 230.32505592 86.99644773 262.46508789 104.37182617 C273.38475024 110.54689967 283.35445529 117.9852062 292.51538086 126.53051758 C294.39006806 128.36451081 294.39006806 128.36451081 296.51147461 129.31567383 C296.51147461 129.97567383 296.51147461 130.63567383 296.51147461 131.31567383 C297.50147461 131.64567383 298.49147461 131.97567383 299.51147461 132.31567383 C301.109375 133.87768555 301.109375 133.87768555 302.79663086 135.87036133 C303.41038574 136.59449219 304.02414062 137.31862305 304.65649414 138.06469727 C313.32325966 148.58161989 321.27832258 159.15275327 327.51147461 171.31567383 C327.8124707 171.89994141 328.1134668 172.48420898 328.42358398 173.08618164 C332.10405471 180.31763958 335.15188392 187.69556512 337.76147461 195.37817383 C338.11266357 196.40249512 338.11266357 196.40249512 338.47094727 197.44750977 C341.9689047 208.18460923 343.67578869 218.7482166 344.1796875 230.01220703 C344.34115829 243.64704902 344.34115829 243.64704902 350.8581543 254.89038086 C353.64410738 256.90016773 356.53475108 258.59715303 359.51147461 260.31567383 C380.64085092 278.71571126 395.33185031 304.80670849 403.51147461 331.31567383 C403.71256836 331.9647168 403.91366211 332.61375977 404.12084961 333.2824707 C408.93512513 349.30294836 410.72296354 366.93477156 409.10522461 383.58520508 C408.35981072 391.8338776 407.8850512 397.81905698 412.03491211 405.26098633 C414.04192396 409.41305846 415.125034 413.67070732 416.26147461 418.12817383 C416.47175293 418.9414917 416.68203125 419.75480957 416.89868164 420.59277344 C421.56631233 439.09727661 421.26678935 459.09907493 415.51147461 477.31567383 C416.41768555 478.07750977 417.32389648 478.8393457 418.25756836 479.62426758 C441.43788606 499.21335829 458.37664339 521.43510841 462.19506836 552.46411133 C464.54421331 581.05987574 458.39536137 608.43775233 440.76147461 631.50317383 C424.89277623 650.1685339 405.64783137 664.46969773 381.51147461 670.31567383 C380.89014855 670.48237505 380.26882249 670.64907626 379.62866837 670.82082903 C371.0986036 672.85339428 362.50309548 672.60024502 353.79515076 672.58309937 C351.99197149 672.58683945 350.18879384 672.5914424 348.38561875 672.59683001 C343.44712464 672.60903134 338.50869842 672.60880292 333.57019269 672.60644126 C328.23733125 672.60603236 322.90449136 672.61707928 317.57164001 672.6265564 C307.12910485 672.64315217 296.68659226 672.64866532 286.24404501 672.64978115 C277.75233943 672.6507324 269.26064129 672.65484654 260.76893806 672.6611824 C236.6762946 672.67879175 212.58366894 672.68802188 188.491019 672.68652146 C186.54374341 672.68640159 186.54374341 672.68640159 184.55712891 672.6862793 C183.25735393 672.68619754 181.95757895 672.68611577 180.61841685 672.68603154 C159.56256326 672.68521896 138.50678125 672.70435033 117.45094835 672.73255603 C95.81419715 672.7613104 74.17748082 672.77509488 52.54071003 672.77336848 C40.40012498 672.77270541 28.25961497 672.77816116 16.11904716 672.79972458 C5.78049732 672.81797006 -4.55794349 672.82225613 -14.8965025 672.80870573 C-20.16647283 672.80219282 -25.43623417 672.80199812 -30.70618439 672.81941223 C-35.54072376 672.83522252 -40.37488984 672.83219866 -45.20942055 672.81484397 C-46.94831067 672.81179148 -48.68722921 672.81533953 -50.42608578 672.82656412 C-66.49090627 672.92330709 -80.84668383 670.23100343 -95.48852539 663.31567383 C-96.46047852 662.88641602 -97.43243164 662.4571582 -98.43383789 662.01489258 C-121.79624161 651.18766892 -141.42368371 629.35406795 -150.48852539 605.31567383 C-151.40815258 602.39755358 -152.26119925 599.46150984 -153.10864258 596.52172852 C-153.45335098 595.33732681 -153.45335098 595.33732681 -153.80502319 594.1289978 C-154.36845198 592.19187946 -154.9287974 590.25386475 -155.48852539 588.31567383 C-156.63244468 588.31328547 -157.77636396 588.31089712 -158.95494747 588.30843639 C-186.17382957 588.25094549 -213.39263541 588.17812265 -240.6114256 588.08668755 C-243.9693029 588.07542081 -247.32718061 588.06428212 -250.68505859 588.05322266 C-251.35348764 588.05101897 -252.02191669 588.04881529 -252.71060116 588.04654483 C-263.50143698 588.01127412 -274.29227275 587.98635247 -285.08314466 587.96532681 C-296.17434476 587.9434829 -307.26546849 587.91013339 -318.35660607 587.86697227 C-324.57842694 587.8431184 -330.80016629 587.82433836 -337.02203178 587.81805992 C-342.88990648 587.81197352 -348.75757277 587.79184627 -354.62537003 587.76139832 C-356.76775345 587.75267476 -358.91016418 587.74888357 -361.05256462 587.75066566 C-394.36987895 587.76961285 -422.73509772 578.98251313 -447.30102539 555.87817383 C-468.84215571 533.14031404 -478.30680303 504.46807136 -477.79711914 473.62426758 C-476.80457401 446.1748349 -462.97751392 421.06300405 -443.54321289 402.17504883 C-433.75323127 393.31567383 -433.75323127 393.31567383 -430.48852539 393.31567383 C-430.69348633 392.53063477 -430.89844727 391.7455957 -431.10961914 390.93676758 C-431.51374023 389.36088867 -431.51374023 389.36088867 -431.92602539 387.75317383 C-432.19286133 386.72063477 -432.45969727 385.6880957 -432.73461914 384.62426758 C-436.16475174 369.57078412 -436.12194776 351.32494215 -432.48852539 336.31567383 C-432.26253662 335.36700439 -432.26253662 335.36700439 -432.03198242 334.39916992 C-424.34602806 303.07207639 -404.39009474 277.19573667 -377.03540039 260.36645508 C-363.44053275 252.31567383 -363.44053275 252.31567383 -357.48852539 252.31567383 C-357.81852539 251.65567383 -358.14852539 250.99567383 -358.48852539 250.31567383 C-365.12929224 209.71997198 -355.52686691 165.9145006 -331.73852539 132.25317383 C-325.44130275 123.56065826 -318.46400902 114.51820309 -310.48852539 107.31567383 C-309.82852539 107.31567383 -309.16852539 107.31567383 -308.48852539 107.31567383 C-308.48852539 106.65567383 -308.48852539 105.99567383 -308.48852539 105.31567383 C-306.40121312 103.50205812 -304.30640489 101.80574935 -302.11352539 100.12817383 C-301.52958008 99.67120117 -300.94563477 99.21422852 -300.34399414 98.7434082 C-283.67525049 85.82065103 -264.94774905 74.90409286 -244.48852539 69.31567383 C-243.64854004 69.0773584 -242.80855469 68.83904297 -241.94311523 68.59350586 C-227.98876361 64.78913791 -214.3081992 63.84060052 -199.92602539 63.81567383 C-199.12822662 63.81118225 -198.33042786 63.80669067 -197.50845337 63.80206299 C-181.76264775 63.76597712 -167.63358144 66.15969941 -152.73852539 71.44067383 C-150.68160498 72.15268474 -148.62432821 72.86366724 -146.56665039 73.57348633 C-145.24262207 74.03972412 -145.24262207 74.03972412 -143.8918457 74.51538086 C-141.76945038 75.22212729 -139.66618605 75.80949095 -137.48852539 76.31567383 C-136.63581055 75.17291992 -136.63581055 75.17291992 -135.76586914 74.00708008 C-133.7470687 71.30748216 -131.72308236 68.61198173 -129.69458008 65.91967773 C-128.59299069 64.45460845 -127.49746715 62.98498326 -126.40258789 61.51489258 C-125.79157227 60.70665039 -125.18055664 59.8984082 -124.55102539 59.06567383 C-124.00575195 58.33864258 -123.46047852 57.61161133 -122.89868164 56.86254883 C-122.43333008 56.35208008 -121.96797852 55.84161133 -121.48852539 55.31567383 C-120.82852539 55.31567383 -120.16852539 55.31567383 -119.48852539 55.31567383 C-119.09987305 54.43975586 -119.09987305 54.43975586 -118.70336914 53.54614258 C-106.3283586 30.82546405 -69.07097377 13.57266576 -45.66430664 6.47973633 C-40.30284247 4.95013949 -34.93355868 3.51665801 -29.48852539 2.31567383 C-28.19652222 2.02309692 -28.19652222 2.02309692 -26.87841797 1.72460938 C-17.9608397 -0.0379219 -9.05391581 -0.02218896 0 0 Z M-58.48852539 36.31567383 C-59.49657227 36.81583008 -60.50461914 37.31598633 -61.54321289 37.83129883 C-90.33893253 52.60895831 -114.06398088 77.4665848 -128.48852539 106.31567383 C-132.44954427 105.12434448 -135.9934733 103.60528026 -139.63647461 101.65039062 C-170.55334572 85.14325733 -204.85459338 81.96806768 -238.42602539 91.69067383 C-261.33564295 98.6899606 -280.37632121 110.78790285 -297.48852539 127.31567383 C-298.14336914 127.90735352 -298.79821289 128.4990332 -299.47290039 129.10864258 C-324.54606042 152.33116461 -336.18783268 188.50242766 -337.63696289 221.71801758 C-337.8842615 234.20252298 -337.8842615 234.20252298 -335.48852539 246.31567383 C-334.95227539 246.24348633 -334.41602539 246.17129883 -333.86352539 246.09692383 C-314.97126073 243.85968196 -297.21722257 245.74761922 -279.42993164 252.42504883 C-276.47002455 253.63038595 -276.47002455 253.63038595 -273.48852539 252.31567383 C-272.16827502 249.91413243 -271.00013373 247.55193347 -269.86352539 245.06567383 C-256.66651102 217.62897087 -234.13512902 197.74086186 -205.48852539 187.31567383 C-174.89335606 177.71074679 -144.1448962 179.90201583 -115.23852539 193.56567383 C-91.02078346 206.2511577 -91.02078346 206.2511577 -86.48852539 215.31567383 C-85.82852539 215.31567383 -85.16852539 215.31567383 -84.48852539 215.31567383 C-84.24231445 215.87641602 -83.99610352 216.4371582 -83.74243164 217.01489258 C-82.26452938 219.72668208 -80.45481846 221.79881882 -78.42602539 224.12817383 C-71.09653123 232.94721035 -65.35567641 242.94652601 -60.48852539 253.31567383 C-59.88008789 253.14551758 -59.27165039 252.97536133 -58.64477539 252.80004883 C-52.87847409 251.20583611 -47.09716559 249.67233256 -41.30102539 248.19067383 C-40.64875977 248.02019531 -39.99649414 247.8497168 -39.32446289 247.67407227 C-11.33549439 240.59235639 19.01765725 247.98961505 43.51147461 262.31567383 C51.17275085 267.20688053 57.92322207 273.07762741 64.51147461 279.31567383 C65.24624023 280.00918945 65.98100586 280.70270508 66.73803711 281.41723633 C70.87931197 285.43442805 74.31071457 289.51453377 77.51147461 294.31567383 C79.02741211 293.10911133 79.02741211 293.10911133 80.57397461 291.87817383 C93.26439882 282.38285642 106.88786567 275.51978898 122.07397461 271.06567383 C122.94876465 270.8069751 123.82355469 270.54827637 124.72485352 270.28173828 C152.37907321 262.50836589 182.57779936 268.07991264 207.76147461 280.87817383 C232.05433248 294.5385055 247.34866555 314.72156102 259.51147461 339.31567383 C260.04401855 339.14438965 260.5765625 338.97310547 261.12524414 338.79663086 C293.48813919 328.48256855 326.03722066 328.20109573 356.83959961 344.07202148 C367.3720975 349.78606248 376.82448538 357.08831366 385.51147461 365.31567383 C389.84222869 351.24468896 379.70460291 328.43229206 373.33959961 315.89379883 C361.32693628 293.41083238 342.81819166 273.27365333 321.51147461 259.31567383 C321.58366211 258.69563477 321.65584961 258.0755957 321.73022461 257.43676758 C325.36786434 222.7276218 315.40595144 188.52636226 293.87231445 160.99194336 C272.86726965 135.11812966 245.79056159 117.99587039 213.51147461 110.31567383 C212.29331055 109.99276367 212.29331055 109.99276367 211.05053711 109.66333008 C191.39440092 104.9389605 172.698781 108.0506325 153.7722168 113.92700195 C152.77738281 114.2331543 151.78254883 114.53930664 150.75756836 114.85473633 C149.86739014 115.13526855 148.97721191 115.41580078 148.06005859 115.70483398 C145.44953177 116.33052017 143.18517548 116.42806723 140.51147461 116.31567383 C139.8018457 114.71852539 139.8018457 114.71852539 139.07788086 113.08911133 C127.0355067 86.46945096 108.29126936 62.26417331 83.51147461 46.31567383 C82.56143555 45.68145508 81.61139648 45.04723633 80.63256836 44.39379883 C40.05144138 18.18621245 -15.18392015 13.8025763 -58.48852539 36.31567383 Z M-226.48852539 224.31567383 C-227.30192383 224.9834082 -228.11532227 225.65114258 -228.95336914 226.33911133 C-246.65873185 241.45277996 -256.00491853 262.1739713 -261.48852539 284.31567383 C-261.99601318 284.06922119 -262.50350098 283.82276855 -263.02636719 283.56884766 C-290.64167094 270.20257898 -316.50386558 261.90607094 -346.91040039 271.38208008 C-359.07082264 275.78950585 -369.70646738 281.88519551 -379.48852539 290.31567383 C-380.16270508 290.84547852 -380.83688477 291.3752832 -381.53149414 291.92114258 C-398.5036085 305.64111527 -409.23171712 328.84803284 -412.20727539 350.16333008 C-413.86599947 368.75486251 -409.26464886 384.78168089 -403.48852539 402.31567383 C-404.4437207 402.86094727 -405.39891602 403.4062207 -406.38305664 403.96801758 C-429.57478485 417.40542717 -445.99133941 434.95538918 -453.17602539 461.12817383 C-458.03132535 482.15002199 -454.92534009 504.14971059 -444.07836914 522.83520508 C-441.47373314 526.89894921 -438.59862723 530.62843969 -435.48852539 534.31567383 C-434.83239258 535.12907227 -434.17625977 535.9424707 -433.50024414 536.78051758 C-421.04285441 551.5608575 -402.48117846 561.1613886 -383.48852539 564.31567383 C-381.05601664 564.40875002 -378.62117901 564.44654241 -376.18689251 564.44989491 C-375.45822777 564.45224714 -374.72956304 564.45459937 -373.97881755 564.45702288 C-371.5300274 564.46369527 -369.08129053 564.46325518 -366.63249207 564.46284485 C-364.8617901 564.46614459 -363.09108888 564.46987039 -361.32038862 564.47398633 C-356.44849574 564.48400226 -351.57661518 564.48772248 -346.70471346 564.49037564 C-341.45222553 564.49427999 -336.19974734 564.50385836 -330.94726562 564.5125885 C-318.25802347 564.53235103 -305.56878052 564.54241966 -292.87952682 564.55131629 C-286.90192088 564.55570025 -280.92431583 564.56106685 -274.94671059 564.56630516 C-255.07134148 564.58331857 -235.19597292 564.59781169 -215.32059765 564.6050539 C-210.16278775 564.60696376 -205.00497785 564.6088841 -199.84716797 564.61083984 C-198.56523748 564.61132358 -197.28330698 564.61180732 -195.96253011 564.61230572 C-175.20637969 564.62060207 -154.45028697 564.64593183 -133.69416174 564.67842052 C-112.3773711 564.71151429 -91.06060976 564.72950483 -69.74379331 564.73269814 C-57.77810006 564.73486128 -45.81249092 564.74358104 -33.84682274 564.76915932 C-23.65378764 564.79089809 -13.46085708 564.79890115 -3.26780143 564.78919253 C1.92910605 564.78465684 7.12579798 564.78649151 12.3226757 564.80595398 C17.08950857 564.82365096 21.8559697 564.82253517 26.62280687 564.80705669 C28.33827849 564.80469048 30.0537763 564.80895233 31.76920805 564.82088534 C45.82116934 564.91250189 59.38875548 563.31787505 71.94897461 556.44067383 C72.61453369 556.08900146 73.28009277 555.7373291 73.96582031 555.375 C75.82771009 554.37730726 77.67132222 553.3527632 79.51147461 552.31567383 C80.77217773 551.62538086 80.77217773 551.62538086 82.05834961 550.92114258 C100.51819384 539.77112717 113.07896876 519.34647187 118.38647461 498.87817383 C121.24044636 483.70256356 120.78157568 467.86045935 115.51147461 453.31567383 C115.16084961 452.28571289 114.81022461 451.25575195 114.44897461 450.19458008 C110.42281084 439.44416363 103.41345839 429.60312023 95.51147461 421.31567383 C94.85147461 421.31567383 94.19147461 421.31567383 93.51147461 421.31567383 C93.51147461 420.65567383 93.51147461 419.99567383 93.51147461 419.31567383 C91.3751103 417.2691015 91.3751103 417.2691015 88.69897461 415.19067383 C87.8056543 414.4662207 86.91233398 413.74176758 85.99194336 412.99536133 C83.59674579 411.03532184 83.59674579 411.03532184 80.51147461 411.31567383 C79.05233157 412.75122764 79.05233157 412.75122764 77.63647461 414.69067383 C65.88717919 428.62759956 48.21034678 437.75448368 31.51147461 444.31567383 C31.18147461 443.98567383 30.85147461 443.65567383 30.51147461 443.31567383 C31.1547168 442.81680664 31.79795898 442.31793945 32.46069336 441.80395508 C48.47483608 429.0794508 63.94366365 414.16505808 70.51147461 394.31567383 C70.73029297 393.65825195 70.94911133 393.00083008 71.17456055 392.32348633 C79.2958036 367.72321611 78.78870844 343.92532125 67.51147461 320.31567383 C67.07061523 319.39270508 66.62975586 318.46973633 66.17553711 317.51879883 C55.07018012 295.79892937 35.52034658 280.44400082 12.98022461 271.99145508 C9.84198711 270.98647188 6.70881544 270.11082404 3.51147461 269.31567383 C2.67100586 269.09137695 1.83053711 268.86708008 0.96459961 268.63598633 C-26.20462355 262.47650406 -51.15949436 272.32302041 -74.48852539 285.31567383 C-74.69477539 284.01629883 -74.90102539 282.71692383 -75.11352539 281.37817383 C-80.28979729 255.71553004 -95.1284585 232.64882407 -116.86352539 217.94067383 C-150.74637665 196.00306542 -195.44544382 198.07752141 -226.48852539 224.31567383 Z M89.51147461 313.31567383 C90.12754337 317.8335114 91.31896874 321.79065781 92.88647461 326.06567383 C99.23130609 344.44570681 100.70601349 364.05493774 96.26538086 383.01879883 C95.48345457 386.43820706 94.96591098 389.83901501 94.51147461 393.31567383 C95.49374023 393.9730957 95.49374023 393.9730957 96.49584961 394.64379883 C107.71846186 402.44256327 117.30734297 411.62821085 124.51147461 423.31567383 C125.16760742 424.35079102 125.82374023 425.3859082 126.49975586 426.45239258 C141.00519594 450.02501532 144.55333475 477.29040469 138.66381836 504.18676758 C131.61855347 532.0540704 115.4175278 556.39338488 90.51147461 571.31567383 C69.83918881 582.74465432 49.29687928 586.60516492 25.85766602 586.63452148 C24.13148033 586.64384249 22.40529906 586.6540143 20.67912292 586.66496277 C16.03754732 586.69203226 11.39600165 586.70734299 6.75436831 586.7203908 C1.88702276 586.73612332 -2.98026252 586.76288073 -7.8475647 586.78842163 C-17.04460231 586.83503151 -26.24165148 586.87186119 -35.43874609 586.9050945 C-45.91774803 586.94344232 -56.39668916 586.99281892 -66.87563968 587.04307866 C-88.41322324 587.14613361 -109.95084536 587.23547919 -131.48852539 587.31567383 C-130.8085832 592.88649405 -130.8085832 592.88649405 -128.92211914 598.11254883 C-128.605896 598.75554932 -128.28967285 599.3985498 -127.96386719 600.06103516 C-127.62137939 600.72256592 -127.2788916 601.38409668 -126.92602539 602.06567383 C-126.56742432 602.76523193 -126.20882324 603.46479004 -125.83935547 604.18554688 C-113.75412555 627.20113126 -95.32912733 640.66844438 -71.04711914 648.41333008 C-64.6683522 650.03077812 -58.47740259 650.44069295 -51.91589737 650.44430828 C-51.19439133 650.44606132 -50.47288529 650.44781436 -49.72951543 650.44962052 C-47.3231771 650.45425506 -44.91689986 650.45182162 -42.51055908 650.4493866 C-40.7632911 650.45125585 -39.01602353 650.45355701 -37.26875663 650.45625192 C-32.47572671 650.46236216 -27.68271426 650.46223724 -22.88968134 650.46105754 C-17.71708057 650.46085334 -12.54448537 650.46637416 -7.37188721 650.47111511 C2.75909028 650.47941796 12.89006195 650.48216979 23.02104256 650.48272749 C31.25682961 650.48320282 39.49261474 650.48525842 47.72840118 650.48842812 C71.08346106 650.49723367 94.43851634 650.50184764 117.79357788 650.50109764 C119.0523881 650.50105769 120.31119832 650.50101773 121.6081543 650.50097656 C122.86850322 650.50093568 124.12885215 650.5008948 125.42739347 650.50085268 C145.85300961 650.50044623 166.27860731 650.51001575 186.70421812 650.52411493 C207.68208085 650.53848094 228.65993459 650.54538499 249.63780236 650.54452115 C261.41326441 650.54418926 273.18870712 650.54693287 284.96416473 650.5576992 C294.98997012 650.56680715 305.01574741 650.56897702 315.04155514 650.56218978 C320.15488985 650.55892609 325.26817067 650.55886249 330.38150024 650.56754303 C335.06711275 650.57541552 339.75262871 650.57396891 344.43823889 650.5652589 C346.12864666 650.56372557 347.81906166 650.56553374 349.5094609 650.57111897 C373.91472083 650.64638235 395.09500254 644.82128727 413.17553711 627.64770508 C413.94639648 626.87813477 414.71725586 626.10856445 415.51147461 625.31567383 C416.28233398 624.55641602 417.05319336 623.7971582 417.84741211 623.01489258 C434.70752651 605.43549002 440.21867869 583.2217211 439.81616211 559.49926758 C439.05626079 538.696184 427.87246172 518.78403447 413.06225586 504.51098633 C405.61498815 498.10154612 397.23852475 492.80322674 388.51147461 488.31567383 C389.99963477 482.58851198 391.60512695 476.9602625 393.57397461 471.37817383 C401.22268998 448.69577654 397.0623738 425.39019355 387.03491211 404.19458008 C383.83344681 398.02277131 379.99129907 392.61756917 375.51147461 387.31567383 C374.8553418 386.51387695 374.19920898 385.71208008 373.52319336 384.88598633 C360.90747435 370.07923751 344.20695394 360.41444092 325.51147461 355.31567383 C324.7315918 355.10297852 323.95170898 354.8902832 323.14819336 354.67114258 C294.83413375 348.05659756 270.48894039 357.80094595 245.51147461 370.31567383 C245.39682861 369.68878662 245.28218262 369.06189941 245.1640625 368.41601562 C240.32694757 342.98818738 226.97086502 320.66364049 205.78881836 305.34692383 C167.81183214 280.42964942 123.69349214 284.3033971 89.51147461 313.31567383 Z " fill="#050505" transform="translate(520.488525390625,31.684326171875)"/>
<path d="M0 0 C0 3 0 3 -1.96875 5.26171875 C-2.8040625 6.06222656 -3.639375 6.86273438 -4.5 7.6875 C-5.3353125 8.49574219 -6.170625 9.30398438 -7.03125 10.13671875 C-7.6809375 10.75160156 -8.330625 11.36648438 -9 12 C-8.67 12.66 -8.34 13.32 -8 14 C-14.625 17.125 -14.625 17.125 -18 16 C-17.03578125 15.18015625 -16.0715625 14.3603125 -15.078125 13.515625 C-13.8020077 12.42717201 -12.52597023 11.3386254 -11.25 10.25 C-10.29867187 9.44175781 -10.29867187 9.44175781 -9.328125 8.6171875 C-6.09241332 5.85335044 -2.95242733 3.07171733 0 0 Z " fill="#676767" transform="translate(567,460)"/>
</svg>
