<?xml version="1.0" encoding="UTF-8"?>
<svg version="1.1" xmlns="http://www.w3.org/2000/svg" width="384" height="384">
<path d="M0 0 C126.72 0 253.44 0 384 0 C384 126.72 384 253.44 384 384 C257.28 384 130.56 384 0 384 C0 257.28 0 130.56 0 0 Z M8 8 C8 129.44 8 250.88 8 376 C129.44 376 250.88 376 376 376 C376 254.56 376 133.12 376 8 C254.56 8 133.12 8 8 8 Z " fill="#000000" transform="translate(0,0)"/>
<path d="M0 0 C0.70762985 -0.00525696 1.4152597 -0.01051392 2.14433289 -0.01593018 C4.48381614 -0.02913588 6.82261918 -0.02039056 9.16210938 -0.01025391 C10.78731416 -0.01227449 12.41251805 -0.0151858 14.03771973 -0.01895142 C17.44401684 -0.02337552 20.85007797 -0.01694107 24.25634766 -0.00292969 C28.62470534 0.01416243 32.99251009 0.00432168 37.36084747 -0.01364708 C40.71685967 -0.02448268 44.07274058 -0.02103965 47.42875671 -0.0132637 C49.03952601 -0.01126107 50.6503072 -0.01372321 52.26106262 -0.02070236 C54.51160298 -0.02831338 56.76124535 -0.01671869 59.01171875 0 C60.29284546 0.00238678 61.57397217 0.00477356 62.8939209 0.00723267 C66.00585938 0.38818359 66.00585938 0.38818359 67.67780781 1.59759808 C69.44799221 3.98430251 69.37566832 5.46065951 69.36662292 8.41850281 C69.37074692 9.45756775 69.37487091 10.49663269 69.37911987 11.56718445 C69.36833405 12.70653946 69.35754822 13.84589447 69.34643555 15.01977539 C69.34709267 16.81996628 69.34709267 16.81996628 69.34776306 18.65652466 C69.34602989 21.94778527 69.33097469 25.23848284 69.31004119 28.52964377 C69.29129985 31.96894917 69.28952596 35.40826189 69.28596497 38.84761047 C69.27663699 45.36057941 69.25201313 51.87339745 69.2219165 58.38629991 C69.18839582 65.80095921 69.17189237 73.21562569 69.15683019 80.63034189 C69.12546412 95.88305807 69.0704428 111.13556639 69.00585938 126.38818359 C77.91585937 126.38818359 86.82585937 126.38818359 96.00585938 126.38818359 C95.9662791 120.18025445 95.9662791 120.18025445 95.91577148 113.97241211 C95.91202515 112.81890259 95.91202515 112.81890259 95.90820312 111.64208984 C95.90296631 110.85133057 95.89772949 110.06057129 95.89233398 109.24584961 C96.00585938 107.38818359 96.00585938 107.38818359 97.00585938 106.38818359 C100.00585938 106.26318359 100.00585938 106.26318359 103.00585938 106.38818359 C104.00585938 107.38818359 104.00585938 107.38818359 104.11938477 109.24584961 C104.11414795 110.03660889 104.10891113 110.82736816 104.10351562 111.64208984 C104.10101807 112.41109619 104.09852051 113.18010254 104.09594727 113.97241211 C104.08684326 114.9552417 104.07773926 115.93807129 104.06835938 116.95068359 C104.04773438 120.06505859 104.02710938 123.17943359 104.00585938 126.38818359 C112.91585937 126.38818359 121.82585937 126.38818359 131.00585938 126.38818359 C130.9822937 120.82269653 130.9822937 120.82269653 130.95825195 115.14477539 C130.90861726 102.90720569 130.87528227 90.6696376 130.85042286 78.43199444 C130.83494531 71.00986798 130.81383897 63.5878368 130.77954102 56.16577148 C130.74966567 49.69768121 130.73029083 43.22965992 130.72359389 36.76150256 C130.71967842 33.33573895 130.71045844 29.91017271 130.6886692 26.48447227 C130.66455835 22.66286864 130.66388818 18.84145918 130.6652832 15.01977539 C130.65449738 13.88042038 130.64371155 12.74106537 130.63259888 11.56718445 C130.63672287 10.52811951 130.64084686 9.48905457 130.64509583 8.41850281 C130.64233045 7.51422389 130.63956507 6.60994497 130.63671589 5.67826366 C131.08338528 2.90723099 131.75017661 2.019846 134.00585938 0.38818359 C137.11779785 0.00723267 137.11779785 0.00723267 141 0 C141.70762985 -0.00525696 142.4152597 -0.01051392 143.14433289 -0.01593018 C145.48381614 -0.02913588 147.82261918 -0.02039056 150.16210938 -0.01025391 C151.78731416 -0.01227449 153.41251805 -0.0151858 155.03771973 -0.01895142 C158.44401684 -0.02337552 161.85007797 -0.01694107 165.25634766 -0.00292969 C169.62470534 0.01416243 173.99251009 0.00432168 178.36084747 -0.01364708 C181.71685967 -0.02448268 185.07274058 -0.02103965 188.42875671 -0.0132637 C190.03952601 -0.01126107 191.6503072 -0.01372321 193.26106262 -0.02070236 C195.51160298 -0.02831338 197.76124535 -0.01671869 200.01171875 0 C201.29284546 0.00238678 202.57397217 0.00477356 203.8939209 0.00723267 C207.00585938 0.38818359 207.00585938 0.38818359 208.67780781 1.59759808 C210.44799221 3.98430251 210.37566832 5.46065951 210.36662292 8.41850281 C210.37280891 9.97710022 210.37280891 9.97710022 210.37911987 11.56718445 C210.36833405 12.70653946 210.35754822 13.84589447 210.34643555 15.01977539 C210.34687363 16.21990265 210.34731171 17.42002991 210.34776306 18.65652466 C210.34602989 21.94778527 210.33097469 25.23848284 210.31004119 28.52964377 C210.29129985 31.96894917 210.28952596 35.40826189 210.28596497 38.84761047 C210.27663699 45.36057941 210.25201313 51.87339745 210.2219165 58.38629991 C210.18839582 65.80095921 210.17189237 73.21562569 210.15683019 80.63034189 C210.12546414 95.88304559 210.07208555 111.13558922 210.00585938 126.38818359 C215.28585937 126.38818359 220.56585938 126.38818359 226.00585938 126.38818359 C226.00585938 123.41818359 226.00585938 120.44818359 226.00585938 117.38818359 C231.81595347 119.06751312 237.01454516 121.78026751 242.38085938 124.51318359 C243.30769531 124.98111328 244.23453125 125.44904297 245.18945312 125.93115234 C247.46345344 127.07987415 249.73549219 128.2323024 252.00585938 129.38818359 C252.00585938 130.37818359 252.00585938 131.36818359 252.00585938 132.38818359 C248.05076443 134.39463608 244.09126916 136.39224495 240.13085938 138.38818359 C239.00292969 138.96052734 237.875 139.53287109 236.71289062 140.12255859 C235.09833984 140.93466797 235.09833984 140.93466797 233.45117188 141.76318359 C232.45617676 142.26591797 231.46118164 142.76865234 230.43603516 143.28662109 C228.00585938 144.38818359 228.00585938 144.38818359 226.00585938 144.38818359 C226.00585938 141.41818359 226.00585938 138.44818359 226.00585938 135.38818359 C142.51585937 135.38818359 59.02585937 135.38818359 -26.99414062 135.38818359 C-26.99414062 138.35818359 -26.99414062 141.32818359 -26.99414062 144.38818359 C-32.80423472 142.70885407 -38.00282641 139.99609968 -43.36914062 137.26318359 C-44.75939453 136.56128906 -44.75939453 136.56128906 -46.17773438 135.84521484 C-48.45173469 134.69649304 -50.72377344 133.54406478 -52.99414062 132.38818359 C-52.99414062 131.39818359 -52.99414062 130.40818359 -52.99414062 129.38818359 C-49.03904568 127.38173111 -45.07955041 125.38412224 -41.11914062 123.38818359 C-39.99121094 122.81583984 -38.86328125 122.24349609 -37.70117188 121.65380859 C-36.62480469 121.11240234 -35.5484375 120.57099609 -34.43945312 120.01318359 C-33.44445801 119.51044922 -32.44946289 119.00771484 -31.42431641 118.48974609 C-28.99414063 117.38818359 -28.99414063 117.38818359 -26.99414062 117.38818359 C-26.99414062 120.35818359 -26.99414062 123.32818359 -26.99414062 126.38818359 C-21.38414063 126.38818359 -15.77414063 126.38818359 -9.99414062 126.38818359 C-10.00080246 124.85389206 -10.00746429 123.31960052 -10.014328 121.73881531 C-10.07505465 107.30322445 -10.12025264 92.86768036 -10.14957714 78.43199444 C-10.16505469 71.00986798 -10.18616103 63.5878368 -10.22045898 56.16577148 C-10.25033433 49.69768121 -10.26970917 43.22965992 -10.27640611 36.76150256 C-10.28032158 33.33573895 -10.28954156 29.91017271 -10.3113308 26.48447227 C-10.33544165 22.66286864 -10.33611182 18.84145918 -10.3347168 15.01977539 C-10.34550262 13.88042038 -10.35628845 12.74106537 -10.36740112 11.56718445 C-10.36327713 10.52811951 -10.35915314 9.48905457 -10.35490417 8.41850281 C-10.35766955 7.51422389 -10.36043493 6.60994497 -10.36328411 5.67826366 C-9.40883741 -0.24290098 -5.17573858 0.00964257 0 0 Z M-0.99414062 9.38818359 C-0.99414062 47.99818359 -0.99414062 86.60818359 -0.99414062 126.38818359 C19.13585937 126.38818359 39.26585937 126.38818359 60.00585938 126.38818359 C60.00585938 87.77818359 60.00585938 49.16818359 60.00585938 9.38818359 C39.87585938 9.38818359 19.74585937 9.38818359 -0.99414062 9.38818359 Z M140.00585938 9.38818359 C140.00585938 47.99818359 140.00585938 86.60818359 140.00585938 126.38818359 C160.13585937 126.38818359 180.26585937 126.38818359 201.00585938 126.38818359 C201.00585938 87.77818359 201.00585938 49.16818359 201.00585938 9.38818359 C180.87585938 9.38818359 160.74585938 9.38818359 140.00585938 9.38818359 Z " fill="#000000" transform="translate(91.994140625,166.61181640625)"/>
<path d="M0 0 C2.67539325 2.38199785 4.10738942 4.84083737 5.69921875 8.03515625 C6.42915039 9.49598633 6.42915039 9.49598633 7.17382812 10.98632812 C7.9230957 12.5090332 7.9230957 12.5090332 8.6875 14.0625 C9.19861328 15.08150391 9.70972656 16.10050781 10.23632812 17.15039062 C14 24.73300859 14 24.73300859 14 27 C11.03 27 8.06 27 5 27 C5.01047363 27.9286084 5.02094727 28.8572168 5.03173828 29.81396484 C5.06579204 33.2542569 5.09088493 36.69437027 5.10986328 40.13476562 C5.11993043 41.6247032 5.13358518 43.11462097 5.15087891 44.60449219 C5.17509653 46.74419028 5.18647564 48.88362753 5.1953125 51.0234375 C5.20578613 52.31169434 5.21625977 53.59995117 5.22705078 54.92724609 C5 58 5 58 3 60 C-1.55555556 59.44444444 -1.55555556 59.44444444 -3 58 C-3.08790975 55.70848583 -3.10694038 53.41427476 -3.09765625 51.12109375 C-3.0962413 50.4344313 -3.09482635 49.74776886 -3.09336853 49.04029846 C-3.08775479 46.83932199 -3.07520007 44.63844591 -3.0625 42.4375 C-3.05748676 40.94856917 -3.05292355 39.45963676 -3.04882812 37.97070312 C-3.03778093 34.31376925 -3.02050713 30.65689442 -3 27 C-6.3 27 -9.6 27 -13 27 C-11.32246669 21.21969949 -8.64724599 16.03416995 -5.9375 10.6875 C-5.47794922 9.76904297 -5.01839844 8.85058594 -4.54492188 7.90429688 C-1.14055525 1.14055525 -1.14055525 1.14055525 0 0 Z " fill="#000000" transform="translate(191,41)"/>
<path d="M0 0 C1.03125 0.268125 2.0625 0.53625 3.125 0.8125 C3.62 3.2875 3.62 3.2875 4.125 5.8125 C2.475 6.1425 0.825 6.4725 -0.875 6.8125 C-0.875 5.4925 -0.875 4.1725 -0.875 2.8125 C-1.865 3.1425 -2.855 3.4725 -3.875 3.8125 C-5.12450052 6.36651848 -5.12450052 6.36651848 -6.0625 9.375 C-6.40667969 10.38691406 -6.75085938 11.39882813 -7.10546875 12.44140625 C-7.48638672 13.61509766 -7.48638672 13.61509766 -7.875 14.8125 C-5.895 14.8125 -3.915 14.8125 -1.875 14.8125 C-1.875 15.4725 -1.875 16.1325 -1.875 16.8125 C-4.185 16.8125 -6.495 16.8125 -8.875 16.8125 C-9.00390625 17.9571875 -9.1328125 19.101875 -9.265625 20.28125 C-10.68950417 31.59262582 -12.52695199 43.46445199 -20.875 51.8125 C-23.56339385 52.08241906 -26.16641936 51.89987357 -28.875 51.8125 C-29.205 50.1625 -29.535 48.5125 -29.875 46.8125 C-27.4 46.3175 -27.4 46.3175 -24.875 45.8125 C-24.875 47.1325 -24.875 48.4525 -24.875 49.8125 C-21.04197909 47.25715273 -20.82008251 44.81041805 -19.875 40.5625 C-19.70838867 39.85609375 -19.54177734 39.1496875 -19.37011719 38.421875 C-18.856463 36.22190294 -18.36237979 34.01843182 -17.875 31.8125 C-17.71966797 31.11189453 -17.56433594 30.41128906 -17.40429688 29.68945312 C-16.53372368 25.73607094 -15.69270522 21.77713136 -14.875 17.8125 C-16.195 17.4825 -17.515 17.1525 -18.875 16.8125 C-18.875 16.1525 -18.875 15.4925 -18.875 14.8125 C-17.76125 14.8434375 -17.76125 14.8434375 -16.625 14.875 C-13.77255428 14.11691534 -13.77255428 14.11691534 -12.86328125 11.91796875 C-12.40501953 10.75201172 -12.40501953 10.75201172 -11.9375 9.5625 C-9.56057409 3.61067752 -7.00271726 -0.33884116 0 0 Z " fill="#000000" transform="translate(209.875,304.1875)"/>
<path d="M0 0 C3 0.125 3 0.125 4 1.125 C4.10095564 3.77956193 4.13970998 6.40755176 4.1328125 9.0625 C4.13376923 9.857771 4.13472595 10.65304199 4.13571167 11.47241211 C4.13639343 13.1570646 4.13453943 14.84171971 4.13037109 16.52636719 C4.12502275 19.11399197 4.13031619 21.70144316 4.13671875 24.2890625 C4.13605797 25.92187539 4.1347768 27.55468816 4.1328125 29.1875 C4.13483673 29.96665771 4.13686096 30.74581543 4.13894653 31.54858398 C4.11495105 37.01004895 4.11495105 37.01004895 3 38.125 C0 38.25 0 38.25 -3 38.125 C-4.78830448 36.33669552 -4.12848711 33.92918848 -4.13894653 31.54858398 C-4.1369223 30.76942627 -4.13489807 29.99026855 -4.1328125 29.1875 C-4.13376923 28.392229 -4.13472595 27.59695801 -4.13571167 26.77758789 C-4.13639343 25.0929354 -4.13453943 23.40828029 -4.13037109 21.72363281 C-4.12502275 19.13600803 -4.13031619 16.54855684 -4.13671875 13.9609375 C-4.13605797 12.32812461 -4.1347768 10.69531184 -4.1328125 9.0625 C-4.13483673 8.28334229 -4.13686096 7.50418457 -4.13894653 6.70141602 C-4.11025565 0.17126065 -4.11025565 0.17126065 0 0 Z " fill="#000000" transform="translate(192,114.875)"/>
<path d="M0 0 C4.55555556 0.55555556 4.55555556 0.55555556 6 2 C6.08851529 4.59359322 6.11525945 7.16039691 6.09765625 9.75390625 C6.0962413 10.52935287 6.09482635 11.3047995 6.09336853 12.10374451 C6.08775345 14.59003494 6.07519846 17.0762366 6.0625 19.5625 C6.05748694 21.24413933 6.0529237 22.92578006 6.04882812 24.60742188 C6.03777913 28.73831566 6.02050445 32.86914276 6 37 C3.6875 38.125 3.6875 38.125 1 39 C0.01 38.34 -0.98 37.68 -2 37 C-2.29188604 34.32804644 -2.39614259 31.89120853 -2.36328125 29.21875 C-2.36377975 28.44946167 -2.36427826 27.68017334 -2.36479187 26.88757324 C-2.36245006 25.26014627 -2.35271513 23.63271577 -2.33618164 22.00537109 C-2.31259228 19.50976282 -2.31561898 17.01522261 -2.32226562 14.51953125 C-2.31668887 12.94009778 -2.309579 11.36066882 -2.30078125 9.78125 C-2.30169266 9.0322644 -2.30260406 8.28327881 -2.30354309 7.51159668 C-2.23102759 2.23102759 -2.23102759 2.23102759 0 0 Z " fill="#000000" transform="translate(190,220)"/>
<path d="M0 0 C2.6875 0.875 2.6875 0.875 5 2 C5.0493651 6.94790177 5.08570269 11.89566083 5.10986328 16.84375 C5.11993317 18.52769466 5.13358988 20.21162179 5.15087891 21.89550781 C5.17508426 24.31319501 5.18647296 26.73065143 5.1953125 29.1484375 C5.20563507 29.9036972 5.21595764 30.65895691 5.22659302 31.43710327 C5.22699318 33.2929398 5.12222716 35.1481928 5 37 C4.34 37.66 3.68 38.32 3 39 C-1.55555556 38.44444444 -1.55555556 38.44444444 -3 37 C-3.12569922 34.42983176 -3.18863339 31.88796233 -3.203125 29.31640625 C-3.20882507 28.54570297 -3.21452515 27.77499969 -3.22039795 26.98094177 C-3.22986067 25.34757872 -3.23638696 23.71419647 -3.24023438 22.08081055 C-3.2499464 19.57632321 -3.28095914 17.0726541 -3.3125 14.56835938 C-3.31902911 12.98437989 -3.32427994 11.40039452 -3.328125 9.81640625 C-3.3404718 9.0642836 -3.3528186 8.31216095 -3.36553955 7.5372467 C-3.35644531 5.42407227 -3.35644531 5.42407227 -3 2 C-2.01 1.34 -1.02 0.68 0 0 Z " fill="#000000" transform="translate(191,167)"/>
</svg>
