<?xml version="1.0" encoding="UTF-8"?>
<svg version="1.1" xmlns="http://www.w3.org/2000/svg" width="384" height="384">
<path d="M0 0 C2.66233392 2.37476475 4.10451284 4.82271084 5.69921875 8 C6.18583984 8.969375 6.67246094 9.93875 7.17382812 10.9375 C7.67333984 11.948125 8.17285156 12.95875 8.6875 14 C9.19861328 15.010625 9.70972656 16.02125 10.23632812 17.0625 C10.96045898 18.5165625 10.96045898 18.5165625 11.69921875 20 C12.14096436 20.886875 12.58270996 21.77375 13.0378418 22.6875 C14 25 14 25 14 28 C11.03 28 8.06 28 5 28 C5.33 29.32 5.66 30.64 6 32 C7.13953125 32.08636719 8.2790625 32.17273437 9.453125 32.26171875 C45.4246678 35.31282493 79.25096695 50.52802889 102.984375 78.421875 C122.02001642 101.66566827 134.8692429 130.62478974 134 161 C135.32 161 136.64 161 138 161 C138 158.03 138 155.06 138 152 C141.83097267 152.60679709 144.84967736 153.74808147 148.30078125 155.50390625 C149.27724609 155.99697266 150.25371094 156.49003906 151.25976562 156.99804688 C152.26716797 157.51431641 153.27457031 158.03058594 154.3125 158.5625 C155.33923828 159.08263672 156.36597656 159.60277344 157.42382812 160.13867188 C159.9520146 161.42040362 162.477224 162.70766061 165 164 C165 164.99 165 165.98 165 167 C161.0673934 169.00973168 157.12815258 171.00609715 153.1875 173 C151.50817383 173.85851562 151.50817383 173.85851562 149.79492188 174.734375 C148.72177734 175.27578125 147.64863281 175.8171875 146.54296875 176.375 C145.55321045 176.87773437 144.56345215 177.38046875 143.54370117 177.8984375 C141 179 141 179 138 179 C138 176.03 138 173.06 138 170 C137.01 170.33 136.02 170.66 135 171 C134.87044922 172.72669922 134.87044922 172.72669922 134.73828125 174.48828125 C131.70516282 210.41320662 116.23619257 244.40305456 88.515625 268.04296875 C64.59762863 287.66790608 36.75673716 298.14188233 6 300 C5.67 300.99 5.34 301.98 5 303 C7.97 303 10.94 303 14 303 C13.39320291 306.83097267 12.25191853 309.84967736 10.49609375 313.30078125 C10.00302734 314.27724609 9.50996094 315.25371094 9.00195312 316.25976562 C8.48568359 317.26716797 7.96941406 318.27457031 7.4375 319.3125 C6.91736328 320.33923828 6.39722656 321.36597656 5.86132812 322.42382812 C4.57959638 324.9520146 3.29233939 327.477224 2 330 C1.01 330 0.02 330 -1 330 C-3.00973168 326.0673934 -5.00609715 322.12815258 -7 318.1875 C-7.85851562 316.50817383 -7.85851562 316.50817383 -8.734375 314.79492188 C-9.27578125 313.72177734 -9.8171875 312.64863281 -10.375 311.54296875 C-10.87773437 310.55321045 -11.38046875 309.56345215 -11.8984375 308.54370117 C-13 306 -13 306 -13 303 C-10.03 303 -7.06 303 -4 303 C-4 301.68 -4 300.36 -4 299 C-4.71800781 299.04640625 -5.43601563 299.0928125 -6.17578125 299.140625 C-37.27681207 300.22509432 -68.20313763 284.62968222 -90.75 264.125 C-117.0972219 239.38676875 -131.37441269 205.87503036 -133 170 C-134.32 170 -135.64 170 -137 170 C-137 172.97 -137 175.94 -137 179 C-140.83097267 178.39320291 -143.84967736 177.25191853 -147.30078125 175.49609375 C-148.27724609 175.00302734 -149.25371094 174.50996094 -150.25976562 174.00195312 C-151.77086914 173.22754883 -151.77086914 173.22754883 -153.3125 172.4375 C-154.33923828 171.91736328 -155.36597656 171.39722656 -156.42382812 170.86132812 C-158.9520146 169.57959638 -161.477224 168.29233939 -164 167 C-164 166.01 -164 165.02 -164 164 C-160.0673934 161.99026832 -156.12815258 159.99390285 -152.1875 158 C-151.06794922 157.42765625 -149.94839844 156.8553125 -148.79492188 156.265625 C-147.72177734 155.72421875 -146.64863281 155.1828125 -145.54296875 154.625 C-144.55321045 154.12226563 -143.56345215 153.61953125 -142.54370117 153.1015625 C-140 152 -140 152 -137 152 C-137 154.97 -137 157.94 -137 161 C-135.68 161 -134.36 161 -133 161 C-132.85304688 159.22109375 -132.85304688 159.22109375 -132.703125 157.40625 C-129.38111341 120.24993664 -113.59353497 87.4306652 -85.25 62.8125 C-62.18397956 44.28750835 -34.56428306 33.59658139 -5 32 C-4.67 30.68 -4.34 29.36 -4 28 C-6.97 28 -9.94 28 -13 28 C-12.3932893 24.19006247 -11.26819269 21.17212599 -9.53125 17.734375 C-8.79841797 16.27644531 -8.79841797 16.27644531 -8.05078125 14.7890625 C-7.53902344 13.78617188 -7.02726563 12.78328125 -6.5 11.75 C-5.98824219 10.73164062 -5.47648438 9.71328125 -4.94921875 8.6640625 C-1.15427055 1.15427055 -1.15427055 1.15427055 0 0 Z M5 41 C5 77.3 5 113.6 5 151 C8.64389758 147.35610242 10.80603914 144.20405497 13.33984375 139.828125 C15 138 15 138 17.69140625 137.734375 C18.45324219 137.82203125 19.21507812 137.9096875 20 138 C20.80374794 140.79347334 21.25957963 142.38820948 20.10375977 145.11230469 C19.40464478 146.13179199 19.40464478 146.13179199 18.69140625 147.171875 C17.94213867 148.29142578 17.94213867 148.29142578 17.17773438 149.43359375 C16.64470703 150.19800781 16.11167969 150.96242188 15.5625 151.75 C14.52066858 153.28546409 13.48022439 154.82187068 12.44140625 156.359375 C11.97420166 157.03452148 11.50699707 157.70966797 11.02563477 158.40527344 C9.90984554 159.8241667 9.90984554 159.8241667 10 161 C48.28 161 86.56 161 126 161 C125.14428466 148.6160902 125.14428466 148.6160902 122.875 136.625 C122.65690674 135.73288818 122.43881348 134.84077637 122.21411133 133.92163086 C120.0459473 125.49390117 116.96180253 117.73455639 113 110 C112.69191406 109.39607422 112.38382812 108.79214844 112.06640625 108.16992188 C105.78805117 96.09516014 97.86889173 85.65279574 88.3125 76 C87.79018799 75.47204834 87.26787598 74.94409668 86.72973633 74.40014648 C80.63913892 67.99974286 80.63913892 67.99974286 73 65 C71.19931985 67.42649031 69.52163451 69.84739297 67.875 72.375 C67.40707031 73.07367188 66.93914062 73.77234375 66.45703125 74.4921875 C63.8958945 77.96655829 63.8958945 77.96655829 63 82 C60.69 82 58.38 82 56 82 C55.24139104 75.95922492 57.64054285 72.94382353 61.0625 68.3125 C62.81969559 65.91123272 64.42551964 63.53388335 66 61 C64.79154486 57.37463457 63.42666933 56.88128494 60.13916016 55.19604492 C59.4538623 54.8632251 58.76856445 54.53040527 58.0625 54.1875 C57.34884277 53.83856689 56.63518555 53.48963379 55.89990234 53.13012695 C39.76583178 45.46618055 22.89197246 41 5 41 Z M-87 77 C-87.67289063 77.60972656 -88.34578125 78.21945313 -89.0390625 78.84765625 C-95.38061485 84.79759879 -100.19462464 91.801127 -105 99 C-105.63035156 99.93457031 -106.26070312 100.86914062 -106.91015625 101.83203125 C-118.31031413 119.98399106 -122.5918038 139.87705693 -124 161 C-84.4 161 -44.8 161 -4 161 C-4 121.4 -4 81.8 -4 41 C-35.63394938 41 -64.48642231 55.47385993 -87 77 Z M-124 170 C-121.74566651 206.06933591 -108.30277922 235.84724045 -81.64306641 260.55664062 C-76.76995006 264.83745249 -71.42496069 268.46267183 -66 272 C-64.55367187 272.95519531 -64.55367187 272.95519531 -63.078125 273.9296875 C-44.88693935 285.23636366 -25.15163682 289.58989088 -4 291 C-4 251.07 -4 211.14 -4 170 C-43.6 170 -83.2 170 -124 170 Z M5 170 C5 209.93 5 249.86 5 291 C41.47687901 288.72019506 72.61131311 274.6203471 97 247 C114.85528689 225.76839469 126 197.77100184 126 170 C86.07 170 46.14 170 5 170 Z " fill="#000000" transform="translate(191,26)"/>
<path d="M0 0 C126.72 0 253.44 0 384 0 C384 126.72 384 253.44 384 384 C257.28 384 130.56 384 0 384 C0 257.28 0 130.56 0 0 Z M8 8 C8 129.44 8 250.88 8 376 C129.44 376 250.88 376 376 376 C376 254.56 376 133.12 376 8 C254.56 8 133.12 8 8 8 Z " fill="#000000" transform="translate(0,0)"/>
<path d="M0 0 C4.19742765 3.40711701 6.39682568 6.3685674 7.1484375 11.796875 C7.51516697 17.15112533 6.46316051 20.73413907 3.33984375 25.1015625 C0.46934506 28.34514987 -2.23169157 29.51696845 -6.4921875 30.07421875 C-12.58347054 30.3787829 -16.30882595 29.52833451 -21.1328125 25.765625 C-24.795254 21.57066234 -25.73349253 17.40145362 -25.453125 11.90625 C-24.7773706 7.39023281 -23.03005854 4.61564756 -19.7578125 1.515625 C-13.57248838 -2.60792441 -6.77577924 -3.92151326 0 0 Z " fill="#000000" transform="translate(248.1328125,213.234375)"/>
<path d="M0 0 C4.10616128 3.72419279 6.4010258 7.33483878 6.91796875 12.93359375 C6.68633487 18.57001806 5.1898425 21.9619872 1.35546875 26.0625 C-3.08003427 29.7189334 -7.01668099 29.8694016 -12.62109375 29.75 C-17.76755384 29.15244295 -20.29448993 26.53587929 -23.6875 22.875 C-25.98831945 18.00788192 -26.09363802 13.73187994 -25.3125 8.4375 C-23.13461093 4.0010593 -20.39814574 1.19531087 -16.3125 -1.5625 C-10.71166702 -3.3984577 -5.2419274 -2.47260726 0 0 Z " fill="#000000" transform="translate(166.3125,260.5625)"/>
<path d="M0 0 C3.6320129 2.49700887 4.74335883 4.18478686 6.0625 8.375 C5.98012485 13.15275846 4.72204275 15.1113675 2 19 C-1.48339075 20.74169538 -5.19948216 20.5776262 -9 20 C-12.348157 17.62838879 -13.65750859 15.98466279 -15 12.125 C-15 8.09693738 -13.89929459 5.52726138 -12 2 C-7.97500157 -0.68333228 -4.72857864 -0.79639219 0 0 Z " fill="#000000" transform="translate(120,235)"/>
<path d="M0 0 C3.348157 2.37161121 4.65750859 4.01533721 6 7.875 C6 11.90306262 4.89929459 14.47273862 3 18 C-1.02499843 20.68333228 -4.27142136 20.79639219 -9 20 C-12.6320129 17.50299113 -13.74335883 15.81521314 -15.0625 11.625 C-14.98012485 6.84724154 -13.72204275 4.8886325 -11 1 C-7.51660925 -0.74169538 -3.80051784 -0.5776262 0 0 Z " fill="#000000" transform="translate(273,129)"/>
<path d="M0 0 C2.36425781 0.45141602 2.36425781 0.45141602 4.36425781 2.45141602 C5.1017072 7.1325724 3.30714234 9.59711017 0.68066406 13.37329102 C0.30570297 13.91874573 -0.06925812 14.46420044 -0.45558167 15.02618408 C-1.6507344 16.75899172 -2.86172268 18.48002365 -4.07324219 20.20141602 C-4.88483085 21.37387265 -5.69538955 22.54704294 -6.50488281 23.72094727 C-12.34416753 32.15984135 -12.34416753 32.15984135 -13.63574219 33.45141602 C-16.63574219 33.57641602 -16.63574219 33.57641602 -19.63574219 33.45141602 C-19.96574219 33.12141602 -20.29574219 32.79141602 -20.63574219 32.45141602 C-20.1447194 25.0192722 -16.65920661 20.16989237 -12.57177734 14.2421875 C-11.3815358 12.50778653 -10.2250336 10.75388998 -9.06933594 8.99633789 C-8.31736548 7.88760065 -7.56352298 6.78013026 -6.80761719 5.67407227 C-6.12795898 4.67126221 -5.44830078 3.66845215 -4.74804688 2.63525391 C-2.63574219 0.45141602 -2.63574219 0.45141602 0 0 Z " fill="#000000" transform="translate(237.6357421875,118.548583984375)"/>
</svg>
