<?xml version="1.0" encoding="UTF-8"?>
<svg version="1.1" xmlns="http://www.w3.org/2000/svg" width="384" height="384">
<path d="M0 0 C126.72 0 253.44 0 384 0 C384 126.72 384 253.44 384 384 C257.28 384 130.56 384 0 384 C0 257.28 0 130.56 0 0 Z M8 8 C8 129.44 8 250.88 8 376 C129.44 376 250.88 376 376 376 C376 254.56 376 133.12 376 8 C254.56 8 133.12 8 8 8 Z " fill="#000000" transform="translate(0,0)"/>
<path d="M0 0 C2 2 2 2 2.24609566 4.91666603 C2.24425207 6.17583525 2.24240849 7.43500446 2.24050903 8.73233032 C2.24307231 9.78232478 2.24307231 9.78232478 2.24568737 10.85353124 C2.24899444 13.21056217 2.23795878 15.56731149 2.22705078 17.92431641 C2.22648693 19.60931898 2.22680272 21.29432205 2.22793579 22.97932434 C2.22851132 27.56381318 2.2167247 32.14819807 2.20278788 36.73266268 C2.19031381 41.51996113 2.18911265 46.30726178 2.18673706 51.09457397 C2.18051249 60.16455966 2.1640885 69.23449733 2.14403808 78.30446184 C2.12170942 88.62836794 2.11069329 98.9522763 2.10064721 109.27620053 C2.07972309 130.51749458 2.04412692 151.75874258 2 173 C7.28 173 12.56 173 18 173 C18 170.03 18 167.06 18 164 C23.8100941 165.67932952 29.00868579 168.39208392 34.375 171.125 C35.30183594 171.59292969 36.22867187 172.06085938 37.18359375 172.54296875 C39.45759406 173.69169056 41.72963282 174.84411881 44 176 C44 176.99 44 177.98 44 179 C40.04490505 181.00645249 36.08540979 183.00406136 32.125 185 C30.99707031 185.57234375 29.86914062 186.1446875 28.70703125 186.734375 C27.09248047 187.54648437 27.09248047 187.54648437 25.4453125 188.375 C24.45031738 188.87773437 23.45532227 189.38046875 22.43017578 189.8984375 C20 191 20 191 18 191 C18 188.03 18 185.06 18 182 C-65.49 182 -148.98 182 -235 182 C-235 184.97 -235 187.94 -235 191 C-240.8100941 189.32067048 -246.00868579 186.60791608 -251.375 183.875 C-252.76525391 183.17310547 -252.76525391 183.17310547 -254.18359375 182.45703125 C-256.45759406 181.30830944 -258.72963282 180.15588119 -261 179 C-261 178.01 -261 177.02 -261 176 C-257.04490505 173.99354751 -253.08540979 171.99593864 -249.125 170 C-247.99707031 169.42765625 -246.86914062 168.8553125 -245.70703125 168.265625 C-244.09248047 167.45351563 -244.09248047 167.45351563 -242.4453125 166.625 C-241.45031738 166.12226563 -240.45532227 165.61953125 -239.43017578 165.1015625 C-237 164 -237 164 -235 164 C-235 166.97 -235 169.94 -235 173 C-229.39 173 -223.78 173 -218 173 C-218.01571045 171.04666748 -218.0314209 169.09333496 -218.04760742 167.08081055 C-218.09596068 160.63076772 -218.13044417 154.18076776 -218.15543652 147.73059368 C-218.17110009 143.81939774 -218.19235063 139.90839766 -218.22631836 135.99731445 C-218.25888769 132.22367741 -218.2768478 128.4502289 -218.28463173 124.67646217 C-218.29017965 123.23591964 -218.30101336 121.79538754 -218.31719017 120.35492516 C-218.33892959 118.3391766 -218.3402251 116.32323879 -218.34057617 114.30737305 C-218.34723801 113.15931686 -218.35389984 112.01126068 -218.36076355 110.82841492 C-217.94337156 107.55602853 -217.43467965 107.06926351 -215 105 C-213.2866317 103.95414144 -213.2866317 103.95414144 -211.36517525 102.9910326 C-210.63077253 102.61930292 -209.8963698 102.24757324 -209.13971245 101.86457902 C-208.33476243 101.46476798 -207.52981241 101.06495693 -206.70046997 100.6530304 C-205.41559781 100.00602599 -205.41559781 100.00602599 -204.10476863 99.34595078 C-201.22649917 97.89847476 -198.34399624 96.45964139 -195.46142578 95.02075195 C-193.39991232 93.98632664 -191.33864912 92.95140244 -189.27761841 91.91601562 C-183.67309721 89.10262497 -178.06472432 86.29699636 -172.45536661 83.49326348 C-167.77715508 81.15421746 -163.10068342 78.81170422 -158.42416561 76.46927422 C-146.76344953 70.6287406 -135.09888221 64.79594345 -123.43265699 58.96642347 C-113.29882253 53.90229472 -103.17031056 48.8276221 -93.04422177 43.74802563 C-82.6483867 38.53324695 -72.24877034 33.32608374 -61.84535205 28.12644929 C-56.00397781 25.20679794 -50.16416746 22.28411947 -44.3280983 19.35387611 C-38.84145897 16.59945852 -33.3501153 13.85466067 -27.8549614 11.11727142 C-25.83638657 10.10969527 -23.81952152 9.09868557 -21.80448914 8.0840435 C-19.05867149 6.70209366 -16.30701486 5.33254615 -13.55349731 3.96601868 C-12.75300874 3.55951546 -11.95252016 3.15301225 -11.12777436 2.73419076 C-4.08847324 -0.72928126 -4.08847324 -0.72928126 0 0 Z M-12.88504028 13.82226562 C-13.6955484 14.22614502 -14.50605652 14.63002441 -15.34112549 15.04614258 C-16.23160583 15.49497803 -17.12208618 15.94381348 -18.03955078 16.40625 C-18.97618561 16.87442139 -19.91282043 17.34259277 -20.87783813 17.82495117 C-23.98557313 19.37951755 -27.09043321 20.93973887 -30.1953125 22.5 C-32.34462355 23.57651979 -34.49411103 24.65268739 -36.64376831 25.72851562 C-42.31071127 28.5658116 -47.97523583 31.40790361 -53.63928223 34.25097656 C-59.41562995 37.14936599 -65.19423518 40.04324699 -70.97265625 42.9375 C-82.31732846 48.62057223 -93.65924022 54.30912438 -105 60 C-105 71.88 -105 83.76 -105 96 C-106.65 96.33 -108.3 96.66 -110 97 C-111.9230889 95.0769111 -111.25321838 91.52929515 -111.31640625 88.90234375 C-111.33718735 88.19348526 -111.35796844 87.48462677 -111.37937927 86.75428772 C-111.44494598 84.48212695 -111.5037923 82.20984736 -111.5625 79.9375 C-111.60567849 78.40037817 -111.64929255 76.8632685 -111.69335938 75.32617188 C-111.80145644 71.55093277 -111.90107197 67.77548999 -112 64 C-124.72554276 69.97034898 -137.35397193 76.10757203 -149.91796875 82.41015625 C-151.63950376 83.27186003 -153.36112938 84.1333828 -155.08283997 84.99473572 C-159.54361201 87.22700147 -164.00317619 89.46166925 -168.46246338 91.69689941 C-173.85090259 94.39721386 -179.24088999 97.09443659 -184.6306076 99.79219818 C-192.75490471 103.85914227 -200.87726771 107.92992471 -209 112 C-209 132.13 -209 152.26 -209 173 C-176.99 173 -144.98 173 -112 173 C-111.67 170.69 -111.34 168.38 -111 166 C-107.25 164.875 -107.25 164.875 -105 166 C-104.505 169.465 -104.505 169.465 -104 173 C-71.99 173 -39.98 173 -7 173 C-7 119.87 -7 66.74 -7 12 C-9.45726238 12 -10.68783527 12.7207947 -12.88504028 13.82226562 Z " fill="#000000" transform="translate(300,120)"/>
<path d="M0 0 C2.67539325 2.38199785 4.10738942 4.84083737 5.69921875 8.03515625 C6.42915039 9.49598633 6.42915039 9.49598633 7.17382812 10.98632812 C7.9230957 12.5090332 7.9230957 12.5090332 8.6875 14.0625 C9.19861328 15.08150391 9.70972656 16.10050781 10.23632812 17.15039062 C14 24.73300859 14 24.73300859 14 27 C11.03 27 8.06 27 5 27 C5.00785522 28.40076782 5.00785522 28.40076782 5.01586914 29.82983398 C5.0328762 33.28312796 5.04543302 36.73637767 5.05493164 40.18969727 C5.05997121 41.68644918 5.06680287 43.18319616 5.07543945 44.67993164 C5.08752159 46.82699807 5.09323191 48.97399962 5.09765625 51.12109375 C5.10551147 53.06133423 5.10551147 53.06133423 5.11352539 55.04077148 C5 58 5 58 4 59 C1 59.125 1 59.125 -2 59 C-3 58 -3 58 -3.11352539 55.04077148 C-3.10828857 53.74727783 -3.10305176 52.45378418 -3.09765625 51.12109375 C-3.0962413 50.4344313 -3.09482635 49.74776886 -3.09336853 49.04029846 C-3.08775479 46.83932199 -3.07520007 44.63844591 -3.0625 42.4375 C-3.05748676 40.94856917 -3.05292355 39.45963676 -3.04882812 37.97070312 C-3.03778093 34.31376925 -3.02050713 30.65689442 -3 27 C-6.3 27 -9.6 27 -13 27 C-11.32246669 21.21969949 -8.64724599 16.03416995 -5.9375 10.6875 C-5.47794922 9.76904297 -5.01839844 8.85058594 -4.54492188 7.90429688 C-1.14055525 1.14055525 -1.14055525 1.14055525 0 0 Z " fill="#000000" transform="translate(191,53)"/>
<path d="M0 0 C3.58326501 -0.05814085 7.16640838 -0.09364357 10.75 -0.125 C11.76578125 -0.14175781 12.7815625 -0.15851563 13.828125 -0.17578125 C14.8078125 -0.18222656 15.7875 -0.18867188 16.796875 -0.1953125 C17.69760742 -0.20578613 18.59833984 -0.21625977 19.52636719 -0.22705078 C22.17299782 0.01587919 23.75560763 0.60333671 26 2 C28.03244348 4.61314161 27.99847061 6.08411666 27.9375 9.4375 C26.81320243 13.70983076 25.47242251 15.31676442 22 18 C19.328125 18.6328125 19.328125 18.6328125 17 19 C17.90380334 21.42219296 18.82226058 23.83698545 19.75 26.25 C20.00265625 26.93191406 20.2553125 27.61382812 20.515625 28.31640625 C22.08912579 32.36817078 23.59573925 35.12858006 27 38 C23.7 38 20.4 38 17 38 C16.20788071 36.10435574 15.41632424 34.20847629 14.625 32.3125 C14.18414062 31.25675781 13.74328125 30.20101563 13.2890625 29.11328125 C12.47486777 27.14687762 11.69401917 25.1660297 10.9609375 23.16796875 C10.20248887 20.83604378 10.20248887 20.83604378 8 20 C7.3299166 22.12392506 6.66403203 24.24917524 6 26.375 C5.443125 28.15003906 5.443125 28.15003906 4.875 29.9609375 C3.90777394 32.79323439 3.90777394 32.79323439 4 35 C4.99 35.99 5.98 36.98 7 38 C2.05 38 -2.9 38 -8 38 C-6.02 35.525 -6.02 35.525 -4 33 C-2.86139947 30.23156546 -2.86139947 30.23156546 -2.11328125 27.25390625 C-1.81486328 26.16916016 -1.51644531 25.08441406 -1.20898438 23.96679688 C-0.91314453 22.84337891 -0.61730469 21.71996094 -0.3125 20.5625 C0.14866211 18.88317383 0.14866211 18.88317383 0.61914062 17.16992188 C1.98721439 12.12571115 3.20083974 7.16937321 4 2 C2.68 1.67 1.36 1.34 0 1 C0 0.67 0 0.34 0 0 Z M13 2 C10.42853943 4.57146057 10.19882003 6.6050417 9.375 10.125 C9.11460937 11.22070312 8.85421875 12.31640625 8.5859375 13.4453125 C8.39257812 14.28835938 8.19921875 15.13140625 8 16 C13.39012246 16.36195182 13.39012246 16.36195182 18.4375 14.875 C20.67570494 12.18915407 21.06983202 10.49160091 21 7 C18.8744845 4.04089856 18.8744845 4.04089856 16 2 C15.01 2 14.02 2 13 2 Z " fill="#000000" transform="translate(184,306)"/>
<path d="M0 0 C3 0.125 3 0.125 4 1.125 C4.10095564 3.77956193 4.13970998 6.40755176 4.1328125 9.0625 C4.13376923 9.857771 4.13472595 10.65304199 4.13571167 11.47241211 C4.13639343 13.1570646 4.13453943 14.84171971 4.13037109 16.52636719 C4.12502275 19.11399197 4.13031619 21.70144316 4.13671875 24.2890625 C4.13605797 25.92187539 4.1347768 27.55468816 4.1328125 29.1875 C4.13483673 29.96665771 4.13686096 30.74581543 4.13894653 31.54858398 C4.11495105 37.01004895 4.11495105 37.01004895 3 38.125 C0 38.25 0 38.25 -3 38.125 C-4.78830448 36.33669552 -4.12848711 33.92918848 -4.13894653 31.54858398 C-4.1369223 30.76942627 -4.13489807 29.99026855 -4.1328125 29.1875 C-4.13376923 28.392229 -4.13472595 27.59695801 -4.13571167 26.77758789 C-4.13639343 25.0929354 -4.13453943 23.40828029 -4.13037109 21.72363281 C-4.12502275 19.13600803 -4.13031619 16.54855684 -4.13671875 13.9609375 C-4.13605797 12.32812461 -4.1347768 10.69531184 -4.1328125 9.0625 C-4.13483673 8.28334229 -4.13686096 7.50418457 -4.13894653 6.70141602 C-4.11025565 0.17126065 -4.11025565 0.17126065 0 0 Z " fill="#000000" transform="translate(192,231.875)"/>
<path d="M0 0 C3 0.125 3 0.125 4 1.125 C4.08855161 3.7912603 4.11524673 6.43147114 4.09765625 9.09765625 C4.0962413 9.89529892 4.09482635 10.69294159 4.09336853 11.51475525 C4.08775316 14.07237435 4.07519812 16.62990718 4.0625 19.1875 C4.05748698 20.91731645 4.05292373 22.64713426 4.04882812 24.37695312 C4.03777875 28.62633553 4.02050386 32.87565312 4 37.125 C1.125 37.75 1.125 37.75 -2 38.125 C-4.52584607 35.59915393 -4.23704324 34.03293507 -4.25224304 30.5877533 C-4.24505753 29.83563065 -4.23787201 29.083508 -4.23046875 28.30859375 C-4.23001053 27.53693375 -4.22955231 26.76527374 -4.2290802 25.9702301 C-4.22605787 24.33861758 -4.21817213 22.70700795 -4.20581055 21.07543945 C-4.18754787 18.56907 -4.18530088 16.06306967 -4.18554688 13.55664062 C-4.18063198 11.97395512 -4.17480379 10.39127213 -4.16796875 8.80859375 C-4.16685593 8.05444687 -4.1657431 7.30029999 -4.16459656 6.52330017 C-4.10621797 0.17109242 -4.10621797 0.17109242 0 0 Z " fill="#000000" transform="translate(192,126.875)"/>
</svg>
