<?xml version="1.0" encoding="UTF-8"?>
<svg version="1.1" xmlns="http://www.w3.org/2000/svg" width="412" height="550">
<path d="M0 0 C2.49452002 2.20932337 4.88388631 4.486245 7.25 6.83203125 C7.95898438 7.50363281 8.66796875 8.17523437 9.3984375 8.8671875 C13.52972273 12.84810028 17.10908712 17.0377897 20.51171875 21.65625 C24.668129 26.85876799 27.77956686 29.38379479 34.25 31.20703125 C59.62094786 38.9859623 74.94842346 57.24024943 87.17041016 79.765625 C95.78042505 96.24576206 97.35150969 111.33114683 97.1875 129.64453125 C97.0392697 153.83411304 99.76330991 175.51175279 108.43212891 198.0847168 C115.33198414 216.15568705 115.31442139 233.92050787 107.5546875 251.86328125 C94.3766989 280.61619159 67.90118281 301.79821311 38.625 312.70703125 C18.25897693 319.95323995 -2.3960146 321.01196369 -23.8125 321.01953125 C-24.56244232 321.02052826 -25.31238464 321.02152527 -26.08505249 321.02255249 C-34.20830874 321.02132973 -42.21432222 320.86502856 -50.28710938 319.82446289 C-53.21081579 319.83344732 -54.73414318 320.53117841 -57.1875 322.08203125 C-63.11913026 328.33362497 -64.23510973 337.66013771 -65.75 345.83203125 C-65.91371094 346.71487793 -66.07742187 347.59772461 -66.24609375 348.50732422 C-73.8886283 392.09661477 -68.64987468 446.62849584 -43.96875 484.5703125 C-42.3302187 486.7860537 -40.62754213 488.81649605 -38.75 490.83203125 C-38.18152344 491.45335937 -37.61304688 492.0746875 -37.02734375 492.71484375 C-32.00353865 497.64265257 -26.18341242 500.04702533 -19.7265625 502.5703125 C-16.75 503.83203125 -16.75 503.83203125 -14.75 505.83203125 C-14.8125 508.26953125 -14.8125 508.26953125 -15.75 510.83203125 C-19.54670839 513.61440568 -23.47051573 514.7213911 -28 515.70703125 C-28.71148193 515.86848633 -29.42296387 516.02994141 -30.15600586 516.19628906 C-40.97680132 518.61025499 -51.86955509 520.70709807 -62.75 522.83203125 C-62.80198752 525.10388268 -62.80198752 525.10388268 -62.1875 528.39453125 C-61.9709375 530.09609375 -61.9709375 530.09609375 -61.75 531.83203125 C-63.28123685 533.3632681 -64.68212824 533.07510232 -66.8125 533.14453125 C-75.87848567 532.97293531 -81.19038248 527.86639506 -87.55078125 521.85546875 C-91.14573033 518.50174122 -91.14573033 518.50174122 -95.87109375 517.8984375 C-100.75904146 519.07489219 -104.51855777 521.21608604 -108.8125 523.76953125 C-122.04375418 531.53259905 -122.04375418 531.53259905 -129.75 530.83203125 C-130.41 530.17203125 -131.07 529.51203125 -131.75 528.83203125 C-131.38950885 525.4073653 -130.27073728 522.87350581 -128.75 519.83203125 C-128.75 518.84203125 -128.75 517.85203125 -128.75 516.83203125 C-137.25212296 513.60541427 -145.76540056 513.12893125 -154.75 512.70703125 C-156.8736883 512.59870437 -158.99710564 512.48689143 -161.12036133 512.37039185 C-163.02518786 512.26712965 -164.93055857 512.17405413 -166.8359375 512.08154297 C-169.75 511.83203125 -169.75 511.83203125 -171.75 510.83203125 C-172.2722006 507.8480278 -172.25889839 505.68765162 -170.68359375 503.0390625 C-165.54042834 496.78734515 -158.93226898 492.10829163 -152.54882812 487.21240234 C-141.45295778 478.69773745 -130.78292941 469.81400991 -128.10571289 455.3515625 C-127.91609985 453.51658203 -127.91609985 453.51658203 -127.72265625 451.64453125 C-127.64891785 450.96110657 -127.57517944 450.27768188 -127.49920654 449.57354736 C-127.259575 447.32735571 -127.03585718 445.07989464 -126.8125 442.83203125 C-126.64699565 441.24567217 -126.48055477 439.65941055 -126.31323242 438.07324219 C-125.96217897 434.72588658 -125.61812159 431.37791194 -125.27929688 428.02929688 C-124.83781458 423.67320135 -124.38117231 419.31886713 -123.91859436 414.96496582 C-123.55134929 411.5070522 -123.18786134 408.04875099 -122.82540894 404.59033203 C-122.65292759 402.94476185 -122.47987175 401.29925176 -122.30618286 399.65380859 C-116.58999733 359.16822522 -116.58999733 359.16822522 -130.06225586 322.50195312 C-134.66928935 317.46368889 -138.51590616 314.08240467 -145.55322266 313.53759766 C-153.57155259 313.72285346 -161.47198914 315.23022571 -169.32849121 316.73754883 C-199.2581724 322.32492788 -237.29210909 321.24002562 -263.75 304.83203125 C-274.08976774 297.5118417 -279.313679 287.64499085 -282.3125 275.56640625 C-282.88227483 272.00531354 -282.94074609 268.49119389 -282.9375 264.89453125 C-282.9384668 263.77498047 -282.9384668 263.77498047 -282.93945312 262.6328125 C-282.89414572 257.78903927 -282.48598818 253.12900389 -281.75 248.33203125 C-281.57855469 247.19894531 -281.40710938 246.06585938 -281.23046875 244.8984375 C-280.94383678 243.06911963 -280.64005723 241.24216441 -280.30078125 239.421875 C-279.62503158 233.31797222 -282.63735238 229.60424552 -286.11303711 224.90991211 C-296.06650114 211.43520302 -299.32309256 196.48292125 -299.1875 179.95703125 C-299.18137695 178.64855225 -299.17525391 177.34007324 -299.16894531 175.99194336 C-299.03605235 164.74506729 -298.11788891 153.58148883 -297 142.39453125 C-296.92167938 141.58381165 -296.84335876 140.77309204 -296.76266479 139.93780518 C-294.5643445 117.68683819 -289.88521953 97.41581875 -272.75 81.83203125 C-265.1483581 75.89459062 -256.25639911 70.76732252 -246.40625 70.74609375 C-238.12377389 70.91540726 -238.12377389 70.91540726 -231.07714844 67.24755859 C-228.01649727 63.125404 -225.86209982 58.55210993 -223.73339844 53.89794922 C-216.60871586 38.93045567 -203.45625887 26.88999761 -188.0625 21.08203125 C-169.75173554 15.06650819 -147.78716561 9.26118657 -129.44140625 17.921875 C-127.83948301 18.82759015 -126.28652229 19.81932337 -124.75 20.83203125 C-124.4096875 19.78982422 -124.4096875 19.78982422 -124.0625 18.7265625 C-122.46004139 15.19256895 -120.25546996 12.43892223 -117.75 9.51953125 C-117.26088135 8.94775146 -116.7717627 8.37597168 -116.26782227 7.78686523 C-111.90071607 2.80142019 -107.19940956 -1.37858667 -101.75 -5.16796875 C-100.97269531 -5.709375 -100.19539062 -6.25078125 -99.39453125 -6.80859375 C-71.5529681 -24.79433438 -25.89968665 -20.41807683 0 0 Z M-110.75 7.83203125 C-116.51646261 13.67195198 -121.18382504 19.41295369 -124.75 26.83203125 C-126.1421875 25.43984375 -126.1421875 25.43984375 -127.5625 24.01953125 C-135.76547189 17.07981703 -146.49538526 17.06188014 -156.75 17.83203125 C-178.85723608 20.31030145 -199.28387545 27.14825768 -213.75 44.83203125 C-216.69090739 49.02384543 -219.23411483 53.37561927 -221.75 57.83203125 C-223.16707725 60.24047674 -224.61192772 62.63115799 -226.0625 65.01953125 C-226.69800781 66.08558594 -227.33351563 67.15164062 -227.98828125 68.25 C-229.75 70.83203125 -229.75 70.83203125 -232.75 72.83203125 C-235.5711876 73.17057376 -238.3573711 73.42992982 -241.1875 73.64453125 C-255.70639135 75.01776372 -268.34996752 80.86794874 -277.8359375 92.16796875 C-288.63825958 107.20303745 -291.23814382 124.51509028 -292.9375 142.45703125 C-293.10477258 144.14935324 -293.27225485 145.84165452 -293.43994141 147.53393555 C-297.5487214 187.39049338 -297.5487214 187.39049338 -282.75 223.83203125 C-281.62714921 225.16717502 -280.50222557 226.50057893 -279.375 227.83203125 C-275.88885477 232.4041746 -276.05180085 236.27817439 -276.75 241.83203125 C-277.07468904 243.8126344 -277.40865373 245.79173082 -277.75 247.76953125 C-280.10985669 262.2535792 -280.77418002 278.57447484 -272.0625 291.14453125 C-270.99510245 292.4057597 -269.88861182 293.63470178 -268.75 294.83203125 C-268.11320312 295.50878906 -267.47640625 296.18554688 -266.8203125 296.8828125 C-249.36243913 313.86107397 -221.10634712 315.21066139 -198.08740234 315.06201172 C-182.29343721 314.80826372 -166.79949932 313.34828522 -151.19328308 310.95574951 C-122.09317515 306.49533513 -96.68991444 304.93140759 -67.93005371 312.35232544 C-53.14291822 316.15419203 -38.77130428 317.18126376 -23.5625 317.08203125 C-22.7024939 317.07859711 -21.84248779 317.07516296 -20.9564209 317.07162476 C19.5459712 316.88189044 54.74758134 307.61303087 84.625 278.83203125 C99.8403503 262.99513886 109.95656092 243.57886765 109.79345703 221.36328125 C109.48436808 212.9201882 107.25075088 205.66091336 104.25 197.83203125 C103.19375002 194.98307558 102.15503962 192.12806077 101.125 189.26953125 C100.87000732 188.56554199 100.61501465 187.86155273 100.35229492 187.13623047 C95.89461023 174.50199501 94.16335444 161.30516122 94.00390625 147.953125 C93.97094499 146.04231352 93.93773376 144.13150634 93.90429688 142.22070312 C93.85719634 139.25483342 93.81275942 136.28897817 93.77319336 133.32299805 C93.58779745 109.37788088 93.58779745 109.37788088 86.25 86.83203125 C85.38181641 85.05699219 85.38181641 85.05699219 84.49609375 83.24609375 C72.34993563 59.11050213 56.40930811 42.55180062 30.25 33.83203125 C21.85780218 31.03463198 17.51435367 24.55100896 12.25 17.83203125 C-3.85686024 -1.76464871 -23.77599724 -10.75818934 -48.68652344 -13.37109375 C-72.94231726 -15.73197588 -93.2469745 -9.44802577 -110.75 7.83203125 Z M-136.75 311.83203125 C-135.31875447 315.19137957 -133.57271696 317.14995952 -130.8125 319.51953125 C-130.12285156 320.12152344 -129.43320313 320.72351563 -128.72265625 321.34375 C-126.71998029 323.01921885 -126.71998029 323.01921885 -123.75 323.83203125 C-122.6875 325.63671875 -122.6875 325.63671875 -121.75 327.83203125 C-121.255 328.79496094 -121.255 328.79496094 -120.75 329.77734375 C-109.2133163 354.923709 -117.1474919 389.46494335 -119.94702148 416.08886719 C-120.27136616 419.19862464 -120.58545521 422.30938457 -120.8994894 425.42019749 C-121.20709229 428.45854791 -121.51969237 431.49636759 -121.83390999 434.53404045 C-121.98140315 435.96305974 -122.12771637 437.39220141 -122.27273369 438.82147408 C-124.27407582 458.44599861 -127.92811399 472.51957505 -143.77246094 485.48730469 C-146.68213936 487.75419313 -149.62897333 489.9667668 -152.5925293 492.16259766 C-158.09043441 496.25016249 -163.43172731 500.45572024 -167.75 505.83203125 C-167.75 506.49203125 -167.75 507.15203125 -167.75 507.83203125 C-164.63836635 508.73583278 -161.80126936 508.97996507 -158.56640625 509.04296875 C-157.56158203 509.0694751 -156.55675781 509.09598145 -155.52148438 509.12329102 C-154.46251953 509.15092529 -153.40355469 509.17855957 -152.3125 509.20703125 C-143.43094803 509.49372604 -135.27806592 510.18366703 -126.75 512.83203125 C-126.45867187 511.57390625 -126.16734375 510.31578125 -125.8671875 509.01953125 C-123.10031908 497.36438388 -120.13730088 485.60663302 -114.75 474.83203125 C-113.76 475.16203125 -112.77 475.49203125 -111.75 475.83203125 C-112.07395752 476.42846436 -112.39791504 477.02489746 -112.73168945 477.6394043 C-115.97987238 483.83698302 -118.18947322 489.88136078 -119.9375 496.64453125 C-120.19305664 497.60359375 -120.44861328 498.56265625 -120.71191406 499.55078125 C-122.32010155 505.73322964 -123.59534097 511.8249863 -124.328125 518.17578125 C-124.80953984 521.20691172 -125.71501958 523.94765958 -126.75 526.83203125 C-120.77371556 526.3550965 -116.27737014 523.7204081 -111.125 520.89453125 C-109.44539124 519.9894372 -107.76570647 519.08448419 -106.0859375 518.1796875 C-105.34907715 517.77758057 -104.6122168 517.37547363 -103.85302734 516.96118164 C-101.83883683 515.87972922 -99.79479882 514.85443066 -97.75 513.83203125 C-97.75 507.23203125 -97.75 500.63203125 -97.75 493.83203125 C-96.43 493.83203125 -95.11 493.83203125 -93.75 493.83203125 C-93.87568359 495.00958984 -93.87568359 495.00958984 -94.00390625 496.2109375 C-95.05733479 504.62618325 -95.05733479 504.62618325 -93.75 512.83203125 C-92.00094923 514.54919828 -90.17239505 515.86293455 -88.1328125 517.22265625 C-85.49960336 519.00115161 -83.12243585 520.97924861 -80.6875 523.01953125 C-76.81003134 526.12865359 -73.5203089 528.40093858 -68.75 529.83203125 C-66.60252598 529.43891063 -66.60252598 529.43891063 -64.75 528.83203125 C-65.08773437 528.38214844 -65.42546875 527.93226563 -65.7734375 527.46875 C-69.68586329 521.82626309 -70.91698248 516.59563617 -71.75 509.83203125 C-70.76 509.83203125 -69.77 509.83203125 -68.75 509.83203125 C-68.09 513.13203125 -67.43 516.43203125 -66.75 519.83203125 C-59.70406315 518.36656561 -59.70406315 518.36656561 -52.65893555 516.8972168 C-47.47517791 515.81445852 -42.29079441 514.73592751 -37.1015625 513.6796875 C-36.24667236 513.50405273 -35.39178223 513.32841797 -34.51098633 513.14746094 C-32.91782396 512.82021849 -31.32393989 512.49646374 -29.72924805 512.17675781 C-25.89007441 511.38336588 -22.33242201 510.43599534 -18.75 508.83203125 C-18.75 508.17203125 -18.75 507.51203125 -18.75 506.83203125 C-19.58402344 506.55230469 -20.41804687 506.27257812 -21.27734375 505.984375 C-38.04625883 500.01056905 -46.81917249 489.24532674 -54.671875 473.4765625 C-74.19182482 431.56112322 -80.84811219 373.02298865 -65.52392578 328.65673828 C-63.81092367 324.61794403 -61.14936279 321.54564362 -57.75 318.83203125 C-61.17371721 316.90055487 -64.57011053 316.03574994 -68.38671875 315.140625 C-69.34503349 314.91536888 -69.34503349 314.91536888 -70.32270813 314.68556213 C-71.67280982 314.36966884 -73.02350917 314.05632037 -74.37475586 313.74536133 C-76.41511035 313.27469605 -78.45269451 312.79323245 -80.49023438 312.31054688 C-99.52412466 307.85540671 -117.57870332 308.40527774 -136.75 311.83203125 Z " fill="#212121" transform="translate(298.75,17.16796875)"/>
<path d="M0 0 C1.68156088 0.96723929 3.30778346 2.02940772 4.921875 3.10546875 C5.293125 2.63109375 5.664375 2.15671875 6.046875 1.66796875 C8.6612364 -0.51066575 10.54412693 -0.75942133 13.921875 -0.89453125 C17.1578135 0.61055643 19.53478225 2.46710308 21.921875 5.10546875 C22.788125 4.48671875 23.654375 3.86796875 24.546875 3.23046875 C32.27059158 -1.63261206 40.00768146 -1.66760371 48.921875 -0.89453125 C53.3545029 0.31496161 56.1722157 2.07468721 58.921875 5.85546875 C59.416875 6.96921875 59.416875 6.96921875 59.921875 8.10546875 C60.581875 7.77546875 61.241875 7.44546875 61.921875 7.10546875 C68.51167374 6.32889314 73.71810683 6.60539401 79.1953125 10.52734375 C81.99755535 13.08866979 83.90664584 15.89369728 85.921875 19.10546875 C86.911875 18.61046875 86.911875 18.61046875 87.921875 18.10546875 C94.73624658 17.33283554 100.30889944 18.01423323 105.921875 22.10546875 C109.98712048 26.06958872 112.07063396 29.29409705 112.171875 34.98046875 C112.21054687 36.27597656 112.21054687 36.27597656 112.25 37.59765625 C111.86296424 40.55571524 110.87311505 41.89748659 108.921875 44.10546875 C107.931875 43.77546875 106.941875 43.44546875 105.921875 43.10546875 C106.2725 42.25984375 106.623125 41.41421875 106.984375 40.54296875 C108.36071392 35.49639269 107.94866217 31.91261417 105.359375 27.35546875 C102.14717488 24.39036094 99.25338579 22.81978807 94.921875 22.10546875 C90.28684779 22.48047095 86.79403614 23.52402799 82.921875 26.10546875 C82.261875 25.77546875 81.601875 25.44546875 80.921875 25.10546875 C80.5 23.1796875 80.5 23.1796875 80.171875 20.79296875 C79.42897878 17.28515802 79.04759446 16.23763536 76.484375 13.54296875 C71.650605 11.59250015 67.07221598 11.24189194 61.921875 12.10546875 C60.5821385 13.09687376 59.24778715 14.09564958 57.921875 15.10546875 C56.931875 14.77546875 55.941875 14.44546875 54.921875 14.10546875 C54.86 13.01234375 54.798125 11.91921875 54.734375 10.79296875 C54.28757414 7.07511657 54.28757414 7.07511657 51.859375 5.23046875 C43.98398564 2.21436219 36.61251802 2.87823206 28.8359375 5.921875 C24.46250399 8.12704506 22.66253763 10.6002243 20.921875 15.10546875 C20.261875 15.10546875 19.601875 15.10546875 18.921875 15.10546875 C17.931875 11.47546875 16.941875 7.84546875 15.921875 4.10546875 C13.09114064 3.6037746 13.09114064 3.6037746 9.921875 4.10546875 C8.53249423 6.06694749 7.1958339 8.06713451 5.921875 10.10546875 C4.601875 10.10546875 3.281875 10.10546875 1.921875 10.10546875 C1.633125 9.30109375 1.344375 8.49671875 1.046875 7.66796875 C0.18924932 4.97282195 0.18924932 4.97282195 -2.078125 4.10546875 C-8.31038572 3.56820489 -12.95302736 4.32908101 -18.078125 8.10546875 C-20.13312427 11.44484257 -20.29943213 14.232594 -20.078125 18.10546875 C-21.068125 18.43546875 -22.058125 18.76546875 -23.078125 19.10546875 C-24.078125 18.10546875 -24.078125 18.10546875 -24.390625 14.41796875 C-24.31049951 9.938954 -23.09373926 7.50770023 -20.078125 4.10546875 C-14.1995592 -0.07632919 -7.01341396 -3.01893195 0 0 Z " fill="#333333" transform="translate(131.078125,62.89453125)"/>
<path d="M0 0 C2.0625 2 2.0625 2 3 4 C3 5.32 3 6.64 3 8 C2.01 8 1.02 8 0 8 C-0.185625 7.401875 -0.37125 6.80375 -0.5625 6.1875 C-2.69312806 2.94523991 -5.3573814 1.89286211 -9 1 C-13.98863797 0.47187524 -18.40410861 0.39356127 -23.125 2.1875 C-25.40912508 4.39548758 -25.74664237 5.87525593 -26 9 C-28 9 -28 9 -30.5625 6.5625 C-31.366875 5.716875 -32.17125 4.87125 -33 4 C-34.10075495 2.69676169 -34.10075495 2.69676169 -36.8125 2.625 C-40.07853331 2.688864 -40.07853331 2.688864 -42.0625 4.9375 C-44.54958542 8.86869954 -46.81688094 12.89323095 -49 17 C-49.66 17 -50.32 17 -51 17 C-51.99 14.69 -52.98 12.38 -54 10 C-57.38614807 9.58536962 -59.96989247 9.36957419 -62.953125 11.1953125 C-67.49527333 14.99315921 -70.02361657 18.23616569 -70.625 24.25 C-70.810625 26.10625 -70.810625 26.10625 -71 28 C-71.66 28 -72.32 28 -73 28 C-74.18359375 26.3203125 -74.18359375 26.3203125 -75.4375 24.125 C-77.17330794 21.08869645 -77.98654002 20.00897332 -81 18 C-90.65405948 16.59755217 -99.49586769 19.39440141 -107.5 24.75 C-111.35798046 27.89646767 -113.10285257 31.12459276 -114 36 C-114.19991513 38.72442479 -114.14669297 41.26173122 -114 44 C-115.485 44.495 -115.485 44.495 -117 45 C-119.17051888 40.65896224 -118.78002048 34.49042683 -117.3515625 29.9296875 C-112.90657129 21.45761023 -104.66318493 17.20716728 -96 14 C-90.04697861 12.55491542 -84.362824 12.037368 -78.625 14.375 C-76.72837606 15.54910054 -74.85599341 16.76267106 -73 18 C-72.773125 17.278125 -72.54625 16.55625 -72.3125 15.8125 C-69.98712968 10.82956359 -65.98812667 7.25653349 -61 5 C-54.92907303 4.36095506 -54.92907303 4.36095506 -51.78515625 6.5234375 C-51.19605469 7.01070312 -50.60695313 7.49796875 -50 8 C-49.44570312 7.36191406 -48.89140625 6.72382813 -48.3203125 6.06640625 C-47.59585938 5.24011719 -46.87140625 4.41382813 -46.125 3.5625 C-45.04605469 2.32693359 -45.04605469 2.32693359 -43.9453125 1.06640625 C-41.57610761 -1.45027926 -40.68900639 -1.93736306 -37.25 -2.25 C-33.53836266 -1.96448944 -31.20722194 -0.83269825 -28 1 C-27.2575 0.360625 -26.515 -0.27875 -25.75 -0.9375 C-18.126136 -6.655398 -7.67914587 -4.73061307 0 0 Z " fill="#454545" transform="translate(164,172)"/>
<path d="M0 0 C4.23329605 0.77754417 5.96871202 2.61603526 9.0625 5.5625 C9.97 4.923125 10.8775 4.28375 11.8125 3.625 C16.67034434 0.54213724 20.28166759 0.06415238 26.0625 0.5625 C29.3125 2.5625 29.3125 2.5625 32.0625 4.5625 C35.2095871 4.66055807 35.2095871 4.66055807 38.8125 3.8125 C43.72491937 3.16780171 46.15550274 4.6123184 50.0625 7.5625 C51 9.8125 51 9.8125 51.0625 11.5625 C52.0525 11.2325 53.0425 10.9025 54.0625 10.5625 C58.72916667 12.89583333 58.72916667 12.89583333 60.0625 15.5625 C60.102492 17.56210012 60.10596799 19.56297242 60.0625 21.5625 C60.7225 21.3975 61.3825 21.2325 62.0625 21.0625 C71.40611233 19.50523128 71.40611233 19.50523128 76 22.4375 C79.45095688 25.99303133 79.26881542 28.54188748 79.23046875 33.296875 C79.02921081 36.01151699 78.30828604 38.14878954 77.0625 40.5625 C75.5775 40.0675 75.5775 40.0675 74.0625 39.5625 C74.07410156 38.63566406 74.08570313 37.70882812 74.09765625 36.75390625 C74.10667969 35.55636719 74.11570312 34.35882813 74.125 33.125 C74.13660156 31.93003906 74.14820313 30.73507812 74.16015625 29.50390625 C74.40151792 26.67376659 74.40151792 26.67376659 73.0625 25.5625 C67.34129563 25.13685241 61.71820712 25.73985169 56.0625 26.5625 C56.09505208 24.57682292 56.12760417 22.59114583 56.16015625 20.60546875 C56.14513217 18.35944539 56.14513217 18.35944539 55.0625 15.5625 C52.7525 15.8925 50.4425 16.2225 48.0625 16.5625 C47.60875 15.428125 47.155 14.29375 46.6875 13.125 C45.49154194 9.51528308 45.49154194 9.51528308 43.0625 8.5625 C40.10480823 8.06239476 40.10480823 8.06239476 37.0625 8.5625 C35.16391725 10.86555165 35.16391725 10.86555165 34.0625 13.5625 C33.7325 14.2225 33.4025 14.8825 33.0625 15.5625 C32.4025 15.5625 31.7425 15.5625 31.0625 15.5625 C30.86914062 14.92441406 30.67578125 14.28632813 30.4765625 13.62890625 C30.08597656 12.38947266 30.08597656 12.38947266 29.6875 11.125 C29.43226563 10.30128906 29.17703125 9.47757813 28.9140625 8.62890625 C28.25367773 6.38451984 28.25367773 6.38451984 26.0625 5.5625 C19.9992443 4.93526665 16.78842134 5.81801433 11.7265625 9.17578125 C9.80111469 10.6468156 9.80111469 10.6468156 8.0625 13.5625 C7.4025 13.5625 6.7425 13.5625 6.0625 13.5625 C5.89234375 12.99660156 5.7221875 12.43070313 5.546875 11.84765625 C5.30453125 11.11417969 5.0621875 10.38070312 4.8125 9.625 C4.58046875 8.89410156 4.3484375 8.16320312 4.109375 7.41015625 C3.21352078 5.3860126 3.21352078 5.3860126 1.078125 4.74609375 C-1.00692609 4.37783672 -1.00692609 4.37783672 -2.9375 5.5625 C-3.246875 6.5525 -3.55625 7.5425 -3.875 8.5625 C-4.4009375 10.0475 -4.4009375 10.0475 -4.9375 11.5625 C-5.9275 11.8925 -6.9175 12.2225 -7.9375 12.5625 C-9.2575 10.5825 -10.5775 8.6025 -11.9375 6.5625 C-14.76322058 7.59543147 -15.76728305 8.24202982 -17.203125 10.9453125 C-17.52796875 11.85023438 -17.8528125 12.75515625 -18.1875 13.6875 C-18.52265625 14.59757813 -18.8578125 15.50765625 -19.203125 16.4453125 C-19.44546875 17.14398438 -19.6878125 17.84265625 -19.9375 18.5625 C-21.2575 18.2325 -22.5775 17.9025 -23.9375 17.5625 C-22.28681659 11.52341434 -20.64428942 6.83144854 -15.9375 2.5625 C-12.75 2.0625 -12.75 2.0625 -9.9375 2.5625 C-9.2775 3.2225 -8.6175 3.8825 -7.9375 4.5625 C-7.23625 3.9025 -6.535 3.2425 -5.8125 2.5625 C-2.9375 0.5625 -2.9375 0.5625 0 0 Z " fill="#4E4E4E" transform="translate(197.9375,233.4375)"/>
<path d="M0 0 C1.93128817 0.52490817 1.93128817 0.52490817 3.625 -0.6875 C7.1953705 -2.27433133 10.06897284 -1.37383277 13.875 -0.6875 C14.37 -0.1925 14.37 -0.1925 14.875 0.3125 C16.28939104 0.4440033 17.70688775 0.54282462 19.125 0.625 C23.45271074 1.039135 25.74068799 2.17818799 28.875 5.3125 C29.205 4.9825 29.535 4.6525 29.875 4.3125 C35.15180798 3.73893392 35.15180798 3.73893392 37.6875 5.75 C39.40712322 9.4607659 39.84351332 13.23497485 39.875 17.3125 C39.545 17.9725 39.215 18.6325 38.875 19.3125 C37.885 19.3125 36.895 19.3125 35.875 19.3125 C34.885 14.3625 34.885 14.3625 33.875 9.3125 C32.885 9.3125 31.895 9.3125 30.875 9.3125 C29.48561923 11.27397874 28.1489589 13.27416576 26.875 15.3125 C26.545 15.3125 26.215 15.3125 25.875 15.3125 C25.7925 14.219375 25.71 13.12625 25.625 12 C25.22158183 8.32283112 25.22158183 8.32283112 23 6.375 C20.82375678 5.0888932 20.82375678 5.0888932 17.875 5.3125 C16.885 7.9525 15.895 10.5925 14.875 13.3125 C14.215 12.9825 13.555 12.6525 12.875 12.3125 C12.875 9.3425 12.875 6.3725 12.875 3.3125 C7.55329506 3.01687633 7.55329506 3.01687633 2.875 5.3125 C2.545 6.3025 2.215 7.2925 1.875 8.3125 C0.555 8.3125 -0.765 8.3125 -2.125 8.3125 C-2.125 6.6625 -2.125 5.0125 -2.125 3.3125 C-6.58 3.8075 -6.58 3.8075 -11.125 4.3125 C-11.455 6.6225 -11.785 8.9325 -12.125 11.3125 C-13.445 11.6425 -14.765 11.9725 -16.125 12.3125 C-16.785 10.6625 -17.445 9.0125 -18.125 7.3125 C-22.16078215 6.84322301 -23.71224419 7.01391069 -27.0625 9.4375 C-29.48065565 12.17303352 -29.48065565 12.17303352 -28.9375 15.625 C-28.669375 16.511875 -28.40125 17.39875 -28.125 18.3125 C-29.445 18.3125 -30.765 18.3125 -32.125 18.3125 C-33.69435594 15.17378812 -33.47701103 12.77394178 -33.125 9.3125 C-30.51066448 6.0445806 -27.98713167 3.88596105 -24.125 2.3125 C-21.90625 2.22265625 -21.90625 2.22265625 -19.625 2.375 C-15.99381809 2.48097317 -15.99381809 2.48097317 -12.75 0.875 C-12.21375 0.359375 -11.6775 -0.15625 -11.125 -0.6875 C-7.11409294 -2.02446902 -3.98245456 -1.28844118 0 0 Z " fill="#454545" transform="translate(335.125,192.6875)"/>
<path d="M0 0 C2.75 0.8125 2.75 0.8125 5.125 3.8125 C5.66125 4.8025 6.1975 5.7925 6.75 6.8125 C7.41 6.4825 8.07 6.1525 8.75 5.8125 C13.42470792 5.24218563 16.87316498 5.37408249 21.125 7.5 C23.71241816 9.77939219 25.21597317 11.74444634 26.75 14.8125 C27.78125 14.544375 28.8125 14.27625 29.875 14 C33.8669214 13.80684251 34.32581266 13.78920747 37.1875 16.125 C39.75 18.8125 39.75 18.8125 39.75 20.8125 C40.471875 20.585625 41.19375 20.35875 41.9375 20.125 C45.61961177 19.71587647 46.87121337 20.53977371 49.75 22.8125 C52.02272629 25.69128663 52.84662353 26.94288823 52.4375 30.625 C52.210625 31.346875 51.98375 32.06875 51.75 32.8125 C50.76 32.4825 49.77 32.1525 48.75 31.8125 C47.0625 28.25 47.0625 28.25 45.75 24.8125 C44.43 24.8125 43.11 24.8125 41.75 24.8125 C41.42 25.4725 41.09 26.1325 40.75 26.8125 C39.43 26.8125 38.11 26.8125 36.75 26.8125 C36.440625 25.678125 36.13125 24.54375 35.8125 23.375 C35.12075469 20.02474901 35.12075469 20.02474901 33.75 18.8125 C31.33416247 18.47875723 31.33416247 18.47875723 28.75 18.8125 C28.234375 19.328125 27.71875 19.84375 27.1875 20.375 C26.713125 20.849375 26.23875 21.32375 25.75 21.8125 C23.5625 21.5 23.5625 21.5 21.75 20.8125 C21.8325 19.905 21.915 18.9975 22 18.0625 C22.02622026 14.78732482 22.02622026 14.78732482 20.125 12.5 C17.19063211 10.41505439 15.3478095 9.88592468 11.75 9.8125 C8.91140195 10.9316794 8.91140195 10.9316794 6.75 12.8125 C6.42 13.8025 6.09 14.7925 5.75 15.8125 C4.76 15.8125 3.77 15.8125 2.75 15.8125 C2.09 12.1825 1.43 8.5525 0.75 4.8125 C-3.51511313 6.51854525 -5.86418999 7.91037714 -9.25 10.8125 C-9.91 9.8225 -10.57 8.8325 -11.25 7.8125 C-4.5379046 1.13447615 -4.5379046 1.13447615 0 0 Z " fill="#3B3B3B" transform="translate(83.25,284.1875)"/>
<path d="M0 0 C1.68156088 0.96723929 3.30778346 2.02940772 4.921875 3.10546875 C5.293125 2.63109375 5.664375 2.15671875 6.046875 1.66796875 C8.6612364 -0.51066575 10.54412693 -0.75942133 13.921875 -0.89453125 C17.1578135 0.61055643 19.53478225 2.46710308 21.921875 5.10546875 C22.788125 4.48671875 23.654375 3.86796875 24.546875 3.23046875 C30.25662371 -0.36455822 35.13141547 -1.18745949 41.796875 -1.01953125 C42.82941406 -1.00599609 42.82941406 -1.00599609 43.8828125 -0.9921875 C45.56265338 -0.96885638 47.24231246 -0.93299451 48.921875 -0.89453125 C48.921875 -0.56453125 48.921875 -0.23453125 48.921875 0.10546875 C44.631875 0.43546875 40.341875 0.76546875 35.921875 1.10546875 C38.396875 1.60046875 38.396875 1.60046875 40.921875 2.10546875 C40.921875 2.43546875 40.921875 2.76546875 40.921875 3.10546875 C40.28121094 3.2034375 39.64054687 3.30140625 38.98046875 3.40234375 C33.15072903 4.41016761 28.72032643 5.58007586 23.921875 9.10546875 C21.96004441 12.18927661 21.96004441 12.18927661 20.921875 15.10546875 C20.261875 15.10546875 19.601875 15.10546875 18.921875 15.10546875 C17.931875 11.47546875 16.941875 7.84546875 15.921875 4.10546875 C13.09114064 3.6037746 13.09114064 3.6037746 9.921875 4.10546875 C8.53249423 6.06694749 7.1958339 8.06713451 5.921875 10.10546875 C4.601875 10.10546875 3.281875 10.10546875 1.921875 10.10546875 C1.633125 9.30109375 1.344375 8.49671875 1.046875 7.66796875 C0.18924932 4.97282195 0.18924932 4.97282195 -2.078125 4.10546875 C-8.31038572 3.56820489 -12.95302736 4.32908101 -18.078125 8.10546875 C-20.13312427 11.44484257 -20.29943213 14.232594 -20.078125 18.10546875 C-21.068125 18.43546875 -22.058125 18.76546875 -23.078125 19.10546875 C-24.078125 18.10546875 -24.078125 18.10546875 -24.390625 14.41796875 C-24.31049951 9.938954 -23.09373926 7.50770023 -20.078125 4.10546875 C-14.1995592 -0.07632919 -7.01341396 -3.01893195 0 0 Z " fill="#373737" transform="translate(131.078125,62.89453125)"/>
<path d="M0 0 C2.0625 2 2.0625 2 3 4 C3 5.32 3 6.64 3 8 C2.01 8 1.02 8 0 8 C-0.185625 7.401875 -0.37125 6.80375 -0.5625 6.1875 C-2.69312806 2.94523991 -5.3573814 1.89286211 -9 1 C-13.98863797 0.47187524 -18.40410861 0.39356127 -23.125 2.1875 C-25.40912508 4.39548758 -25.74664237 5.87525593 -26 9 C-28 9 -28 9 -30.5625 6.5625 C-31.366875 5.716875 -32.17125 4.87125 -33 4 C-34.10075495 2.69676169 -34.10075495 2.69676169 -36.8125 2.625 C-40.07853331 2.688864 -40.07853331 2.688864 -42.0625 4.9375 C-44.54958542 8.86869954 -46.81688094 12.89323095 -49 17 C-49.66 17 -50.32 17 -51 17 C-51.21914062 16.43410156 -51.43828125 15.86820313 -51.6640625 15.28515625 C-52.63933043 13.02935359 -53.59234148 11.01764387 -55 9 C-58.12133744 7.86521065 -58.12133744 7.86521065 -61 8 C-60.67 7.34 -60.34 6.68 -60 6 C-53.9453125 5.8046875 -53.9453125 5.8046875 -52 6 C-51.34 6.66 -50.68 7.32 -50 8 C-49.16855469 7.04287109 -49.16855469 7.04287109 -48.3203125 6.06640625 C-47.59585938 5.24011719 -46.87140625 4.41382813 -46.125 3.5625 C-45.04605469 2.32693359 -45.04605469 2.32693359 -43.9453125 1.06640625 C-41.57610761 -1.45027926 -40.68900639 -1.93736306 -37.25 -2.25 C-33.53836266 -1.96448944 -31.20722194 -0.83269825 -28 1 C-27.2575 0.360625 -26.515 -0.27875 -25.75 -0.9375 C-18.126136 -6.655398 -7.67914587 -4.73061307 0 0 Z " fill="#525252" transform="translate(164,172)"/>
<path d="M0 0 C2.375 0.9375 2.375 0.9375 5.375 2.9375 C5.91125 2.40125 6.4475 1.865 7 1.3125 C9.375 -0.0625 9.375 -0.0625 12.4375 0.5625 C15.07342653 1.79633795 16.55867556 2.7175479 18.375 4.9375 C18.045 5.9275 17.715 6.9175 17.375 7.9375 C16.7975 7.628125 16.22 7.31875 15.625 7 C13.53205816 6.01166636 11.62964725 5.4206387 9.375 4.9375 C8.715 7.2475 8.055 9.5575 7.375 11.9375 C6.715 11.9375 6.055 11.9375 5.375 11.9375 C4.05751535 10.1808538 2.9391447 8.33856106 1.7890625 6.46875 C1.08910156 5.71078125 1.08910156 5.71078125 0.375 4.9375 C-0.945 4.9375 -2.265 4.9375 -3.625 4.9375 C-3.893125 5.865625 -4.16125 6.79375 -4.4375 7.75 C-5.53648371 10.69990366 -6.24918561 11.99365186 -8.625 13.9375 C-10.605 10.4725 -10.605 10.4725 -12.625 6.9375 C-15.88508643 10.10702847 -18.84737877 13.33687989 -21.625 16.9375 C-22.285 16.6075 -22.945 16.2775 -23.625 15.9375 C-22.89704467 11.20579032 -20.03453948 7.77602976 -17.1875 4.0625 C-14.9202688 2.43009354 -13.35053868 2.59680767 -10.625 2.9375 C-9.635 3.5975 -8.645 4.2575 -7.625 4.9375 C-6.5421875 3.6690625 -6.5421875 3.6690625 -5.4375 2.375 C-2.625 -0.0625 -2.625 -0.0625 0 0 Z " fill="#353535" transform="translate(325.625,71.0625)"/>
<path d="M0 0 C4.23329605 0.77754417 5.96871202 2.61603526 9.0625 5.5625 C9.7225 4.9025 10.3825 4.2425 11.0625 3.5625 C12.3825 3.5625 13.7025 3.5625 15.0625 3.5625 C14.58945318 7.81992137 12.1761178 9.81955098 9.0625 12.5625 C8.0725 12.8925 7.0825 13.2225 6.0625 13.5625 C5.89234375 12.99660156 5.7221875 12.43070313 5.546875 11.84765625 C5.30453125 11.11417969 5.0621875 10.38070312 4.8125 9.625 C4.58046875 8.89410156 4.3484375 8.16320312 4.109375 7.41015625 C3.21352078 5.3860126 3.21352078 5.3860126 1.078125 4.74609375 C-1.00692609 4.37783672 -1.00692609 4.37783672 -2.9375 5.5625 C-3.246875 6.5525 -3.55625 7.5425 -3.875 8.5625 C-4.4009375 10.0475 -4.4009375 10.0475 -4.9375 11.5625 C-5.9275 11.8925 -6.9175 12.2225 -7.9375 12.5625 C-9.2575 10.5825 -10.5775 8.6025 -11.9375 6.5625 C-14.76322058 7.59543147 -15.76728305 8.24202982 -17.203125 10.9453125 C-17.52796875 11.85023438 -17.8528125 12.75515625 -18.1875 13.6875 C-18.52265625 14.59757813 -18.8578125 15.50765625 -19.203125 16.4453125 C-19.44546875 17.14398438 -19.6878125 17.84265625 -19.9375 18.5625 C-21.2575 18.2325 -22.5775 17.9025 -23.9375 17.5625 C-22.28681659 11.52341434 -20.64428942 6.83144854 -15.9375 2.5625 C-12.75 2.0625 -12.75 2.0625 -9.9375 2.5625 C-9.2775 3.2225 -8.6175 3.8825 -7.9375 4.5625 C-7.23625 3.9025 -6.535 3.2425 -5.8125 2.5625 C-2.9375 0.5625 -2.9375 0.5625 0 0 Z " fill="#404040" transform="translate(197.9375,233.4375)"/>
<path d="M0 0 C21.38757705 -1.28885619 39.96368647 1.71572241 60.56616211 7.15209961 C63.70325658 7.92672663 66.80638972 8.51815919 70 9 C70 9.33 70 9.66 70 10 C68.02 10 66.04 10 64 10 C64 10.66 64 11.32 64 12 C55.49379578 11.28519292 47.49560717 9.26834577 39.23828125 7.171875 C33.13982049 5.65654492 27.26440039 4.5264202 21 4 C21.66 3.67 22.32 3.34 23 3 C23 2.34 23 1.68 23 1 C15.41 1 7.82 1 0 1 C0 0.67 0 0.34 0 0 Z " fill="#545454" transform="translate(177,323)"/>
<path d="M0 0 C-1.175625 0.3403125 -1.175625 0.3403125 -2.375 0.6875 C-5.15493906 1.77279254 -5.15493906 1.77279254 -6.3125 4.3125 C-7.00035836 7.00140087 -7.15782426 9.23807537 -7 12 C-8.32 12.33 -9.64 12.66 -11 13 C-11.66 11.35 -12.32 9.7 -13 8 C-17.03578215 7.53072301 -18.58724419 7.70141069 -21.9375 10.125 C-24.35565565 12.86053352 -24.35565565 12.86053352 -23.8125 16.3125 C-23.544375 17.199375 -23.27625 18.08625 -23 19 C-24.32 19 -25.64 19 -27 19 C-28.56935594 15.86128812 -28.35201103 13.46144178 -28 10 C-25.38566448 6.7320806 -22.86213167 4.57346105 -19 3 C-16.78125 2.91015625 -16.78125 2.91015625 -14.5 3.0625 C-10.86881809 3.16847317 -10.86881809 3.16847317 -7.625 1.5625 C-7.08875 1.046875 -6.5525 0.53125 -6 0 C-3 -1 -3 -1 0 0 Z " fill="#494949" transform="translate(330,192)"/>
<path d="M0 0 C5.03985731 0.44469329 7.37634988 2.71343362 11 6 C11.86625 5.38125 12.7325 4.7625 13.625 4.125 C19.33474871 0.52997303 24.20954047 -0.29292824 30.875 -0.125 C31.90753906 -0.11146484 31.90753906 -0.11146484 32.9609375 -0.09765625 C34.64077838 -0.07432513 36.32043746 -0.03846326 38 0 C38 0.33 38 0.66 38 1 C31.565 1.495 31.565 1.495 25 2 C27.475 2.495 27.475 2.495 30 3 C30 3.33 30 3.66 30 4 C29.35933594 4.09796875 28.71867187 4.1959375 28.05859375 4.296875 C22.22885403 5.30469886 17.79845143 6.47460711 13 10 C11.03816941 13.08380786 11.03816941 13.08380786 10 16 C9.34 16 8.68 16 8 16 C7.01 12.37 6.02 8.74 5 5 C3.35 4.67 1.7 4.34 0 4 C0 2.68 0 1.36 0 0 Z " fill="#434343" transform="translate(142,62)"/>
<path d="M0 0 C2.4375 1.9375 2.4375 1.9375 4 4 C4 4.66 4 5.32 4 6 C5.0828125 5.6596875 5.0828125 5.6596875 6.1875 5.3125 C9.86961177 4.90337647 11.12121337 5.72727371 14 8 C16.27272629 10.87878663 17.09662353 12.13038823 16.6875 15.8125 C16.460625 16.534375 16.23375 17.25625 16 18 C15.01 17.67 14.02 17.34 13 17 C11.3125 13.4375 11.3125 13.4375 10 10 C8.68 10 7.36 10 6 10 C5.67 10.66 5.34 11.32 5 12 C3.68 12 2.36 12 1 12 C0.690625 10.865625 0.38125 9.73125 0.0625 8.5625 C-0.62924531 5.21224901 -0.62924531 5.21224901 -2 4 C-5.63194641 3.80850919 -5.63194641 3.80850919 -9 5 C-9 3.35 -9 1.7 -9 0 C-5.81452856 -1.59273572 -3.39809153 -0.76164121 0 0 Z " fill="#3A3A3A" transform="translate(119,299)"/>
<path d="M0 0 C8.03501094 -0.63019694 8.03501094 -0.63019694 12.0625 2 C12.701875 2.66 13.34125 3.32 14 4 C14.33 3.67 14.66 3.34 15 3 C20.27680798 2.42643392 20.27680798 2.42643392 22.8125 4.4375 C24.53212322 8.1482659 24.96851332 11.92247485 25 16 C24.67 16.66 24.34 17.32 24 18 C23.01 18 22.02 18 21 18 C20.34 14.7 19.68 11.4 19 8 C18.01 8 17.02 8 16 8 C14.61061923 9.96147874 13.2739589 11.96166576 12 14 C11.67 14 11.34 14 11 14 C10.9175 12.906875 10.835 11.81375 10.75 10.6875 C10.35458237 7.0544112 10.35458237 7.0544112 8.3125 5.25 C5.57002252 3.76757974 2.81364752 2.34287722 0 1 C0 0.67 0 0.34 0 0 Z " fill="#3E3E3E" transform="translate(350,194)"/>
<path d="M0 0 C2.0625 2 2.0625 2 3 4 C3 5.32 3 6.64 3 8 C2.01 8 1.02 8 0 8 C-0.185625 7.401875 -0.37125 6.80375 -0.5625 6.1875 C-2.69152653 2.94767701 -5.35703721 1.88647585 -9 1 C-13.74841846 0.55844464 -18.21407614 0.22820695 -22.6484375 2.14453125 C-23.81246094 2.56798828 -23.81246094 2.56798828 -25 3 C-25.99 2.34 -26.98 1.68 -28 1 C-19.64600784 -6.19371547 -9.2568337 -5.70252202 0 0 Z " fill="#363636" transform="translate(164,172)"/>
<path d="M0 0 C2.56314499 -0.08132187 5.12368418 -0.14064175 7.6875 -0.1875 C8.40873047 -0.21263672 9.12996094 -0.23777344 9.87304688 -0.26367188 C14.45668446 -0.32646143 17.39451966 0.09919609 21 3 C21.4125 3.886875 21.825 4.77375 22.25 5.6875 C23.74374251 8.22315727 23.74374251 8.22315727 26.18359375 8.3203125 C28.47519471 8.31316242 30.71908276 8.21518087 33 8 C30.86992718 9.42004854 28.75445157 10.80689995 26.5625 12.125 C25.69818359 12.65480469 25.69818359 12.65480469 24.81640625 13.1953125 C23 14 23 14 19 14 C18.938125 12.906875 18.87625 11.81375 18.8125 10.6875 C18.3978283 6.95591885 18.3978283 6.95591885 15.90625 5.34375 C12.46631559 3.75324269 9.44471551 3.26898413 5.6875 2.8125 C4.43324219 2.65394531 3.17898437 2.49539062 1.88671875 2.33203125 C0.93410156 2.22246094 -0.01851562 2.11289063 -1 2 C-0.67 1.34 -0.34 0.68 0 0 Z " fill="#383838" transform="translate(167,63)"/>
<path d="M0 0 C1.32 0.33 2.64 0.66 4 1 C3.61328125 1.83660156 3.2265625 2.67320312 2.828125 3.53515625 C-1.05756789 12.22025693 -3.79506359 20.73926708 -6 30 C-6.66 29.34 -7.32 28.68 -8 28 C-8.66 28.66 -9.32 29.32 -10 30 C-9.44866448 24.04961058 -8.17685723 18.91256887 -6.125 13.3125 C-5.86847656 12.57966797 -5.61195313 11.84683594 -5.34765625 11.09179688 C-3.91817507 7.10864455 -2.34267414 3.55609517 0 0 Z " fill="#424242" transform="translate(184,491)"/>
<path d="M0 0 C2.5 0.75 2.5 0.75 5.5 2.75 C6.03625 2.21375 6.5725 1.6775 7.125 1.125 C9.5 -0.25 9.5 -0.25 12.5625 0.375 C15.19842653 1.60883795 16.68367556 2.5300479 18.5 4.75 C18.17 5.74 17.84 6.73 17.5 7.75 C16.9225 7.440625 16.345 7.13125 15.75 6.8125 C13.65705816 5.82416636 11.75464725 5.2331387 9.5 4.75 C8.84 7.06 8.18 9.37 7.5 11.75 C6.84 11.75 6.18 11.75 5.5 11.75 C4.14547616 9.99761272 3.00058288 8.15217483 1.81640625 6.28125 C1.38199219 5.7759375 0.94757813 5.270625 0.5 4.75 C-0.49 4.75 -1.48 4.75 -2.5 4.75 C-2.83 4.09 -3.16 3.43 -3.5 2.75 C-4.16 2.42 -4.82 2.09 -5.5 1.75 C-2.5 -0.25 -2.5 -0.25 0 0 Z " fill="#373737" transform="translate(325.5,71.25)"/>
<path d="M0 0 C1.8871875 0.0309375 1.8871875 0.0309375 3.8125 0.0625 C3.8125 0.3925 3.8125 0.7225 3.8125 1.0625 C0.5125 1.7225 -2.7875 2.3825 -6.1875 3.0625 C-5.5275 3.7225 -4.8675 4.3825 -4.1875 5.0625 C-4.74179688 5.29324219 -5.29609375 5.52398437 -5.8671875 5.76171875 C-10.48871378 7.76990022 -10.48871378 7.76990022 -13.6875 11.5 C-14.194325 14.09747814 -14.33832734 16.42302155 -14.1875 19.0625 C-15.1775 19.3925 -16.1675 19.7225 -17.1875 20.0625 C-18.1875 19.0625 -18.1875 19.0625 -18.5 15.375 C-18.41987451 10.89598525 -17.20311426 8.46473148 -14.1875 5.0625 C-9.76328612 1.91527513 -5.46533493 -0.08959565 0 0 Z " fill="#535353" transform="translate(125.1875,61.9375)"/>
<path d="M0 0 C7.98458998 -0.76774904 7.98458998 -0.76774904 11.5625 1.9375 C13.95436838 7.0332196 13.73132329 11.76032242 12 17.0625 C11.67 17.701875 11.34 18.34125 11 19 C10.01 18.67 9.02 18.34 8 18 C8.02320313 17.08476562 8.04640625 16.16953125 8.0703125 15.2265625 C8.08835937 14.03804688 8.10640625 12.84953125 8.125 11.625 C8.14820313 10.44164062 8.17140625 9.25828125 8.1953125 8.0390625 C8.32866229 4.88846183 8.32866229 4.88846183 6 3 C3.67724823 2.59952556 1.34260643 2.2602896 -1 2 C-0.67 1.34 -0.34 0.68 0 0 Z " fill="#292929" transform="translate(264,255)"/>
<path d="M0 0 C6.82833143 -0.56484359 11.74259087 -0.46796193 17.40625 3.62890625 C19.30148437 5.25936523 20.78790292 6.80307405 22 9 C22 9.66 22 10.32 22 11 C21.34 11 20.68 11 20 11 C20 13.31 20 15.62 20 18 C19.67 18 19.34 18 19 18 C18.92523438 17.39671875 18.85046875 16.7934375 18.7734375 16.171875 C18.07804125 11.94495662 17.59316917 9.59316917 14.5 6.5 C10.00419655 4.57322709 5.85215159 4.19178465 1 4 C1.99 3.34 2.98 2.68 4 2 C2.68 1.34 1.36 0.68 0 0 Z " fill="#484848" transform="translate(193,70)"/>
<path d="M0 0 C0 0.33 0 0.66 0 1 C-1.98 1.33 -3.96 1.66 -6 2 C-4.35 2.33 -2.7 2.66 -1 3 C-1 3.33 -1 3.66 -1 4 C-2.794375 4.2784375 -2.794375 4.2784375 -4.625 4.5625 C-9.78322669 5.81547351 -11.95385713 8.88673702 -15 13 C-15.66 13.66 -16.32 14.32 -17 15 C-17.99 14.34 -18.98 13.68 -20 13 C-14.98558816 4.40386542 -10.7724829 -0.87938636 0 0 Z " fill="#4E4E4E" transform="translate(110,177)"/>
<path d="M0 0 C4.49996683 -0.44117322 6.34611117 -0.52867608 9.9375 2.375 C12 5 12 5 12 7 C12.99 7.33 13.98 7.66 15 8 C14.01 8.495 14.01 8.495 13 9 C12.67 9.99 12.34 10.98 12 12 C10.125 11.875 10.125 11.875 8 11 C7.5978125 9.5459375 7.5978125 9.5459375 7.1875 8.0625 C6.795625 7.051875 6.40375 6.04125 6 5 C2.47548841 3.53977565 2.47548841 3.53977565 -1 3 C-0.67 2.01 -0.34 1.02 0 0 Z " fill="#434343" transform="translate(237,238)"/>
<path d="M0 0 C0.886875 0.12375 1.77375 0.2475 2.6875 0.375 C1.6975 0.87 1.6975 0.87 0.6875 1.375 C0.3575 2.365 0.0275 3.355 -0.3125 4.375 C-1.240625 5.2103125 -1.240625 5.2103125 -2.1875 6.0625 C-5.09797311 9.22977956 -5.95637367 12.30662101 -7.3125 16.375 C-8.6325 16.045 -9.9525 15.715 -11.3125 15.375 C-7.33703271 0.83060748 -7.33703271 0.83060748 0 0 Z " fill="#494949" transform="translate(185.3125,235.625)"/>
<path d="M0 0 C1.98 0 3.96 0 6 0 C6.33 0.99 6.66 1.98 7 3 C9.31 3 11.62 3 14 3 C12.68 3.33 11.36 3.66 10 4 C9.34 6.97 8.68 9.94 8 13 C7.01 13 6.02 13 5 13 C5 10.03 5 7.06 5 4 C2.03 3.505 2.03 3.505 -1 3 C-0.67 2.01 -0.34 1.02 0 0 Z " fill="#393939" transform="translate(343,192)"/>
<path d="M0 0 C5.39530843 -0.47958297 5.39530843 -0.47958297 7.8125 1.4375 C9.53212322 5.1482659 9.96851332 8.92247485 10 13 C9.67 13.66 9.34 14.32 9 15 C8.01 15 7.02 15 6 15 C5.34 11.04 4.68 7.08 4 3 C2.35 2.67 0.7 2.34 -1 2 C-0.67 1.34 -0.34 0.68 0 0 Z " fill="#515151" transform="translate(365,197)"/>
<path d="M0 0 C5.65394631 -0.34615998 9.03006806 0.56574762 14 3 C13.67 5.31 13.34 7.62 13 10 C12.34 10 11.68 10 11 10 C10.278125 9.21625 9.55625 8.4325 8.8125 7.625 C5.44448534 4.48151965 3.41644409 3.95256637 -1 3 C-0.67 2.01 -0.34 1.02 0 0 Z " fill="#323232" transform="translate(125,171)"/>
<path d="M0 0 C0 0.33 0 0.66 0 1 C-2.64 1.33 -5.28 1.66 -8 2 C-8 2.66 -8 3.32 -8 4 C-9.7902061 4.67057887 -11.58221489 5.3363469 -13.375 6 C-14.37273437 6.37125 -15.37046875 6.7425 -16.3984375 7.125 C-19 8 -19 8 -21 8 C-21 6.68 -21 5.36 -21 4 C-13.73420371 0.72326834 -7.95636028 -0.15600706 0 0 Z " fill="#565656" transform="translate(82,185)"/>
<path d="M0 0 C0.99 0.33 1.98 0.66 3 1 C2.57742724 2.4835001 2.13643678 3.96176424 1.6875 5.4375 C1.32205078 6.67306641 1.32205078 6.67306641 0.94921875 7.93359375 C0.63597656 8.61550781 0.32273438 9.29742187 0 10 C-0.99 10.33 -1.98 10.66 -3 11 C-7 5.375 -7 5.375 -7 2 C-6.401875 2.226875 -5.80375 2.45375 -5.1875 2.6875 C-4.465625 2.790625 -3.74375 2.89375 -3 3 C-1.22809091 1.64555699 -1.22809091 1.64555699 0 0 Z " fill="#383838" transform="translate(193,235)"/>
<path d="M0 0 C0.66 0.33 1.32 0.66 2 1 C1.5229205 3.22637098 1.0251508 4.95668473 -0.125 6.9375 C-1.26573129 9.62636662 -0.76706041 11.23858252 0 14 C-1.32 14 -2.64 14 -4 14 C-5.56935594 10.86128812 -5.35201103 8.46144178 -5 5 C-2.5 2.0625 -2.5 2.0625 0 0 Z " fill="#575757" transform="translate(307,197)"/>
<path d="M0 0 C2.64 0 5.28 0 8 0 C8.33 1.32 8.66 2.64 9 4 C10.32 3.67 11.64 3.34 13 3 C12.125 8.75 12.125 8.75 11 11 C10.34 11 9.68 11 9 11 C8.78085938 10.43410156 8.56171875 9.86820313 8.3359375 9.28515625 C7.36066957 7.02935359 6.40765852 5.01764387 5 3 C1.87866256 1.86521065 1.87866256 1.86521065 -1 2 C-0.67 1.34 -0.34 0.68 0 0 Z " fill="#2B2B2B" transform="translate(104,178)"/>
<path d="M0 0 C-1.98 0.99 -1.98 0.99 -4 2 C-4 2.99 -4 3.98 -4 5 C-5.3125 7.26171875 -5.3125 7.26171875 -7 9.6875 C-7.556875 10.49574219 -8.11375 11.30398437 -8.6875 12.13671875 C-9.120625 12.75160156 -9.55375 13.36648437 -10 14 C-10.99 13.67 -11.98 13.34 -13 13 C-12.27204467 8.26829032 -9.40953948 4.83852976 -6.5625 1.125 C-4.36206924 -0.45931015 -2.63861736 -0.21394195 0 0 Z " fill="#4C4C4C" transform="translate(315,74)"/>
<path d="M0 0 C0.66 0 1.32 0 2 0 C2.33 0.66 2.66 1.32 3 2 C5.97 2 8.94 2 12 2 C9.86992718 3.42004854 7.75445157 4.80689995 5.5625 6.125 C4.98628906 6.47820312 4.41007813 6.83140625 3.81640625 7.1953125 C2 8 2 8 -2 8 C-1.125 1.125 -1.125 1.125 0 0 Z " fill="#2E2E2E" transform="translate(188,69)"/>
<path d="M0 0 C0.66 0.66 1.32 1.32 2 2 C1.34 2 0.68 2 0 2 C0 2.66 0 3.32 0 4 C-3.96 4.66 -7.92 5.32 -12 6 C-11.67 5.01 -11.34 4.02 -11 3 C-11.66 2.67 -12.32 2.34 -13 2 C-8.51023509 0.24789662 -4.81989758 -0.37076135 0 0 Z " fill="#555555" transform="translate(224,234)"/>
<path d="M0 0 C0 0.33 0 0.66 0 1 C-1.65 1.33 -3.3 1.66 -5 2 C-3.68 2.66 -2.36 3.32 -1 4 C-6.94 4.495 -6.94 4.495 -13 5 C-13 4.34 -13 3.68 -13 3 C-14.98 3 -16.96 3 -19 3 C-19 2.67 -19 2.34 -19 2 C-12.6221448 0.82706111 -6.49678438 -0.29530838 0 0 Z " fill="#515151" transform="translate(176,324)"/>
<path d="M0 0 C0.825 0.144375 1.65 0.28875 2.5 0.4375 C2.5 0.7675 2.5 1.0975 2.5 1.4375 C0.85 1.7675 -0.8 2.0975 -2.5 2.4375 C-2.5 3.4275 -2.5 4.4175 -2.5 5.4375 C-4.03125 6.82421875 -4.03125 6.82421875 -6 8.125 C-6.97453125 8.78048828 -6.97453125 8.78048828 -7.96875 9.44921875 C-8.4740625 9.77535156 -8.979375 10.10148437 -9.5 10.4375 C-10.16 9.4475 -10.82 8.4575 -11.5 7.4375 C-4.60284464 0.57535558 -4.60284464 0.57535558 0 0 Z " fill="#505050" transform="translate(83.5,284.5625)"/>
<path d="M0 0 C2.64 0.33 5.28 0.66 8 1 C6.54744301 4.82946843 4.57104439 6.12050295 1 8 C0 7 0 7 -0.0625 3.4375 C-0.041875 2.303125 -0.02125 1.16875 0 0 Z " fill="#282828" transform="translate(213,81)"/>
<path d="M0 0 C1.875 0.34375 1.875 0.34375 4 1 C5.58025005 1.21192095 7.16398461 1.39923371 8.75 1.5625 C9.54921875 1.64628906 10.3484375 1.73007813 11.171875 1.81640625 C12.07679688 1.90728516 12.07679688 1.90728516 13 2 C13 2.33 13 2.66 13 3 C12.08476562 3.13277344 11.16953125 3.26554688 10.2265625 3.40234375 C9.03804687 3.57894531 7.84953125 3.75554687 6.625 3.9375 C5.44164062 4.11152344 4.25828125 4.28554687 3.0390625 4.46484375 C0.09297619 4.83462786 0.09297619 4.83462786 -2 6 C-2.99 5.34 -3.98 4.68 -5 4 C-2.75 1.9375 -2.75 1.9375 0 0 Z " fill="#595959" transform="translate(141,169)"/>
<path d="M0 0 C3.77545388 1.09068668 6.47043472 1.9083091 9 5 C8.67 5.99 8.34 6.98 8 8 C4.4213696 6.34832443 1.25179812 4.21713508 -2 2 C-1.34 1.34 -0.68 0.68 0 0 Z " fill="#505050" transform="translate(335,71)"/>
<path d="M0 0 C3 0.125 3 0.125 4 1.125 C3.91036938 2.81641656 3.75422324 4.50459602 3.5625 6.1875 C3.46066406 7.10660156 3.35882813 8.02570313 3.25390625 8.97265625 C3.12822266 10.03806641 3.12822266 10.03806641 3 11.125 C1.9047323 9.03084815 1.03784223 7.33943933 0.625 5 C0.15459658 2.91440378 0.15459658 2.91440378 -2.0625 1.875 C-2.701875 1.6275 -3.34125 1.38 -4 1.125 C-3 0.125 -3 0.125 0 0 Z " fill="#272727" transform="translate(84,285.875)"/>
<path d="M0 0 C1.79133978 -0.05391993 3.58313899 -0.09275571 5.375 -0.125 C6.37273437 -0.14820312 7.37046875 -0.17140625 8.3984375 -0.1953125 C11 0 11 0 13 2 C12.34 2 11.68 2 11 2 C11 2.66 11 3.32 11 4 C7.7 4 4.4 4 1 4 C1.99 3.34 2.98 2.68 4 2 C2.68 1.34 1.36 0.68 0 0 Z " fill="#6D6D6D" transform="translate(193,70)"/>
<path d="M0 0 C1.32 0.99 2.64 1.98 4 3 C3.37240135 5.92879371 2.41377341 8.36095629 1 11 C0.01 11 -0.98 11 -2 11 C-1.34 7.37 -0.68 3.74 0 0 Z " fill="#474747" transform="translate(88,289)"/>
<path d="M0 0 C0.70189453 0.00451172 1.40378906 0.00902344 2.12695312 0.01367188 C3.85550538 0.02543073 5.58401365 0.04336546 7.3125 0.0625 C7.3125 0.3925 7.3125 0.7225 7.3125 1.0625 C0.8775 1.5575 0.8775 1.5575 -5.6875 2.0625 C-4.0375 2.3925 -2.3875 2.7225 -0.6875 3.0625 C-0.6875 3.3925 -0.6875 3.7225 -0.6875 4.0625 C-3.9875 4.3925 -7.2875 4.7225 -10.6875 5.0625 C-10.0275 4.7325 -9.3675 4.4025 -8.6875 4.0625 C-8.6875 3.4025 -8.6875 2.7425 -8.6875 2.0625 C-9.3475 1.7325 -10.0075 1.4025 -10.6875 1.0625 C-7.06882441 -0.1437252 -3.76243749 -0.04566918 0 0 Z " fill="#7C7C7C" transform="translate(172.6875,61.9375)"/>
<path d="M0 0 C0.99 0 1.98 0 3 0 C4.39935013 2.79870027 4.25265405 4.90498792 4 8 C2.5 9.875 2.5 9.875 1 11 C-0.17571451 7.32589215 -0.07366746 3.83070817 0 0 Z " fill="#5A5A5A" transform="translate(227,527)"/>
<path d="M0 0 C0.33 0 0.66 0 1 0 C1.08153933 1.58246707 1.13943557 3.16616273 1.1875 4.75 C1.22230469 5.63171875 1.25710937 6.5134375 1.29296875 7.421875 C0.94923684 10.44671583 -0.00227459 11.75583602 -2 14 C-2.99 13.67 -3.98 13.34 -5 13 C-4.34 11.02 -3.68 9.04 -3 7 C-2.67 7.66 -2.34 8.32 -2 9 C-1.34 9 -0.68 9 0 9 C0 6.03 0 3.06 0 0 Z " fill="#5C5C5C" transform="translate(242,93)"/>
<path d="M0 0 C3.63 0.33 7.26 0.66 11 1 C11 1.33 11 1.66 11 2 C9.02 2 7.04 2 5 2 C5 2.66 5 3.32 5 4 C2.03 3.67 -0.94 3.34 -4 3 C-2.68 2.67 -1.36 2.34 0 2 C0 1.34 0 0.68 0 0 Z " fill="#606060" transform="translate(236,331)"/>
<path d="M0 0 C2.4375 0.625 2.4375 0.625 5 2 C5.8125 5.125 5.8125 5.125 6 8 C5.01 8 4.02 8 3 8 C0 2.25 0 2.25 0 0 Z " fill="#323232" transform="translate(161,172)"/>
<path d="M0 0 C2.64 0 5.28 0 8 0 C8 0.99 8 1.98 8 3 C4.7 3 1.4 3 -2 3 C-1.34 2.67 -0.68 2.34 0 2 C0 1.34 0 0.68 0 0 Z " fill="#3A3A3A" transform="translate(200,324)"/>
<path d="M0 0 C0.33 0 0.66 0 1 0 C1.66 4.29 2.32 8.58 3 13 C1.68 13 0.36 13 -1 13 C-0.67 8.71 -0.34 4.42 0 0 Z " fill="#707070" transform="translate(273,260)"/>
<path d="M0 0 C0 0.33 0 0.66 0 1 C-1.98 1.33 -3.96 1.66 -6 2 C-4.35 2.33 -2.7 2.66 -1 3 C-1 3.33 -1 3.66 -1 4 C-4.3 4.33 -7.6 4.66 -11 5 C-8.05790162 -0.88419676 -6.23816446 -0.11552156 0 0 Z " fill="#666666" transform="translate(110,177)"/>
<path d="M0 0 C2.64 0 5.28 0 8 0 C8 0.99 8 1.98 8 3 C5.36 3 2.72 3 0 3 C0 2.01 0 1.02 0 0 Z " fill="#333333" transform="translate(228,330)"/>
<path d="M0 0 C2.64 0.33 5.28 0.66 8 1 C6.68 1.33 5.36 1.66 4 2 C4 2.66 4 3.32 4 4 C1.36 3.67 -1.28 3.34 -4 3 C-2.68 2.67 -1.36 2.34 0 2 C0 1.34 0 0.68 0 0 Z " fill="#666666" transform="translate(216,326)"/>
<path d="M0 0 C2.97 0 5.94 0 9 0 C10 4 10 4 9 6 C5.2979993 4.27239967 2.92824652 2.92824652 0 0 Z " fill="#5C5C5C" transform="translate(350,194)"/>
<path d="M0 0 C3.3 0 6.6 0 10 0 C9.01 0.33 8.02 0.66 7 1 C7 1.66 7 2.32 7 3 C5.02 3.33 3.04 3.66 1 4 C0.67 2.68 0.34 1.36 0 0 Z " fill="#505050" transform="translate(219,81)"/>
<path d="M0 0 C0 0.66 0 1.32 0 2 C-0.66 2 -1.32 2 -2 2 C-2 2.66 -2 3.32 -2 4 C-3.65 4.66 -5.3 5.32 -7 6 C-7 4.35 -7 2.7 -7 1 C-4.53721199 -0.231394 -2.7204945 -0.07159196 0 0 Z " fill="#3F3F3F" transform="translate(164,64)"/>
<path d="M0 0 C0.8968714 2.6906142 1.27859126 4.88897096 1.5625 7.6875 C1.64628906 8.49574219 1.73007812 9.30398437 1.81640625 10.13671875 C1.87699219 10.75160156 1.93757813 11.36648437 2 12 C1.01 12.33 0.02 12.66 -1 13 C-1.02686553 11.02090602 -1.04633375 9.04171029 -1.0625 7.0625 C-1.07410156 5.96035156 -1.08570313 4.85820312 -1.09765625 3.72265625 C-1 1 -1 1 0 0 Z " fill="#181818" transform="translate(48,204)"/>
<path d="M0 0 C-2 2 -2 2 -3.9453125 2.1953125 C-5.96354167 2.13020833 -7.98177083 2.06510417 -10 2 C-9.67 1.34 -9.34 0.68 -9 0 C-5.65506316 -0.99444068 -3.31044803 -1.10348268 0 0 Z " fill="#0C0C0C" transform="translate(180,325)"/>
<path d="M0 0 C0.99 0.33 1.98 0.66 3 1 C2.67 2.65 2.34 4.3 2 6 C0.68 5.67 -0.64 5.34 -2 5 C-1.34 3.35 -0.68 1.7 0 0 Z " fill="#313131" transform="translate(107,300)"/>
<path d="M0 0 C0.6875 1.8125 0.6875 1.8125 1 4 C-0.4375 5.75 -0.4375 5.75 -2 7 C-2.66 6.67 -3.32 6.34 -4 6 C-3.6875 4.125 -3.6875 4.125 -3 2 C-2.01 1.34 -1.02 0.68 0 0 Z " fill="#464646" transform="translate(306,81)"/>
<path d="M0 0 C0.93423645 3.01031744 1.04449911 3.86650268 0 7 C0.66 7 1.32 7 2 7 C1.67 8.32 1.34 9.64 1 11 C0.67 10.34 0.34 9.68 0 9 C-0.66 9.66 -1.32 10.32 -2 11 C-1.125 3.375 -1.125 3.375 0 0 Z " fill="#7A7A7A" transform="translate(176,510)"/>
<path d="M0 0 C2.0625 1.75 2.0625 1.75 4 4 C3.75 6.25 3.75 6.25 3 8 C2.01 7.67 1.02 7.34 0 7 C0 4.69 0 2.38 0 0 Z " fill="#3F3F3F" transform="translate(303,204)"/>
<path d="M0 0 C2.475 0.99 2.475 0.99 5 2 C3 4 3 4 1 5 C-1.625 4.0625 -1.625 4.0625 -4 3 C-2.68 2.67 -1.36 2.34 0 2 C0 1.34 0 0.68 0 0 Z " fill="#737373" transform="translate(159,170)"/>
<path d="M0 0 C-0.99 0.495 -0.99 0.495 -2 1 C-1.01 1.66 -0.02 2.32 1 3 C-0.65 3 -2.3 3 -4 3 C-4 2.34 -4 1.68 -4 1 C-5.98 1 -7.96 1 -10 1 C-10 0.67 -10 0.34 -10 0 C-6.33694766 -0.74926071 -3.57644848 -1.2380014 0 0 Z " fill="#828282" transform="translate(167,326)"/>
<path d="M0 0 C-1.98 0.99 -1.98 0.99 -4 2 C-3.01 2.66 -2.02 3.32 -1 4 C-2.98 4.66 -4.96 5.32 -7 6 C-7 4.35 -7 2.7 -7 1 C-4.53721199 -0.231394 -2.7204945 -0.07159196 0 0 Z " fill="#797979" transform="translate(117,298)"/>
<path d="M0 0 C0.33 1.32 0.66 2.64 1 4 C1.66 4 2.32 4 3 4 C2.67 5.32 2.34 6.64 2 8 C1.67 7.34 1.34 6.68 1 6 C0.67 6.99 0.34 7.98 0 9 C-0.66 8.67 -1.32 8.34 -2 8 C-1.34 5.36 -0.68 2.72 0 0 Z " fill="#777777" transform="translate(173,522)"/>
<path d="M0 0 C1.32 0 2.64 0 4 0 C3.67 1.65 3.34 3.3 3 5 C2.01 4.67 1.02 4.34 0 4 C0 2.68 0 1.36 0 0 Z " fill="#525252" transform="translate(132,312)"/>
<path d="M0 0 C0.763125 0.20625 1.52625 0.4125 2.3125 0.625 C0.9925 1.945 -0.3275 3.265 -1.6875 4.625 C-3.0075 3.635 -4.3275 2.645 -5.6875 1.625 C-2.6875 -0.375 -2.6875 -0.375 0 0 Z " fill="#757575" transform="translate(325.6875,71.375)"/>
</svg>
