<svg id="svg" version="1.1" xmlns="http://www.w3.org/2000/svg" xmlns:xlink="http://www.w3.org/1999/xlink" width="400" height="471.1111111111111" viewBox="0, 0, 400,471.1111111111111"><g id="svgg"><path id="path0" d="M190.245 18.459 C 158.289 21.275,127.926 42.969,113.878 73.022 C 101.120 100.317,101.815 128.593,115.947 157.200 L 119.800 165.000 120.000 291.000 L 120.200 417.000 128.039 417.108 L 135.878 417.217 136.170 377.311 C 136.330 355.363,136.512 337.354,136.574 337.292 C 136.704 337.162,139.031 338.141,142.948 339.975 C 145.415 341.129,181.427 358.160,188.090 361.323 L 190.780 362.600 190.790 407.700 L 190.800 452.800 199.153 452.800 C 207.478 452.800,207.508 452.797,207.748 451.900 C 207.881 451.405,207.994 430.840,208.001 406.200 C 208.007 381.560,208.144 361.199,208.306 360.952 C 208.852 360.122,260.824 335.600,262.040 335.600 C 263.330 335.600,263.388 337.231,263.516 377.500 L 263.645 418.000 271.623 418.000 L 279.600 418.000 279.600 292.079 L 279.600 166.159 281.842 162.379 C 287.953 152.081,292.439 139.801,294.256 128.400 C 295.443 120.959,295.335 101.322,294.076 95.600 C 283.105 45.719,240.456 14.033,190.245 18.459 M212.400 35.429 C 240.985 38.966,267.599 62.073,275.842 90.513 C 280.987 108.259,279.666 129.295,272.411 145.176 C 261.219 169.673,235.520 189.068,211.425 191.201 C 183.400 193.682,162.198 186.556,144.186 168.600 C 128.465 152.928,121.820 136.351,121.817 112.800 L 121.816 100.600 123.089 95.600 C 127.696 77.506,136.483 63.597,150.600 52.054 C 168.093 37.751,187.964 32.405,212.400 35.429 M140.089 186.910 C 144.919 190.570,148.106 192.754,152.512 195.419 C 154.869 196.845,156.379 198.007,156.312 198.345 C 156.112 199.346,136.998 212.731,136.491 212.225 C 135.998 211.732,135.859 184.400,136.349 184.400 C 136.585 184.400,138.268 185.529,140.089 186.910 M263.536 198.980 C 263.382 214.580,263.417 214.403,260.765 212.877 C 257.913 211.235,246.325 202.840,243.600 200.440 L 242.200 199.208 243.200 198.358 C 243.750 197.891,245.910 196.509,248.000 195.286 C 251.513 193.231,257.153 189.397,261.000 186.449 C 263.814 184.292,263.687 183.661,263.536 198.980 M183.185 206.611 C 186.356 207.167,189.367 207.727,189.875 207.855 L 190.800 208.087 190.800 232.643 C 190.800 249.969,190.673 257.200,190.368 257.200 C 189.970 257.200,186.181 255.473,174.600 250.012 C 172.180 248.871,169.300 247.516,168.200 247.001 C 163.984 245.026,146.795 236.847,142.501 234.773 C 140.027 233.578,138.057 232.434,138.124 232.232 C 138.446 231.254,169.471 209.546,174.543 206.749 C 177.032 205.376,176.218 205.389,183.185 206.611 M222.462 206.957 C 224.091 207.539,229.233 210.527,232.000 212.498 C 232.990 213.204,235.060 214.677,236.600 215.773 C 247.986 223.873,257.600 231.278,257.600 231.948 C 257.600 232.307,256.586 232.806,236.600 242.292 C 227.580 246.574,217.500 251.382,214.200 252.978 C 210.212 254.907,208.101 255.732,207.906 255.440 C 207.282 254.506,207.549 208.395,208.179 208.153 C 211.350 206.936,220.305 206.187,222.462 206.957 M263.537 272.018 C 263.703 296.386,263.455 306.008,262.659 305.989 C 262.407 305.983,259.950 304.356,257.200 302.375 C 254.450 300.393,250.940 297.887,249.400 296.806 C 244.375 293.279,236.128 287.298,225.200 279.258 C 216.805 273.081,215.200 271.812,215.200 271.349 C 215.200 270.657,250.617 253.231,261.600 248.518 C 263.366 247.761,263.371 247.827,263.537 272.018 M151.010 256.843 C 158.925 260.607,167.020 264.458,169.000 265.401 C 180.467 270.862,184.400 272.845,184.400 273.168 C 184.400 273.745,153.213 296.308,144.400 302.107 C 143.850 302.469,141.960 303.750,140.200 304.954 C 138.097 306.393,136.863 307.009,136.600 306.752 C 136.097 306.259,135.773 250.000,136.274 250.000 C 136.464 250.000,143.096 253.079,151.010 256.843 M223.200 298.003 C 244.149 312.942,253.190 319.774,253.197 320.670 C 253.201 321.248,238.642 328.388,214.204 339.790 C 209.733 341.877,208.549 342.027,208.259 340.546 C 207.915 338.787,207.453 288.161,207.777 287.638 C 207.971 287.324,208.656 287.606,209.931 288.525 C 210.959 289.267,216.930 293.532,223.200 298.003 M190.800 317.200 C 190.800 332.160,190.650 344.400,190.466 344.400 C 190.282 344.400,185.287 342.088,179.366 339.261 C 149.870 325.182,145.134 322.831,145.401 322.398 C 145.629 322.029,158.801 312.101,162.675 309.377 C 163.597 308.730,168.907 304.940,174.475 300.954 C 186.489 292.357,189.921 290.000,190.425 290.000 C 190.655 290.000,190.800 300.557,190.800 317.200 " stroke="none" fill="#040404" fill-rule="evenodd"></path><path id="path1" d="M0.000 235.400 L 0.000 470.800 200.000 470.800 L 400.000 470.800 400.000 235.400 L 400.000 0.000 200.000 0.000 L 0.000 0.000 0.000 235.400 M209.031 18.027 C 243.832 21.432,273.808 43.121,287.773 75.000 C 294.699 90.812,296.688 103.449,295.230 122.384 C 294.245 135.184,290.084 148.563,283.488 160.139 C 282.120 162.541,280.685 165.064,280.300 165.747 C 279.637 166.921,279.600 173.703,279.600 292.494 L 279.600 418.000 271.400 418.000 L 263.200 418.000 263.153 379.700 C 263.128 358.635,262.993 340.230,262.853 338.800 C 262.495 335.120,263.706 334.787,244.400 343.878 C 234.047 348.753,220.916 355.015,211.568 359.534 L 208.536 361.000 208.268 393.000 C 208.121 410.600,208.000 431.349,208.000 439.108 L 208.000 453.216 199.300 453.108 L 190.600 453.000 190.400 407.856 L 190.200 362.713 180.200 357.972 C 174.700 355.365,168.040 352.214,165.400 350.969 C 162.760 349.725,159.340 348.104,157.800 347.369 C 145.726 341.599,137.030 337.636,136.847 337.820 C 136.727 337.940,136.555 355.853,136.465 377.627 L 136.302 417.216 128.051 417.108 L 119.800 417.000 119.600 291.000 L 119.400 165.000 116.463 159.206 C 100.841 128.397,100.378 98.789,115.064 69.800 C 132.595 35.197,170.583 14.266,209.031 18.027 M189.000 35.444 C 163.729 39.017,141.495 55.220,129.646 78.698 C 126.866 84.205,124.372 91.167,123.119 96.911 C 121.791 103.005,121.782 121.910,123.105 128.858 C 128.717 158.341,154.056 183.911,183.731 190.037 C 189.864 191.304,210.607 191.295,216.751 190.023 C 245.151 184.145,270.273 159.696,276.599 131.778 C 286.483 88.153,259.911 46.023,216.303 36.179 C 213.498 35.546,192.312 34.975,189.000 35.444 M136.400 197.953 C 136.400 212.826,136.255 212.255,139.504 210.203 C 142.677 208.199,153.040 200.886,155.575 198.862 L 156.550 198.083 154.462 196.942 C 151.299 195.212,145.418 191.330,141.187 188.180 C 139.104 186.630,137.175 185.224,136.900 185.057 C 136.504 184.816,136.400 187.497,136.400 197.953 M259.400 188.065 C 255.630 190.912,251.685 193.533,247.788 195.779 C 241.800 199.231,241.822 199.056,246.905 202.702 C 248.667 203.966,250.966 205.630,252.013 206.400 C 258.649 211.277,262.205 213.555,262.588 213.172 C 263.089 212.672,263.427 185.588,262.932 185.624 C 262.750 185.638,261.160 186.736,259.400 188.065 M174.000 207.486 C 171.077 209.188,164.465 213.609,157.400 218.587 C 144.641 227.575,138.800 231.890,138.800 232.329 C 138.800 232.484,141.005 233.661,143.700 234.943 C 146.395 236.226,150.400 238.149,152.600 239.215 C 163.987 244.737,189.797 256.800,190.222 256.800 C 190.323 256.800,190.360 245.878,190.303 232.529 L 190.200 208.259 184.800 207.317 C 176.114 205.802,176.915 205.789,174.000 207.486 M213.400 207.605 C 210.760 208.028,208.465 208.380,208.300 208.387 C 207.922 208.403,207.900 255.200,208.277 255.200 C 208.430 255.200,212.975 253.108,218.377 250.550 C 223.780 247.993,229.910 245.094,232.000 244.108 C 237.238 241.637,242.143 239.302,247.778 236.598 C 250.406 235.336,253.286 233.984,254.178 233.592 C 258.047 231.892,258.118 231.976,244.000 221.557 C 223.919 206.736,222.596 206.133,213.400 207.605 M258.956 249.986 C 257.660 250.639,253.360 252.686,249.400 254.536 C 239.907 258.970,217.202 270.173,216.256 270.890 C 215.292 271.620,218.196 273.887,243.400 292.082 C 259.546 303.738,262.417 305.716,262.734 305.400 C 263.112 305.023,263.329 263.115,262.994 255.300 C 262.673 247.816,262.837 248.032,258.956 249.986 M136.492 278.167 C 136.551 293.439,136.720 306.053,136.866 306.199 C 137.254 306.587,138.256 305.975,145.290 301.050 C 148.786 298.602,152.689 295.880,153.964 295.000 C 165.020 287.368,184.000 273.604,184.000 273.218 C 184.000 273.075,182.875 272.420,181.500 271.763 C 180.125 271.105,169.820 266.204,158.600 260.871 C 147.380 255.539,137.887 251.001,137.505 250.788 C 137.123 250.574,136.715 250.400,136.597 250.400 C 136.480 250.400,136.433 262.895,136.492 278.167 M208.074 314.139 C 208.174 334.908,208.307 340.407,208.722 340.907 C 209.355 341.668,209.442 341.632,227.000 333.399 C 235.513 329.408,252.496 321.206,252.764 320.957 C 253.355 320.409,246.168 314.884,227.600 301.612 C 224.630 299.489,219.590 295.872,216.400 293.574 C 210.200 289.107,208.569 288.000,208.188 288.000 C 208.056 288.000,208.005 299.762,208.074 314.139 M185.568 293.521 C 177.773 298.846,159.434 312.089,148.900 320.001 C 145.214 322.769,144.907 322.281,152.700 326.048 C 161.525 330.314,170.236 334.510,174.200 336.406 C 175.960 337.248,179.915 339.140,182.989 340.612 C 186.063 342.084,188.988 343.444,189.489 343.634 L 190.400 343.980 190.400 317.190 C 190.400 302.456,190.340 290.400,190.268 290.400 C 190.195 290.400,188.080 291.804,185.568 293.521 " stroke="none" fill="#f3f3f3" fill-rule="evenodd"></path><path id="path2" d="M263.331 191.000 C 263.333 192.540,263.405 193.121,263.492 192.291 C 263.579 191.461,263.577 190.201,263.489 189.491 C 263.400 188.781,263.329 189.460,263.331 191.000 M263.314 205.400 C 263.317 206.500,263.395 206.903,263.487 206.295 C 263.579 205.686,263.577 204.786,263.482 204.295 C 263.387 203.803,263.311 204.300,263.314 205.400 M263.337 267.000 C 263.339 268.760,263.409 269.430,263.493 268.489 C 263.578 267.549,263.577 266.109,263.491 265.289 C 263.405 264.470,263.336 265.240,263.337 267.000 M263.324 290.200 C 263.326 291.520,263.401 292.012,263.490 291.293 C 263.579 290.574,263.577 289.494,263.486 288.893 C 263.395 288.292,263.322 288.880,263.324 290.200 M136.101 292.200 C 136.105 293.080,136.187 293.393,136.283 292.895 C 136.379 292.398,136.375 291.678,136.275 291.295 C 136.175 290.913,136.096 291.320,136.101 292.200 M263.328 350.400 C 263.328 351.830,263.401 352.415,263.489 351.700 C 263.578 350.985,263.578 349.815,263.489 349.100 C 263.401 348.385,263.328 348.970,263.328 350.400 M208.140 380.800 C 208.140 382.670,208.209 383.435,208.293 382.500 C 208.377 381.565,208.377 380.035,208.293 379.100 C 208.209 378.165,208.140 378.930,208.140 380.800 M136.151 398.400 C 136.151 400.930,136.216 401.965,136.296 400.700 C 136.375 399.435,136.375 397.365,136.296 396.100 C 136.216 394.835,136.151 395.870,136.151 398.400 " stroke="none" fill="#7c7c7c" fill-rule="evenodd"></path><path id="path3" d="M193.105 17.883 C 193.602 17.979,194.322 17.975,194.705 17.875 C 195.087 17.775,194.680 17.696,193.800 17.701 C 192.920 17.705,192.607 17.787,193.105 17.883 M204.305 17.883 C 204.802 17.979,205.522 17.975,205.905 17.875 C 206.287 17.775,205.880 17.696,205.000 17.701 C 204.120 17.705,203.807 17.787,204.305 17.883 M197.100 35.097 C 198.695 35.173,201.305 35.173,202.900 35.097 C 204.495 35.021,203.190 34.959,200.000 34.959 C 196.810 34.959,195.505 35.021,197.100 35.097 M134.778 43.500 L 133.400 45.000 134.900 43.622 C 135.725 42.863,136.400 42.188,136.400 42.122 C 136.400 41.816,136.062 42.104,134.778 43.500 M267.400 45.600 C 269.371 47.580,271.073 49.200,271.183 49.200 C 271.293 49.200,269.771 47.580,267.800 45.600 C 265.829 43.620,264.127 42.000,264.017 42.000 C 263.907 42.000,265.429 43.620,267.400 45.600 M130.786 47.500 L 128.600 49.800 130.900 47.614 C 132.165 46.411,133.200 45.376,133.200 45.314 C 133.200 45.017,132.818 45.363,130.786 47.500 M253.183 55.300 C 254.164 56.345,255.019 57.200,255.083 57.200 C 255.384 57.200,255.066 56.841,253.300 55.183 L 251.400 53.400 253.183 55.300 M144.000 58.200 C 142.361 59.850,141.110 61.200,141.220 61.200 C 141.330 61.200,142.761 59.850,144.400 58.200 C 146.039 56.550,147.290 55.200,147.180 55.200 C 147.070 55.200,145.639 56.550,144.000 58.200 M257.583 59.700 C 258.564 60.745,259.419 61.600,259.483 61.600 C 259.784 61.600,259.466 61.241,257.700 59.583 L 255.800 57.800 257.583 59.700 M278.093 103.600 C 278.093 104.370,278.175 104.685,278.276 104.300 C 278.376 103.915,278.376 103.285,278.276 102.900 C 278.175 102.515,278.093 102.830,278.093 103.600 M295.301 104.600 C 295.305 105.480,295.387 105.793,295.483 105.295 C 295.579 104.798,295.575 104.078,295.475 103.695 C 295.375 103.313,295.296 103.720,295.301 104.600 M104.493 107.600 C 104.493 108.370,104.575 108.685,104.676 108.300 C 104.776 107.915,104.776 107.285,104.676 106.900 C 104.575 106.515,104.493 106.830,104.493 107.600 M278.563 113.200 C 278.563 116.830,278.623 118.315,278.698 116.500 C 278.772 114.685,278.772 111.715,278.698 109.900 C 278.623 108.085,278.563 109.570,278.563 113.200 M121.751 112.400 C 121.751 114.930,121.816 115.965,121.896 114.700 C 121.975 113.435,121.975 111.365,121.896 110.100 C 121.816 108.835,121.751 109.870,121.751 112.400 M295.309 118.400 C 295.309 119.390,295.387 119.795,295.482 119.300 C 295.578 118.805,295.578 117.995,295.482 117.500 C 295.387 117.005,295.309 117.410,295.309 118.400 M278.093 122.800 C 278.093 123.570,278.175 123.885,278.276 123.500 C 278.376 123.115,278.376 122.485,278.276 122.100 C 278.175 121.715,278.093 122.030,278.093 122.800 M270.600 148.000 C 270.259 148.660,270.069 149.200,270.179 149.200 C 270.289 149.200,270.659 148.660,271.000 148.000 C 271.341 147.340,271.531 146.800,271.421 146.800 C 271.311 146.800,270.941 147.340,270.600 148.000 M141.600 165.800 C 142.346 166.570,143.047 167.200,143.157 167.200 C 143.267 167.200,142.746 166.570,142.000 165.800 C 141.254 165.030,140.553 164.400,140.443 164.400 C 140.333 164.400,140.854 165.030,141.600 165.800 M257.781 166.500 L 256.200 168.200 257.900 166.619 C 259.481 165.148,259.784 164.800,259.481 164.800 C 259.416 164.800,258.651 165.565,257.781 166.500 M119.797 291.200 C 119.797 360.390,119.844 388.695,119.900 354.100 C 119.956 319.505,119.956 262.895,119.900 228.300 C 119.844 193.705,119.797 222.010,119.797 291.200 M253.578 170.700 L 252.200 172.200 253.700 170.822 C 255.096 169.538,255.384 169.200,255.078 169.200 C 255.012 169.200,254.337 169.875,253.578 170.700 M146.800 171.000 C 147.546 171.770,148.247 172.400,148.357 172.400 C 148.467 172.400,147.946 171.770,147.200 171.000 C 146.454 170.230,145.753 169.600,145.643 169.600 C 145.533 169.600,146.054 170.230,146.800 171.000 M136.174 194.400 C 136.174 200.010,136.230 202.305,136.299 199.500 C 136.368 196.695,136.368 192.105,136.299 189.300 C 136.230 186.495,136.174 188.790,136.174 194.400 M191.100 191.095 C 192.255 191.176,194.145 191.176,195.300 191.095 C 196.455 191.014,195.510 190.948,193.200 190.948 C 190.890 190.948,189.945 191.014,191.100 191.095 M205.513 191.095 C 206.676 191.176,208.476 191.176,209.513 191.093 C 210.551 191.011,209.600 190.945,207.400 190.946 C 205.200 190.947,204.351 191.014,205.513 191.095 M263.355 198.600 C 263.356 201.460,263.420 202.578,263.497 201.083 C 263.574 199.589,263.574 197.249,263.496 195.883 C 263.418 194.518,263.355 195.740,263.355 198.600 M190.200 232.638 C 190.200 246.147,190.335 257.200,190.500 257.200 C 190.665 257.200,190.800 246.231,190.800 232.824 C 190.800 219.417,190.665 208.364,190.500 208.262 C 190.335 208.160,190.200 219.129,190.200 232.638 M262.893 211.600 C 262.893 212.370,262.975 212.685,263.076 212.300 C 263.176 211.915,263.176 211.285,263.076 210.900 C 262.975 210.515,262.893 210.830,262.893 211.600 M262.934 252.400 C 262.934 254.050,263.005 254.725,263.091 253.900 C 263.178 253.075,263.178 251.725,263.091 250.900 C 263.005 250.075,262.934 250.750,262.934 252.400 M136.090 270.500 C 136.140 281.775,136.230 287.760,136.289 283.800 C 136.568 265.329,136.573 250.000,136.300 250.000 C 136.135 250.000,136.041 259.225,136.090 270.500 M188.000 256.200 C 188.550 256.514,189.180 256.772,189.400 256.772 C 189.620 256.772,189.350 256.514,188.800 256.200 C 188.250 255.886,187.620 255.628,187.400 255.628 C 187.180 255.628,187.450 255.886,188.000 256.200 M216.013 270.709 L 215.137 271.419 216.068 272.209 L 217.000 273.000 216.289 272.156 C 215.602 271.341,215.608 271.291,216.489 270.677 C 216.990 270.328,217.285 270.033,217.144 270.021 C 217.004 270.009,216.494 270.319,216.013 270.709 M263.372 279.000 C 263.372 284.060,263.429 286.075,263.499 283.477 C 263.569 280.880,263.568 276.740,263.498 274.277 C 263.428 271.815,263.371 273.940,263.372 279.000 M190.589 317.400 C 190.589 332.140,190.639 338.112,190.700 330.671 C 190.761 323.230,190.761 311.170,190.700 303.871 C 190.639 296.572,190.589 302.660,190.589 317.400 M262.739 304.000 C 262.662 305.100,262.735 306.000,262.900 306.000 C 263.065 306.000,263.200 305.100,263.200 304.000 C 263.200 301.419,262.917 301.420,262.739 304.000 M245.900 324.229 C 244.405 325.040,244.496 325.378,246.000 324.600 C 246.660 324.259,247.200 323.894,247.200 323.790 C 247.200 323.532,247.157 323.547,245.900 324.229 M136.564 344.200 C 136.563 347.940,136.623 349.524,136.697 347.720 C 136.771 345.915,136.772 342.855,136.698 340.920 C 136.625 338.984,136.564 340.460,136.564 344.200 M262.909 339.200 C 262.909 340.190,262.987 340.595,263.082 340.100 C 263.178 339.605,263.178 338.795,263.082 338.300 C 262.987 337.805,262.909 338.210,262.909 339.200 M263.391 385.400 C 263.391 403.440,263.440 410.762,263.500 401.670 C 263.560 392.579,263.560 377.819,263.500 368.870 C 263.440 359.922,263.391 367.360,263.391 385.400 M219.600 355.400 C 218.610 355.930,217.942 356.372,218.116 356.382 C 218.541 356.406,221.600 354.834,221.600 354.592 C 221.600 354.327,221.617 354.320,219.600 355.400 M190.400 407.720 L 190.600 453.000 190.702 408.022 C 190.758 383.284,190.668 362.908,190.502 362.742 C 190.336 362.576,190.290 382.816,190.400 407.720 M208.173 393.800 C 208.173 399.300,208.230 401.605,208.299 398.923 C 208.368 396.241,208.368 391.741,208.299 388.923 C 208.230 386.105,208.174 388.300,208.173 393.800 M136.166 410.000 C 136.166 414.070,136.225 415.735,136.298 413.700 C 136.371 411.665,136.371 408.335,136.298 406.300 C 136.225 404.265,136.166 405.930,136.166 410.000 " stroke="none" fill="#9b9b9b" fill-rule="evenodd"></path><path id="path4" d="M198.307 17.890 C 199.026 17.979,200.106 17.977,200.707 17.886 C 201.308 17.795,200.720 17.722,199.400 17.724 C 198.080 17.726,197.588 17.801,198.307 17.890 M191.905 18.283 C 192.402 18.379,193.122 18.375,193.505 18.275 C 193.887 18.175,193.480 18.096,192.600 18.101 C 191.720 18.105,191.407 18.187,191.905 18.283 M206.100 18.276 C 206.485 18.376,207.115 18.376,207.500 18.276 C 207.885 18.175,207.570 18.093,206.800 18.093 C 206.030 18.093,205.715 18.175,206.100 18.276 M199.100 34.682 C 199.595 34.778,200.405 34.778,200.900 34.682 C 201.395 34.587,200.990 34.509,200.000 34.509 C 199.010 34.509,198.605 34.587,199.100 34.682 M191.905 35.083 C 192.402 35.179,193.122 35.175,193.505 35.075 C 193.887 34.975,193.480 34.896,192.600 34.901 C 191.720 34.905,191.407 34.987,191.905 35.083 M207.105 35.083 C 207.602 35.179,208.322 35.175,208.705 35.075 C 209.087 34.975,208.680 34.896,207.800 34.901 C 206.920 34.905,206.607 34.987,207.105 35.083 M263.200 41.725 C 263.200 41.794,263.785 42.379,264.500 43.025 L 265.800 44.200 264.625 42.900 C 263.530 41.688,263.200 41.416,263.200 41.725 M270.400 49.000 C 271.146 49.770,271.847 50.400,271.957 50.400 C 272.067 50.400,271.546 49.770,270.800 49.000 C 270.054 48.230,269.353 47.600,269.243 47.600 C 269.133 47.600,269.654 48.230,270.400 49.000 M255.600 57.400 C 257.017 58.830,258.267 60.000,258.377 60.000 C 258.487 60.000,257.417 58.830,256.000 57.400 C 254.583 55.970,253.333 54.800,253.223 54.800 C 253.113 54.800,254.183 55.970,255.600 57.400 M144.175 57.700 L 143.000 59.000 144.300 57.825 C 145.512 56.730,145.784 56.400,145.475 56.400 C 145.406 56.400,144.821 56.985,144.175 57.700 M121.701 105.000 C 121.705 105.880,121.787 106.193,121.883 105.695 C 121.979 105.198,121.975 104.478,121.875 104.095 C 121.775 103.713,121.696 104.120,121.701 105.000 M104.893 105.200 C 104.893 105.970,104.975 106.285,105.076 105.900 C 105.176 105.515,105.176 104.885,105.076 104.500 C 104.975 104.115,104.893 104.430,104.893 105.200 M295.350 111.400 C 295.351 113.820,295.416 114.758,295.496 113.485 C 295.576 112.212,295.575 110.232,295.494 109.085 C 295.414 107.938,295.349 108.980,295.350 111.400 M104.542 113.000 C 104.541 114.980,104.608 115.840,104.692 114.912 C 104.776 113.984,104.777 112.364,104.695 111.312 C 104.612 110.260,104.543 111.020,104.542 113.000 M121.709 120.400 C 121.709 121.390,121.787 121.795,121.882 121.300 C 121.978 120.805,121.978 119.995,121.882 119.500 C 121.787 119.005,121.709 119.410,121.709 120.400 M104.893 120.800 C 104.893 121.570,104.975 121.885,105.076 121.500 C 105.176 121.115,105.176 120.485,105.076 120.100 C 104.975 119.715,104.893 120.030,104.893 120.800 M122.093 124.800 C 122.093 125.570,122.175 125.885,122.276 125.500 C 122.376 125.115,122.376 124.485,122.276 124.100 C 122.175 123.715,122.093 124.030,122.093 124.800 M143.800 168.400 C 145.328 169.940,146.669 171.200,146.779 171.200 C 146.889 171.200,145.728 169.940,144.200 168.400 C 142.672 166.860,141.331 165.600,141.221 165.600 C 141.111 165.600,142.272 166.860,143.800 168.400 M263.309 186.800 C 263.309 187.790,263.387 188.195,263.482 187.700 C 263.578 187.205,263.578 186.395,263.482 185.900 C 263.387 185.405,263.309 185.810,263.309 186.800 M195.678 191.498 C 198.031 191.569,201.991 191.569,204.478 191.499 C 206.965 191.429,205.040 191.371,200.200 191.370 C 195.360 191.370,193.325 191.428,195.678 191.498 M136.109 207.200 C 136.109 208.190,136.187 208.595,136.282 208.100 C 136.378 207.605,136.378 206.795,136.282 206.300 C 136.187 205.805,136.109 206.210,136.109 207.200 M218.100 206.687 C 218.705 206.778,219.695 206.778,220.300 206.687 C 220.905 206.595,220.410 206.520,219.200 206.520 C 217.990 206.520,217.495 206.595,218.100 206.687 M263.301 208.600 C 263.305 209.480,263.387 209.793,263.483 209.295 C 263.579 208.798,263.575 208.078,263.475 207.695 C 263.375 207.313,263.296 207.720,263.301 208.600 M207.784 208.500 C 207.678 208.775,207.639 219.440,207.696 232.200 L 207.800 255.400 208.000 231.700 C 208.110 218.665,208.149 208.000,208.087 208.000 C 208.026 208.000,207.889 208.225,207.784 208.500 M263.348 260.000 C 263.348 262.310,263.414 263.255,263.495 262.100 C 263.576 260.945,263.576 259.055,263.495 257.900 C 263.414 256.745,263.348 257.690,263.348 260.000 M207.782 287.703 C 207.676 287.979,207.637 294.324,207.695 301.803 L 207.801 315.400 208.000 301.300 C 208.110 293.545,208.149 287.200,208.087 287.200 C 208.026 287.200,207.888 287.426,207.782 287.703 M263.350 296.600 C 263.351 299.020,263.416 299.958,263.496 298.685 C 263.576 297.412,263.575 295.432,263.494 294.285 C 263.414 293.138,263.349 294.180,263.350 296.600 M136.142 297.000 C 136.141 298.980,136.208 299.840,136.292 298.912 C 136.376 297.984,136.377 296.364,136.295 295.312 C 136.212 294.260,136.143 295.020,136.142 297.000 M263.340 344.800 C 263.340 346.670,263.409 347.435,263.493 346.500 C 263.577 345.565,263.577 344.035,263.493 343.100 C 263.409 342.165,263.340 342.930,263.340 344.800 M208.169 369.400 C 208.170 374.020,208.228 375.855,208.299 373.478 C 208.370 371.101,208.369 367.321,208.298 365.078 C 208.227 362.835,208.169 364.780,208.169 369.400 M136.177 382.600 C 136.177 388.980,136.232 391.534,136.299 388.276 C 136.367 385.017,136.366 379.797,136.299 376.676 C 136.231 373.554,136.176 376.220,136.177 382.600 M207.600 452.125 C 207.600 452.712,206.692 452.797,199.300 452.900 L 191.000 453.017 199.313 453.109 C 207.593 453.200,209.089 452.956,207.849 451.716 C 207.712 451.579,207.600 451.763,207.600 452.125 " stroke="none" fill="#747474" fill-rule="evenodd"></path></g></svg>